<svg xmlns="http://www.w3.org/2000/svg" xmlns:svg="http://www.w3.org/2000/svg" id="svg4946" width="82" height="20" version="1.1"><defs id="defs4948"><clipPath id="clipPath5512"><rect id="rect5514" width="10" height="18" x="-471.965" y="537.568" fill="#000" fill-opacity="1" fill-rule="nonzero" stroke="none" stroke-width="1.166" color="#000" display="inline" enable-background="accumulate" overflow="visible" transform="scale(-1,1)" visibility="visible" style="marker:none"/></clipPath></defs><metadata id="metadata4951"/><g id="layer1" transform="translate(-461.96533,-535.56763)"><g id="g5530" clip-path="url(#clipPath5512)" transform="matrix(-1.0174827,0,0,1,943.18189,-0.99999695)"><path id="path5534" fill="#fff" fill-opacity="1" fill-rule="nonzero" stroke="#e6e6e6" stroke-opacity="1" stroke-width=".991" d="m 475.17752,537.54304 c 0,0 0,-2.4 -1.6976,-0.7032 l -8.1312,8.1256 c 0,0 -1.6976,1.6968 0,3.3928 l 8.128,8.1224 c 0,0 1.6976,1.6968 1.6976,-0.7032 l 0.003,-18.2344 z"/></g><g id="g5536" clip-path="url(#clipPath5512)" transform="matrix(0,-1.0174827,-1,0,1039.533,1016.7842)"><path id="path5540" fill="#fff" fill-opacity="1" fill-rule="nonzero" stroke="#e6e6e6" stroke-opacity="1" stroke-width=".991" d="m 475.17752,537.54304 c 0,0 0,-2.4 -1.6976,-0.7032 l -8.1312,8.1256 c 0,0 -1.6976,1.6968 0,3.3928 l 8.128,8.1224 c 0,0 1.6976,1.6968 1.6976,-0.7032 l 0.003,-18.2344 z"/></g><g id="g5542" clip-path="url(#clipPath5512)" transform="matrix(0,1.0174827,-1,0,1059.533,74.35107)"><path id="path5546" fill="#fff" fill-opacity="1" fill-rule="nonzero" stroke="#e6e6e6" stroke-opacity="1" stroke-width=".991" d="m 475.17752,537.54304 c 0,0 0,-2.4 -1.6976,-0.7032 l -8.1312,8.1256 c 0,0 -1.6976,1.6968 0,3.3928 l 8.128,8.1224 c 0,0 1.6976,1.6968 1.6976,-0.7032 l 0.003,-18.2344 z"/></g><g id="g5548" clip-path="url(#clipPath5512)" transform="matrix(1.0174868,0,0,1,62.746829,-0.99999695)"><path id="path5552" fill="#fff" fill-opacity="1" fill-rule="nonzero" stroke="#e6e6e6" stroke-opacity="1" stroke-width=".991" d="m 475.17752,537.54304 c 0,0 0,-2.4 -1.6976,-0.7032 l -8.1312,8.1256 c 0,0 -1.6976,1.6968 0,3.3928 l 8.128,8.1224 c 0,0 1.6976,1.6968 1.6976,-0.7032 l 0.003,-18.2344 z"/></g></g></svg>