<svg xmlns="http://www.w3.org/2000/svg" xmlns:svg="http://www.w3.org/2000/svg" xmlns:xlink="http://www.w3.org/1999/xlink" id="svg3681" width="82.332" height="141.141" version="1.1"><defs id="defs3683"><linearGradient id="linearGradient5798"><stop id="stop5800" offset="0" stop-color="#828282" stop-opacity="1"/><stop id="stop5802" offset="1" stop-color="#797979" stop-opacity="1"/></linearGradient><linearGradient id="linearGradient5790"><stop id="stop5792" offset="0" stop-color="#85bb30" stop-opacity="1"/><stop id="stop5794" offset="1" stop-color="#94c449" stop-opacity="1"/></linearGradient><clipPath id="clipPath562"><path id="path564" d="m 0,0 1600,0 0,1200 L 0,1200 0,0 z"/></clipPath><mask id="mask580"><g id="g582"><g id="g584" clip-path="url(#clipPath570)"><g id="g586"><g id="g588"><path id="path590" fill="url(#linearGradient574)" stroke="none" d="m -32560.3,32767 65327.3,0 0,-64502.2 -65327.3,0 0,64502.2 z"/></g></g></g></g></mask><clipPath id="clipPath570"><path id="path572" d="m -32560.3,32767 65327.3,0 0,-64502.2 -65327.3,0 0,64502.2 z"/></clipPath><linearGradient id="linearGradient574" x1="0" x2="1" y1="0" y2="0" gradientTransform="matrix(0,141.1405,141.1405,0,564.87585,460)" gradientUnits="userSpaceOnUse" spreadMethod="pad"><stop id="stop576" offset="0" stop-color="#fff" stop-opacity="1"/><stop id="stop578" offset="1" stop-color="#fff" stop-opacity=".8"/></linearGradient><clipPath id="clipPath596"><path id="path598" d="m 581.518,513.928 49.047,0 0,-54.928 -49.047,0 0,54.928 z"/></clipPath><mask id="mask622"><g id="g624"><g id="g626" clip-path="url(#clipPath612)"><g id="g628"><g id="g630"><path id="path632" fill="url(#linearGradient616)" stroke="none" d="m -32560.3,32767 65327.3,0 0,-64502.2 -65327.3,0 0,64502.2 z"/></g></g></g></g></mask><clipPath id="clipPath612"><path id="path614" d="m -32560.3,32767 65327.3,0 0,-64502.2 -65327.3,0 0,64502.2 z"/></clipPath><linearGradient id="linearGradient616" x1="0" x2="1" y1="0" y2="0" gradientTransform="matrix(0,141.1405,141.1405,0,564.87585,460)" gradientUnits="userSpaceOnUse" spreadMethod="pad"><stop id="stop618" offset="0" stop-color="#fff" stop-opacity="1"/><stop id="stop620" offset="1" stop-color="#fff" stop-opacity=".8"/></linearGradient><clipPath id="clipPath638"><path id="path640" d="m 563.876,602.141 84.331,0 0,-84.333 -84.331,0 0,84.333 z"/></clipPath><linearGradient id="linearGradient5796" x1="40.468" x2="40.468" y1="80.122" y2="4.087" gradientUnits="userSpaceOnUse" xlink:href="#linearGradient5790"/><linearGradient id="linearGradient5804" x1="40.767" x2="40.767" y1="88.933" y2="135.609" gradientUnits="userSpaceOnUse" xlink:href="#linearGradient5798"/></defs><metadata id="metadata3686"/><path id="path606" fill="url(#linearGradient5804)" fill-opacity="1" fill-rule="nonzero" stroke="none" d="m 55.8679,88.213 8.821,0 0,52.928 -23.277,-17.643 -23.77,17.643 0,-52.928 8.603,0 c 4.882,3.417 8.121,5.881 14.921,5.881 5.731,0 11.055,-2.435 14.702,-5.881"/><path id="path648" fill="url(#linearGradient5796)" fill-opacity="1" fill-rule="nonzero" stroke="none" d="m 81.895,48.678 c 0.299,0.862 0.437,1.743 0.437,2.616 0,2.642 -1.304,5.195 -3.618,6.8 -7.386,5.117 -6.41,3.831 -9.19,12.155 -1.165,3.474 -4.525,5.823 -8.316,5.823 l -0.022,0 c -9.109,-0.031 -7.523,-0.52 -14.869,4.641 -1.533,1.079 -3.342,1.619 -5.151,1.619 -1.809,0 -3.618,-0.54 -5.152,-1.619 -7.345,-5.163 -5.766,-4.672 -14.868,-4.641 l -0.023,0 c -3.79,0 -7.15,-2.349 -8.311,-5.823 C 10.033,61.913 10.986,63.205 3.624,58.094 1.304,56.486 0,53.933 0,51.292 0,50.418 0.143,49.54 0.436,48.678 3.279,40.382 3.284,41.982 0.436,33.652 0.143,32.79 0,31.909 0,31.039 c 0,-2.645 1.304,-5.195 3.624,-6.803 7.357,-5.106 6.403,-3.813 9.188,-12.155 1.161,-3.475 4.52,-5.824 8.311,-5.824 l 0.023,0 C 30.231,6.289 28.617,6.815 36.014,1.614 37.548,0.537 39.357,0 41.166,0 c 1.809,0 3.618,0.537 5.151,1.614 7.346,5.163 5.766,4.675 14.869,4.643 l 0.022,0 c 3.791,0 7.151,2.349 8.316,5.824 2.78,8.325 1.804,7.038 9.19,12.155 2.314,1.605 3.618,4.155 3.618,6.797 0,0.873 -0.138,1.757 -0.437,2.619 -2.837,8.292 -2.848,6.695 0,15.026 M 61.748,32.224 55.374,25.852 36.02,45.691 26.954,37.097 20.582,43.469 36.019,58.438 61.748,32.224 z"/></svg>