<svg xmlns="http://www.w3.org/2000/svg" xmlns:svg="http://www.w3.org/2000/svg" xmlns:xlink="http://www.w3.org/1999/xlink" id="svg3692" width="115.51" height="115.509" version="1.1"><defs id="defs3694"><linearGradient id="linearGradient4794"><stop id="stop4796" offset="0" stop-color="#787878" stop-opacity="1"/><stop id="stop4798" offset="1" stop-color="#929292" stop-opacity="1"/></linearGradient><clipPath id="clipPath516"><path id="path518" d="m 0,0 1600,0 0,1200 L 0,1200 0,0 z"/></clipPath><mask id="mask534"><g id="g536"><g id="g538" clip-path="url(#clipPath524)"><g id="g540"><g id="g542"><path id="path544" fill="url(#linearGradient528)" stroke="none" d="m -32302,32767 65069,0 0,-64781.2 -65069,0 0,64781.2 z"/></g></g></g></g></mask><clipPath id="clipPath524"><path id="path526" d="m -32302,32767 65069,0 0,-64781.2 -65069,0 0,64781.2 z"/></clipPath><linearGradient id="linearGradient528" x1="0" x2="1" y1="0" y2="0" gradientTransform="matrix(0,115.5098,115.5098,0,548.28671,554.74515)" gradientUnits="userSpaceOnUse" spreadMethod="pad"><stop id="stop530" offset="0" stop-color="#fff" stop-opacity="1"/><stop id="stop532" offset="1" stop-color="#fff" stop-opacity=".8"/></linearGradient><clipPath id="clipPath550"><path id="path552" d="m 547.287,671.255 117.51,0 0,-117.51 -117.51,0 0,117.51 z"/></clipPath><mask id="mask574"><g id="g576"><g id="g578" clip-path="url(#clipPath564)"><g id="g580"><g id="g582"><path id="path584" fill="url(#linearGradient568)" stroke="none" d="m -32302,32767 65069,0 0,-64781.2 -65069,0 0,64781.2 z"/></g></g></g></g></mask><clipPath id="clipPath564"><path id="path566" d="m -32302,32767 65069,0 0,-64781.2 -65069,0 0,64781.2 z"/></clipPath><linearGradient id="linearGradient568" x1="0" x2="1" y1="0" y2="0" gradientTransform="matrix(0,115.5098,115.5098,0,548.28671,554.74515)" gradientUnits="userSpaceOnUse" spreadMethod="pad"><stop id="stop570" offset="0" stop-color="#fff" stop-opacity="1"/><stop id="stop572" offset="1" stop-color="#fff" stop-opacity=".8"/></linearGradient><clipPath id="clipPath590"><path id="path592" d="m 590.603,623.124 30.877,0 0,-30.876 -30.877,0 0,30.876 z"/></clipPath><mask id="mask616"><g id="g618"><g id="g620" clip-path="url(#clipPath606)"><g id="g622"><g id="g624"><path id="path626" fill="url(#linearGradient610)" stroke="none" d="m -32302,32767 65069,0 0,-64781.2 -65069,0 0,64781.2 z"/></g></g></g></g></mask><clipPath id="clipPath606"><path id="path608" d="m -32302,32767 65069,0 0,-64781.2 -65069,0 0,64781.2 z"/></clipPath><linearGradient id="linearGradient610" x1="0" x2="1" y1="0" y2="0" gradientTransform="matrix(0,115.5098,115.5098,0,548.28671,554.74515)" gradientUnits="userSpaceOnUse" spreadMethod="pad"><stop id="stop612" offset="0" stop-color="#fff" stop-opacity="1"/><stop id="stop614" offset="1" stop-color="#fff" stop-opacity=".8"/></linearGradient><clipPath id="clipPath632"><path id="path634" d="m 571.351,589.435 69.381,0 0,-16.438 -69.381,0 0,16.438 z"/></clipPath><linearGradient id="linearGradient4800" x1="57.756" x2="57.756" y1="115.548" y2="3.916" gradientUnits="userSpaceOnUse" xlink:href="#linearGradient4794"/></defs><metadata id="metadata3697"/><path id="path558" fill="url(#linearGradient4800)" fill-opacity="1" fill-rule="nonzero" stroke="none" d="m 105.884,105.88401 -96.258,0 0,-67.381 96.258,0 0,67.381 z m 9.626,-77.007 -115.51,0 0,86.632 115.51,0 0,-86.632 z M 57.755,1e-5 c -3.986,0 -7.22,3.231 -7.22,7.219 0,3.989 3.234,7.22 7.22,7.22 3.985,0 7.219,-3.231 7.219,-7.22 0,-3.988 -3.234,-7.219 -7.219,-7.219 m -22.815,24.065 13.334,-9.523 c -0.991,-1.285 -1.734,-2.761 -2.147,-4.38 l -19.464,13.903 8.277,0 z m 53.906,0 -19.463,-13.903 c -0.414,1.619 -1.157,3.095 -2.149,4.38 l 13.335,9.523 8.277,0 z"/><path id="path600" fill="#7ab51d" fill-opacity="1" fill-rule="nonzero" stroke="none" d="m 72.0427,65.19991 c 0.104,0.306 0.151,0.616 0.151,0.921 0,0.931 -0.461,1.824 -1.269,2.388 -2.59,1.791 -2.247,1.339 -3.225,4.258 -0.404,1.223 -1.588,2.045 -2.914,2.045 l -0.009,0 c -3.196,-0.009 -2.642,-0.183 -5.213,1.631 -0.54,0.376 -1.174,0.564 -1.809,0.564 -0.635,0 -1.269,-0.188 -1.81,-0.564 -2.571,-1.815 -2.016,-1.641 -5.212,-1.631 l -0.01,0 c -1.325,0 -2.509,-0.822 -2.914,-2.045 -0.977,-2.918 -0.639,-2.467 -3.219,-4.258 -0.813,-0.564 -1.274,-1.457 -1.274,-2.388 0,-0.305 0.047,-0.615 0.15,-0.921 0.997,-2.904 1.002,-2.345 0,-5.264 -0.103,-0.303 -0.15,-0.613 -0.15,-0.917 0,-0.93 0.461,-1.826 1.274,-2.39 2.58,-1.79 2.242,-1.334 3.219,-4.26 0.405,-1.218 1.589,-2.043 2.914,-2.043 l 0.01,0 c 3.186,0.01 2.618,0.196 5.212,-1.628 0.541,-0.381 1.175,-0.567 1.81,-0.567 0.635,0 1.269,0.186 1.809,0.567 2.571,1.812 2.017,1.638 5.213,1.628 l 0.009,0 c 1.326,0 2.51,0.825 2.914,2.043 0.978,2.921 0.635,2.47 3.225,4.26 0.808,0.564 1.269,1.46 1.269,2.385 0,0.308 -0.047,0.619 -0.151,0.922 -0.996,2.904 -1.001,2.347 0,5.264 m -7.069,-5.765 -2.237,-2.235 -6.787,6.957 -3.177,-3.016 -2.237,2.236 5.414,5.254 9.024,-9.196 z"/><path id="path640" fill="#787878" fill-opacity="1" fill-rule="nonzero" stroke="none" d="m 91.445,81.82001 -67.381,0 0,4.813 67.381,0 0,-4.813 z m 0,9.625 -67.381,0 0,4.813 67.381,0 0,-4.813 z"/></svg>