<svg xmlns="http://www.w3.org/2000/svg" xmlns:svg="http://www.w3.org/2000/svg" id="svg4379" width="155" height="165" version="1.1" viewBox="0 0 155 165"><defs id="defs4381"><clipPath id="clipPath2418-0"><path id="path2420-4" d="M 0,144 432,144 432,0 0,0 0,144 Z"/></clipPath></defs><metadata id="metadata4384"/><g id="layer1" transform="translate(-327.17383,-237.44336)"><path color="#000" style="isolation:auto;mix-blend-mode:normal;solid-color:#000;solid-opacity:1;marker:none" id="rect4973" fill="#fff" fill-opacity="1" fill-rule="nonzero" stroke="none" stroke-dasharray="none" stroke-dashoffset="0" stroke-linecap="butt" stroke-linejoin="miter" stroke-miterlimit="4" stroke-opacity="1" stroke-width="11.777" d="m 0,0 0,20.759766 c 1.75809,-4.59914 6.11378,-8.031171 11.0625,-8.431641 0.55587,-0.045 1.085084,-0.139941 1.177734,-0.212891 0.0926,-0.073 0.167969,-0.391501 0.167969,-0.707031 0,-0.8993 0.39048,-2.724728 0.818359,-3.830078 0.611511,-1.57972 1.535302,-3.0245312 2.732422,-4.2695312 C 17.445844,1.7621937 18.997532,0.70853 20.826172,0 Z M 147.39453,0 C 150.87537,1.36304 153.61358,4.1091463 155,7.6289062 L 155,0 Z" clip-rule="nonzero" color-interpolation="sRGB" color-interpolation-filters="linearRGB" color-rendering="auto" display="inline" enable-background="accumulate" image-rendering="auto" opacity="1" overflow="visible" shape-rendering="auto" text-rendering="auto" transform="translate(327.17383,237.44336)" visibility="visible"/><path id="path4156" fill="#fff" fill-opacity="1" fill-rule="nonzero" stroke="none" stroke-dasharray="none" stroke-dashoffset="0" stroke-linecap="butt" stroke-linejoin="miter" stroke-miterlimit="4" stroke-opacity="1" stroke-width="11.777" d="m 482.17383,380.68359 c -1.75809,4.59914 -6.11378,8.03117 -11.0625,8.43165 -0.55587,0.045 -1.08508,0.13994 -1.17773,0.21289 -0.0926,0.073 -0.16797,0.3915 -0.16797,0.70703 0,0.8993 -0.39048,2.72473 -0.81836,3.83008 -0.61151,1.57972 -1.5353,3.02453 -2.73242,4.26953 -1.48686,1.5464 -3.03855,2.60006 -4.86719,3.30859 l -126.56836,0 c -3.48084,-1.36304 -6.21905,-4.10915 -7.60547,-7.62891 l 0,7.62891 0,5 155,0 0,-5 0,-20.75977 z" clip-rule="nonzero" color="#000" color-interpolation="sRGB" color-interpolation-filters="linearRGB" color-rendering="auto" display="inline" enable-background="accumulate" image-rendering="auto" opacity="1" overflow="visible" shape-rendering="auto" text-rendering="auto" visibility="visible" style="isolation:auto;mix-blend-mode:normal;solid-color:#000;solid-opacity:1;marker:none"/></g></svg>