<svg xmlns="http://www.w3.org/2000/svg" xmlns:svg="http://www.w3.org/2000/svg" id="svg2985" width="527.719" height="320.375" content="%3Cmxfile%20userAgent%3D%22Mozilla%2F5.0%20(X11%3B%20Linux%20x86_64)%20AppleWebKit%2F537.36%20(KHTML%2C%20like%20Gecko)%20Chrome%2F47.0.2508.0%20Safari%2F537.36%22%20type%3D%22device%22%3E%3Cdiagram%3E7Vrtb6M4E%2F9rIt1zUiMIzdvHpOnTPWlXqtSt9u5T5AQnoAXMgdNN76%2FfMXjA2JBXru3qyIeEjD3jwfP280DPuQv3DwmJvS%2FMpUFvYLn7nrPoDQb21LHgR1Bec8pwOs4J28R35aSS8OT%2FQyVR8m13vkvTykTOWMD9uEpcsyiia16hbVhQXSImWxRfEp7WJDCp33yXezl1MhiV9E%2FU33q4jD2a5iMpf0UZLt2QXcBvMhKMieGQoKzsrpx72LGEMRAjrsL9HQ3EruGG5Lf%2B%2F4bRQsmERlKRwwxSiRcS7KSOszVniaF56pFYXO7CIJ%2FgzF9own3Yn89kRYNHlvrcZxFMWTHOWahMmAX%2BVgxwFgPV42EAf2y4lGvDNIo%2BYeqfkaTyD5SFlCevMAUZpCtID7LRpX6UJkKSp1hnJGlEOsq2EFzuFVzI7arfOml4Zes2CYs4jVygPv%2FRG4wCWG3u%2Bi9wuRWXv5FMwPPdE3wnLKDp%2F3AWLKZMrOFF0gpsU6V0rB3rEVYtmJUQjJkf8SwIhvPecCEoNPEhFiiE%2BIIl3GNbFpHgsaS2Era31bjFeFTCFiNbDdsilq%2BJW1ljlLj99PXrI1CAMaEp5Yf2S89pRbKDsJ8lCfshaAFbf89IoNmfQLDwz1%2F4Z%2B9zMSAkiuuM3ne0jxxUtj5jztWjrlauOEm2oLuamgx7wF2xXbKWjFnubzTRjdW%2FHY0lmzQTSkloQLj%2FUlWgziZS%2BqPwslK0Znz8iwJyHSVPaVfYXiL0w2nSdRtXmdS6WOkkuTyNF%2BtIVSO22aBfqE5WbNpJfjdp8Dsjrn%2BXcGKJY2lMoopHjv7eCYAwD%2FyI3mCAzGCK3YclcBTlpeCbSxoSX2gjanuRJHLBF6adK7Uq7jJTLw3BkrlyJBQwIVql4uejKRuxJaBJTgBNioShK1tDOkv%2F6xIPiykMzV2SelQ4XZZeIgTOEzUl5UMyJRV%2FTkw1ahJpTjVqQjqcaqy%2BNRrdVoGcBM9XZpqxBg9tqS5KyHU0Uo0hR69XDlanlnMW1kHMt9OTklaraco2jwQlrjXiK6XJiw%2B%2BcGo8qhC4PlKujFQDVr9n2jiI0DrFOsU6xTrF3kKxX%2FCIqNdurMBHjoiO1cIR0XaMGvjt6aGupQPoYZkdGpewiMdcqO2nVsId1M6IhLSxB9TOKbQBw51giCuxlz2sP%2BMfgUyGHN0RdDkNGO4S6CMxqGL2CyLb6Q%2FifU1wj%2Bf5GSybtYI%2BdW8AGh2M78wdrlk0ZCtf8BZLjoWUD3T0sPqTCTjQWcePt3ddxOFnnxt03zUENQTBJc5r9rVWZP29Jdi%2BgPXhUUUqjKM1EQ5zZoxCkV3cNbs71l8WjjgYue8BR8zW4fOXu7rW4ceHIw1N8b4NN9nUGC%2FH9ApxTtlQ%2B1GYLI90yPNeSOvlxZEPZdGXsFP9LxQF2UZTEc0hHKIY%2FCNBB%2BkVVn9Y8Ysmr3g33KA%2FczgVq5oeMh0eFtSei6Av1oBexcifF7Mi3xzPJRDrJPBYyruS37H%2BF9HCsOER51ugBdRWCWg1eis1P%2BM5WvlNy9wPepNRb5ql2T2fcS5OBXGaLonrAv5I4a2sD9rUwEfQ%2BotDh3a%2B6Sn2ERGnNjh0ZzEEtdfhqHnfCx8MS8tVTneK5WKPRXBetKJduDr3DBhlrO%2BMHSrIYewgkmgPOzR41gDfobjcs4oafS6M0D3LEHQxjBDvyhQvKebTy3c8nfuf%3C%2Fdiagram%3E%3C%2Fmxfile%3E" version="1.1"><title id="title4255">sequence diagram password with token in URI (POST)</title><metadata id="metadata3141"/><rect id="rect4211" width="526.762" height="319.428" x=".483" y=".472" fill="none" stroke="#000" stroke-dasharray="none" stroke-dashoffset="0" stroke-miterlimit="4" stroke-opacity="1" stroke-width=".967"/><text id="text4100" x="321.952" y="105.46" fill="#000" fill-opacity="1" stroke="none" font-family="Sans" font-size="8" font-stretch="normal" font-style="normal" font-variant="normal" font-weight="normal" letter-spacing="0" text-anchor="start" word-spacing="0" writing-mode="lr-tb" xml:space="preserve" style="text-align:start;line-height:125%;-inkscape-font-specification:Sans"><tspan id="tspan3116" x="321.952" y="105.46">SQL SELECT (</tspan><tspan id="tspan3105" x="321.952" y="115.46"> pss_token=s3cr3t)</tspan></text><path id="path4056" fill="none" stroke="#000" stroke-dasharray="6 1" stroke-dashoffset="0" stroke-linecap="butt" stroke-linejoin="miter" stroke-miterlimit="4" stroke-opacity="1" stroke-width="1" d="m 172.76039,40.457637 0,44.421085"/><g id="g4068" transform="translate(-2.7983388,-0.15625)"><rect id="rect4062" width="69.067" height="27.192" x="140.94" y="28.743" fill="#fff" fill-opacity="1" stroke="#000" stroke-dasharray="none" stroke-dashoffset="0" stroke-miterlimit="4" stroke-opacity="1" stroke-width="1"/><text id="text4058" x="175.476" y="40.863" fill="#000" fill-opacity="1" stroke="none" font-family="Sans" font-size="12" font-stretch="normal" font-style="normal" font-variant="normal" font-weight="normal" letter-spacing="0" text-anchor="middle" word-spacing="0" writing-mode="lr-tb" xml:space="preserve" style="text-align:center;line-height:125%;-inkscape-font-specification:Sans"><tspan id="tspan4060" x="175.476" y="40.863">frontend</tspan><tspan id="tspan3164" x="175.476" y="51.876" fill="gray" fill-opacity="1" font-family="Sans" font-size="8" font-stretch="normal" font-style="normal" font-variant="normal" font-weight="normal" text-anchor="middle" writing-mode="lr-tb" style="text-align:center;line-height:125%;-inkscape-font-specification:Sans">(all UCS roles)</tspan></text></g><path id="path4078" fill="none" stroke="#000" stroke-dasharray="6 1" stroke-dashoffset="0" stroke-linecap="butt" stroke-linejoin="miter" stroke-miterlimit="4" stroke-opacity="1" stroke-width="1" d="m 303.21966,53.61319 0,251.68517"/><g id="g4074" transform="translate(-3.1007942,-0.15625)"><rect id="rect4082" width="69.067" height="36.494" x="271.787" y="19.44" fill="#fff" fill-opacity="1" stroke="#000" stroke-dasharray="none" stroke-dashoffset="0" stroke-miterlimit="4" stroke-opacity="1" stroke-width="1"/><text id="text4084" x="306.32" y="30.907" fill="#000" fill-opacity="1" stroke="none" font-family="Sans" font-size="12" font-stretch="normal" font-style="normal" font-variant="normal" font-weight="normal" letter-spacing="0" text-anchor="middle" word-spacing="0" writing-mode="lr-tb" xml:space="preserve" style="text-align:center;line-height:125%;-inkscape-font-specification:Sans"><tspan id="tspan4086" x="306.32" y="30.907">backend</tspan><tspan id="tspan3166" x="306.32" y="41.92" fill="gray" fill-opacity="1" font-family="Sans" font-size="8" font-stretch="normal" font-style="normal" font-variant="normal" font-weight="normal" text-anchor="middle" writing-mode="lr-tb" style="text-align:center;line-height:125%;-inkscape-font-specification:Sans">(DC master</tspan><tspan id="tspan3168" x="306.32" y="51.92" fill="gray" fill-opacity="1" font-family="Sans" font-size="8" font-stretch="normal" font-style="normal" font-variant="normal" font-weight="normal" text-anchor="middle" writing-mode="lr-tb" style="text-align:center;line-height:125%;-inkscape-font-specification:Sans">or backup)</tspan></text></g><g id="g4273" transform="translate(-7.6279755,51.725749)"><text id="text4257" x="25.545" y="154.353" fill="#000" fill-opacity="1" stroke="none" font-family="Sans" font-size="12" font-stretch="normal" font-style="normal" font-variant="normal" font-weight="normal" letter-spacing="0" text-anchor="start" word-spacing="0" writing-mode="lr-tb" xml:space="preserve" style="text-align:start;line-height:125%;-inkscape-font-specification:Sans"><tspan id="tspan4259" x="25.545" y="154.353">user</tspan></text><g id="g4106" transform="translate(-1.3491226,-32.871974)"><ellipse id="ellipse2991" cx="40" cy="123" fill="#fff" stroke="#000" d="m 47.5,123 c 0,4.14214 -3.357864,7.5 -7.5,7.5 -4.142136,0 -7.5,-3.35786 -7.5,-7.5 0,-4.14214 3.357864,-7.5 7.5,-7.5 4.142136,0 7.5,3.35786 7.5,7.5 z" pointer-events="none" rx="7.5" ry="7.5" transform="translate(0.5,0.5)"/><path id="path2993" fill="none" stroke="#000" stroke-miterlimit="10" d="m 40.5,130.5 0,25 m 0,-20 -15,0 m 15,0 15,0 m -15,20 -15,20 m 15,-20 15,20" pointer-events="none"/></g></g><rect id="rect3003" width="9.869" height="169.089" x="167.891" y="79.396" fill="#fff" stroke="#000" pointer-events="none"/><g id="g4048" transform="translate(12.345589,34.19097)"><path id="path3013" fill="none" stroke="#000" stroke-miterlimit="10" d="M 37.24722,101.92702 69.153042,52.314404 C 77.286098,45.445872 77.515373,45.5 86.313836,45.5 l 61.066164,0" pointer-events="none"/><path id="path3015" fill="#000" stroke="#000" stroke-miterlimit="10" d="m 154.38,45.5 -7,3.5 0,-7 z" pointer-events="none"/></g><g id="g4052" transform="translate(12.345589,-5.986816)"><path id="path3025" fill="none" stroke="#000" stroke-dasharray="3 3" stroke-miterlimit="10" d="m 154.84102,254.43288 -61.34102,0 c -7.441866,0 -7.746338,0.0246 -16.223592,-5.93401 L 37.55334,216.94967" pointer-events="none"/><path id="path3027" fill="none" stroke="#000" stroke-miterlimit="10" d="m 42.914882,216.54932 -7.00656,-1.8221 1.540338,7.64447" pointer-events="none"/></g><rect id="rect3037" width="9.589" height="168.782" x="298.22" y="90.772" fill="#fff" stroke="#000" pointer-events="none"/><g id="g4044" transform="translate(12.345589,46.19097)"><path id="path3047" fill="none" stroke="#000" stroke-miterlimit="10" d="m 165.5,45.5 111.88,0" pointer-events="none"/><path id="path3049" fill="#000" stroke="#000" stroke-miterlimit="10" d="m 284.38,45.5 -7,3.5 0,-7 z" pointer-events="none"/></g><g id="g4040" transform="translate(20.083799,48.19097)"><path id="path3081" fill="none" stroke="#000" stroke-miterlimit="10" d="M 288.30994,60.5 397.38,60.5" pointer-events="none"/><path id="path3083" fill="#000" stroke="#000" stroke-miterlimit="10" d="m 404.38,60.5 -7,3.5 0,-7 z" pointer-events="none"/></g><g id="g4036" transform="translate(12.345589,-106.34977)"><path id="path3093" fill="none" stroke="#000" stroke-dasharray="3 3" stroke-miterlimit="10" d="M 413.85741,245.5 297.74,245.5" pointer-events="none"/><path id="path3095" fill="none" stroke="#000" stroke-miterlimit="10" d="m 305.62,241 -9,4.5 9,4.5" pointer-events="none"/></g><text id="text4028" x="5.527" y="64.99" fill="#000" fill-opacity="1" stroke="none" font-family="Sans" font-size="8" font-stretch="normal" font-style="normal" font-variant="normal" font-weight="normal" letter-spacing="0" text-anchor="start" word-spacing="0" writing-mode="lr-tb" xml:space="preserve" style="text-align:start;line-height:125%;-inkscape-font-specification:Sans"><tspan id="tspan4345" x="5.527" y="64.99">HTTP POST /password/token/&lt;s3cr3t&gt;</tspan><tspan id="tspan6767" x="5.527" y="74.99">{username: &lt;str&gt;, password: &lt;str&gt;}</tspan></text><text id="text4130" x="335.877" y="149.539" fill="#000" fill-opacity="1" stroke="none" font-family="Sans" font-size="8" font-stretch="normal" font-style="normal" font-variant="normal" font-weight="normal" letter-spacing="0" text-anchor="start" word-spacing="0" writing-mode="lr-tb" xml:space="preserve" style="text-align:start;line-height:125%;-inkscape-font-specification:Sans"><tspan id="tspan4209" x="335.877" y="149.539">DN / None</tspan></text><text id="text4100-5" x="235.243" y="75.697" fill="#000" fill-opacity="1" stroke="none" font-family="Sans" font-size="8" font-stretch="normal" font-style="normal" font-variant="normal" font-weight="normal" letter-spacing="0" text-anchor="middle" word-spacing="0" writing-mode="lr-tb" xml:space="preserve" style="text-align:center;line-height:150%;-inkscape-font-specification:Sans"><tspan id="tspan4164" x="235.243" y="75.697">UMCP</tspan><tspan id="tspan3108" x="235.243" y="87.697">set_password(s3cr3t,</tspan><tspan id="tspan3421" x="235.243" y="99.697"> password)</tspan></text><text id="text4199" x="29.609" y="248.533" fill="#000" fill-opacity="1" stroke="none" font-family="Sans" font-size="8" font-stretch="normal" font-style="normal" font-variant="normal" font-weight="normal" letter-spacing="0" text-anchor="start" word-spacing="0" writing-mode="lr-tb" xml:space="preserve" style="text-align:start;line-height:125%;-inkscape-font-specification:Sans"><tspan id="tspan4201" x="29.609" y="248.533">HTTP</tspan><tspan id="tspan4203" x="29.609" y="258.533">* page: password set OK or</tspan><tspan id="tspan4207" x="29.609" y="268.533">* page: fail(REASON)</tspan></text><text id="text4213" x="3.39" y="15.492" fill="#000" fill-opacity="1" stroke="none" font-family="Sans" font-size="12" font-stretch="normal" font-style="normal" font-variant="normal" font-weight="normal" letter-spacing="0" text-anchor="start" word-spacing="0" writing-mode="lr-tb" xml:space="preserve" style="text-align:start;line-height:125%;-inkscape-font-specification:Sans"><tspan id="tspan4215" x="3.39" y="15.492">sd set password with token in URI (POST)</tspan></text><path id="path4280" fill="none" stroke="#000" stroke-linecap="butt" stroke-linejoin="miter" stroke-opacity="1" stroke-width="1" d="m 0.54815274,22.817824 249.09706726,0 6.09043,-6.029629 0,-16.444445"/><text id="text4408" x="363.755" y="186.265" fill="#000" fill-opacity="1" stroke="none" font-family="Sans" font-size="8" font-stretch="normal" font-style="normal" font-variant="normal" font-weight="normal" letter-spacing="0" text-anchor="middle" word-spacing="0" writing-mode="lr-tb" xml:space="preserve" style="text-align:center;line-height:150%;-inkscape-font-specification:Sans"><tspan id="tspan4412" x="363.755" y="186.265">UDM (DN,</tspan><tspan id="tspan4446" x="363.755" y="198.265">set {password=password,</tspan><tspan id="tspan3430" x="363.755" y="210.265"> pss_token=&lt;None&gt;})</tspan></text><g id="g4416" transform="translate(82.572689,140.82801)"><path id="path4418" fill="none" stroke="#000" stroke-miterlimit="10" d="M 225.80956,60.5 397.38,60.5" pointer-events="none"/><path id="path4420" fill="#000" stroke="#000" stroke-miterlimit="10" d="m 404.38,60.5 -7,3.5 0,-7 z" pointer-events="none"/></g><g id="g4422" transform="translate(12.345589,-13.712738)"><path id="path4424" fill="none" stroke="#000" stroke-dasharray="3 3" stroke-miterlimit="10" d="M 475.98681,245.5 297.74,245.5" pointer-events="none"/><path id="path4426" fill="none" stroke="#000" stroke-miterlimit="10" d="m 305.62,241 -9,4.5 9,4.5" pointer-events="none"/></g><text id="text4428" x="352.539" y="242.176" fill="#000" fill-opacity="1" stroke="none" font-family="Sans" font-size="8" font-stretch="normal" font-style="normal" font-variant="normal" font-weight="normal" letter-spacing="0" text-anchor="start" word-spacing="0" writing-mode="lr-tb" xml:space="preserve" style="text-align:start;line-height:125%;-inkscape-font-specification:Sans"><tspan id="tspan4434" x="352.539" y="242.176">OK / fail</tspan></text><g id="g3426" transform="translate(61.628285,94.602382)"><rect id="rect3428" width="36.32" height="16.995" x="377.579" y="64.5" fill="none" stroke="gray" stroke-dasharray="none" stroke-dashoffset="0" stroke-miterlimit="4" stroke-opacity="1" stroke-width=".5"/><text id="text3430" x="379.523" y="71.069" fill="gray" fill-opacity="1" stroke="none" font-family="Sans" font-size="6" font-stretch="normal" font-style="normal" font-variant="normal" font-weight="normal" letter-spacing="0" text-anchor="start" word-spacing="0" writing-mode="lr-tb" xml:space="preserve" style="text-align:start;line-height:125%;-inkscape-font-specification:Sans"><tspan id="tspan3436" x="379.523" y="71.069">connect to</tspan><tspan id="tspan3445" x="379.523" y="78.569">DC master</tspan></text></g><path id="path3438" fill="none" stroke="gray" stroke-dasharray="none" stroke-linecap="butt" stroke-linejoin="miter" stroke-miterlimit="4" stroke-opacity="1" stroke-width=".5" d="m 439.12848,167.46999 -55.79279,11.99408"/><g id="g3702" transform="translate(0,-25.193953)"><path id="path3481" fill="none" stroke="#000" stroke-dasharray="3 3" stroke-miterlimit="10" d="m 297.84559,268.68246 -117.76,0" pointer-events="none"/><path id="path3483" fill="none" stroke="#000" stroke-miterlimit="10" d="m 187.96559,264.18246 -9,4.5 9,4.5" pointer-events="none"/><text id="text3485" x="240.344" y="266.579" fill="#000" fill-opacity="1" stroke="none" font-family="Sans" font-size="8" font-stretch="normal" font-style="normal" font-variant="normal" font-weight="normal" letter-spacing="0" text-anchor="middle" word-spacing="0" writing-mode="lr-tb" xml:space="preserve" style="text-align:center;line-height:125%;-inkscape-font-specification:Sans"><tspan id="tspan3487" x="240.344" y="266.579">OK /</tspan><tspan id="tspan3710" x="240.344" y="276.579">fail(UNKNOWN_OR_NET</tspan><tspan id="tspan3285" x="240.344" y="286.579">_OR_PASSWORD_POLICY)</tspan></text></g><g id="g3489" transform="translate(172.27421,-63.418822)"><path id="path3491" fill="none" stroke="#000" stroke-dasharray="3 3" stroke-miterlimit="10" d="m 285.5,370.87778 -117.76,0" pointer-events="none" transform="translate(-159.92862,-155.98534)"/><path id="path3493" fill="none" stroke="#000" stroke-miterlimit="10" d="m 175.62,366.37778 -9,4.5 9,4.5" pointer-events="none" transform="translate(-159.92862,-155.98534)"/><text id="text3495" x="68.618" y="226.221" fill="#000" fill-opacity="1" stroke="none" font-family="Sans" font-size="8" font-stretch="normal" font-style="normal" font-variant="normal" font-weight="normal" letter-spacing="0" text-anchor="middle" word-spacing="0" writing-mode="lr-tb" xml:space="preserve" style="text-align:center;line-height:125%;-inkscape-font-specification:Sans"><tspan id="tspan3497" x="68.618" y="226.221">fail(USERNAME_OR_TOKEN)</tspan></text></g><g id="g3499" transform="translate(-156.53468,117.26905)"><rect id="rect3501" width="36.32" height="40.976" x="377.579" y="64.5" fill="none" stroke="gray" stroke-dasharray="none" stroke-dashoffset="0" stroke-miterlimit="4" stroke-opacity="1" stroke-width=".5"/><text id="text3503" x="380.564" y="71.069" fill="gray" fill-opacity="1" stroke="none" font-family="Sans" font-size="6" font-stretch="normal" font-style="normal" font-variant="normal" font-weight="normal" letter-spacing="0" text-anchor="start" word-spacing="0" writing-mode="lr-tb" xml:space="preserve" style="text-align:start;line-height:125%;-inkscape-font-specification:Sans"><tspan id="tspan3509" x="380.564" y="71.069">not UML</tspan><tspan id="tspan3518" x="380.564" y="78.569">conform,</tspan><tspan id="tspan3520" x="380.564" y="86.069">but to lazy</tspan><tspan id="tspan3522" x="380.564" y="93.569">to draw 3</tspan><tspan id="tspan3524" x="380.564" y="101.069">graphs</tspan></text></g><g id="g9438"><path id="path4090" fill="none" stroke="#000" stroke-dasharray="6 1" stroke-dashoffset="0" stroke-linecap="butt" stroke-linejoin="miter" stroke-miterlimit="4" stroke-opacity="1" stroke-width="1" d="m 431.48631,40.457637 0,264.840723"/><g id="g5942" transform="translate(6.1290783,-3.9580123)"><g id="g2168" fill="#fff" fill-opacity="1" stroke="#000" stroke-dasharray="none" stroke-miterlimit="10.433" stroke-width="1.001" transform="matrix(0.85205637,0,0,-0.83116457,359.29709,98.39693)" xml:space="preserve"><path id="path2170" fill="#fff" fill-opacity="1" stroke-dasharray="none" stroke-miterlimit="10.433" stroke-width="1.001" d="m 50.398,50.398 v 40.5 c 0,2.485 12.102,4.5 27,4.5 14.899,0 27.002,-2.015 27.002,-4.5 v -40.5 c 0,-2.48 -12.103,-4.5 -27.002,-4.5 -14.898,0 -27,2.02 -27,4.5 z"/><path id="path2172" fill="#fff" fill-opacity="1" stroke-dasharray="none" stroke-miterlimit="10.433" stroke-width="1.001" d="m 50.398,90.898 0.036,-0.231 0.104,-0.228 0.172,-0.225 0.237,-0.221 0.302,-0.218 0.364,-0.213 0.425,-0.209 0.484,-0.204 0.541,-0.199 0.597,-0.194 0.65,-0.189 0.703,-0.182 0.753,-0.177 0.802,-0.17 0.849,-0.163 0.894,-0.157 0.938,-0.149 0.98,-0.141 1.021,-0.134 1.058,-0.126 1.096,-0.117 1.13,-0.108 1.165,-0.1 1.195,-0.09 1.226,-0.081 1.254,-0.071 1.281,-0.061 1.306,-0.05 1.329,-0.04 1.35,-0.028 1.37,-0.018 1.388,-0.006 c 14.899,0 27.002,2.02 27.002,4.5"/></g><text id="text4096-6" x="425.344" y="39.878" fill="#000" fill-opacity="1" stroke="none" font-family="Sans" font-size="12" font-stretch="normal" font-style="normal" font-variant="normal" font-weight="normal" letter-spacing="0" text-anchor="middle" word-spacing="0" writing-mode="lr-tb" xml:space="preserve" style="text-align:center;line-height:125%;-inkscape-font-specification:Sans"><tspan id="tspan4098-7" x="425.344" y="39.878">PgSQL</tspan><tspan font-stretch="normal" style="text-align:center;line-height:125%;-inkscape-font-specification:Sans" id="tspan3170-1" x="425.344" y="50.891" fill="gray" fill-opacity="1" font-family="Sans" font-size="8" font-style="normal" font-variant="normal" font-weight="normal" text-anchor="middle" writing-mode="lr-tb">(localhost)</tspan></text></g></g><g id="g9448" transform="translate(62.48889,0)"><path id="path9450" fill="none" stroke="#000" stroke-dasharray="6 1" stroke-dashoffset="0" stroke-linecap="butt" stroke-linejoin="miter" stroke-miterlimit="4" stroke-opacity="1" stroke-width="1" d="m 431.48631,40.457637 0,264.840723"/><g id="g9452" transform="translate(6.1290783,-3.9580123)"><g id="g9454" fill="#fff" fill-opacity="1" stroke="#000" stroke-dasharray="none" stroke-miterlimit="10.433" stroke-width="1.001" transform="matrix(0.85205637,0,0,-0.83116457,359.29709,98.39693)" xml:space="preserve"><path id="path9456" fill="#fff" fill-opacity="1" stroke-dasharray="none" stroke-miterlimit="10.433" stroke-width="1.001" d="m 50.398,50.398 v 40.5 c 0,2.485 12.102,4.5 27,4.5 14.899,0 27.002,-2.015 27.002,-4.5 v -40.5 c 0,-2.48 -12.103,-4.5 -27.002,-4.5 -14.898,0 -27,2.02 -27,4.5 z"/><path id="path9458" fill="#fff" fill-opacity="1" stroke-dasharray="none" stroke-miterlimit="10.433" stroke-width="1.001" d="m 50.398,90.898 0.036,-0.231 0.104,-0.228 0.172,-0.225 0.237,-0.221 0.302,-0.218 0.364,-0.213 0.425,-0.209 0.484,-0.204 0.541,-0.199 0.597,-0.194 0.65,-0.189 0.703,-0.182 0.753,-0.177 0.802,-0.17 0.849,-0.163 0.894,-0.157 0.938,-0.149 0.98,-0.141 1.021,-0.134 1.058,-0.126 1.096,-0.117 1.13,-0.108 1.165,-0.1 1.195,-0.09 1.226,-0.081 1.254,-0.071 1.281,-0.061 1.306,-0.05 1.329,-0.04 1.35,-0.028 1.37,-0.018 1.388,-0.006 c 14.899,0 27.002,2.02 27.002,4.5"/></g><text id="text9460" x="425.344" y="39.878" fill="#000" fill-opacity="1" stroke="none" font-family="Sans" font-size="12" font-stretch="normal" font-style="normal" font-variant="normal" font-weight="normal" letter-spacing="0" text-anchor="middle" word-spacing="0" writing-mode="lr-tb" xml:space="preserve" style="text-align:center;line-height:125%;-inkscape-font-specification:Sans"><tspan id="tspan9462" x="425.344" y="39.878">LDAP</tspan><tspan id="tspan9464" x="425.344" y="50.891" fill="gray" fill-opacity="1" font-family="Sans" font-size="8" font-stretch="normal" font-style="normal" font-variant="normal" font-weight="normal" text-anchor="middle" writing-mode="lr-tb" style="text-align:center;line-height:125%;-inkscape-font-specification:Sans">(localhost)</tspan></text></g></g><rect id="rect4414" width="10.822" height="30.859" x="488.564" y="200.95" fill="#fff" stroke="#000" pointer-events="none"/><rect id="rect3071" width="10.822" height="30.859" x="426.075" y="108.313" fill="#fff" stroke="#000" pointer-events="none"/><text id="text3712" x="426.234" y="257.26" fill="#000" fill-opacity="1" stroke="none" font-family="Sans" font-size="8" font-stretch="normal" font-style="normal" font-variant="normal" font-weight="normal" letter-spacing="0" text-anchor="end" word-spacing="0" writing-mode="lr-tb" xml:space="preserve" style="text-align:end;line-height:125%;-inkscape-font-specification:Sans"><tspan id="tspan3716" x="426.234" y="257.26">SQL DELETE (uid=username)</tspan></text><rect id="rect3728" width="10.822" height="30.859" x="426.075" y="259.154" fill="#fff" stroke="#000" pointer-events="none"/><g id="g3748" transform="translate(4.6511913,1.744197)"><path id="path3738" fill="none" stroke="#000" stroke-miterlimit="10" d="m 410.83226,253.31453 9,4.5 -9,4.5" pointer-events="none"/><path id="path3732" fill="none" stroke="#000" stroke-miterlimit="10" d="m 303.16115,257.78727 114.30265,0" pointer-events="none"/></g></svg>