<svg xmlns="http://www.w3.org/2000/svg" xmlns:svg="http://www.w3.org/2000/svg" id="svg2985" width="495.563" height="303.938" content="%3Cmxfile%20userAgent%3D%22Mozilla%2F5.0%20(X11%3B%20Linux%20x86_64)%20AppleWebKit%2F537.36%20(KHTML%2C%20like%20Gecko)%20Chrome%2F47.0.2508.0%20Safari%2F537.36%22%20type%3D%22device%22%3E%3Cdiagram%3E7Vrtb6M4E%2F9rIt1zUiMIzdvHpOnTPWlXqtSt9u5T5AQnoAXMgdNN76%2FfMXjA2JBXru3qyIeEjD3jwfP280DPuQv3DwmJvS%2FMpUFvYLn7nrPoDQb21LHgR1Bec8pwOs4J28R35aSS8OT%2FQyVR8m13vkvTykTOWMD9uEpcsyiia16hbVhQXSImWxRfEp7WJDCp33yXezl1MhiV9E%2FU33q4jD2a5iMpf0UZLt2QXcBvMhKMieGQoKzsrpx72LGEMRAjrsL9HQ3EruGG5Lf%2B%2F4bRQsmERlKRwwxSiRcS7KSOszVniaF56pFYXO7CIJ%2FgzF9own3Yn89kRYNHlvrcZxFMWTHOWahMmAX%2BVgxwFgPV42EAf2y4lGvDNIo%2BYeqfkaTyD5SFlCevMAUZpCtID7LRpX6UJkKSp1hnJGlEOsq2EFzuFVzI7arfOml4Zes2CYs4jVygPv%2FRG4wCWG3u%2Bi9wuRWXv5FMwPPdE3wnLKDp%2F3AWLKZMrOFF0gpsU6V0rB3rEVYtmJUQjJkf8SwIhvPecCEoNPEhFiiE%2BIIl3GNbFpHgsaS2Era31bjFeFTCFiNbDdsilq%2BJW1ljlLj99PXrI1CAMaEp5Yf2S89pRbKDsJ8lCfshaAFbf89IoNmfQLDwz1%2F4Z%2B9zMSAkiuuM3ne0jxxUtj5jztWjrlauOEm2oLuamgx7wF2xXbKWjFnubzTRjdW%2FHY0lmzQTSkloQLj%2FUlWgziZS%2BqPwslK0Znz8iwJyHSVPaVfYXiL0w2nSdRtXmdS6WOkkuTyNF%2BtIVSO22aBfqE5WbNpJfjdp8Dsjrn%2BXcGKJY2lMoopHjv7eCYAwD%2FyI3mCAzGCK3YclcBTlpeCbSxoSX2gjanuRJHLBF6adK7Uq7jJTLw3BkrlyJBQwIVql4uejKRuxJaBJTgBNioShK1tDOkv%2F6xIPiykMzV2SelQ4XZZeIgTOEzUl5UMyJRV%2FTkw1ahJpTjVqQjqcaqy%2BNRrdVoGcBM9XZpqxBg9tqS5KyHU0Uo0hR69XDlanlnMW1kHMt9OTklaraco2jwQlrjXiK6XJiw%2B%2BcGo8qhC4PlKujFQDVr9n2jiI0DrFOsU6xTrF3kKxX%2FCIqNdurMBHjoiO1cIR0XaMGvjt6aGupQPoYZkdGpewiMdcqO2nVsId1M6IhLSxB9TOKbQBw51giCuxlz2sP%2BMfgUyGHN0RdDkNGO4S6CMxqGL2CyLb6Q%2FifU1wj%2Bf5GSybtYI%2BdW8AGh2M78wdrlk0ZCtf8BZLjoWUD3T0sPqTCTjQWcePt3ddxOFnnxt03zUENQTBJc5r9rVWZP29Jdi%2BgPXhUUUqjKM1EQ5zZoxCkV3cNbs71l8WjjgYue8BR8zW4fOXu7rW4ceHIw1N8b4NN9nUGC%2FH9ApxTtlQ%2B1GYLI90yPNeSOvlxZEPZdGXsFP9LxQF2UZTEc0hHKIY%2FCNBB%2BkVVn9Y8Ysmr3g33KA%2FczgVq5oeMh0eFtSei6Av1oBexcifF7Mi3xzPJRDrJPBYyruS37H%2BF9HCsOER51ugBdRWCWg1eis1P%2BM5WvlNy9wPepNRb5ql2T2fcS5OBXGaLonrAv5I4a2sD9rUwEfQ%2BotDh3a%2B6Sn2ERGnNjh0ZzEEtdfhqHnfCx8MS8tVTneK5WKPRXBetKJduDr3DBhlrO%2BMHSrIYewgkmgPOzR41gDfobjcs4oafS6M0D3LEHQxjBDvyhQvKebTy3c8nfuf%3C%2Fdiagram%3E%3C%2Fmxfile%3E" version="1.1"><title id="title4255">Use Cases password self service</title><metadata id="metadata3141"/><defs id="defs2987"><marker id="EmptyTriangleOutL" orient="auto" overflow="visible" refX="0" refY="0"><path id="path4936" fill="#FFF" fill-rule="evenodd" stroke="#000" stroke-width="1pt" d="M 5.77,0.0 L -2.88,5.0 L -2.88,-5.0 L 5.77,0.0 z" transform="scale(0.8) translate(-6,0)"/></marker></defs><rect id="rect3873" width="164.444" height="257.081" x="67.97" y="34.797" fill="none" stroke="gray" stroke-dasharray="none" stroke-dashoffset="0" stroke-miterlimit="4" stroke-opacity="1" stroke-width="1"/><rect id="rect4211" width="494.591" height="302.984" x=".483" y=".472" fill="none" stroke="#000" stroke-dasharray="none" stroke-dashoffset="0" stroke-miterlimit="4" stroke-opacity="1" stroke-width=".967"/><g id="g4273" transform="translate(-12.561309,23.426604)"><text id="text4257" x="25.545" y="154.353" fill="#000" fill-opacity="1" stroke="none" font-family="Sans" font-size="12" font-stretch="normal" font-style="normal" font-variant="normal" font-weight="normal" letter-spacing="0" text-anchor="start" word-spacing="0" writing-mode="lr-tb" xml:space="preserve" style="text-align:start;line-height:125%;-inkscape-font-specification:Sans"><tspan id="tspan4259" x="25.545" y="154.353">user</tspan></text><g id="g4106" transform="translate(-1.3491226,-32.871974)"><ellipse id="ellipse2991" cx="40" cy="123" fill="#fff" stroke="#000" d="m 47.5,123 c 0,4.14214 -3.357864,7.5 -7.5,7.5 -4.142136,0 -7.5,-3.35786 -7.5,-7.5 0,-4.14214 3.357864,-7.5 7.5,-7.5 4.142136,0 7.5,3.35786 7.5,7.5 z" pointer-events="none" rx="7.5" ry="7.5" transform="translate(0.5,0.5)"/><path id="path2993" fill="none" stroke="#000" stroke-miterlimit="10" d="m 40.5,130.5 0,25 m 0,-20 -15,0 m 15,0 15,0 m -15,20 -15,20 m 15,-20 15,20" pointer-events="none"/></g></g><text id="text4213" x="3.39" y="15.492" fill="#000" fill-opacity="1" stroke="none" font-family="Sans" font-size="12" font-stretch="normal" font-style="normal" font-variant="normal" font-weight="normal" letter-spacing="0" text-anchor="start" word-spacing="0" writing-mode="lr-tb" xml:space="preserve" style="text-align:start;line-height:125%;-inkscape-font-specification:Sans"><tspan id="tspan4215" x="3.39" y="15.492">uc password self service</tspan></text><path id="path4280" fill="none" stroke="#000" stroke-linecap="butt" stroke-linejoin="miter" stroke-opacity="1" stroke-width="1" d="m 0.54815274,22.817824 149.09645726,0 6.09043,-6.029629 0,-16.444445"/><text id="text4213-3" x="133.402" y="43.041" fill="gray" fill-opacity="1" stroke="none" font-family="Sans" font-size="8" font-stretch="normal" font-style="normal" font-variant="normal" font-weight="normal" letter-spacing="0" text-anchor="start" word-spacing="0" writing-mode="lr-tb" xml:space="preserve" style="text-align:start;line-height:125%;-inkscape-font-specification:Sans"><tspan id="tspan4215-8" x="133.402" y="43.041">frontend</tspan></text><g id="g4713" transform="translate(-19.745423,86.012235)"><path id="path4707" fill="none" stroke="#000" stroke-dasharray="none" stroke-dashoffset="0" stroke-miterlimit="4" stroke-opacity="1" stroke-width="1" d="m 275.71851,98.656021 c 0,10.141589 -16.32005,18.362959 -36.45185,18.362959 -20.1318,0 -36.45185,-8.22137 -36.45185,-18.362959 0,-10.141584 16.32005,-18.362963 36.45185,-18.362963 20.1318,0 36.45185,8.221379 36.45185,18.362963 z" transform="translate(-33.985176,78.933334)"/><text font-stretch="normal" style="text-align:center;line-height:125%;-inkscape-font-specification:Sans" id="text4709" x="206.325" y="175.638" fill="#000" fill-opacity="1" stroke="none" font-family="Sans" font-size="8" font-style="normal" font-variant="normal" font-weight="normal" text-anchor="middle" writing-mode="lr-tb" xml:space="preserve"><tspan id="tspan4711" x="206.325" y="175.638">Enter token</tspan><tspan id="tspan4455" x="206.325" y="185.638">into form</tspan></text></g><rect id="rect4732" width="113.467" height="257.081" x="275.111" y="34.797" fill="none" stroke="gray" stroke-dasharray="none" stroke-dashoffset="0" stroke-miterlimit="4" stroke-opacity="1" stroke-width="1"/><text id="text4738" x="314.93" y="43.041" fill="gray" fill-opacity="1" stroke="none" font-family="Sans" font-size="8" font-stretch="normal" font-style="normal" font-variant="normal" font-weight="normal" letter-spacing="0" text-anchor="start" word-spacing="0" writing-mode="lr-tb" xml:space="preserve" style="text-align:start;line-height:125%;-inkscape-font-specification:Sans"><tspan id="tspan4766" x="314.93" y="43.041">backend</tspan></text><g id="g5942" transform="translate(23.931614,29.276725)"><g id="g3620"><g id="g3616" transform="matrix(1,0,0,1.435254,0,-21.838061)"><path id="path2170-2" fill="#fff" fill-opacity="1" stroke="#000" stroke-dasharray="none" stroke-miterlimit="10.433" stroke-width=".842" d="M 402.23903,56.507898 V 22.845733 c 0,-2.065444 10.31158,-3.740241 23.00552,-3.740241 12.69479,0 23.00723,1.674797 23.00723,3.740241 v 33.662165 c 0,2.061288 -10.31244,3.740241 -23.00723,3.740241 -12.69394,0 -23.00552,-1.678953 -23.00552,-3.740241 z"/><path id="path2172-6" fill="#fff" fill-opacity="1" stroke="#000" stroke-dasharray="none" stroke-miterlimit="10.433" stroke-width=".842" d="m 402.23903,22.845733 0.0307,0.191999 0.0886,0.189505 0.14656,0.187012 0.20194,0.183688 0.25732,0.181194 0.31015,0.177038 0.36212,0.173713 0.41239,0.169558 0.46097,0.165401 0.50867,0.161246 0.55384,0.157091 0.599,0.151271 0.6416,0.147117 0.68334,0.141298 0.7234,0.135479 0.76174,0.130493 0.79923,0.123844 0.83501,0.117194 0.86995,0.111376 0.90148,0.104727 0.93385,0.09725 0.96283,0.08977 0.99264,0.08312 1.01821,0.07481 1.04462,0.06732 1.06848,0.05901 1.09148,0.0507 1.11279,0.04156 1.13238,0.03325 1.15028,0.02327 1.16731,0.01496 1.18266,0.005 c 12.69479,0 23.00723,-1.678952 23.00723,-3.74024"/></g><text id="text4096-6" x="425.344" y="77.152" fill="#000" fill-opacity="1" stroke="none" font-family="Sans" font-size="12" font-stretch="normal" font-style="normal" font-variant="normal" font-weight="normal" letter-spacing="0" text-anchor="middle" word-spacing="0" writing-mode="lr-tb" xml:space="preserve" style="text-align:center;line-height:125%;-inkscape-font-specification:Sans"><tspan font-stretch="normal" style="text-align:center;line-height:125%;-inkscape-font-specification:Sans" id="tspan3170-1" x="425.344" y="77.152" fill="#000" fill-opacity="1" font-family="Sans" font-size="12" font-style="normal" font-variant="normal" font-weight="normal" text-anchor="middle" writing-mode="lr-tb">LDAP</tspan></text></g></g><path id="path4421" fill="none" stroke="#000" stroke-dasharray="none" stroke-dashoffset="0" stroke-linecap="butt" stroke-linejoin="miter" stroke-miterlimit="4" stroke-opacity="1" stroke-width="1" marker-end="url(#EmptyTriangleOutL)" d="M 368.69327,229.34067 427.29123,92.486012"/><g id="g4435" transform="translate(408.83162,34.917709)"><text id="text4437" x="40.345" y="154.353" fill="#000" fill-opacity="1" stroke="none" font-family="Sans" font-size="12" font-stretch="normal" font-style="normal" font-variant="normal" font-weight="normal" letter-spacing="0" text-anchor="middle" word-spacing="0" writing-mode="lr-tb" xml:space="preserve" style="text-align:center;line-height:125%;-inkscape-font-specification:Sans"><tspan font-style="normal" style="text-align:center;line-height:125%;-inkscape-font-specification:Sans" id="tspan4439" x="40.345" y="154.353" font-family="Sans" font-size="8" font-stretch="normal" font-variant="normal" font-weight="normal" text-anchor="middle" writing-mode="lr">&lt;&lt;service&gt;&gt;</tspan><tspan id="tspan4447" x="40.345" y="169.353">SMTP / SMS</tspan></text><g id="g4441" transform="translate(-0.15458968,-32.871974)"><ellipse id="ellipse4443" cx="40" cy="123" fill="#fff" stroke="#000" d="m 47.5,123 c 0,4.14214 -3.357864,7.5 -7.5,7.5 -4.142136,0 -7.5,-3.35786 -7.5,-7.5 0,-4.14214 3.357864,-7.5 7.5,-7.5 4.142136,0 7.5,3.35786 7.5,7.5 z" pointer-events="none" rx="7.5" ry="7.5" transform="translate(0.5,0.5)"/><path id="path4445" fill="none" stroke="#000" stroke-miterlimit="10" d="m 40.5,130.5 0,25 m 0,-20 -15,0 m 15,0 15,0 m -15,20 -15,20 m 15,-20 15,20" pointer-events="none"/></g></g><g id="g4473" transform="translate(28.491601,59.140882)"><g id="g4722" transform="translate(-65.773561,10.962965)"><text font-stretch="normal" style="text-align:center;line-height:125%;-inkscape-font-specification:Sans" id="text4697" x="222.769" y="124.661" fill="#000" fill-opacity="1" stroke="none" font-family="Sans" font-size="8" font-style="normal" font-variant="normal" font-weight="normal" text-anchor="middle" writing-mode="lr-tb" xml:space="preserve"><tspan id="tspan4699" x="222.769" y="124.661">Enter token</tspan><tspan id="tspan4457" x="222.769" y="134.661">from URI</tspan></text></g><path id="path4461" fill="none" stroke="#000" stroke-dasharray="none" stroke-dashoffset="0" stroke-miterlimit="4" stroke-opacity="1" stroke-width="1" d="m 275.71851,98.656021 c 0,10.141589 -16.32005,18.362959 -36.45185,18.362959 -20.1318,0 -36.45185,-8.22137 -36.45185,-18.362959 0,-10.141584 16.32005,-18.362963 36.45185,-18.362963 20.1318,0 36.45185,8.221379 36.45185,18.362963 z" transform="translate(-82.2222,38.370369)"/></g><g id="g5544" transform="translate(67.958271,23.828968)"><g id="g4498" transform="translate(-105.24023,-42.755554)"><text id="text4500" x="222.769" y="124.661" fill="#000" fill-opacity="1" stroke="none" font-family="Sans" font-size="8" font-stretch="normal" font-style="normal" font-variant="normal" font-weight="normal" text-anchor="middle" writing-mode="lr-tb" xml:space="preserve" style="text-align:center;line-height:125%;-inkscape-font-specification:Sans"><tspan id="tspan4504" x="222.769" y="124.661">Password reset</tspan><tspan id="tspan4510" x="222.769" y="134.661">wish</tspan></text></g><path id="path4506" fill="none" stroke="#000" stroke-dasharray="none" stroke-dashoffset="0" stroke-miterlimit="4" stroke-opacity="1" stroke-width="1" d="m 275.71851,98.656021 c 0,10.141589 -16.32005,18.362959 -36.45185,18.362959 -20.1318,0 -36.45185,-8.22137 -36.45185,-18.362959 0,-10.141584 16.32005,-18.362963 36.45185,-18.362963 20.1318,0 36.45185,8.221379 36.45185,18.362963 z" transform="translate(-121.68887,-15.34815)"/></g><g id="g4512" transform="translate(-42.842918,92.858038)"><g id="g4514" transform="translate(-65.773561,10.962965)"><text font-stretch="normal" style="text-align:center;line-height:125%;-inkscape-font-specification:Sans" id="text4516" x="222.918" y="128.27" fill="#000" fill-opacity="1" stroke="none" font-family="Sans" font-size="8" font-style="normal" font-variant="normal" font-weight="normal" text-anchor="middle" writing-mode="lr-tb" xml:space="preserve"><tspan id="tspan4520" x="222.918" y="128.27">Set password</tspan></text></g><path id="path4522" fill="none" stroke="#000" stroke-dasharray="none" stroke-dashoffset="0" stroke-miterlimit="4" stroke-opacity="1" stroke-width="1" d="m 275.71851,98.656021 c 0,10.141589 -16.32005,18.362959 -36.45185,18.362959 -20.1318,0 -36.45185,-8.22137 -36.45185,-18.362959 0,-10.141584 16.32005,-18.362963 36.45185,-18.362963 20.1318,0 36.45185,8.221379 36.45185,18.362963 z" transform="translate(-82.2222,38.370369)"/></g><path id="path4524" fill="none" stroke="#000" stroke-dasharray="2.205 2.205" stroke-dashoffset="0" stroke-linecap="butt" stroke-linejoin="miter" stroke-miterlimit="4" stroke-opacity="1" stroke-width=".735" marker-end="url(#EmptyTriangleOutL)" d="M 127.64517,212.91025 148.4431,201.4082"/><text id="text4526" x="9.795" y="238.369" fill="#000" fill-opacity="1" stroke="none" font-family="Sans" font-size="6" font-stretch="normal" font-style="normal" font-variant="normal" font-weight="normal" text-anchor="start" transform="matrix(0.90124383,-0.43331232,0.43331232,0.90124383,0,0)" writing-mode="lr-tb" xml:space="preserve" style="text-align:start;line-height:125%;-inkscape-font-specification:Sans"><tspan id="tspan4528" x="9.795" y="238.369">&lt;&lt;include&gt;&gt;</tspan></text><path id="path4530" fill="none" stroke="#000" stroke-dasharray="2.205 2.205" stroke-dashoffset="0" stroke-linecap="butt" stroke-linejoin="miter" stroke-miterlimit="4" stroke-opacity="1" stroke-width=".735" marker-end="url(#EmptyTriangleOutL)" d="m 128.63748,247.03414 20.20244,11.94438"/><text id="text4532" x="219.59" y="167.27" fill="#000" fill-opacity="1" stroke="none" font-family="Sans" font-size="6" font-stretch="normal" font-style="normal" font-variant="normal" font-weight="normal" text-anchor="start" transform="matrix(0.87720973,0.48010737,-0.48010737,0.87720973,0,0)" writing-mode="lr-tb" xml:space="preserve" style="text-align:start;line-height:125%;-inkscape-font-specification:Sans"><tspan id="tspan4534" x="219.59" y="167.27">&lt;&lt;include&gt;&gt;</tspan></text><path id="path4538" fill="none" stroke="#000" stroke-linecap="butt" stroke-linejoin="miter" stroke-opacity="1" stroke-width="1" marker-end="url(#EmptyTriangleOutL)" d="m 222.13917,107.89559 72.59536,11.27433"/><g id="g4542" transform="translate(-42.842919,7.0345363)"><g id="g4544" transform="translate(-65.773561,10.962965)"><text font-stretch="normal" style="text-align:center;line-height:125%;-inkscape-font-specification:Sans" id="text4546" x="222.769" y="124.661" fill="#000" fill-opacity="1" stroke="none" font-family="Sans" font-size="8" font-style="normal" font-variant="normal" font-weight="normal" text-anchor="middle" writing-mode="lr-tb" xml:space="preserve"><tspan id="tspan4548" x="222.769" y="124.661">Password reset</tspan><tspan id="tspan4550" x="222.769" y="134.661">request</tspan></text></g><path id="path4552" fill="none" stroke="#000" stroke-dasharray="none" stroke-dashoffset="0" stroke-miterlimit="4" stroke-opacity="1" stroke-width="1" d="m 275.71851,98.656021 c 0,10.141589 -16.32005,18.362959 -36.45185,18.362959 -20.1318,0 -36.45185,-8.22137 -36.45185,-18.362959 0,-10.141584 16.32005,-18.362963 36.45185,-18.362963 20.1318,0 36.45185,8.221379 36.45185,18.362963 z" transform="translate(-82.2222,38.370369)"/></g><path id="path4554" fill="none" stroke="#000" stroke-linecap="butt" stroke-linejoin="miter" stroke-opacity="1" stroke-width="1" marker-end="url(#EmptyTriangleOutL)" d="M 150.89702,143.51813 294.58254,127.77975"/><path id="path4924" fill="none" stroke="#000" stroke-linecap="butt" stroke-linejoin="miter" stroke-opacity="1" stroke-width="1" marker-end="url(#EmptyTriangleOutL)" d="m 222.54012,195.71263 71.8126,30.66526"/><path id="path5294" fill="none" stroke="#000" stroke-linecap="butt" stroke-linejoin="miter" stroke-opacity="1" stroke-width="1" d="m 36.101823,135.92935 41.490241,93.094"/><path id="path5312" fill="none" stroke="#000" stroke-linecap="butt" stroke-linejoin="miter" stroke-opacity="1" stroke-width="1" marker-end="url(#EmptyTriangleOutL)" d="m 222.28986,263.25653 71.82767,-31.76465"/><path id="path5498" fill="none" stroke="#000" stroke-linecap="butt" stroke-linejoin="miter" stroke-opacity="1" stroke-width="1" marker-end="url(#EmptyTriangleOutL)" d="m 150.76006,144.2391 143.08623,31.53881"/><g id="g5538" transform="translate(1.037054,40.402744)"><text id="text4746" x="330.68" y="81.22" fill="#000" fill-opacity="1" stroke="none" font-family="Sans" font-size="8" font-stretch="normal" font-style="normal" font-variant="normal" font-weight="normal" text-anchor="middle" writing-mode="lr-tb" xml:space="preserve" style="text-align:center;line-height:125%;-inkscape-font-specification:Sans"><tspan id="tspan4748" x="330.68" y="81.22">Get reset</tspan><tspan id="tspan5516" x="330.68" y="91.22">methods</tspan></text><path id="path5514" fill="none" stroke="#000" stroke-dasharray="none" stroke-dashoffset="0" stroke-miterlimit="4" stroke-opacity="1" stroke-width="1" d="m 275.71851,98.656021 c 0,10.141589 -16.32005,18.362959 -36.45185,18.362959 -20.1318,0 -36.45185,-8.22137 -36.45185,-18.362959 0,-10.141584 16.32005,-18.362963 36.45185,-18.362963 20.1318,0 36.45185,8.221379 36.45185,18.362963 z" transform="translate(91.540762,-15.34815)"/></g><g id="g5526" transform="translate(1.037054,-15.395567)"><text id="text4762" x="331.044" y="189.824" fill="#000" fill-opacity="1" stroke="none" font-family="Sans" font-size="8" font-stretch="normal" font-style="normal" font-variant="normal" font-weight="normal" text-anchor="middle" writing-mode="lr-tb" xml:space="preserve" style="text-align:center;line-height:125%;-inkscape-font-specification:Sans"><tspan id="tspan4764" x="331.044" y="189.824">Send</tspan><tspan id="tspan5520" x="331.044" y="199.824">token</tspan></text><path id="path5522" fill="none" stroke="#000" stroke-dasharray="none" stroke-dashoffset="0" stroke-miterlimit="4" stroke-opacity="1" stroke-width="1" d="m 275.71851,98.656021 c 0,10.141589 -16.32005,18.362959 -36.45185,18.362959 -20.1318,0 -36.45185,-8.22137 -36.45185,-18.362959 0,-10.141584 16.32005,-18.362963 36.45185,-18.362963 20.1318,0 36.45185,8.221379 36.45185,18.362963 z" transform="translate(91.540762,93.185185)"/></g><g id="g5532" transform="translate(1.037054,88.31722)"><text font-stretch="normal" style="text-align:center;line-height:125%;-inkscape-font-specification:Sans" id="text4754" x="330.807" y="138" fill="#000" fill-opacity="1" stroke="none" font-family="Sans" font-size="8" font-style="normal" font-variant="normal" font-weight="normal" text-anchor="middle" writing-mode="lr-tb" xml:space="preserve"><tspan id="tspan4756" x="330.807" y="138">Set</tspan><tspan id="tspan5518" x="330.807" y="148">password</tspan></text><path id="path5524" fill="none" stroke="#000" stroke-dasharray="none" stroke-dashoffset="0" stroke-miterlimit="4" stroke-opacity="1" stroke-width="1" d="m 275.71851,98.656021 c 0,10.141589 -16.32005,18.362959 -36.45185,18.362959 -20.1318,0 -36.45185,-8.22137 -36.45185,-18.362959 0,-10.141584 16.32005,-18.362963 36.45185,-18.362963 20.1318,0 36.45185,8.221379 36.45185,18.362963 z" transform="translate(91.540762,42.207406)"/></g><g id="g6693" transform="translate(-91.079942,-107.3766)"><path id="path6695" fill="none" stroke="#000" stroke-dasharray="none" stroke-dashoffset="0" stroke-miterlimit="4" stroke-opacity="1" stroke-width="1" d="m 275.71851,98.656021 c 0,10.141589 -16.32005,18.362959 -36.45185,18.362959 -20.1318,0 -36.45185,-8.22137 -36.45185,-18.362959 0,-10.141584 16.32005,-18.362963 36.45185,-18.362963 20.1318,0 36.45185,8.221379 36.45185,18.362963 z" transform="translate(-33.985176,78.933334)"/><text id="text6697" x="206.325" y="175.638" fill="#000" fill-opacity="1" stroke="none" font-family="Sans" font-size="8" font-stretch="normal" font-style="normal" font-variant="normal" font-weight="normal" text-anchor="middle" writing-mode="lr-tb" xml:space="preserve" style="text-align:center;line-height:125%;-inkscape-font-specification:Sans"><tspan id="tspan6699" x="206.325" y="175.638">Enter contact</tspan><tspan id="tspan6701" x="206.325" y="185.638">information</tspan></text></g><path id="path6703" fill="none" stroke="#000" stroke-linecap="butt" stroke-linejoin="miter" stroke-opacity="1" stroke-width="1" d="M 36.046733,135.71941 77.515123,69.441171"/><g id="g6705" transform="translate(1.037054,-121.62845)"><text font-stretch="normal" style="text-align:center;line-height:125%;-inkscape-font-specification:Sans" id="text6707" x="331.044" y="189.824" fill="#000" fill-opacity="1" stroke="none" font-family="Sans" font-size="8" font-style="normal" font-variant="normal" font-weight="normal" text-anchor="middle" writing-mode="lr-tb" xml:space="preserve"><tspan id="tspan6711" x="331.044" y="189.824">Set contact</tspan><tspan id="tspan6717" x="331.044" y="199.824">(information)</tspan></text><path id="path6713" fill="none" stroke="#000" stroke-dasharray="none" stroke-dashoffset="0" stroke-miterlimit="4" stroke-opacity="1" stroke-width="1" d="m 275.71851,98.656021 c 0,10.141589 -16.32005,18.362959 -36.45185,18.362959 -20.1318,0 -36.45185,-8.22137 -36.45185,-18.362959 0,-10.141584 16.32005,-18.362963 36.45185,-18.362963 20.1318,0 36.45185,8.221379 36.45185,18.362963 z" transform="translate(91.540762,93.185185)"/></g><path id="path6719" fill="none" stroke="#000" stroke-linecap="butt" stroke-linejoin="miter" stroke-opacity="1" stroke-width="1" marker-end="url(#EmptyTriangleOutL)" d="m 368.61281,71.001909 56.08247,-0.341151"/><path id="path7417" fill="none" stroke="#000" stroke-linecap="butt" stroke-linejoin="miter" stroke-opacity="1" stroke-width="1" marker-end="url(#EmptyTriangleOutL)" d="M 150.81035,69.552815 294.0339,71.177218"/><g id="g7601" transform="translate(23.273038,211.42202)"><g id="g7603"><g id="g7605" transform="matrix(1,0,0,1.435254,0,-21.838061)"><path id="path7607" fill="#fff" fill-opacity="1" stroke="#000" stroke-dasharray="none" stroke-miterlimit="10.433" stroke-width=".842" d="M 402.23903,56.507898 V 22.845733 c 0,-2.065444 10.31158,-3.740241 23.00552,-3.740241 12.69479,0 23.00723,1.674797 23.00723,3.740241 v 33.662165 c 0,2.061288 -10.31244,3.740241 -23.00723,3.740241 -12.69394,0 -23.00552,-1.678953 -23.00552,-3.740241 z"/><path id="path7609" fill="#fff" fill-opacity="1" stroke="#000" stroke-dasharray="none" stroke-miterlimit="10.433" stroke-width=".842" d="m 402.23903,22.845733 0.0307,0.191999 0.0886,0.189505 0.14656,0.187012 0.20194,0.183688 0.25732,0.181194 0.31015,0.177038 0.36212,0.173713 0.41239,0.169558 0.46097,0.165401 0.50867,0.161246 0.55384,0.157091 0.599,0.151271 0.6416,0.147117 0.68334,0.141298 0.7234,0.135479 0.76174,0.130493 0.79923,0.123844 0.83501,0.117194 0.86995,0.111376 0.90148,0.104727 0.93385,0.09725 0.96283,0.08977 0.99264,0.08312 1.01821,0.07481 1.04462,0.06732 1.06848,0.05901 1.09148,0.0507 1.11279,0.04156 1.13238,0.03325 1.15028,0.02327 1.16731,0.01496 1.18266,0.005 c 12.69479,0 23.00723,-1.678952 23.00723,-3.74024"/></g><text id="text7611" x="425.344" y="77.152" fill="#000" fill-opacity="1" stroke="none" font-family="Sans" font-size="12" font-stretch="normal" font-style="normal" font-variant="normal" font-weight="normal" letter-spacing="0" text-anchor="middle" word-spacing="0" writing-mode="lr-tb" xml:space="preserve" style="text-align:center;line-height:125%;-inkscape-font-specification:Sans"><tspan id="tspan7613" x="425.344" y="77.152" fill="#000" fill-opacity="1" font-family="Sans" font-size="12" font-stretch="normal" font-style="normal" font-variant="normal" font-weight="normal" text-anchor="middle" writing-mode="lr-tb" style="text-align:center;line-height:125%;-inkscape-font-specification:Sans">PostgreSQL</tspan></text></g></g><path id="path7615" fill="none" stroke="#000" stroke-linecap="butt" stroke-linejoin="miter" stroke-opacity="1" stroke-width="1" marker-end="url(#EmptyTriangleOutL)" d="M 368.54366,123.9998 424.67778,83.17083"/><path id="path7799" fill="none" stroke="#000" stroke-linecap="butt" stroke-linejoin="miter" stroke-opacity="1" stroke-width="1" marker-end="url(#EmptyTriangleOutL)" d="m 368.57287,176.64789 55.57625,45.00659"/><path id="path8167" fill="none" stroke="#000" stroke-linecap="butt" stroke-linejoin="miter" stroke-opacity="1" stroke-width="1" d="M 77.326056,143.6652 36.240533,135.52561"/><path id="path8169" fill="none" stroke="#000" stroke-linecap="butt" stroke-linejoin="miter" stroke-opacity="1" stroke-width="1" d="M 148.83812,108.00606 36.434332,135.52561"/><path id="path8171" fill="none" stroke="#000" stroke-linecap="butt" stroke-linejoin="miter" stroke-opacity="1" stroke-width="1" marker-end="url(#EmptyTriangleOutL)" d="m 368.46584,229.68066 55.52645,0"/><path id="path8355" fill="none" stroke="#000" stroke-linecap="butt" stroke-linejoin="miter" stroke-opacity="1" stroke-width="1" marker-end="url(#EmptyTriangleOutL)" d="M 368.32477,176.77572 433.7236,154.90558"/></svg>