<svg xmlns="http://www.w3.org/2000/svg" xmlns:svg="http://www.w3.org/2000/svg" id="svg2" width="25" height="25" x="0" y="0" enable-background="new 0 0 512 512" version="1.1" viewBox="0 0 25 25" xml:space="preserve"><metadata id="metadata9"/><defs id="defs7"><clipPath id="clipPath4541" clipPathUnits="userSpaceOnUse"><path id="path4543" d="m 0,0 1600,0 0,1200 L 0,1200 0,0 z"/></clipPath><clipPath id="clipPath4549" clipPathUnits="userSpaceOnUse"><path id="path4551" d="m 610,889 22,0 0,-22 -22,0 0,22 z"/></clipPath></defs><g id="g4537" transform="matrix(1.25,0,0,-1.25,-763.74987,1110.0001)"><g id="g4539" clip-path="url(#clipPath4541)"><g id="g4545"><g id="g4553"><g id="g4555" clip-path="url(#clipPath4549)"><g id="g4557" transform="translate(611.4999,878.0001)"><path id="path4559" fill="none" stroke="#969696" stroke-dasharray="none" stroke-linecap="butt" stroke-linejoin="miter" stroke-miterlimit="4" stroke-opacity="1" stroke-width="1" d="M 0,0 C 0,5.247 4.253,9.5 9.5,9.5 14.747,9.5 19,5.247 19,0 19,-5.247 14.747,-9.5 9.5,-9.5 4.253,-9.5 0,-5.247 0,0 z"/></g><g id="g4561" transform="translate(625.0001,878.0001)"><path id="path4563" fill="none" stroke="#969696" stroke-dasharray="none" stroke-linecap="butt" stroke-linejoin="miter" stroke-miterlimit="4" stroke-opacity="1" stroke-width="1" d="M 0,0 -8,0"/></g><g id="g4565" transform="translate(625.0001,881.4294)"><path id="path4567" fill="none" stroke="#969696" stroke-dasharray="none" stroke-linecap="butt" stroke-linejoin="miter" stroke-miterlimit="4" stroke-opacity="1" stroke-width="1" d="M 0,0 -8,0"/></g><g id="g4569" transform="translate(625.0001,874.5708)"><path id="path4571" fill="none" stroke="#969696" stroke-dasharray="none" stroke-linecap="butt" stroke-linejoin="miter" stroke-miterlimit="4" stroke-opacity="1" stroke-width="1" d="M 0,0 -8,0"/></g></g></g></g></g></g></svg>