<svg xmlns="http://www.w3.org/2000/svg" xmlns:svg="http://www.w3.org/2000/svg" id="svg6896" width="25" height="25" version="1.1"><defs id="defs6898"><clipPath id="clipPath6872" clipPathUnits="userSpaceOnUse"><path id="path6874" d="m 0,0 1600,0 0,1200 L 0,1200 0,0 z"/></clipPath><clipPath id="clipPath6856" clipPathUnits="userSpaceOnUse"><path id="path6858" d="m 790.5,1175.154 c 0,-5.247 4.253,-9.5 9.5,-9.5 l 0,0 c 5.247,0 9.5,4.253 9.5,9.5 l 0,0 c 0,5.247 -4.253,9.501 -9.5,9.501 l 0,0 c -5.247,0 -9.5,-4.254 -9.5,-9.501"/></clipPath></defs><metadata id="metadata6901"/><g id="layer1" transform="translate(-457.85228,-876.34372)"><g id="g6852" transform="matrix(1.25,0,0,-1.25,-529.64772,2357.7866)"><g id="g6854" clip-path="url(#clipPath6856)"><g id="g6860" transform="translate(800,1177.6807)"><path id="path6862" fill="none" stroke="#282828" stroke-dasharray="none" stroke-linecap="butt" stroke-linejoin="miter" stroke-miterlimit="4" stroke-opacity="1" stroke-width="1" d="M 0,0 0,-18.799"/></g><g id="g6864" transform="translate(796.0122,1173.9758)"><path id="path6866" fill="none" stroke="#282828" stroke-dasharray="none" stroke-linecap="butt" stroke-linejoin="miter" stroke-miterlimit="4" stroke-opacity="1" stroke-width="1" d="M 0,0 3.988,3.988 7.976,0"/></g></g></g><g id="g6868" transform="matrix(1.25,0,0,-1.25,-529.64772,2357.7866)"><g id="g6870" clip-path="url(#clipPath6872)"><g id="g6876" transform="translate(790.5,1175.1543)"><path id="path6878" fill="none" stroke="#282828" stroke-dasharray="none" stroke-linecap="butt" stroke-linejoin="miter" stroke-miterlimit="4" stroke-opacity="1" stroke-width="1" d="M 0,0 C 0,5.247 4.253,9.5 9.5,9.5 14.747,9.5 19,5.247 19,0 19,-5.247 14.747,-9.5 9.5,-9.5 4.253,-9.5 0,-5.247 0,0 z"/></g></g></g></g></svg>