<svg xmlns="http://www.w3.org/2000/svg" xmlns:cc="http://web.resource.org/cc/" xmlns:svg="http://www.w3.org/2000/svg" id="svg2" width="128" height="128" x="0" y="0" enable-background="new 1.5 20.39 128 128" version="1.1" viewBox="1.5 20.39 128 128" xml:space="preserve"><metadata id="metadata65"/><linearGradient id="path35_2_" x1="-1279.124" x2="-1151.124" y1="-1406.488" y2="-1406.488" gradientTransform="matrix(-1,0,0,-1,-1148.754,-1320.477)" gradientUnits="userSpaceOnUse"><stop id="stop7" offset="0" stop-color="#2D7800"/><stop id="stop9" offset=".011" stop-color="#0F491D"/><stop id="stop11" offset=".053" stop-color="#07240F"/><stop id="stop13" offset=".099" stop-color="#166D2C"/><stop id="stop15" offset=".148" stop-color="#1D923A"/><stop id="stop17" offset=".201" stop-color="#1D923A"/><stop id="stop19" offset=".262" stop-color="#1D923A"/><stop id="stop21" offset=".349" stop-color="#1D923A"/><stop id="stop23" offset=".586" stop-color="#166D2C"/><stop id="stop25" offset="1" stop-color="#07240F"/></linearGradient><path id="path35_1_" fill="url(#path35_2_)" d="M 2.3703704,39.077582 C 2.3703704,29.690582 10.05037,22.010582 19.43737,22.010582 L 113.30437,22.010582 C 122.68937,22.010582 130.37037,29.690582 130.37037,39.077582 L 130.37037,132.94458 C 130.37037,142.33058 122.68937,150.01058 113.30437,150.01058 L 19.43737,150.01058 C 10.05037,150.01058 2.3703704,142.32958 2.3703704,132.94458 L 2.3703704,39.077582 z"/><radialGradient id="path53_2_" cx="675.758" cy="1527.28" r="85.026" gradientTransform="matrix(1.048,0,0,1.048,-641.8231,-1514.578)" gradientUnits="userSpaceOnUse"><stop id="stop29" offset=".5" stop-color="#166D2C"/><stop id="stop31" offset=".781" stop-color="#07240F"/><stop id="stop33" offset="1" stop-color="#4AC900"/></radialGradient><path id="path53_1_" fill="url(#path53_2_)" d="M 20.25937,26.277582 C 12.74737,26.277582 6.6363704,32.388582 6.6363704,39.901582 L 6.6363704,132.12158 C 6.6363704,139.63258 12.74737,145.74458 20.25937,145.74458 L 112.48037,145.74458 C 119.99337,145.74458 126.10337,139.63258 126.10337,132.12158 L 126.10337,39.900582 C 126.10337,32.389582 119.99337,26.277582 112.48037,26.277582 L 20.25937,26.277582 L 20.25937,26.277582 z"/><radialGradient id="path5692_3_" cx="-1113.465" cy="-2485.681" r="65.628" gradientTransform="matrix(0.4413,-0.5959,-0.5323,-0.394,-773.878,-1569.439)" gradientUnits="userSpaceOnUse"><stop id="stop37" offset="0" stop-color="#FFF"/><stop id="stop39" offset=".328" stop-color="#FDFDFC"/><stop id="stop41" offset=".677" stop-color="#F4F5F4"/><stop id="stop43" offset="1" stop-color="#CACFD0"/></radialGradient><path id="path5692_2_" fill="url(#path5692_3_)" d="M 63.76137,40.688582 L 51.16737,41.898582 L 51.16737,93.780582 L 63.62737,91.897582 L 63.62737,69.777582 L 80.39137,94.321582 L 93.52437,90.149582 L 76.35537,66.548582 L 93.65837,44.294582 L 80.25837,41.227582 L 63.62737,63.480582 L 63.76137,40.688582 z M 35.21037,53.336582 C 35.06637,53.351582 34.91437,53.389582 34.80737,53.497582 L 29.85537,58.449582 C 29.64737,58.658582 29.62137,58.977582 29.77437,59.230582 L 35.56037,68.783582 C 34.53337,70.510582 33.69837,72.363582 33.11137,74.328582 L 22.48137,76.533582 C 22.18537,76.595582 21.97037,76.877582 21.97037,77.179582 L 21.97037,84.175582 C 21.97037,84.470582 22.19437,84.726582 22.48137,84.793582 L 32.78837,87.296582 C 33.34037,89.571582 34.19137,91.747582 35.31837,93.729582 L 29.34437,102.82358 C 29.17737,103.07658 29.20937,103.41758 29.42537,103.63258 L 34.37737,108.58458 C 34.58637,108.79258 34.90537,108.81758 35.15837,108.66558 L 44.52237,102.98658 C 46.35837,104.04758 48.34637,104.89758 50.44237,105.46358 L 52.62037,115.95858 C 52.68237,116.25558 52.93537,116.46958 53.24037,116.46958 L 60.23837,116.46958 C 60.53037,116.46958 60.78737,116.27158 60.85737,115.98458 L 63.44037,105.43458 C 65.60037,104.85258 67.63837,103.98958 69.52237,102.87758 L 78.75137,108.93458 C 79.00437,109.10158 79.34437,109.06858 79.56037,108.85458 L 84.48537,103.90158 C 84.69237,103.69458 84.74637,103.37458 84.59237,103.12258 L 81.22937,97.578582 L 80.12637,97.929582 C 79.96737,97.979582 79.79137,97.906582 79.69737,97.766582 C 79.69737,97.766582 77.57237,94.641582 74.79737,90.584582 C 71.48337,97.073582 64.71937,101.50858 56.93037,101.50858 C 45.86237,101.50858 36.88237,92.529582 36.88237,81.462582 C 36.88237,73.319582 41.75237,66.326582 48.72337,63.190582 L 48.72337,58.023582 C 47.45537,58.467582 46.22937,59.002582 45.06337,59.638582 C 45.06237,59.637582 45.06537,59.613582 45.06337,59.612582 L 35.61837,53.422582 C 35.48637,53.332582 35.35237,53.321582 35.21037,53.336582 z"/><linearGradient id="path99_2_" x1="653.723" x2="653.723" y1="1427.638" y2="1514.088" gradientTransform="translate(-587.3542,-1410.099)" gradientUnits="userSpaceOnUse"><stop id="stop47" offset=".13" stop-color="#FFF"/><stop id="stop49" offset=".5" stop-color="#FFF"/></linearGradient><path id="path99_1_" fill="url(#path99_2_)" d="M 123.97037,66.185582 C 122.69637,51.805582 120.69337,41.866582 120.66037,41.700582 C 120.18337,39.130582 116.43237,35.409582 113.88437,34.930582 C 113.63737,34.883582 89.77137,30.249582 65.87437,30.559582 L 65.81937,30.559582 C 41.92737,30.249582 18.05937,34.883582 17.80937,34.930582 C 15.26237,35.409582 11.51337,39.130582 11.03937,41.700582 C 11.01637,41.825582 9.8743704,47.039582 8.7673704,56.254582 C 8.7673704,62.425582 8.7673704,68.594582 8.7673704,74.766582 C 8.7673704,78.614582 11.32337,83.065582 14.45037,84.676582 C 14.45037,84.565582 19.39637,98.811582 61.39537,98.811582 C 103.39537,98.811582 118.60937,76.758582 118.60537,77.003582 C 121.55537,75.021582 123.96737,70.276582 123.96737,66.428582 C 123.97037,66.346582 123.97037,66.265582 123.97037,66.185582 z" enable-background="new" opacity=".3"/><path id="path52" fill="#c03" d="M 114.21437,103.78958 L 95.55237,103.78958 C 92.11237,103.78958 89.32737,106.57758 89.32737,110.01358 C 85.89137,110.01358 83.10337,112.80258 83.10337,116.23858 L 83.10337,134.90058 C 83.10337,138.33958 85.89137,141.12558 89.32737,141.12558 L 107.99137,141.12558 C 111.42937,141.12558 114.21437,138.34458 114.21437,134.90058 C 117.65337,134.90058 120.43737,132.12158 120.43737,128.68558 L 120.43737,110.01458 C 120.43437,106.57858 117.65337,103.78958 114.21437,103.78958 z"/><linearGradient id="path59_3_" x1="-204.989" x2="-204.989" y1="387.694" y2="412.591" gradientTransform="matrix(7.412,0,0,7.412,1621.137,-2763.574)" gradientUnits="userSpaceOnUse"><stop id="stop55" offset=".681" stop-color="#FFF"/><stop id="stop57" offset=".799" stop-color="#FBFBFC"/><stop id="stop59" offset=".912" stop-color="#F0F1F3"/><stop id="stop61" offset="1" stop-color="#E1E3E8"/></linearGradient><path id="path59_1_" fill="url(#path59_3_)" d="M 114.19137,115.69458 L 114.19137,115.68158 L 114.19137,115.68158 C 114.16637,115.43758 114.13037,115.21258 114.07837,115.00358 C 113.32837,111.12658 109.33737,110.09358 108.62637,110.03258 L 108.62637,128.27458 C 107.81837,130.18458 104.61337,131.46058 101.21137,131.24758 C 97.05237,130.98458 95.04237,129.47258 94.92437,128.09358 L 94.92437,110.01458 L 89.32837,110.01458 L 89.32837,128.67858 C 89.42037,132.18958 91.78037,134.71058 95.54737,134.90258 L 104.73137,134.90258 C 106.11737,134.63258 107.71437,133.44858 108.61837,132.19458 L 108.61837,134.90258 L 109.42837,134.90258 L 114.19037,134.90258 L 114.21337,134.90258 L 114.21337,116.23558 C 114.21437,116.04458 114.19937,115.86658 114.19137,115.69458 z"/></svg>