<svg xmlns="http://www.w3.org/2000/svg" xmlns:cc="http://web.resource.org/cc/" xmlns:svg="http://www.w3.org/2000/svg" xmlns:xlink="http://www.w3.org/1999/xlink" id="Livello_1" width="128" height="128" enable-background="new 0 0 119.999 120.061" overflow="visible" version="1.0" viewBox="0 0 119.999 120.061" xml:space="preserve"><defs id="defs127"><linearGradient id="linearGradient3586"><stop id="stop3588" offset="0" stop-color="#000" stop-opacity="1"/><stop id="stop3590" offset="1" stop-color="#000" stop-opacity="0"/></linearGradient><linearGradient id="linearGradient3590" x1="313.748" x2="305.677" y1="444.457" y2="463.135" gradientTransform="translate(-372.5,-324.5)" gradientUnits="userSpaceOnUse" xlink:href="#linearGradient3586"/><linearGradient id="linearGradient3578"><stop id="stop3580" offset="0" stop-color="#c8cddc" stop-opacity="1"/><stop id="stop3582" offset="1" stop-color="#c8cddc" stop-opacity="0"/></linearGradient><linearGradient id="linearGradient3588" x1="313.748" x2="305.677" y1="444.457" y2="463.135" gradientTransform="translate(-372.5,-324.5)" gradientUnits="userSpaceOnUse" xlink:href="#linearGradient3578"/><linearGradient id="linearGradient3508"><stop id="stop3510" offset="0" stop-color="#c8cddc" stop-opacity="1"/><stop id="stop3512" offset="1" stop-color="#c8cddc" stop-opacity="0"/></linearGradient><linearGradient id="linearGradient3585" x1="270.506" x2="299.284" y1="482.539" y2="441.539" gradientUnits="userSpaceOnUse" xlink:href="#linearGradient3508"/><linearGradient id="linearGradient3582" x1="315.723" x2="290.621" y1="453.089" y2="434.351" gradientTransform="translate(58.5,26.5)" gradientUnits="userSpaceOnUse" xlink:href="#linearGradient3343"/><linearGradient id="linearGradient3343"><stop id="stop3345" offset="0" stop-color="#bbc1d4" stop-opacity="1"/><stop id="stop3347" offset="1" stop-color="#bbc1d4" stop-opacity="0"/></linearGradient><linearGradient id="linearGradient3579" x1="315.723" x2="290.621" y1="453.089" y2="434.351" gradientTransform="translate(-372.5,-324.5)" gradientUnits="userSpaceOnUse" xlink:href="#linearGradient3343"/><clipPath id="clipPath3289" clipPathUnits="userSpaceOnUse"><path id="path3291" fill="#f4f5f8" fill-opacity="1" fill-rule="evenodd" stroke="#98a2bf" stroke-linecap="butt" stroke-linejoin="miter" stroke-opacity="1" stroke-width="1" d="M 463.75,435.375 C 462.47221,435.58506 461.71617,436.60113 461.75,437.375 C 461.67075,437.40672 460.87251,438.49769 460.79289,438.52941 C 462.04491,442.53121 465.95016,446.80149 477.54289,446.49816 C 489.04307,446.19726 493.45299,441.22873 494.71875,437.5625 C 494.5676,437.5025 494.39985,437.43497 494.25,437.375 C 494.28383,436.60113 493.52779,435.58506 492.25,435.375 C 489.83637,439.11764 488.24281,442.77637 478,443.0625 C 467.75719,443.34864 464.63251,439.11371 463.75,435.375 z M 459.125,438.40625 C 453.68198,440.50508 447.66707,442.67009 441.90625,445.28125 C 447.80188,443.05208 453.52791,442.11601 458.76072,440.15441 C 458.75013,439.92745 459.01107,438.6493 459.125,438.40625 z M 497.46875,438.625 C 497.52198,438.79302 497.56984,438.93659 497.5625,439.09375 C 501.77057,440.67121 506.39991,442.24968 511.125,443.96875 C 506.49146,442.00962 501.81994,440.29346 497.46875,438.625 z" filter="url(#filter3283)"/></clipPath><linearGradient id="linearGradient4126"><stop id="stop4128" offset="0" stop-color="#fff" stop-opacity="1"/><stop id="stop4130" offset="1" stop-color="#fff" stop-opacity="0"/></linearGradient><linearGradient id="linearGradient3576" x1="326" x2="310.532" y1="476.409" y2="429.74" gradientTransform="translate(-372.5,-324.5)" gradientUnits="userSpaceOnUse" xlink:href="#linearGradient4126"/><clipPath id="clipPath4063" clipPathUnits="userSpaceOnUse"><path id="path4065" fill="#f4f5f8" fill-opacity="1" fill-rule="evenodd" stroke="none" stroke-linecap="butt" stroke-linejoin="miter" stroke-opacity="1" stroke-width="1" d="M 410.16587,443.06739 C 399.92306,443.35352 396.79838,439.11371 395.91587,435.375 C 394.63808,435.58506 393.88204,436.60113 393.91587,437.375 C 386.83254,440.20988 378.26803,443.06735 370.66587,446.875 C 367.84405,448.28835 364.62926,452.59537 363.79087,454.875 C 361.23389,461.82756 358.41587,471.625 358.41587,471.625 L 359.91587,473.375 C 375.56063,482.28715 396.79503,481.875 410.16587,481.875 C 423.53671,481.875 444.77111,482.28715 460.41587,473.375 L 461.91587,471.625 C 461.91587,471.625 459.09785,461.82756 456.54087,454.875 C 455.70248,452.59537 452.48769,448.28835 449.66587,446.875 C 442.06371,443.06735 433.4992,440.20988 426.41587,437.375 C 426.4497,436.60113 425.69366,435.58506 424.41587,435.375 C 422.00224,439.11764 420.40868,442.78126 410.16587,443.06739 z"/></clipPath><linearGradient id="linearGradient4067"><stop id="stop4069" offset="0" stop-color="#8d97b7" stop-opacity="1"/><stop id="stop4071" offset="1" stop-color="#8d97b7" stop-opacity="0"/></linearGradient><linearGradient id="linearGradient3574" x1="414.416" x2="461.906" y1="458.626" y2="458.626" gradientUnits="userSpaceOnUse" xlink:href="#linearGradient4067"/><linearGradient id="linearGradient3516"><stop id="stop3518" offset="0" stop-color="#c8cddc" stop-opacity="1"/><stop id="stop3520" offset="1" stop-color="#c8cddc" stop-opacity="0"/></linearGradient><linearGradient id="linearGradient3572" x1="283.506" x2="312.784" y1="463.039" y2="443.039" gradientTransform="translate(-372.5,-324.5)" gradientUnits="userSpaceOnUse" xlink:href="#linearGradient3516"/><linearGradient id="linearGradient3397"><stop id="stop3399" offset="0" stop-color="#f4f5f8" stop-opacity="1"/><stop id="stop3401" offset="1" stop-color="#fdfdfe" stop-opacity="1"/></linearGradient><linearGradient id="linearGradient3570" x1="325.297" x2="325.297" y1="481.874" y2="426.803" gradientTransform="matrix(1.005964,0,0,1.005306,-271.6668,-360.2807)" gradientUnits="userSpaceOnUse" xlink:href="#linearGradient3397"/><linearGradient id="linearGradient3733"><stop id="stop3735" offset="0" stop-color="#e2e2e2" stop-opacity="1"/><stop id="stop3737" offset="1" stop-color="#fff" stop-opacity="1"/></linearGradient><linearGradient id="linearGradient3568" x1="563.647" x2="568.989" y1="214.966" y2="214.966" gradientTransform="matrix(0.536644,0,0,1.863431,-372.5,-324.5)" gradientUnits="userSpaceOnUse" xlink:href="#linearGradient3733"/><linearGradient id="linearGradient3581"><stop id="stop3583" offset="0" stop-color="#dfcbba" stop-opacity="1"/><stop id="stop3585" offset="1" stop-color="#dfcbba" stop-opacity="0"/></linearGradient><linearGradient id="linearGradient3566" x1="353.445" x2="339.768" y1="390.862" y2="373.612" gradientTransform="translate(-372.5,-324.5)" gradientUnits="userSpaceOnUse" xlink:href="#linearGradient3581"/><linearGradient id="linearGradient3499"><stop id="stop3501" offset="0" stop-color="#fff" stop-opacity="1"/><stop id="stop3503" offset="1" stop-color="#fff" stop-opacity="0"/></linearGradient><linearGradient id="linearGradient3564" x1="330.093" x2="320.364" y1="407.39" y2="367.392" gradientTransform="translate(-372.5,-324.5)" gradientUnits="userSpaceOnUse" xlink:href="#linearGradient3499"/><linearGradient id="linearGradient3489"><stop id="stop3491" offset="0" stop-color="#765c44" stop-opacity="1"/><stop id="stop3493" offset="1" stop-color="#765c44" stop-opacity="0"/></linearGradient><linearGradient id="linearGradient3562" x1="304.887" x2="345.62" y1="385.861" y2="384.624" gradientUnits="userSpaceOnUse" xlink:href="#linearGradient3489"/><linearGradient id="linearGradient3368"><stop id="stop3370" offset="0" stop-color="#e5d3c3" stop-opacity="1"/><stop id="stop3372" offset="1" stop-color="#e5d3c3" stop-opacity="0"/></linearGradient><radialGradient id="radialGradient3560" cx="332.493" cy="369.618" r="22.78" fx="332.493" fy="369.618" gradientTransform="matrix(-0.702043,-0.110678,8.385981e-2,-0.531237,265.2384,247.2445)" gradientUnits="userSpaceOnUse" xlink:href="#linearGradient3368"/><clipPath id="clipPath3429" clipPathUnits="userSpaceOnUse"><path id="path3431" fill="none" fill-opacity=".75" fill-rule="evenodd" stroke="#000" stroke-linecap="butt" stroke-linejoin="miter" stroke-opacity="1" stroke-width="1" d="M 303.70236,398.81874 L 303.52558,385.56049 L 306.17724,378.31265 L 311.48054,376.54488 L 319.96582,379.19653 L 327.39044,380.61074 L 334.63828,376.89843 L 339.94158,376.89843 L 343.65389,382.02496 L 345.59844,390.15668 L 345.42166,395.45998 L 345.77521,397.40453 L 337.99704,382.37851 L 328.4511,386.09082 L 321.55681,386.2676 L 311.12698,381.31785 L 303.70236,398.81874 z"/></clipPath><linearGradient id="linearGradient3433"><stop id="stop3435" offset="0" stop-color="#fff" stop-opacity="1"/><stop id="stop3437" offset="1" stop-color="#fff" stop-opacity="0"/></linearGradient><linearGradient id="linearGradient3558" x1="324.65" x2="325.769" y1="398.854" y2="370.57" gradientUnits="userSpaceOnUse" xlink:href="#linearGradient3433"/><radialGradient id="radialGradient3556" cx="303.719" cy="397.177" r=".796" fx="303.719" fy="397.177" gradientTransform="matrix(1,0,0,2.57687,-372.5,-950.797)" gradientUnits="userSpaceOnUse" xlink:href="#linearGradient3837"/><linearGradient id="linearGradient3837"><stop id="stop3839" offset="0" stop-color="#f1e4d4" stop-opacity="1"/><stop id="stop3841" offset="1" stop-color="#f1e4d4" stop-opacity="0"/></linearGradient><radialGradient id="radialGradient3554" cx="303.719" cy="397.177" r=".796" fx="303.719" fy="397.177" gradientTransform="matrix(1,0,0,2.57687,43.13351,-626.297)" gradientUnits="userSpaceOnUse" xlink:href="#linearGradient3837"/><linearGradient id="linearGradient3329"><stop id="stop3331" offset="0" stop-color="#f9eee2" stop-opacity="1"/><stop id="stop3333" offset="1" stop-color="#f9eee2" stop-opacity="0"/></linearGradient><linearGradient id="linearGradient3552" x1="317.013" x2="331.421" y1="431.124" y2="418.659" gradientTransform="translate(-372.5,-324.5)" gradientUnits="userSpaceOnUse" xlink:href="#linearGradient3329"/><linearGradient id="linearGradient3215"><stop id="stop3217" offset="0" stop-color="#671800" stop-opacity="1"/><stop id="stop3219" offset="1" stop-color="#7b3900" stop-opacity="0"/></linearGradient><linearGradient id="linearGradient3279" x1="338.623" x2="339.519" y1="457.909" y2="502.822" gradientTransform="translate(-95.225391,0)" gradientUnits="userSpaceOnUse" xlink:href="#linearGradient3215"/><radialGradient id="radialGradient3291" cx="412.432" cy="395.739" r="22.445" fx="412.432" fy="395.739" gradientTransform="matrix(1,0,0,1.4395859,0.3535533,-174.66839)" gradientUnits="userSpaceOnUse" xlink:href="#linearGradient3279"/><mask id="mask3287" maskUnits="userSpaceOnUse"><path id="path3289" fill="url(#radialGradient3291)" fill-opacity="1" fill-rule="evenodd" stroke="none" stroke-linecap="butt" stroke-linejoin="miter" stroke-opacity="1" stroke-width="1" d="M 412.56716,362.7206 C 404.7906,362.9256 395.78945,368.58113 392.66091,375.5331 C 389.47419,382.61431 389.9381,391.06936 391.84841,400.8456 C 393.75873,410.62183 400.03668,420.79216 403.22341,424.4706 C 406.24381,427.95705 410.11265,427.32692 412.56716,427.25185 C 412.69296,427.25185 412.8695,427.24772 413.00466,427.25185 C 415.45917,427.32692 419.32801,427.95705 422.34841,424.4706 C 425.53514,420.79216 431.81309,410.62183 433.72341,400.8456 C 435.63374,391.06936 436.09763,382.61431 432.91091,375.5331 C 429.78236,368.58113 420.78122,362.9256 413.00466,362.7206 L 412.56716,362.7206 z" opacity="1"/></mask><linearGradient id="linearGradient3163"><stop id="stop3165" offset="0" stop-color="#fff5e4" stop-opacity="1"/><stop id="stop3173" offset=".25" stop-color="#ffecd0" stop-opacity="1"/><stop id="stop3171" offset=".5" stop-color="#ffd390" stop-opacity="1"/><stop id="stop3167" offset="1" stop-color="#ffc46a" stop-opacity="1"/></linearGradient><linearGradient id="linearGradient3550" x1="412.786" x2="412.786" y1="400.846" y2="422.636" gradientUnits="userSpaceOnUse" xlink:href="#linearGradient3163"/><linearGradient id="linearGradient3149"><stop id="stop3151" offset="0" stop-color="#faf0e5" stop-opacity="1"/><stop id="stop3378" offset=".591" stop-color="#f7e7d6" stop-opacity="1"/><stop id="stop3153" offset="1" stop-color="#efcfac" stop-opacity="1"/></linearGradient><radialGradient id="radialGradient3548" cx="324.398" cy="396.093" r="22.445" fx="330.044" fy="392.754" gradientTransform="matrix(1.005964,0,0,1.447223,-271.4468,-535.3526)" gradientUnits="userSpaceOnUse" xlink:href="#linearGradient3149"/><clipPath id="clipPath3705" clipPathUnits="userSpaceOnUse"><path id="path3707" fill="url(#radialGradient3709)" fill-opacity="1" fill-rule="evenodd" stroke="none" stroke-linecap="butt" stroke-linejoin="miter" stroke-opacity="1" stroke-width="1" d="M 341.25,409.625 C 339.73679,416.82736 335.50876,433.0214 340.75,436.875 C 340.10353,443.87478 333.6714,446.51892 325.75,448.0625 L 324.25,448.0625 C 316.3286,446.51892 309.89647,443.87478 309.25,436.875 C 314.49124,433.0214 310.26321,416.82736 308.75,409.625 L 325,417.03125 L 341.25,409.625 z" opacity=".749"/></clipPath><radialGradient id="radialGradient3546" cx="312" cy="431.38" r="16.25" fx="311.278" fy="433.706" gradientTransform="matrix(-0.696437,0,0,1.188967,285.6374,-439.0428)" gradientUnits="userSpaceOnUse" xlink:href="#linearGradient3654"/><linearGradient id="linearGradient3654"><stop id="stop3656" offset="0" stop-color="#f9ede0" stop-opacity="1"/><stop id="stop3670" offset=".5" stop-color="#f9ede0" stop-opacity=".806"/><stop id="stop3658" offset="1" stop-color="#f9ede0" stop-opacity="0"/></linearGradient><radialGradient id="radialGradient3544" cx="312" cy="431.38" r="16.25" fx="311.278" fy="433.706" gradientTransform="matrix(0.696437,0,0,1.188967,-175.0942,-439.0428)" gradientUnits="userSpaceOnUse" xlink:href="#linearGradient3654"/><linearGradient id="linearGradient3291"><stop id="stop3293" offset="0" stop-color="#000" stop-opacity="1"/><stop id="stop3295" offset="1" stop-color="#000" stop-opacity="0"/></linearGradient><radialGradient id="radialGradient3336" cx="63.912" cy="115.709" r="63.912" fx="33.953" fy="115.709" gradientTransform="matrix(1,0,0,0.197802,0,92.82166)" gradientUnits="userSpaceOnUse" xlink:href="#linearGradient3291"/><linearGradient id="linearGradient9291" x1="41.189" x2="27.645" y1="80.102" y2="66.558" gradientTransform="matrix(1.125051,0.124543,0.12448,1.12448,-109.7549,18.77532)" gradientUnits="userSpaceOnUse" xlink:href="#XMLID_11_"/><linearGradient id="linearGradient6141"><stop id="stop6143" offset="0" stop-color="#000" stop-opacity="1"/><stop id="stop6145" offset="1" stop-color="#fff" stop-opacity="0"/></linearGradient><linearGradient id="linearGradient5166" x1="77.543" x2="88.108" y1="41.869" y2="31.303" gradientTransform="translate(-3.0255781e-2,3.056501e-4)" gradientUnits="userSpaceOnUse"><stop id="stop5168" offset="0" stop-color="#323232" stop-opacity="1"/><stop id="stop5170" offset=".757" stop-color="#fff" stop-opacity="0"/></linearGradient><linearGradient id="XMLID_16_" x1="77.543" x2="88.108" y1="41.869" y2="31.303" gradientTransform="translate(-3.0255781e-2,3.056501e-4)" gradientUnits="userSpaceOnUse"><stop id="stop92" offset="0" stop-color="#fff" stop-opacity="1"/><stop id="stop106" offset=".757" stop-color="#fff" stop-opacity=".019"/></linearGradient><linearGradient id="linearGradient3295" x1="-6.165" x2="11.018" y1="112.505" y2="112.505" gradientTransform="matrix(0.7074656,-0.7074656,0.7071068,0.7071068,-18.749172,36.539651)" gradientUnits="userSpaceOnUse" xlink:href="#XMLID_18_"/><linearGradient id="linearGradient3298" x1="38.758" x2="63.923" y1="7.428" y2="7.428" gradientTransform="matrix(1.0002442,-2.5378062e-4,-2.5378062e-4,1.0002442,8.6347844,-24.632129)" gradientUnits="userSpaceOnUse" xlink:href="#XMLID_17_"/><linearGradient id="linearGradient3301" x1="76.281" x2="86.611" y1="43.06" y2="31.303" gradientTransform="matrix(0.707466,-0.707466,0.707107,0.707107,-131.8252,69.5167)" gradientUnits="userSpaceOnUse" xlink:href="#XMLID_16_"/><linearGradient id="linearGradient3304" x1="76.919" x2="100.641" y1="43.144" y2="19.421" gradientTransform="matrix(0.7074656,-0.7074656,0.7071068,0.7071068,-24.895791,39.125846)" gradientUnits="userSpaceOnUse" xlink:href="#XMLID_15_"/><linearGradient id="linearGradient3307" x1="67.88" x2="105.392" y1="6.433" y2="43.946" gradientTransform="matrix(0.7074656,-0.7074656,0.7071068,0.7071068,-18.749172,36.539651)" gradientUnits="userSpaceOnUse" xlink:href="#XMLID_14_"/><linearGradient id="linearGradient3310" x1="-.478" x2="6.316" y1="105.059" y2="111.852" gradientTransform="matrix(-0.7074656,0.7074656,-0.7071068,-0.7071068,101.2385,185.78751)" gradientUnits="userSpaceOnUse" xlink:href="#XMLID_13_"/><linearGradient id="linearGradient3313" x1="1.35" x2="8.144" y1="103.232" y2="110.026" gradientTransform="matrix(-0.7074656,0.7074656,-0.7071068,-0.7071068,107.38512,183.20132)" gradientUnits="userSpaceOnUse" xlink:href="#XMLID_12_"/><linearGradient id="XMLID_10_" x1="61.969" x2="40.816" y1="88.431" y2="88.431" gradientTransform="matrix(0.7074589,0.7071,-0.7074589,0.7071,68.76314,-21.373694)" gradientUnits="userSpaceOnUse"><stop id="stop10" offset=".053" stop-color="#555"/><stop id="stop12" offset=".211" stop-color="#BBB"/><stop id="stop14" offset=".363" stop-color="#fff" stop-opacity="1"/><stop id="stop16" offset=".603" stop-color="#fff" stop-opacity="1"/><stop id="stop18" offset=".85" stop-color="#e9e9e9" stop-opacity="1"/><stop id="stop20" offset="1" stop-color="#555"/></linearGradient><linearGradient id="linearGradient10168" x1="61.969" x2="40.816" y1="88.431" y2="88.431" gradientTransform="matrix(1.5628683,-3.9649986e-4,-3.9652886e-4,1.562754,-20.23462,-103.35726)" gradientUnits="userSpaceOnUse" xlink:href="#XMLID_10_"/><linearGradient id="linearGradient10170" x1="61.969" x2="40.816" y1="88.431" y2="88.431" gradientTransform="matrix(1.0663866,2.7056218e-4,-2.7056218e-4,-1.0663866,9.2387294,154.26114)" gradientUnits="userSpaceOnUse" xlink:href="#XMLID_10_"/><linearGradient id="linearGradient10203" x1="56.031" x2="72.031" y1="121.5" y2="121.5" gradientUnits="userSpaceOnUse" xlink:href="#XMLID_17_"/><linearGradient id="linearGradient10205" x1="56.031" x2="72.031" y1="110.5" y2="110.5" gradientUnits="userSpaceOnUse" xlink:href="#XMLID_17_"/><linearGradient id="linearGradient10219" x1="61.969" x2="40.816" y1="88.431" y2="88.431" gradientTransform="matrix(1.0663866,2.7056218e-4,-2.7056218e-4,-1.0663866,9.2387294,154.26114)" gradientUnits="userSpaceOnUse" xlink:href="#XMLID_10_"/><linearGradient id="linearGradient10221" x1="56.031" x2="72.031" y1="110.5" y2="110.5" gradientUnits="userSpaceOnUse" xlink:href="#XMLID_17_"/><linearGradient id="linearGradient10223" x1="67.88" x2="105.392" y1="6.433" y2="43.946" gradientTransform="matrix(0.7074656,-0.7074656,0.7071068,0.7071068,-18.749172,36.539651)" gradientUnits="userSpaceOnUse" xlink:href="#XMLID_14_"/><linearGradient id="linearGradient10225" x1="76.919" x2="100.641" y1="43.144" y2="19.421" gradientTransform="matrix(0.7074656,-0.7074656,0.7071068,0.7071068,-24.895791,39.125846)" gradientUnits="userSpaceOnUse" xlink:href="#XMLID_15_"/><linearGradient id="linearGradient10227" x1="76.281" x2="86.611" y1="43.06" y2="31.303" gradientTransform="matrix(0.7074656,-0.7074656,0.7071068,0.7071068,-24.895791,39.125846)" gradientUnits="userSpaceOnUse" xlink:href="#XMLID_16_"/><linearGradient id="linearGradient10229" x1="38.758" x2="63.923" y1="7.428" y2="7.428" gradientTransform="matrix(1.0002442,-2.5378062e-4,-2.5378062e-4,1.0002442,8.6347844,-24.632129)" gradientUnits="userSpaceOnUse" xlink:href="#XMLID_17_"/><linearGradient id="linearGradient10231" x1="56.031" x2="72.031" y1="121.5" y2="121.5" gradientUnits="userSpaceOnUse" xlink:href="#XMLID_17_"/><linearGradient id="linearGradient10233" x1="-6.165" x2="11.018" y1="112.505" y2="112.505" gradientTransform="matrix(0.7074656,-0.7074656,0.7071068,0.7071068,-18.749172,36.539651)" gradientUnits="userSpaceOnUse" xlink:href="#XMLID_18_"/><linearGradient id="linearGradient10236" x1="-6.165" x2="11.018" y1="112.505" y2="112.505" gradientTransform="matrix(1.000508,0,0,1,-100.7864,33.00201)" gradientUnits="userSpaceOnUse" xlink:href="#XMLID_18_"/><linearGradient id="linearGradient10239" x1="56.031" x2="72.031" y1="121.5" y2="121.5" gradientTransform="matrix(0.663249,0.663249,-0.663249,0.663249,-61.71314,20.40038)" gradientUnits="userSpaceOnUse" xlink:href="#XMLID_17_"/><linearGradient id="linearGradient10242" x1="38.758" x2="63.923" y1="7.428" y2="7.428" gradientTransform="matrix(0.7074589,0.7071,-0.7074589,0.7071,68.761161,-21.373784)" gradientUnits="userSpaceOnUse" xlink:href="#XMLID_17_"/><linearGradient id="linearGradient10245" x1="76.281" x2="86.611" y1="43.06" y2="31.303" gradientTransform="matrix(1.0005075,0,0,1.0000001,-3.223487e-2,2.1565487e-4)" gradientUnits="userSpaceOnUse" xlink:href="#XMLID_16_"/><linearGradient id="linearGradient10248" x1="76.919" x2="100.641" y1="43.144" y2="19.421" gradientTransform="matrix(1.000508,0,0,1,-106.9614,30.48441)" gradientUnits="userSpaceOnUse" xlink:href="#XMLID_15_"/><linearGradient id="linearGradient10251" x1="67.88" x2="105.392" y1="6.433" y2="43.946" gradientTransform="matrix(1.000508,0,0,1,-100.7864,33.00201)" gradientUnits="userSpaceOnUse" xlink:href="#XMLID_14_"/><linearGradient id="linearGradient10254" x1="56.031" x2="72.031" y1="110.5" y2="110.5" gradientTransform="matrix(0.663249,0.663249,-0.663249,0.663249,-61.71314,20.40038)" gradientUnits="userSpaceOnUse" xlink:href="#XMLID_17_"/><linearGradient id="linearGradient10257" x1="61.969" x2="40.816" y1="88.431" y2="88.431" gradientTransform="matrix(0.7071,0.707459,0.7071,-0.707459,-157.899,128.8414)" gradientUnits="userSpaceOnUse" xlink:href="#XMLID_10_"/><linearGradient id="linearGradient10260" x1="51.339" x2="51.327" y1="30.16" y2="-17.583" gradientTransform="matrix(0.707459,0.7071,-0.707459,0.7071,-38.16802,9.110415)" gradientUnits="userSpaceOnUse" xlink:href="#XMLID_17_"/><linearGradient id="linearGradient6147" x1="7.249" x2="57.626" y1="120.251" y2="69.874" gradientTransform="matrix(0.937975,0,0,0.937975,-106.9601,30.48419)" gradientUnits="userSpaceOnUse" xlink:href="#linearGradient6141"/></defs><metadata id="metadata3"/><linearGradient id="XMLID_11_" x1="41.189" x2="27.645" y1="80.102" y2="66.558" gradientTransform="translate(8.7075442,3.5814057)" gradientUnits="userSpaceOnUse"><stop id="stop25" offset=".408" stop-color="#f0f0f0" stop-opacity="1"/><stop id="stop27" offset=".506" stop-color="#C3C3C3"/><stop id="stop29" offset=".56" stop-color="#8b8b8b" stop-opacity="1"/><stop id="stop12212" offset=".679" stop-color="#393939" stop-opacity="1"/></linearGradient><linearGradient id="XMLID_12_" x1="1.35" x2="8.144" y1="103.232" y2="110.026" gradientTransform="matrix(-1,0,0,-1,18.150444,221.94371)" gradientUnits="userSpaceOnUse"><stop id="stop36" offset="0" stop-color="#EEE"/><stop id="stop38" offset="1" stop-color="#BBB"/></linearGradient><linearGradient id="XMLID_13_" x1="-.478" x2="6.316" y1="105.059" y2="111.852" gradientTransform="matrix(-1,0,0,-1,11.978544,219.42611)" gradientUnits="userSpaceOnUse"><stop id="stop43" offset="0" stop-color="#BBB"/><stop id="stop45" offset="1" stop-color="#555"/></linearGradient><linearGradient id="XMLID_14_" x1="67.88" x2="105.392" y1="6.433" y2="43.946" gradientTransform="translate(6.1416442,2.5179057)" gradientUnits="userSpaceOnUse"><stop id="stop50" offset=".095" stop-color="#666" stop-opacity="1"/><stop id="stop3330" offset=".41" stop-color="#b7b7b7" stop-opacity="1"/><stop id="stop56" offset=".505" stop-color="#fff" stop-opacity="1"/><stop id="stop3328" offset=".63" stop-color="#a3a3a3" stop-opacity="1"/><stop id="stop62" offset=".935" stop-color="#646464" stop-opacity="1"/></linearGradient><linearGradient id="XMLID_15_" x1="76.919" x2="100.641" y1="43.144" y2="19.421" gradientTransform="translate(-3.0255781e-2,3.056501e-4)" gradientUnits="userSpaceOnUse"><stop id="stop67" offset="0" stop-color="#aeaeae" stop-opacity="1"/><stop id="stop69" offset=".06" stop-color="#b2b2b2" stop-opacity="1"/><stop id="stop71" offset=".181" stop-color="#d9d9d9" stop-opacity="1"/><stop id="stop73" offset=".32" stop-color="#fff" stop-opacity="1"/><stop id="stop75" offset=".435" stop-color="#f4f4f4" stop-opacity="1"/><stop id="stop77" offset=".603" stop-color="#D4D4D4"/><stop id="stop79" offset=".763" stop-color="#BBB"/><stop id="stop81" offset=".808" stop-color="#b9bcc1" stop-opacity="1"/><stop id="stop83" offset=".93" stop-color="#bdc0c3" stop-opacity="1"/><stop id="stop85" offset="1" stop-color="#b5b9bb" stop-opacity="1"/></linearGradient><linearGradient id="XMLID_17_" x1="38.758" x2="63.923" y1="7.428" y2="7.428" gradientTransform="matrix(0.7071,0.7071,-0.7071,0.7071,68.728244,-21.373694)" gradientUnits="userSpaceOnUse"><stop id="stop111" offset="0" stop-color="#3a3a3a" stop-opacity="1"/><stop id="stop113" offset=".602" stop-color="#fff" stop-opacity="1"/><stop id="stop115" offset="1" stop-color="#888"/></linearGradient><linearGradient id="XMLID_18_" x1="-6.165" x2="11.018" y1="112.505" y2="112.505" gradientTransform="translate(6.1416442,2.5179057)" gradientUnits="userSpaceOnUse"><stop id="stop120" offset="0" stop-color="#BBB"/><stop id="stop122" offset="1" stop-color="#000"/></linearGradient><g id="g3513" transform="matrix(0.834613,0,0,0.828812,11.61005,-1.017399)"><path id="path2724" fill="#8994b5" fill-opacity="1" stroke="none" stroke-dasharray="none" stroke-dashoffset="1.088" stroke-linecap="round" stroke-linejoin="round" stroke-miterlimit="4" stroke-opacity="1" stroke-width=".9" d="M 118.07128 118.07128 A 54.742138 7.2452831 0 1 1 8.5870018,118.07128 A 54.742138 7.2452831 0 1 1 118.07128 118.07128 z" opacity="1" transform="matrix(0.95098,0,0,1.555556,-4.89563,-69.62031)"/><path id="path3259" fill="#c8cddc" fill-opacity="1" fill-rule="evenodd" stroke="none" stroke-linecap="butt" stroke-linejoin="miter" stroke-opacity="1" stroke-width="1" d="M -98.9545,147.40533 L -97.80806,148.625 C -82.1633,157.53715 -61.37084,157.125 -48,157.125 C -34.62916,157.125 -13.39476,157.53715 2.25,148.625 L 3.75,146.875 C -29.1808,121.09132 -85.02254,99.65662 -98.9545,147.40533 z" transform="matrix(1.005964,0,0,1.005306,103.0549,-34.05909)"/><path id="path3845" fill="#ddc2a4" fill-opacity="1" fill-rule="evenodd" stroke="none" stroke-linecap="butt" stroke-linejoin="miter" stroke-opacity="1" stroke-width="1" d="M 73.403249,48.295662 C 75.326591,48.132728 77.202494,46.774382 79.36058,36.655358 C 79.569427,34.548685 76.758714,34.349249 76.604207,36.21107 C 74.514395,40.239272 73.598719,44.267481 73.403249,48.295662 z"/><path id="path3715" fill="#ddc2a4" fill-opacity="1" fill-rule="evenodd" stroke="none" stroke-linecap="butt" stroke-linejoin="miter" stroke-opacity="1" stroke-width="1" d="M 35.980896,49.717379 C 34.05755,49.554445 32.181647,48.196065 30.023562,38.077086 C 29.814714,35.970412 32.625427,35.770949 32.779934,37.632798 C 34.869746,41.661 35.785426,45.689164 35.980896,49.717379 z"/><path id="path3629" fill="#cbb7a2" fill-opacity="1" fill-rule="evenodd" stroke="none" stroke-linecap="butt" stroke-linejoin="miter" stroke-opacity="1" stroke-width="1" d="M 38.924665,51.517533 C 40.446902,58.75809 44.700149,75.038049 39.427648,78.912104 C 40.077973,85.949027 46.548466,88.607199 54.517111,90.158961 L 56.026059,90.158961 C 63.994707,88.607199 70.465197,85.949027 71.115526,78.912104 C 65.843025,75.038049 70.096272,58.75809 71.618505,51.517533 L 55.271589,58.963065 L 38.924665,51.517533 z"/><path id="path3634" fill="url(#radialGradient3544)" fill-opacity="1" fill-rule="evenodd" stroke="none" stroke-linecap="butt" stroke-linejoin="miter" stroke-opacity="1" stroke-width="1" d="M 38.924665,51.517533 C 40.446902,58.75809 44.700149,75.038049 39.427648,78.912104 C 40.077973,85.949027 46.548466,88.607199 54.517111,90.158961 L 56.026059,90.158961 C 63.994707,88.607199 70.465197,85.949027 71.115526,78.912104 C 65.843025,75.038049 70.096272,58.75809 71.618505,51.517533 L 55.271589,58.963065 L 38.924665,51.517533 z"/><path id="path3672" fill="url(#radialGradient3546)" fill-opacity="1" fill-rule="evenodd" stroke="none" stroke-linecap="butt" stroke-linejoin="miter" stroke-opacity="1" stroke-width="1" d="M 71.618505,51.517533 C 70.096272,58.75809 65.843025,75.038049 71.115526,78.912104 C 70.465197,85.949027 63.994707,88.607199 56.026059,90.158961 L 54.517111,90.158961 C 46.548466,88.607199 40.077973,85.949027 39.427648,78.912104 C 44.700149,75.038049 40.446902,58.75809 38.924665,51.517533 L 55.271589,58.963065 L 71.618505,51.517533 z" opacity=".749"/><path id="path3676" fill="#382509" fill-opacity="1" fill-rule="evenodd" stroke="none" stroke-linecap="butt" stroke-linejoin="miter" stroke-opacity="1" stroke-width="1" d="M 324.17882,363.78125 C 316.40226,363.98625 310.30111,369.64178 307.17257,376.59375 C 303.98585,383.67496 304.44976,392.13001 306.36007,401.90625 C 308.27039,411.68248 311.64834,421.85281 314.83507,425.53125 C 317.85547,429.0177 321.72431,428.38757 324.17882,428.3125 C 324.30462,428.3125 324.48116,428.30837 324.61632,428.3125 C 327.07083,428.38757 330.93967,429.0177 333.96007,425.53125 C 337.1468,421.85281 341.52475,411.68248 343.43507,401.90625 C 345.3454,392.13001 345.80929,383.67496 342.62257,376.59375 C 339.49402,369.64178 332.39288,363.98625 324.61632,363.78125 L 324.17882,363.78125 z" clip-path="url(#clipPath3705)" transform="matrix(1.005964,0,0,1.005306,-271.4656,-360.2807)"/><path id="path2169" fill="url(#radialGradient3548)" fill-opacity="1" fill-rule="evenodd" stroke="none" stroke-linecap="butt" stroke-linejoin="miter" stroke-opacity="1" stroke-width="1" d="M 54.665563,5.3991564 C 46.842622,5.6052254 37.787786,11.290762 34.640587,18.279618 C 31.43486,25.39839 31.901537,33.898301 33.823241,43.72642 C 35.744955,53.554519 42.060349,63.778772 45.266082,67.47675 C 48.304499,70.981692 52.196412,70.348223 54.665563,70.272743 C 54.792112,70.272743 54.969705,70.268614 55.105673,70.272743 C 57.574824,70.348223 61.466737,70.981692 64.505154,67.47675 C 67.710887,63.778772 74.026281,53.554519 75.947995,43.72642 C 77.869723,33.898301 78.336376,25.39839 75.130649,18.279618 C 71.98344,11.290762 62.928614,5.6052254 55.105673,5.3991564 L 54.665563,5.3991564 z"/><path id="path3157" fill="url(#linearGradient3550)" fill-opacity="1" fill-rule="evenodd" stroke="none" stroke-linecap="butt" stroke-linejoin="miter" stroke-opacity="1" stroke-width="1" d="M 391.84841,400.84559 C 395.5265,410.97537 400.03668,420.79215 403.22341,424.47059 C 406.24381,427.95704 410.11265,427.32691 412.56716,427.25184 C 412.69296,427.25184 412.8695,427.24771 413.00466,427.25184 C 415.45917,427.32691 419.32801,427.95704 422.34841,424.47059 C 425.53514,420.79215 430.39888,410.62182 433.72341,400.84559 L 391.84841,400.84559 z" mask="url(#mask3287)" transform="matrix(1.005964,0,0,1.005306,-360.3344,-359.2251)"/><path id="path3161" fill="url(#linearGradient3552)" fill-opacity="1" fill-rule="evenodd" stroke="none" stroke-linecap="butt" stroke-linejoin="miter" stroke-opacity="1" stroke-width="1" d="M -34.57938,94.15885 C -36.60974,97.79098 -37.62278,97.4605 -39.6875,99.96875 C -42.55362,103.27713 -46.48338,102.22748 -48.8125,102.15625 C -48.94075,102.15234 -49.09939,102.15624 -49.21875,102.15625 C -51.5479,102.22749 -55.52764,102.8396 -58.39375,99.53125 C -58.7164,99.15883 -59.10666,98.69226 -59.4875,98.1875 C -58.74735,99.25458 -58.00114,100.20997 -57.425,100.875 C -54.55888,104.18335 -50.61038,103.57124 -48.28125,103.5 C -48.16189,103.50001 -47.97201,103.49608 -47.84375,103.5 C -45.51464,103.57125 -41.86612,104.18336 -39,100.875 C -37.5985,99.25724 -36.58252,97.77257 -34.57938,94.15885 z" opacity="1" transform="matrix(1.005964,0,0,1.005306,103.0549,-34.05909)"/><path id="path3849" fill="url(#radialGradient3554)" fill-opacity="1" fill-rule="evenodd" stroke="none" stroke-linecap="butt" stroke-linejoin="miter" stroke-opacity="1" stroke-width="1" d="M 347.29991,395.43789 C 347.20744,394.69928 346.14533,395.38264 346.06247,396.32177 C 345.97961,397.2609 346.81711,399.53599 346.96846,399.19439 C 348.18061,396.45862 347.43118,396.48647 347.29991,395.43789 z" transform="matrix(-1.005964,0,0,1.005306,424.4417,-361.7024)"/><path id="path3779" fill="url(#radialGradient3556)" fill-opacity="1" fill-rule="evenodd" stroke="none" stroke-linecap="butt" stroke-linejoin="miter" stroke-opacity="1" stroke-width="1" d="M -68.3336,70.93789 C -68.42607,70.19928 -69.48818,70.88264 -69.57104,71.82177 C -69.6539,72.7609 -68.8164,75.03599 -68.66505,74.69439 C -67.4529,71.95862 -68.20233,71.98647 -68.3336,70.93789 z" transform="matrix(1.005964,0,0,1.005306,103.0549,-34.05909)"/><path id="path3380" fill="url(#linearGradient3558)" fill-opacity="1" stroke="none" stroke-dasharray="none" stroke-dashoffset="1.088" stroke-linecap="round" stroke-linejoin="round" stroke-miterlimit="4" stroke-opacity="1" stroke-width="0" d="M 324.5,363.375 C 311.942,363.375 301.75001,373.56701 301.75,386.125 C 301.75,389.62206 301.40798,393.09067 302.8197,396.05178 L 304,396.91529 C 306.57247,392.37122 304.92256,388.81578 306,384.875 C 307,382.375 308.58874,380.212 311,379.375 C 315.29826,377.88299 321.81729,383.55368 324.5,383.625 C 327.40006,383.70209 333.55852,378.27854 337.96875,379.575 C 340.40504,380.29118 342.40902,382.5821 342.96875,385.075 C 344.01673,389.74243 344.56428,391.33155 344.97135,396.35463 L 346.15441,395.75 C 347.52866,392.82109 347.25,389.57242 347.25,386.125 C 347.25,373.567 337.05801,363.37501 324.5,363.375 z" clip-path="url(#clipPath3429)" opacity="1" transform="matrix(1.005964,0,0,1.005306,-271.8417,-360.2807)"/><path id="path3347" fill="#b09278" fill-opacity="1" stroke="none" stroke-dasharray="none" stroke-dashoffset="1.088" stroke-linecap="round" stroke-linejoin="round" stroke-miterlimit="4" stroke-opacity="1" stroke-width="0" d="M 54.768603,5.0221546 C 42.135704,5.0221546 31.882927,15.26824 31.882916,27.892857 C 31.882916,31.408457 31.538854,34.895464 32.958997,37.87231 L 34.146335,38.740385 C 36.734148,34.172199 35.074397,30.095258 36.158265,26.133565 C 37.16423,23.620296 38.762444,21.445824 41.188084,20.604384 C 45.511983,19.104468 52.069894,24.805242 54.768603,24.876946 C 57.685961,24.954449 63.88115,22.741394 68.317684,24.044716 C 70.768506,24.764708 72.78444,27.067776 73.347506,29.573896 C 74.401737,34.266089 74.952554,33.127016 75.362053,38.176749 L 76.552169,37.568904 C 77.934615,34.624465 77.654292,31.358569 77.654292,27.892857 C 77.654292,15.26824 67.401515,5.0221546 54.768603,5.0221546 z" opacity="1"/><path id="path3358" fill="url(#radialGradient3560)" fill-opacity="1" stroke="none" stroke-dasharray="none" stroke-dashoffset="1.088" stroke-linecap="round" stroke-linejoin="round" stroke-miterlimit="4" stroke-opacity="1" stroke-width="0" d="M 54.768603,5.0221546 C 46.69594,9.4065202 45.000549,12.012847 41.188084,20.604384 C 45.511983,19.104468 52.069894,24.805242 54.768603,24.876946 C 57.685961,24.954449 64.472845,22.365108 68.909379,23.668429 C 71.360201,24.388422 73.376135,26.69149 73.939201,29.19761 C 74.993431,33.889803 74.952554,33.127016 75.362053,38.176749 L 76.552169,37.568904 C 77.934615,34.624465 77.654292,31.358569 77.654292,27.892857 C 77.654292,15.26824 67.401515,5.0221546 54.768603,5.0221546 z" opacity="1"/><path id="path3441" fill="url(#linearGradient3562)" fill-opacity="1" stroke="none" stroke-dasharray="none" stroke-dashoffset="1.088" stroke-linecap="round" stroke-linejoin="round" stroke-miterlimit="4" stroke-opacity="1" stroke-width="0" d="M 312.54197,377.13598 C 311.94712,377.10972 311.3605,377.18074 310.82322,377.35473 C 308.41196,378.1356 306.38128,380.96011 305.38128,383.43684 C 304.45516,387.61524 305.77474,389.38257 304.88664,394.59185 C 305.73369,391.56142 305.58479,385.07509 305.82322,384.16723 C 306.82322,381.66722 308.41196,379.50423 310.82322,378.66723 C 315.12148,377.17521 321.64051,382.84591 324.32322,382.91723 C 327.22328,382.99431 333.38174,380.79295 337.79197,382.08941 C 340.22826,382.80558 342.23224,385.09651 342.79197,387.58941 L 342.79197,387.02691 C 342.23224,384.52098 340.22826,382.17481 337.79197,381.40191 C 333.38174,380.00277 327.66522,380.73602 324.76516,380.5914 C 322.41779,380.47435 316.70593,377.31977 312.54197,377.13598 z" clip-path="none" mask="none" opacity="1" transform="matrix(1.005964,0,0,1.005306,-272.1778,-360.2807)"/><path id="path3497" fill="url(#linearGradient3564)" fill-opacity="1" fill-rule="evenodd" stroke="none" stroke-linecap="butt" stroke-linejoin="miter" stroke-opacity="1" stroke-width="1" d="M -39.6875,56.221855 C -34.197148,56.024377 -45.05967,54.50166 -48.70706,53.9205 C -54.598622,52.981763 -62.45595,49.86348 -63.54855,46.95471 C -64.26371,45.0508 -58.65655,42.18952 -59,43.11218 C -59.65577,44.97451 -60.47583,46.68051 -55.875,50.73718 C -53.57302,52.51447 -50.99506,54.57645 -47.5,54.86218 C -45,55.12995 -42.1875,56.694245 -39.6875,56.221855 z" opacity=".88" transform="matrix(1.005964,0,0,1.005306,103.0549,-34.05909)"/><path id="path3535" fill="url(#linearGradient3566)" fill-opacity="1" fill-rule="evenodd" stroke="none" stroke-linecap="butt" stroke-linejoin="miter" stroke-opacity="1" stroke-width="1" d="M -29.75,50.61218 L -27.5,55.11218 C -25.97108,61.25336 -26.57755,60.4695 -26.76517,63.44536 C -28.54202,59.02869 -27.22154,56.27885 -33,53.11218 L -39.25,49.11218 L -29.75,50.61218 z" transform="matrix(1.005964,0,0,1.005306,102.2077,-34.05909)"/><path id="path3717" fill="url(#linearGradient3568)" fill-opacity="1" fill-rule="evenodd" stroke="none" stroke-linecap="butt" stroke-linejoin="miter" stroke-opacity="1" stroke-width="1" d="M -68.53033,81.05152 L -67.15533,78.55152 C -67.15533,78.55152 -68.40533,75.42652 -68.40533,74.55152 C -68.40533,73.67652 -69.29419,71.09702 -69.29419,71.09702 L -70.0221,71.56734 L -68.53033,81.05152 z" opacity=".333" transform="matrix(1.005964,0,0,1.005306,103.0549,-34.05909)"/><path id="path3875" fill="url(#linearGradient3570)" fill-opacity="1" fill-rule="evenodd" stroke="none" stroke-linecap="butt" stroke-linejoin="miter" stroke-opacity="1" stroke-width="1" d="M 55.570237,85.133393 C 45.266337,85.421039 42.123018,81.158743 41.235247,77.400215 C 39.949833,77.611383 39.189287,78.632852 39.223317,79.410814 C 32.097741,82.260716 23.482148,85.133393 15.834648,88.96121 C 12.995998,90.382067 9.762032,94.71193 8.918643,97.003673 C 6.346411,103.99312 3.511582,113.84251 3.511582,113.84251 L 5.02053,115.60183 C 20.7586,124.56125 42.119651,124.14693 55.570237,124.14693 C 69.020825,124.14693 90.381876,124.56125 106.11994,115.60183 L 107.62889,113.84251 C 107.62889,113.84251 104.79406,103.99312 102.22183,97.003673 C 101.37844,94.71193 98.14448,90.382067 95.30583,88.96121 C 87.658325,85.133393 79.042732,82.260716 71.917156,79.410814 C 71.95119,78.632852 71.19064,77.611383 69.905226,77.400215 C 67.477204,81.1627 65.874139,84.845747 55.570237,85.133393 z"/><path id="path3451" fill="url(#linearGradient3572)" fill-opacity="1" fill-rule="evenodd" stroke="none" stroke-linecap="butt" stroke-linejoin="miter" stroke-opacity="1" stroke-width="1" d="M -78.34358,152.98437 C -82.26083,139.96479 -83.8395,133.15234 -74.80805,126.11431 L -55.71616,120.45745 L -64.20144,114.0935 L -84.00043,121.87167 L -94.60703,134.59959 C -94.60703,134.59959 -98.84968,144.49909 -96.02125,145.9133 C -93.19282,147.32752 -86.12175,151.57016 -86.12175,151.57016 L -78.34358,152.98437 z" opacity=".322" transform="matrix(1.005964,0,0,1.005306,103.0549,-34.05909)"/><path id="path3885" fill="url(#linearGradient3574)" fill-opacity="1" fill-rule="evenodd" stroke="none" stroke-linecap="butt" stroke-linejoin="miter" stroke-opacity="1" stroke-width="1" d="M 395.90625,435.375 C 394.62847,435.58506 393.87242,436.60113 393.90625,437.375 C 386.82293,440.20988 378.25841,443.06735 370.65625,446.875 C 367.83444,448.28835 364.61964,452.59537 363.78125,454.875 C 361.22428,461.82756 358.40625,471.625 358.40625,471.625 L 359.90625,473.375 C 375.55102,482.28715 396.78541,481.875 410.15625,481.875 C 423.5271,481.875 444.76149,482.28715 460.40625,473.375 L 461.90625,471.625 C 461.90626,471.625 459.08823,461.82756 456.53125,454.875 C 455.69287,452.59537 452.47807,448.28835 449.65625,446.875 C 442.0541,443.06735 433.48958,440.20988 426.40625,437.375 C 426.44009,436.60113 425.68404,435.58506 424.40625,435.375 C 421.99263,439.11764 420.39906,442.77637 410.15625,443.0625 C 409.51607,443.08038 408.89826,443.07875 408.3125,443.0625 C 409.11493,443.10929 409.95672,443.15082 410.875,443.125 C 420.66635,442.84975 422.19276,439.31912 424.5,435.71875 C 425.72147,435.92083 426.43858,436.91179 426.40625,437.65625 C 433.17737,440.38336 441.3579,443.11836 448.625,446.78125 C 451.32245,448.14088 454.41732,452.30704 455.21875,454.5 C 457.66304,461.18826 460.34374,470.59377 460.34375,470.59375 L 458.90625,472.28125 C 443.95103,480.85461 423.65651,480.46874 410.875,480.46875 C 398.09347,480.46875 376.29635,482.09204 361.34115,473.51869 L 359.81526,470.50536 C 359.81526,470.50536 363.55664,455.53141 366.70803,453.26256 C 368.60286,451.89837 370.42755,448.14089 373.125,446.78125 C 380.3921,443.11835 388.57262,440.38336 395.34375,437.65625 C 395.32311,437.18111 395.59714,436.5903 396.125,436.1875 C 396.03832,435.91957 395.96873,435.63969 395.90625,435.375 z" clip-path="url(#clipPath4063)" transform="matrix(1.005964,0,0,1.005306,-357.0329,-360.2807)"/><path id="path3880" fill="url(#linearGradient3576)" fill-opacity="1" fill-rule="evenodd" stroke="none" stroke-linecap="butt" stroke-linejoin="miter" stroke-opacity="1" stroke-width="1" d="M -84.125,124.875 L -85.125,126.625 C -81.08786,134.7426 -79.91837,144.77197 -77.6875,154.09375 C -84.67104,152.87559 -91.41593,150.84084 -97.5,147.375 L -97.5,147.8125 C -81.85523,156.72466 -60.62084,156.3125 -47.25,156.3125 C -33.87915,156.31251 -12.64476,156.72465 3,147.8125 L 4.5,146.0625 L 2.666559,147.54655 C -12.978191,156.45871 -33.87916,156.00881 -47.25,156.00881 C -54.70098,156.00881 -64.58699,155.42889 -74.59375,154 C -77.77083,139.60839 -80.94792,131.83413 -84.125,124.875 z" transform="matrix(1.005964,0,0,1.005306,103.0549,-34.05909)"/><path id="path3261" fill="#f4f5f8" fill-opacity="1" fill-rule="evenodd" stroke="#98a2bf" stroke-dasharray="none" stroke-linecap="butt" stroke-linejoin="miter" stroke-miterlimit="4" stroke-opacity="1" stroke-width=".145" d="M 463.75,435.375 C 462.47221,435.58506 461.71617,436.60113 461.75,437.375 C 461.67075,437.40672 461.57962,437.43703 461.5,437.46875 C 462.75202,441.47055 466.65727,445.74083 478.25,445.4375 C 489.75018,445.1366 492.07799,441.47873 494.71875,437.5625 C 494.5676,437.5025 494.39985,437.43497 494.25,437.375 C 494.28383,436.60113 493.52779,435.58506 492.25,435.375 C 489.83637,439.11764 488.24281,442.77637 478,443.0625 C 467.75719,443.34864 464.63251,439.11371 463.75,435.375 z M 497.46875,438.625 C 497.52198,438.79302 497.56984,438.93659 497.5625,439.09375 C 501.77057,440.67121 506.39991,442.24968 511.125,443.96875 C 506.49146,442.00962 501.81994,440.29346 497.46875,438.625 z" clip-path="url(#clipPath3289)" transform="matrix(1.005964,0,0,1.005306,-425.2807,-360.2768)"/><path id="path3293" fill="url(#linearGradient3579)" fill-opacity="1" fill-rule="evenodd" stroke="none" stroke-linecap="butt" stroke-linejoin="miter" stroke-opacity="1" stroke-width="1" d="M -59.25169,118.68969 L -76.57581,119.3968 L -61.37302,117.27548 L -59.25169,118.68969 z" transform="matrix(1.005964,0,0,1.005306,103.0549,-34.05909)"/><path id="path3357" fill="url(#linearGradient3582)" fill-opacity="1" fill-rule="evenodd" stroke="none" stroke-linecap="butt" stroke-linejoin="miter" stroke-opacity="1" stroke-width="1" d="M 371.74831,469.68969 L 354.42419,470.3968 L 369.62698,468.27548 L 371.74831,469.68969 z" transform="matrix(0.341741,0.945518,0.946138,-0.341517,-540.7761,-70.96998)"/><path id="path3498" fill="url(#linearGradient3585)" fill-opacity="1" fill-rule="evenodd" stroke="none" stroke-linecap="butt" stroke-linejoin="miter" stroke-opacity="1" stroke-width="1" d="M 294.15642,477.48437 C 290.23917,464.46479 288.6605,457.65234 297.69195,450.61431 L 316.78384,444.95745 L 308.29856,438.5935 L 288.49957,446.37167 L 277.89297,459.09959 C 277.89297,459.09959 273.65032,468.99909 276.47875,470.4133 C 279.30718,471.82752 286.37825,476.07016 286.37825,476.07016 L 294.15642,477.48437 z" opacity=".322" transform="matrix(-1.005964,0,0,1.005306,383.005,-360.2807)"/><path id="path3524" fill="url(#linearGradient3588)" fill-opacity="1" fill-rule="evenodd" stroke="url(#linearGradient3590)" stroke-linecap="butt" stroke-linejoin="miter" stroke-opacity="1" stroke-width=".291" d="M -59.2517,120.45746 L -66.32276,138.13513 L -59.2517,120.45746 z" opacity=".064" transform="matrix(1.005964,0,0,1.005306,103.0549,-34.05909)"/></g><g id="g2860" transform="matrix(0.488275,0,0,0.48047,92.05866,32.72095)"><path id="path10166" fill="url(#linearGradient10257)" d="M -30.519724,62.288676 C -31.486089,61.408801 -32.571498,61.232292 -34.188318,62.848292 L -104.32686,134.35478 C -104.35887,134.38677 -104.36002,134.42341 -104.38904,134.45841 C -107.88281,138.21441 -107.8189,144.08911 -104.16105,147.74411 C -100.50319,151.40011 -94.631255,151.4671 -90.875347,147.9721 C -90.840327,147.9441 -90.802729,147.94092 -90.771714,147.90992 L -19.203045,77.792112 C -15.968404,74.561113 -19.975689,73.456354 -22.249843,71.180353 L -27.555832,65.874364 C -28.694909,64.735864 -29.553359,63.168551 -30.519724,62.288676 z M -90.875347,134.49986 C -87.944193,137.43108 -87.94284,142.18238 -90.875347,145.11184 C -93.804718,148.03972 -98.554612,148.0415 -101.48732,145.11184 C -104.42004,142.18218 -104.41827,137.43088 -101.48732,134.49986 C -98.556394,131.57042 -93.808054,131.57019 -90.875347,134.49986 z"/><path id="path10186" fill="url(#linearGradient10254)" d="M -89.54885,133.17337 C -92.481557,130.2437 -97.229897,130.24393 -100.16083,133.17337 C -100.38637,133.39891 -100.59178,133.63268 -100.78262,133.87807 C -97.838599,131.59447 -93.580721,131.79729 -90.875347,134.49986 C -88.16975,137.20553 -87.963309,141.4644 -90.253551,144.40714 C -90.008208,144.21652 -89.774265,144.01064 -89.54885,143.78534 C -86.616342,140.85589 -86.617695,136.10459 -89.54885,133.17337 z"/><path id="path64" fill="url(#linearGradient10251)" d="M 11.801825,47.104412 L -3.7340552,62.634412 C -7.1207652,66.018412 -13.379939,63.719412 -16.768658,60.334412 C -20.152374,56.949411 -22.453543,50.695412 -19.068825,47.309412 L -3.5289452,31.78041 C -14.405459,27.62241 -27.861286,34.429411 -32.099435,38.66541 C -43.293113,49.851412 -44.091518,65.206412 -32.863823,76.426412 C -21.643132,87.644412 -6.2803452,86.974412 4.9123348,75.787413 C 9.1504848,71.550412 15.961935,57.973412 11.801825,47.104412 z"/><path id="path87" fill="url(#linearGradient10248)" fill-opacity="1" d="M -29.27,41.493411 C -34.188495,46.409411 -36.897869,52.351412 -36.897869,58.225412 L -36.89887,58.226412 C -36.897869,63.795412 -34.524666,69.110412 -30.034388,73.597412 C -25.507092,78.123412 -20.151375,80.515413 -14.547531,80.515412 L -14.547531,80.515412 C -8.6995652,80.515413 -2.7945752,77.832413 2.0818948,72.958412 C 4.8933248,70.148412 8.6422248,62.729412 9.0054048,55.555412 C 4.4270848,60.131412 -0.90561516,65.461412 -0.90561516,65.461412 C -5.9671852,70.521412 -14.549532,68.208412 -19.598093,63.164412 C -22.669651,60.091412 -24.730697,55.712412 -24.730698,51.613412 C -24.729697,48.978412 -23.878264,46.461411 -21.900262,44.481412 C -21.899261,44.480412 -16.404474,38.98841 -11.946213,34.533411 C -19.458022,34.881411 -26.878787,39.10541 -29.27,41.493411 z"/><path id="path117" fill="url(#linearGradient10260)" d="M -21.54208,47.302411 C -25.136904,50.895411 -22.267448,57.961412 -18.336454,61.890412 C -14.401457,65.821412 -7.3348732,68.689412 -3.7390552,65.097412 C -3.7390552,65.097412 12.034945,47.718411 11.800825,47.104412 L -3.7350552,62.634412 C -7.1217652,66.018413 -13.38094,63.719412 -16.76966,60.334412 C -20.153376,56.949411 -22.454542,50.695412 -19.069825,47.309412 L -3.5299452,31.78041 L -21.54208,47.302411 z"/><path id="path10190" fill="url(#linearGradient10239)" d="M -102.10912,135.20456 C -102.3565,135.39645 -102.58663,135.59928 -102.81382,135.82636 C -105.74477,138.75738 -105.74654,143.50867 -102.81382,146.43834 C -99.881109,149.368 -95.131215,149.36622 -92.201844,146.43834 C -91.976182,146.21291 -91.77098,145.97896 -91.580049,145.73364 C -94.523042,148.02025 -98.780282,147.81606 -101.48732,145.11184 C -104.19437,142.40762 -104.39833,138.14811 -102.10912,135.20456 z"/><path id="path124" fill="url(#linearGradient10236)" d="M -104.15999,146.74542 C -105.90488,145.00142 -106.82535,142.75342 -106.9404,140.47041 C -107.08147,143.08542 -106.16201,145.74742 -104.15999,147.74542 C -100.50214,151.40142 -94.627159,151.47442 -90.87125,147.97941 C -90.836232,147.95141 -90.794213,147.93042 -90.763198,147.89942 L -89.762687,146.90041 C -93.518593,150.39341 -100.50214,150.40142 -104.15999,146.74542 z"/><path id="path2236" fill="url(#linearGradient6147)" fill-opacity="1" fill-rule="nonzero" d="M -66.421974,95.732095 L -104.32203,134.36495 C -104.35404,134.39694 -104.35164,134.41789 -104.38066,134.45288 C -107.87443,138.20888 -107.83333,144.0761 -104.17548,147.73109 C -100.51762,151.3871 -94.62386,151.46059 -90.867952,147.96559 C -90.832932,147.93759 -90.811032,147.93797 -90.780017,147.90697 L -53.202386,111.09144 C -56.619626,105.10077 -61.128878,99.875396 -66.421974,95.732095 z M -96.173374,132.31313 C -94.253335,132.3131 -92.334306,133.04667 -90.867952,134.51151 C -87.936798,137.44273 -87.935445,142.1929 -90.867952,145.12235 C -93.797323,148.05023 -98.546084,148.05201 -101.4788,145.12235 C -104.41151,142.1927 -104.40974,137.44253 -101.4788,134.51151 C -100.01333,133.04678 -98.093414,132.31316 -96.173374,132.31313 z" opacity=".5"/><path id="path33" fill="url(#linearGradient9291)" d="M -91.391252,126.54673 C -92.215512,127.46289 -92.541013,128.7086 -92.398359,130.00724 C -92.246493,131.37911 -91.567358,132.81601 -90.39567,133.98422 C -88.121029,136.26194 -84.84428,136.68021 -82.938022,134.93751 C -82.927027,134.9565 -39.4371,91.495375 -29.202262,81.267022 C -29.63513,80.900332 -37.191924,73.359609 -37.640468,72.831242 C -40.573142,75.762057 -91.391252,126.54673 -91.391252,126.54673 z" opacity=".5"/><path id="path108" fill="url(#linearGradient3301)" d="M -12.624844,79.422167 C -18.229687,79.422167 -23.584403,77.030167 -28.1117,72.504167 C -32.601977,68.017167 -34.975181,62.702167 -34.976182,57.133167 L -34.975181,57.132167 C -34.975181,51.258167 -32.265807,45.316168 -27.347312,40.400169 C -26.521893,39.575168 -25.087165,38.533168 -23.267242,37.506168 C -26.005631,38.823168 -28.169729,40.304168 -29.267286,41.400169 C -34.185781,46.316168 -36.895154,52.258167 -36.895154,58.132167 L -36.896154,58.133167 C -36.895154,63.702167 -34.521951,69.017167 -30.031673,73.504167 C -25.504377,78.030167 -20.14866,80.422167 -14.544818,80.422167 C -10.866952,80.422167 -7.1660752,79.359167 -3.7133252,77.359167 C -6.6017852,78.709167 -9.6203202,79.422167 -12.624844,79.422167 z"/></g></svg>