<svg xmlns="http://www.w3.org/2000/svg" xmlns:svg="http://www.w3.org/2000/svg" xmlns:xlink="http://www.w3.org/1999/xlink" id="Livello_1" width="128" height="128" version="1.0" viewBox="0 0 128 128" xml:space="preserve"><g id="switch3"><g id="g7"><g id="g9"><radialGradient id="XMLID_1_" cx="51.999" cy="-9" r="111.001" gradientUnits="userSpaceOnUse"><stop id="stop12" offset=".15" stop-color="#80b3ff" stop-opacity="1"/><stop id="stop14" offset=".316" stop-color="#69a1f0" stop-opacity="1"/><stop id="stop16" offset=".603" stop-color="#4888da" stop-opacity="1"/><stop id="stop18" offset=".841" stop-color="#3378cc" stop-opacity="1"/><stop id="stop20" offset="1" stop-color="#2c72c7" stop-opacity="1"/></radialGradient><path id="path22" fill="url(#XMLID_1_)" d="M 13.188,15.957 C 12.067,15.957 11.157,16.868 11.157,17.988 L 11.157,103.685 C 11.157,105.491 12.625,106.959 14.43,106.959 L 111.572,106.959 C 113.377,106.959 114.845,105.49 114.845,103.685 L 114.845,17.988 C 114.845,16.868 113.935,15.957 112.814,15.957 L 13.188,15.957 L 13.188,15.957 z"/><g id="g24"><path id="path26" d="M 14.237,28.826 C 13.693,28.826 13.166,29.049 12.787,29.435 C 12.408,29.821 12.195,30.354 12.206,30.895 C 12.206,30.897 13.579,101.56 13.579,101.56 C 13.6,102.658 14.512,103.552 15.61,103.552 L 110.389,103.552 C 111.489,103.552 112.399,102.657 112.42,101.56 L 113.793,30.897 C 113.805,30.353 113.592,29.821 113.213,29.435 C 112.832,29.048 112.305,28.826 111.762,28.826 L 14.237,28.826 L 14.237,28.826 z" opacity=".05"/><path id="path28" d="M 14.237,29.842 C 13.964,29.842 13.704,29.951 13.511,30.147 C 13.32,30.342 13.215,30.605 13.221,30.878 L 14.594,101.541 C 14.604,102.095 15.056,102.537 15.61,102.537 L 110.389,102.537 C 110.944,102.537 111.395,102.095 111.405,101.541 L 112.778,30.878 C 112.782,30.605 112.68,30.342 112.487,30.147 C 112.296,29.952 112.034,29.842 111.762,29.842 L 14.237,29.842 z" opacity=".1"/><radialGradient id="XMLID_2_" cx="42.379" cy="6.049" r="122.394" fx="63.067" fy="24.16" gradientTransform="matrix(1.0151,0,0,1.0491,-1.0186,-1.3463)" gradientUnits="userSpaceOnUse"><stop id="stop31" offset="0" stop-color="#fff" stop-opacity="1"/><stop id="stop33" offset=".373" stop-color="#ddd" stop-opacity="1"/><stop id="stop35" offset=".769" stop-color="#babdb6" stop-opacity="1"/><stop id="stop37" offset="1" stop-color="#888" stop-opacity="1"/></radialGradient><polygon id="polygon39" fill="url(#XMLID_2_)" points="110.39 102.537 15.61 102.537 14.237 31.874 111.763 31.874 110.39 102.537"/></g><path id="path41" fill="#fff" d="M 12.173,16.973 C 12.173,18.444 12.173,23.755 12.173,25.225 C 14.023,25.225 36.657,25.225 37.442,25.225 C 37.906,24.761 43.379,19.287 45.692,16.973 C 41.542,16.973 13.965,16.973 12.173,16.973 z" opacity=".4"/><g id="g43"><path id="path45" d="M 13.223,101.877 C 10.419,101.877 8.14,104.156 8.14,106.96 C 8.14,109.762 10.419,112.043 13.223,112.043 L 112.781,112.043 C 115.582,112.043 117.863,109.762 117.863,106.96 C 117.863,104.156 115.582,101.877 112.781,101.877 L 13.223,101.877 z" opacity=".05"/><path id="path47" d="M 13.223,102.893 C 10.979,102.893 9.156,104.716 9.156,106.96 C 9.156,109.202 10.979,111.027 13.223,111.027 L 112.781,111.027 C 115.023,111.027 116.847,109.202 116.847,106.96 C 116.847,104.716 115.023,102.893 112.781,102.893 L 13.223,102.893 z" opacity=".1"/><path id="path49" d="M 13.223,103.908 C 11.54,103.908 10.171,105.277 10.171,106.96 C 10.171,108.643 11.54,110.012 13.223,110.012 L 112.781,110.012 C 114.463,110.012 115.832,108.643 115.832,106.96 C 115.832,105.277 114.463,103.908 112.781,103.908 L 13.223,103.908 L 13.223,103.908 z" opacity=".15"/><path id="path51" d="M 13.223,104.924 C 12.1,104.924 11.187,105.837 11.187,106.96 C 11.187,108.081 12.1,108.996 13.223,108.996 L 112.781,108.996 C 113.902,108.996 114.816,108.081 114.816,106.96 C 114.816,105.837 113.902,104.924 112.781,104.924 L 13.223,104.924 z" opacity=".2"/><path id="path53" d="M 13.223,105.94 C 12.66,105.94 12.203,106.396 12.203,106.96 C 12.203,107.524 12.659,107.98 13.223,107.98 L 112.781,107.98 C 113.343,107.98 113.801,107.524 113.801,106.96 C 113.801,106.396 113.344,105.94 112.781,105.94 L 13.223,105.94 z" opacity=".25"/></g><g id="g55"><path id="path57" d="M 28.919,53.455 L 42.842,45.027 L 114.845,45.027 L 114.845,40.525 L 47.051,40.525 C 46.03,40.525 45.044,40.878 44.275,41.518 C 44.275,41.518 34.573,49.587 34,50.066 C 33.228,50.066 11.745,50.066 11.745,50.066 C 11.547,50.066 11.352,50.1 11.158,50.126 L 11.158,53.455 L 28.919,53.455 L 28.919,53.455 z" opacity=".05"/><g id="g59"><path id="path61" d="M 42.842,45.027 L 43.128,45.027 L 114.845,45.027 L 114.845,41.483 L 47.034,41.483 C 46.268,41.483 45.528,41.749 44.953,42.229 C 44.953,42.229 41.286,45.283 38.263,47.8 L 42.842,45.027 z" opacity=".1"/><path id="path63" d="M 32.907,51.041 C 27.878,51.041 11.694,51.041 11.694,51.041 C 11.512,51.041 11.334,51.068 11.157,51.099 L 11.157,53.455 L 28.919,53.455 L 32.907,51.041 z" opacity=".1"/></g><path id="path65" d="M 114.845,44.027 L 114.845,42.404 L 47.003,42.404 C 46.747,42.404 46.501,42.493 46.309,42.654 C 46.309,42.654 45.656,43.199 44.663,44.027 L 114.845,44.027 z" opacity=".15"/></g><g id="g67"><path id="path69" d="M 28.919,52.455 L 29.673,51.999 C 22.721,51.999 11.596,51.999 11.596,51.999 C 11.443,51.999 11.294,52.033 11.158,52.09 L 11.158,52.455 L 28.919,52.455 z" opacity=".2"/><polygon id="polygon71" points="114.845 44.027 114.845 43.368 46.985 43.368 46.197 44.027 114.845 44.027" opacity=".2"/></g><linearGradient id="XMLID_3_" x1="63.999" x2="63.999" y1="25.158" y2="157.632" gradientUnits="userSpaceOnUse"><stop id="stop74" offset="0" stop-color="#bfd9ff" stop-opacity="1"/><stop id="stop76" offset=".219" stop-color="#80b3ff" stop-opacity="1"/><stop id="stop78" offset=".293" stop-color="#6ea5f3" stop-opacity="1"/><stop id="stop80" offset=".443" stop-color="#3e80d3" stop-opacity="1"/><stop id="stop82" offset=".494" stop-color="#2c72c7" stop-opacity="1"/><stop id="stop84" offset=".7" stop-color="#00438a" stop-opacity="1"/></linearGradient><path id="path86" fill="url(#XMLID_3_)" d="M 43.18,44.027 C 42.781,44.027 42.39,44.135 42.048,44.342 C 42.048,44.342 29.611,51.871 28.646,52.454 C 27.481,52.454 2.183,52.454 2.183,52.454 C 1.493,52.454 0.842,52.782 0.431,53.337 C 0.147,53.72 0,54.176 0,54.638 C 0,54.851 0.032,55.063 0.094,55.271 C 0.094,55.271 10.288,90.407 10.413,105.409 C 10.692,106.33 11.54,106.961 12.502,106.961 L 112.95,106.961 C 113.913,106.961 114.761,106.33 115.04,105.409 C 115.04,90.407 127.907,46.842 127.907,46.842 C 128.106,46.181 127.981,45.465 127.569,44.909 C 127.159,44.355 126.508,44.028 125.817,44.028 L 43.18,44.028 L 43.18,44.027 z" opacity=".85"/><linearGradient id="XMLID_4_" x1="-37.875" x2="230.237" y1="48.787" y2="48.787" gradientUnits="userSpaceOnUse"><stop id="stop89" offset="0" stop-color="#2c72c7" stop-opacity="1"/><stop id="stop91" offset=".296" stop-color="#fff" stop-opacity="1"/><stop id="stop93" offset="1" stop-color="#2c72c7" stop-opacity="1"/></linearGradient><path id="path95" fill="url(#XMLID_4_)" d="M 41.838,44.466 C 40.249,45.428 29.534,51.916 28.64,52.455 C 27.475,52.455 2.177,52.455 2.177,52.455 C 1.487,52.455 0.836,52.783 0.425,53.338 C 0.377,53.402 0.358,53.48 0.316,53.547 L 28.64,53.547 L 42.563,45.118 L 127.685,45.118 C 127.646,45.049 127.615,44.973 127.564,44.908 C 127.154,44.354 126.503,44.027 125.812,44.027 L 43.174,44.027 C 42.775,44.027 42.384,44.135 42.042,44.342 L 41.838,44.466 z"/></g><linearGradient id="path892_1_" x1="64.001" x2="64.001" y1="95.808" y2="56.417" gradientUnits="userSpaceOnUse"><stop id="stop98" offset="0" stop-color="#bfd9ff" stop-opacity="1"/><stop id="stop100" offset="1" stop-color="#fff" stop-opacity="1"/></linearGradient><path id="path892" fill="url(#path892_1_)" d="M 41.553,79.966 L 43.166,95.808 L 61.957,95.808 L 61.84,83.207 L 72.878,83.207 L 72.308,95.808 L 84.584,95.808 L 86.183,79.966 L 93.194,79.963 L 64.071,56.417 L 34.808,79.963 L 41.553,79.966 z" opacity=".8"/><rect id="_x3C_Sezione_x3E_" width="128" height="128" x="0" y="0" fill="none"/></g></g></svg>