<svg xmlns="http://www.w3.org/2000/svg" xmlns:svg="http://www.w3.org/2000/svg" xmlns:xlink="http://www.w3.org/1999/xlink" id="svg2" width="128" height="128" version="1.0"><defs id="defs4"><linearGradient id="linearGradient4111"><stop id="stop4113" offset="0" stop-color="#000" stop-opacity="1"/><stop id="stop4115" offset="1" stop-color="#000" stop-opacity="0"/></linearGradient><linearGradient id="linearGradient4085"><stop id="stop4087" offset="0" stop-color="#000" stop-opacity="1"/><stop id="stop4089" offset="1" stop-color="#000" stop-opacity="0"/></linearGradient><linearGradient id="linearGradient4031"><stop id="stop4033" offset="0" stop-color="#292929" stop-opacity="1"/><stop id="stop4035" offset="1" stop-color="#e9e9e9" stop-opacity="1"/></linearGradient><linearGradient id="linearGradient4002"><stop id="stop4004" offset="0" stop-color="#0f0" stop-opacity="1"/><stop id="stop4006" offset="1" stop-color="#f0ff80" stop-opacity="0"/></linearGradient><linearGradient id="linearGradient3785"><stop id="stop3787" offset="0" stop-color="#000" stop-opacity="1"/><stop id="stop3789" offset="1" stop-color="#000" stop-opacity="0"/></linearGradient><linearGradient id="linearGradient3761"><stop id="stop3763" offset="0" stop-color="#f6f6f6" stop-opacity="1"/><stop id="stop3765" offset="1" stop-color="#5a5a5a" stop-opacity="1"/></linearGradient><linearGradient id="linearGradient3749"><stop id="stop3751" offset="0" stop-color="#181818" stop-opacity="1"/><stop id="stop3753" offset="1" stop-color="#ababab" stop-opacity="1"/></linearGradient><linearGradient id="linearGradient3737"><stop id="stop3739" offset="0" stop-color="gray" stop-opacity="1"/><stop id="stop3741" offset="1" stop-color="#232323" stop-opacity="1"/></linearGradient><linearGradient id="linearGradient3729"><stop id="stop3731" offset="0" stop-color="#ededed" stop-opacity="1"/><stop id="stop3733" offset="1" stop-color="#bcbcbc" stop-opacity="1"/></linearGradient><linearGradient id="linearGradient3570"><stop id="stop3572" offset="0" stop-color="#000" stop-opacity="1"/><stop id="stop3574" offset="1" stop-color="#000" stop-opacity="0"/></linearGradient><linearGradient id="linearGradient3470"><stop id="stop3472" offset="0" stop-color="#ddd" stop-opacity="1"/><stop id="stop3474" offset="1" stop-color="#fbfbfb" stop-opacity="1"/></linearGradient><linearGradient id="linearGradient3452"><stop id="stop3454" offset="0" stop-color="#979797" stop-opacity="1"/><stop id="stop3456" offset="1" stop-color="#454545" stop-opacity="1"/></linearGradient><linearGradient id="linearGradient3440"><stop id="stop3442" offset="0" stop-color="#000" stop-opacity="1"/><stop id="stop3444" offset="1" stop-color="#000" stop-opacity="0"/></linearGradient><linearGradient id="linearGradient3384"><stop id="stop3386" offset="0" stop-color="#000" stop-opacity="1"/><stop id="stop3388" offset="1" stop-color="#000" stop-opacity="0"/></linearGradient><linearGradient id="linearGradient3374"><stop id="stop3376" offset="0" stop-color="#fff" stop-opacity="1"/><stop id="stop3378" offset="1" stop-color="#fff" stop-opacity="0"/></linearGradient><linearGradient id="linearGradient3292"><stop id="stop3294" offset="0" stop-color="#5e5e5e" stop-opacity="1"/><stop id="stop3296" offset="1" stop-color="#292929" stop-opacity="1"/></linearGradient><linearGradient id="linearGradient3275"><stop id="stop3277" offset="0" stop-color="#323232" stop-opacity="1"/><stop id="stop3279" offset="1" stop-color="#1a1a1a" stop-opacity="1"/></linearGradient><linearGradient id="linearGradient3265"><stop id="stop3267" offset="0" stop-color="#fff" stop-opacity="1"/><stop id="stop3269" offset="1" stop-color="#fff" stop-opacity="0"/></linearGradient><linearGradient id="linearGradient3255"><stop id="stop3257" offset="0" stop-color="#000" stop-opacity="1"/><stop id="stop3259" offset="1" stop-color="#000" stop-opacity="0"/></linearGradient><radialGradient id="radialGradient3261" cx="64" cy="116.98" r="58" fx="64" fy="116.98" gradientTransform="matrix(5.1258495,0,0,3.0419998,-264.05437,-246.18073)" gradientUnits="userSpaceOnUse" xlink:href="#linearGradient3255"/><radialGradient id="radialGradient3271" cx="64" cy="7.198" r="56" fx="64" fy="7.198" gradientTransform="matrix(1.2365033,0,0,0.7980455,-15.136214,10.255729)" gradientUnits="userSpaceOnUse" xlink:href="#linearGradient3265"/><radialGradient id="radialGradient3281" cx="56" cy="65.962" r="44" fx="56" fy="64.753" gradientTransform="matrix(2.206761,0,0,2.057714,-67.578619,-106.93252)" gradientUnits="userSpaceOnUse" xlink:href="#linearGradient3292"/><radialGradient id="radialGradient3287" cx="56" cy="60" r="44" fx="56" fy="99.821" gradientTransform="matrix(1.4974386,3.4730663e-8,-3.2384918e-8,1.3963,-27.85656,-45.052276)" gradientUnits="userSpaceOnUse" xlink:href="#linearGradient3275"/><radialGradient id="radialGradient3289" cx="56" cy="60" r="44" fx="56" fy="99.821" gradientTransform="matrix(1.4974386,3.4730663e-8,-3.2384918e-8,1.3963,-27.85656,-44.052276)" gradientUnits="userSpaceOnUse" xlink:href="#linearGradient3275"/><clipPath id="clipPath3361" clipPathUnits="userSpaceOnUse"><rect id="rect3363" width="88" height="72" x="12" y="24" fill="url(#radialGradient3365)" fill-opacity="1" stroke="none" stroke-dasharray="none" stroke-miterlimit="4" stroke-opacity="1" stroke-width="1" opacity="1" rx="5.017" ry="5.017"/></clipPath><radialGradient id="radialGradient3365" cx="56" cy="65.962" r="44" fx="56" fy="64.753" gradientTransform="matrix(2.206761,0,0,2.057714,-67.578619,-106.93252)" gradientUnits="userSpaceOnUse" xlink:href="#linearGradient3292"/><linearGradient id="linearGradient3380" x1="42.444" x2="26.826" y1="1.65" y2="110.061" gradientUnits="userSpaceOnUse" xlink:href="#linearGradient3374"/><linearGradient id="linearGradient3390" x1="52.514" x2="52.514" y1="97" y2="74.245" gradientUnits="userSpaceOnUse" xlink:href="#linearGradient3384"/><clipPath id="clipPath3402" clipPathUnits="userSpaceOnUse"><rect id="rect3404" width="88" height="72" x="12" y="24" fill="url(#radialGradient3406)" fill-opacity="1" stroke="none" stroke-dasharray="none" stroke-miterlimit="4" stroke-opacity="1" stroke-width="1" opacity="1" rx="5.017" ry="5.017"/></clipPath><radialGradient id="radialGradient3406" cx="56" cy="65.962" r="44" fx="56" fy="64.753" gradientTransform="matrix(2.206761,0,0,2.057714,-67.578619,-106.93252)" gradientUnits="userSpaceOnUse" xlink:href="#linearGradient3292"/><linearGradient id="linearGradient3446" x1="100" x2="100" y1="92.763" y2="60" gradientUnits="userSpaceOnUse" xlink:href="#linearGradient3440"/><linearGradient id="linearGradient3450" x1="100" x2="100" y1="92.763" y2="60" gradientTransform="translate(0,-120)" gradientUnits="userSpaceOnUse" xlink:href="#linearGradient3440"/><radialGradient id="radialGradient3458" cx="108.336" cy="25.487" r="4.172" fx="108.336" fy="25.487" gradientTransform="matrix(1.4323753,0,0,1.4323753,-46.84166,-11.020123)" gradientUnits="userSpaceOnUse" xlink:href="#linearGradient3452"/><linearGradient id="linearGradient3476" x1="110.757" x2="106.724" y1="32.56" y2="24.216" gradientUnits="userSpaceOnUse" xlink:href="#linearGradient3470"/><linearGradient id="linearGradient3576" x1="111.586" x2="116.799" y1="31.213" y2="35.08" gradientTransform="translate(-0.5596184,-0.2034976)" gradientUnits="userSpaceOnUse" xlink:href="#linearGradient3570"/><linearGradient id="linearGradient3671" x1="111.586" x2="116.799" y1="31.213" y2="35.08" gradientTransform="translate(-0.5596184,-0.2034976)" gradientUnits="userSpaceOnUse" xlink:href="#linearGradient3570"/><radialGradient id="radialGradient3673" cx="108.336" cy="25.487" r="4.172" fx="108.336" fy="25.487" gradientTransform="matrix(1.4323753,0,0,1.4323753,-46.84166,-11.020123)" gradientUnits="userSpaceOnUse" xlink:href="#linearGradient3452"/><linearGradient id="linearGradient3675" x1="110.757" x2="106.724" y1="32.56" y2="24.216" gradientUnits="userSpaceOnUse" xlink:href="#linearGradient3470"/><linearGradient id="linearGradient3711" x1="111.586" x2="116.799" y1="31.213" y2="35.08" gradientTransform="translate(-0.5596184,-0.2034976)" gradientUnits="userSpaceOnUse" xlink:href="#linearGradient3570"/><radialGradient id="radialGradient3713" cx="108.336" cy="25.487" r="4.172" fx="108.336" fy="25.487" gradientTransform="matrix(1.4323753,0,0,1.4323753,-46.84166,-11.020123)" gradientUnits="userSpaceOnUse" xlink:href="#linearGradient3452"/><linearGradient id="linearGradient3715" x1="110.757" x2="106.724" y1="32.56" y2="24.216" gradientUnits="userSpaceOnUse" xlink:href="#linearGradient3470"/><linearGradient id="linearGradient3735" x1="110" x2="110" y1="84" y2="72.081" gradientUnits="userSpaceOnUse" xlink:href="#linearGradient3729"/><linearGradient id="linearGradient3743" x1="110" x2="110" y1="84" y2="88" gradientUnits="userSpaceOnUse" xlink:href="#linearGradient3737"/><linearGradient id="linearGradient3747" x1="110" x2="110" y1="84" y2="72.081" gradientTransform="matrix(1,0,0,0.2,0,-90.8)" gradientUnits="userSpaceOnUse" xlink:href="#linearGradient3729"/><radialGradient id="radialGradient3755" cx="110" cy="87.736" r="4" fx="110" fy="87.736" gradientTransform="matrix(5.3439755,0,0,6.1619222,-477.8373,-454.24916)" gradientUnits="userSpaceOnUse" xlink:href="#linearGradient3749"/><linearGradient id="linearGradient3791" x1="113.348" x2="118.029" y1="79.669" y2="79.669" gradientUnits="userSpaceOnUse" xlink:href="#linearGradient3785"/><linearGradient id="linearGradient4008" x1="98.9" x2="98.9" y1="40.17" y2="104.503" gradientUnits="userSpaceOnUse" xlink:href="#linearGradient4002"/><clipPath id="clipPath4019" clipPathUnits="userSpaceOnUse"><rect id="rect4021" width="88" height="72" x="12" y="24" fill="url(#linearGradient4023)" fill-opacity="1" stroke="none" stroke-dasharray="none" stroke-miterlimit="4" stroke-opacity="1" stroke-width="1" opacity=".653" rx="5.017" ry="5.017"/></clipPath><linearGradient id="linearGradient4023" x1="100" x2="100" y1="92.763" y2="60" gradientUnits="userSpaceOnUse" xlink:href="#linearGradient3440"/><linearGradient id="linearGradient4027" x1="100" x2="100" y1="92.763" y2="72.82" gradientUnits="userSpaceOnUse" xlink:href="#linearGradient3440"/><linearGradient id="linearGradient4037" x1="16" x2="18" y1="104" y2="104" gradientTransform="matrix(2,0,0,1.25,-16,-27)" gradientUnits="userSpaceOnUse" xlink:href="#linearGradient4031"/><linearGradient id="linearGradient4041" x1="16" x2="18" y1="104" y2="104" gradientTransform="matrix(2,0,0,1.25,-12,-27)" gradientUnits="userSpaceOnUse" xlink:href="#linearGradient4031"/><linearGradient id="linearGradient4047" x1="16" x2="18" y1="104" y2="104" gradientTransform="matrix(2,0,0,1.25,-8,-27)" gradientUnits="userSpaceOnUse" xlink:href="#linearGradient4031"/><linearGradient id="linearGradient4049" x1="16" x2="18" y1="104" y2="104" gradientTransform="matrix(2,0,0,1.25,-4,-27)" gradientUnits="userSpaceOnUse" xlink:href="#linearGradient4031"/><linearGradient id="linearGradient4059" x1="16" x2="18" y1="104" y2="104" gradientTransform="matrix(2,0,0,1.25,0,-27)" gradientUnits="userSpaceOnUse" xlink:href="#linearGradient4031"/><linearGradient id="linearGradient4061" x1="16" x2="18" y1="104" y2="104" gradientTransform="matrix(2,0,0,1.25,4,-27)" gradientUnits="userSpaceOnUse" xlink:href="#linearGradient4031"/><linearGradient id="linearGradient4063" x1="16" x2="18" y1="104" y2="104" gradientTransform="matrix(2,0,0,1.25,8,-27)" gradientUnits="userSpaceOnUse" xlink:href="#linearGradient4031"/><linearGradient id="linearGradient4065" x1="16" x2="18" y1="104" y2="104" gradientTransform="matrix(2,0,0,1.25,12,-27)" gradientUnits="userSpaceOnUse" xlink:href="#linearGradient4031"/><linearGradient id="linearGradient4091" x1="32" x2="32" y1="98" y2="100" gradientUnits="userSpaceOnUse" xlink:href="#linearGradient4085"/><linearGradient id="linearGradient4095" x1="32" x2="32" y1="98" y2="100" gradientTransform="translate(0,-206)" gradientUnits="userSpaceOnUse" xlink:href="#linearGradient4085"/><linearGradient id="linearGradient4099" x1="100" x2="95.93" y1="65.698" y2="65.087" gradientUnits="userSpaceOnUse" xlink:href="#linearGradient3440"/><linearGradient id="linearGradient4103" x1="100" x2="95.91" y1="65.698" y2="65.698" gradientTransform="translate(-112,0)" gradientUnits="userSpaceOnUse" xlink:href="#linearGradient3440"/><linearGradient id="linearGradient4107" x1="48.922" x2="50.754" y1="24" y2="28.868" gradientTransform="translate(-112,0)" gradientUnits="userSpaceOnUse" xlink:href="#linearGradient3440"/><radialGradient id="radialGradient4119" cx="64" cy="73.978" r="52" fx="64" fy="73.978" gradientTransform="matrix(1,0,0,0.2852293,0,74.899355)" gradientUnits="userSpaceOnUse" spreadMethod="reflect" xlink:href="#linearGradient4111"/></defs><metadata id="metadata7"/><g id="layer1"><rect id="rect3134" width="112" height="96" x="8" y="16" fill="url(#radialGradient3261)" fill-opacity="1" stroke="none" stroke-dasharray="none" stroke-miterlimit="4" stroke-opacity="1" stroke-width="4" filter="url(#filter3140)" opacity="1" rx="5.193" ry="5.193" transform="matrix(1.0254372,0,0,1.0445151,-1.6279809,-2.3402225)"/><rect id="rect3179" width="112" height="96" x="8" y="16" fill="#eee" fill-opacity="1" stroke="none" stroke-dasharray="none" stroke-miterlimit="4" stroke-opacity="1" stroke-width="1" opacity="1" rx="5.017" ry="5.017"/><path id="rect3149" fill="#fff" fill-opacity="1" stroke="none" stroke-dasharray="none" stroke-miterlimit="4" stroke-opacity="1" stroke-width="1" d="M 13.03125 16 C 10.25197 16 8 18.251971 8 21.03125 L 8 22.03125 C 8 19.251971 10.25197 17 13.03125 17 L 114.96875 17 C 117.74803 17 120 19.25197 120 22.03125 L 120 21.03125 C 120 18.25197 117.74803 16 114.96875 16 L 13.03125 16 z" filter="url(#filter3162)" opacity="1"/><path id="rect2160" fill="#fff" fill-opacity="1" stroke="none" stroke-dasharray="none" stroke-miterlimit="4" stroke-opacity="1" stroke-width="1" d="M 13.03125 16 C 10.25197 16 8 18.251971 8 21.03125 L 8 106.96875 C 8 109.74803 10.251971 112 13.03125 112 L 14.03125 112 C 11.251971 112 9 109.74803 9 106.96875 L 9 21.03125 C 9 18.251971 11.25197 16 14.03125 16 L 13.03125 16 z" filter="url(#filter3193)" opacity="1"/><path id="path3197" fill="#fff" fill-opacity="1" stroke="none" stroke-dasharray="none" stroke-miterlimit="4" stroke-opacity="1" stroke-width="1" d="M 13.03125,16 C 10.25197,16 8,18.251971 8,21.03125 L 8,106.96875 C 8,109.74803 10.251971,112 13.03125,112 L 14.03125,112 C 11.251971,112 9,109.74803 9,106.96875 L 9,21.03125 C 9,18.251971 11.25197,16 14.03125,16 L 13.03125,16 z" filter="url(#filter3193)" opacity="1" transform="matrix(-1,0,0,1,128.03125,0)"/><path id="rect3230" fill="#323232" fill-opacity="1" stroke="none" stroke-dasharray="none" stroke-miterlimit="4" stroke-opacity="1" stroke-width="1" d="M 8,104.96875 L 8,106.96875 C 8,109.74803 10.251971,112 13.03125,112 L 114.96875,112 C 117.74803,112 120,109.74803 120,106.96875 L 120,104.96875 C 120,107.74803 117.74803,110 114.96875,110 L 13.03125,110 C 10.251971,110 8,107.74803 8,104.96875 z" filter="url(#filter3247)" opacity="1" transform="matrix(1,0,0,1.1728827,0,-18.757767)"/><path id="path3172" fill="#323232" fill-opacity="1" stroke="none" stroke-dasharray="none" stroke-miterlimit="4" stroke-opacity="1" stroke-width="1" d="M 13.03125,16 C 10.25197,16 8,18.251971 8,21.03125 L 8,22.03125 C 8,19.251971 10.25197,17 13.03125,17 L 114.96875,17 C 117.74803,17 120,19.25197 120,22.03125 L 120,21.03125 C 120,18.25197 117.74803,16 114.96875,16 L 13.03125,16 z" filter="url(#filter3162)" opacity="1" transform="matrix(1,0,0,-1.1728827,0,131.40786)"/><path id="path3253" fill="#fff" fill-opacity="1" stroke="none" stroke-dasharray="none" stroke-miterlimit="4" stroke-opacity="1" stroke-width="1" d="M 8,104.96875 L 8,106.96875 C 8,109.74803 10.251971,112 13.03125,112 L 114.96875,112 C 117.74803,112 120,109.74803 120,106.96875 L 120,104.96875 C 120,107.74803 117.74803,110 114.96875,110 L 13.03125,110 C 10.251971,110 8,107.74803 8,104.96875 z" filter="url(#filter3247)" opacity=".458" transform="matrix(1,0,0,-1,0,127.96875)"/><rect id="rect3263" width="112" height="96" x="8" y="16" fill="url(#radialGradient3271)" fill-opacity="1" stroke="none" stroke-dasharray="none" stroke-miterlimit="4" stroke-opacity="1" stroke-width="1" opacity="1" rx="5.017" ry="5.017"/><rect id="rect3273" width="88" height="72" x="12" y="24" fill="url(#radialGradient3281)" fill-opacity="1" stroke="none" stroke-dasharray="none" stroke-miterlimit="4" stroke-opacity="1" stroke-width="1" opacity="1" rx="5.017" ry="5.017"/><path id="path3298" fill="#000" fill-opacity="1" stroke="none" stroke-dasharray="none" stroke-miterlimit="4" stroke-opacity="1" stroke-width="1" d="M 12,30 L 12,29 C 12,26.22072 14.251971,23.96875 17.03125,23.96875 L 94.96875,23.96875 C 97.74803,23.96875 100,26.220717 100,29 L 100,30 C 100,27.220717 97.74803,24.96875 94.96875,24.96875 L 17.03125,24.96875 C 14.251971,24.96875 12,27.22072 12,30 z" opacity=".574"/><g id="g3349" fill="#ff7e00" stroke="#d3d7cf" clip-path="url(#clipPath3361)" opacity=".258"><path id="path3300" fill="#ff7e00" fill-rule="evenodd" stroke="#d3d7cf" stroke-linecap="butt" stroke-linejoin="miter" stroke-opacity="1" stroke-width="1" d="M 24.5,19.5 L 24.5,99.5" opacity="1"/><path id="path3307" fill="#ff7e00" fill-rule="evenodd" stroke="#d3d7cf" stroke-linecap="butt" stroke-linejoin="miter" stroke-opacity="1" stroke-width="1" d="M 40.5,19.5 L 40.5,99.5" opacity="1"/><path id="path3309" fill="#ff7e00" fill-rule="evenodd" stroke="#d3d7cf" stroke-linecap="butt" stroke-linejoin="miter" stroke-opacity="1" stroke-width="1" d="M 56.5,19.5 L 56.5,99.5" opacity="1"/><path id="path3311" fill="#ff7e00" fill-rule="evenodd" stroke="#d3d7cf" stroke-linecap="butt" stroke-linejoin="miter" stroke-opacity="1" stroke-width="1" d="M 72.5,19.5 L 72.5,99.5" opacity="1"/><path id="path3317" fill="#ff7e00" fill-rule="evenodd" stroke="#d3d7cf" stroke-linecap="butt" stroke-linejoin="miter" stroke-opacity="1" stroke-width="1" d="M 88.5,19.5 L 88.5,99.5" opacity="1"/><path id="path3325" fill="#ff7e00" fill-rule="evenodd" stroke="#d3d7cf" stroke-linecap="butt" stroke-linejoin="miter" stroke-opacity="1" stroke-width="1" d="M 0.5,60.5 L 111.11729,60.5" opacity="1"/><path id="path3327" fill="#ff7e00" fill-rule="evenodd" stroke="#d3d7cf" stroke-linecap="butt" stroke-linejoin="miter" stroke-opacity="1" stroke-width="1" d="M 0.5,79.5 L 111.11729,79.5" opacity="1"/><path id="path3329" fill="#ff7e00" fill-rule="evenodd" stroke="#d3d7cf" stroke-linecap="butt" stroke-linejoin="miter" stroke-opacity="1" stroke-width="1" d="M 0.5,40.5 L 111.11729,40.5" opacity="1"/></g><rect id="rect3448" width="88" height="72" x="12" y="-96" fill="url(#linearGradient3450)" fill-opacity="1" stroke="none" stroke-dasharray="none" stroke-miterlimit="4" stroke-opacity="1" stroke-width="1" opacity=".321" rx="5.017" ry="5.017" transform="scale(1,-1)"/><path id="path3428" fill="#000" fill-opacity="1" stroke="none" stroke-dasharray="none" stroke-miterlimit="4" stroke-opacity="1" stroke-width="1" d="M 12,30 L 12,29 C 12,26.22072 14.251971,23.96875 17.03125,23.96875 L 94.96875,23.96875 C 97.74803,23.96875 100,26.220717 100,29 L 100,30 C 100,27.220717 97.74803,24.96875 94.96875,24.96875 L 17.03125,24.96875 C 14.251971,24.96875 12,27.22072 12,30 z" filter="url(#filter3430)" opacity=".742"/><rect id="rect4025" width="88" height="72" x="12" y="24" fill="url(#linearGradient3446)" fill-opacity="1" stroke="none" stroke-dasharray="none" stroke-miterlimit="4" stroke-opacity="1" stroke-width="1" opacity=".437" rx="5.017" ry="5.017"/><g id="g4010" clip-path="url(#clipPath4019)" transform="translate(0,1)"><path id="path3431" fill="#ff0" fill-opacity="1" fill-rule="evenodd" stroke="none" stroke-dasharray="none" stroke-linecap="butt" stroke-linejoin="round" stroke-miterlimit="4" stroke-opacity="1" stroke-width="1" d="M 16.246914,126.84803 L -2.6446783,98.771282 L 12,79.49 L 24,79.49 L 36,55.49 L 52,55.49 L 64,71.49 L 76,71.49 L 84,59.49 L 99.306836,59.49 L 105.08642,59.49 L 105.03704,124.87272" opacity=".285"/><path id="path3413" fill="none" fill-rule="evenodd" stroke="#ff0" stroke-dasharray="none" stroke-linecap="butt" stroke-linejoin="round" stroke-miterlimit="4" stroke-opacity="1" stroke-width="2" d="M 4,59.49 L 12,79.49 L 24,79.49 L 36,55.49 L 52,55.49 L 64,71.49 L 76,71.49 L 84,59.49 L 99.306836,59.49 L 108,59.49" filter="url(#filter3427)" opacity=".747"/><path id="path3857" fill="none" fill-rule="evenodd" stroke="#ff0" stroke-dasharray="none" stroke-linecap="butt" stroke-linejoin="round" stroke-miterlimit="4" stroke-opacity="1" stroke-width="1" d="M 4,59.49 L 12,79.49 L 24,79.49 L 36,55.49 L 52,55.49 L 64,71.49 L 76,71.49 L 84,59.49 L 99.306836,59.49 L 108,59.49"/></g><rect id="rect3438" width="88" height="72" x="12" y="24" fill="url(#linearGradient4027)" fill-opacity="1" stroke="none" stroke-dasharray="none" stroke-miterlimit="4" stroke-opacity="1" stroke-width="1" opacity=".321" rx="5.017" ry="5.017"/><g id="g3930"><g id="g3877"><g id="g3619"><path id="path3565" fill="url(#linearGradient3576)" fill-opacity="1" fill-rule="evenodd" stroke="none" stroke-linecap="butt" stroke-linejoin="miter" stroke-opacity="1" stroke-width="1" d="M 112.75288,27.421502 L 112.69038,27.484002 C 112.7815,27.612572 112.86468,27.751107 112.94038,27.890252 L 112.75288,27.421502 z M 113.25288,28.671502 C 113.35793,29.029168 113.44038,29.405037 113.44038,29.796502 C 113.44038,32.005672 111.65189,33.796502 109.44038,33.796502 C 109.27008,33.796502 109.10511,33.754638 108.94038,33.734002 L 111.87788,34.609002 L 114.65913,36.327752 L 117.00288,33.984002 L 114.47163,31.702752 L 113.25288,28.671502 z" filter="url(#filter3590)" opacity=".668"/><path id="path3434" fill="url(#radialGradient3458)" fill-opacity="1" stroke="none" stroke-dasharray="none" stroke-miterlimit="4" stroke-opacity="1" stroke-width="2" d="M 112.33068 28.387917 A 4.171701 4.171701 0 1 1 103.98728,28.387917 A 4.171701 4.171701 0 1 1 112.33068 28.387917 z" opacity="1" transform="matrix(0.9603662,0,0,0.9593493,6.121415,2.7660729)"/><path id="path3464" fill="url(#linearGradient3476)" fill-opacity="1" stroke="none" stroke-dasharray="none" stroke-miterlimit="4" stroke-opacity="1" stroke-width="2" d="M 112.33068 28.387917 A 4.171701 4.171701 0 1 1 103.98728,28.387917 A 4.171701 4.171701 0 1 1 112.33068 28.387917 z" opacity="1" transform="matrix(0.6394807,0,0,0.6394807,40.828061,11.846477)"/><path id="path3490" fill="#a6a6a6" fill-opacity="1" fill-rule="evenodd" stroke="none" stroke-linecap="butt" stroke-linejoin="miter" stroke-opacity="1" stroke-width="1" d="M 111.25 27.65625 L 110 30 L 112.28125 28.625 C 112.03352 28.213855 111.67402 27.88393 111.25 27.65625 z" filter="url(#filter3561)" opacity=".4"/><path id="path3495" fill="#a6a6a6" fill-opacity="1" fill-rule="evenodd" stroke="none" stroke-linecap="butt" stroke-linejoin="miter" stroke-opacity="1" stroke-width="1" d="M 108.7419,32.340223 L 109.9919,29.996473 L 107.71065,31.371473 C 107.95838,31.782618 108.31788,32.112543 108.7419,32.340223 z" filter="url(#filter3553)" opacity=".4"/><path id="path3497" fill="#a6a6a6" fill-opacity="1" fill-rule="evenodd" stroke="none" stroke-linecap="butt" stroke-linejoin="miter" stroke-opacity="1" stroke-width="1" d="M 112.65119,29.913281 L 109.99645,30.002628 L 112.32786,31.290746 C 112.56005,30.870628 112.66602,30.394332 112.65119,29.913281 z" filter="url(#filter3557)" opacity=".4"/><path id="path3499" fill="#a6a6a6" fill-opacity="1" fill-rule="evenodd" stroke="none" stroke-linecap="butt" stroke-linejoin="miter" stroke-opacity="1" stroke-width="1" d="M 107.34071,30.083192 L 109.99545,29.993845 L 107.66404,28.705727 C 107.43185,29.125845 107.32588,29.602141 107.34071,30.083192 z" filter="url(#filter3549)" opacity=".4"/><path id="path3594" fill="#323232" fill-opacity="1" stroke="none" stroke-dasharray="none" stroke-miterlimit="4" stroke-opacity="1" stroke-width="2" d="M 109.6011 28.96286 A 0.79229712 0.79229712 0 1 1 108.0165,28.96286 A 0.79229712 0.79229712 0 1 1 109.6011 28.96286 z" opacity="1" transform="translate(0.186995,-0.3990364)"/><path id="path3601" fill="#323232" fill-opacity="1" stroke="none" stroke-dasharray="none" stroke-miterlimit="4" stroke-opacity="1" stroke-width="2" d="M 109.6011 28.96286 A 0.79229712 0.79229712 0 1 1 108.0165,28.96286 A 0.79229712 0.79229712 0 1 1 109.6011 28.96286 z" opacity="1" transform="matrix(0.6310757,0,0,0.6310783,37.833408,16.222168)"/><path id="path3603" fill="#323232" fill-opacity="1" stroke="none" stroke-dasharray="none" stroke-miterlimit="4" stroke-opacity="1" stroke-width="2" d="M 109.6011 28.96286 A 0.79229712 0.79229712 0 1 1 108.0165,28.96286 A 0.79229712 0.79229712 0 1 1 109.6011 28.96286 z" opacity="1" transform="matrix(0.6310757,0,0,0.6310783,35.833408,13.222168)"/><path id="path3605" fill="#323232" fill-opacity="1" stroke="none" stroke-dasharray="none" stroke-miterlimit="4" stroke-opacity="1" stroke-width="2" d="M 109.6011 28.96286 A 0.79229712 0.79229712 0 1 1 108.0165,28.96286 A 0.79229712 0.79229712 0 1 1 109.6011 28.96286 z" opacity="1" transform="matrix(0.6310757,0,0,0.6310783,35.833408,10.222168)"/><path id="path3607" fill="#323232" fill-opacity="1" stroke="none" stroke-dasharray="none" stroke-miterlimit="4" stroke-opacity="1" stroke-width="2" d="M 109.6011 28.96286 A 0.79229712 0.79229712 0 1 1 108.0165,28.96286 A 0.79229712 0.79229712 0 1 1 109.6011 28.96286 z" opacity="1" transform="matrix(0.6310757,0,0,0.6310783,37.833408,7.222168)"/><path id="path3611" fill="#323232" fill-opacity="1" stroke="none" stroke-dasharray="none" stroke-miterlimit="4" stroke-opacity="1" stroke-width="2" d="M 109.6011 28.96286 A 0.79229712 0.79229712 0 1 1 108.0165,28.96286 A 0.79229712 0.79229712 0 1 1 109.6011 28.96286 z" opacity="1" transform="matrix(-0.6310757,0,0,0.6310783,184.16659,11.222168)"/><path id="path3613" fill="#323232" fill-opacity="1" stroke="none" stroke-dasharray="none" stroke-miterlimit="4" stroke-opacity="1" stroke-width="2" d="M 109.6011 28.96286 A 0.79229712 0.79229712 0 1 1 108.0165,28.96286 A 0.79229712 0.79229712 0 1 1 109.6011 28.96286 z" opacity="1" transform="matrix(-0.6310757,0,0,0.6310783,183.16659,8.222168)"/><path id="path3615" fill="#323232" fill-opacity="1" stroke="none" stroke-dasharray="none" stroke-miterlimit="4" stroke-opacity="1" stroke-width="2" d="M 109.6011 28.96286 A 0.79229712 0.79229712 0 1 1 108.0165,28.96286 A 0.79229712 0.79229712 0 1 1 109.6011 28.96286 z" opacity="1" transform="matrix(-0.6310757,0,0,0.6310783,181.16659,6.222168)"/><path id="path3617" fill="#323232" fill-opacity="1" stroke="none" stroke-dasharray="none" stroke-miterlimit="4" stroke-opacity="1" stroke-width="2" d="M 109.6011 28.96286 A 0.79229712 0.79229712 0 1 1 108.0165,28.96286 A 0.79229712 0.79229712 0 1 1 109.6011 28.96286 z" opacity="1" transform="matrix(0.6310757,0,0,0.6310783,40.833408,6.222168)"/></g><g id="g3637" transform="translate(0,14)"><path id="path3639" fill="url(#linearGradient3671)" fill-opacity="1" fill-rule="evenodd" stroke="none" stroke-linecap="butt" stroke-linejoin="miter" stroke-opacity="1" stroke-width="1" d="M 112.75288,27.421502 L 112.69038,27.484002 C 112.7815,27.612572 112.86468,27.751107 112.94038,27.890252 L 112.75288,27.421502 z M 113.25288,28.671502 C 113.35793,29.029168 113.44038,29.405037 113.44038,29.796502 C 113.44038,32.005672 111.65189,33.796502 109.44038,33.796502 C 109.27008,33.796502 109.10511,33.754638 108.94038,33.734002 L 111.87788,34.609002 L 114.65913,36.327752 L 117.00288,33.984002 L 114.47163,31.702752 L 113.25288,28.671502 z" filter="url(#filter3590)" opacity=".668"/><path id="path3641" fill="url(#radialGradient3673)" fill-opacity="1" stroke="none" stroke-dasharray="none" stroke-miterlimit="4" stroke-opacity="1" stroke-width="2" d="m 112.33068,28.387917 c 0,2.303966 -1.86773,4.171701 -4.1717,4.171701 -2.30397,0 -4.1717,-1.867735 -4.1717,-4.171701 0,-2.303967 1.86773,-4.171701 4.1717,-4.171701 2.30397,0 4.1717,1.867734 4.1717,4.171701 z" opacity="1" transform="matrix(0.9603662,0,0,0.9593493,6.121415,2.7660729)"/><path id="path3643" fill="url(#linearGradient3675)" fill-opacity="1" stroke="none" stroke-dasharray="none" stroke-miterlimit="4" stroke-opacity="1" stroke-width="2" d="m 112.33068,28.387917 c 0,2.303966 -1.86773,4.171701 -4.1717,4.171701 -2.30397,0 -4.1717,-1.867735 -4.1717,-4.171701 0,-2.303967 1.86773,-4.171701 4.1717,-4.171701 2.30397,0 4.1717,1.867734 4.1717,4.171701 z" opacity="1" transform="matrix(0.6394807,0,0,0.6394807,40.828061,11.846477)"/><path id="path3645" fill="#a6a6a6" fill-opacity="1" fill-rule="evenodd" stroke="none" stroke-linecap="butt" stroke-linejoin="miter" stroke-opacity="1" stroke-width="1" d="M 111.25,27.65625 L 110,30 L 112.28125,28.625 C 112.03352,28.213855 111.67402,27.88393 111.25,27.65625 z" filter="url(#filter3561)" opacity=".4"/><path id="path3647" fill="#a6a6a6" fill-opacity="1" fill-rule="evenodd" stroke="none" stroke-linecap="butt" stroke-linejoin="miter" stroke-opacity="1" stroke-width="1" d="M 108.7419,32.340223 L 109.9919,29.996473 L 107.71065,31.371473 C 107.95838,31.782618 108.31788,32.112543 108.7419,32.340223 z" filter="url(#filter3553)" opacity=".4"/><path id="path3649" fill="#a6a6a6" fill-opacity="1" fill-rule="evenodd" stroke="none" stroke-linecap="butt" stroke-linejoin="miter" stroke-opacity="1" stroke-width="1" d="M 112.65119,29.913281 L 109.99645,30.002628 L 112.32786,31.290746 C 112.56005,30.870628 112.66602,30.394332 112.65119,29.913281 z" filter="url(#filter3557)" opacity=".4"/><path id="path3651" fill="#a6a6a6" fill-opacity="1" fill-rule="evenodd" stroke="none" stroke-linecap="butt" stroke-linejoin="miter" stroke-opacity="1" stroke-width="1" d="M 107.34071,30.083192 L 109.99545,29.993845 L 107.66404,28.705727 C 107.43185,29.125845 107.32588,29.602141 107.34071,30.083192 z" filter="url(#filter3549)" opacity=".4"/><path id="path3653" fill="#323232" fill-opacity="1" stroke="none" stroke-dasharray="none" stroke-miterlimit="4" stroke-opacity="1" stroke-width="2" d="m 109.6011,28.96286 c 0,0.437574 -0.35473,0.792297 -0.7923,0.792297 -0.43757,0 -0.7923,-0.354723 -0.7923,-0.792297 0,-0.437574 0.35473,-0.792297 0.7923,-0.792297 0.43757,0 0.7923,0.354723 0.7923,0.792297 z" opacity="1" transform="translate(0.186995,-0.3990364)"/><path id="path3655" fill="#323232" fill-opacity="1" stroke="none" stroke-dasharray="none" stroke-miterlimit="4" stroke-opacity="1" stroke-width="2" d="m 109.6011,28.96286 c 0,0.437574 -0.35473,0.792297 -0.7923,0.792297 -0.43757,0 -0.7923,-0.354723 -0.7923,-0.792297 0,-0.437574 0.35473,-0.792297 0.7923,-0.792297 0.43757,0 0.7923,0.354723 0.7923,0.792297 z" opacity="1" transform="matrix(0.6310757,0,0,0.6310783,37.833408,16.222168)"/><path id="path3657" fill="#323232" fill-opacity="1" stroke="none" stroke-dasharray="none" stroke-miterlimit="4" stroke-opacity="1" stroke-width="2" d="m 109.6011,28.96286 c 0,0.437574 -0.35473,0.792297 -0.7923,0.792297 -0.43757,0 -0.7923,-0.354723 -0.7923,-0.792297 0,-0.437574 0.35473,-0.792297 0.7923,-0.792297 0.43757,0 0.7923,0.354723 0.7923,0.792297 z" opacity="1" transform="matrix(0.6310757,0,0,0.6310783,35.833408,13.222168)"/><path id="path3659" fill="#323232" fill-opacity="1" stroke="none" stroke-dasharray="none" stroke-miterlimit="4" stroke-opacity="1" stroke-width="2" d="m 109.6011,28.96286 c 0,0.437574 -0.35473,0.792297 -0.7923,0.792297 -0.43757,0 -0.7923,-0.354723 -0.7923,-0.792297 0,-0.437574 0.35473,-0.792297 0.7923,-0.792297 0.43757,0 0.7923,0.354723 0.7923,0.792297 z" opacity="1" transform="matrix(0.6310757,0,0,0.6310783,35.833408,10.222168)"/><path id="path3661" fill="#323232" fill-opacity="1" stroke="none" stroke-dasharray="none" stroke-miterlimit="4" stroke-opacity="1" stroke-width="2" d="m 109.6011,28.96286 c 0,0.437574 -0.35473,0.792297 -0.7923,0.792297 -0.43757,0 -0.7923,-0.354723 -0.7923,-0.792297 0,-0.437574 0.35473,-0.792297 0.7923,-0.792297 0.43757,0 0.7923,0.354723 0.7923,0.792297 z" opacity="1" transform="matrix(0.6310757,0,0,0.6310783,37.833408,7.222168)"/><path id="path3663" fill="#323232" fill-opacity="1" stroke="none" stroke-dasharray="none" stroke-miterlimit="4" stroke-opacity="1" stroke-width="2" d="m 109.6011,28.96286 c 0,0.437574 -0.35473,0.792297 -0.7923,0.792297 -0.43757,0 -0.7923,-0.354723 -0.7923,-0.792297 0,-0.437574 0.35473,-0.792297 0.7923,-0.792297 0.43757,0 0.7923,0.354723 0.7923,0.792297 z" opacity="1" transform="matrix(-0.6310757,0,0,0.6310783,184.16659,11.222168)"/><path id="path3665" fill="#323232" fill-opacity="1" stroke="none" stroke-dasharray="none" stroke-miterlimit="4" stroke-opacity="1" stroke-width="2" d="m 109.6011,28.96286 c 0,0.437574 -0.35473,0.792297 -0.7923,0.792297 -0.43757,0 -0.7923,-0.354723 -0.7923,-0.792297 0,-0.437574 0.35473,-0.792297 0.7923,-0.792297 0.43757,0 0.7923,0.354723 0.7923,0.792297 z" opacity="1" transform="matrix(-0.6310757,0,0,0.6310783,183.16659,8.222168)"/><path id="path3667" fill="#323232" fill-opacity="1" stroke="none" stroke-dasharray="none" stroke-miterlimit="4" stroke-opacity="1" stroke-width="2" d="m 109.6011,28.96286 c 0,0.437574 -0.35473,0.792297 -0.7923,0.792297 -0.43757,0 -0.7923,-0.354723 -0.7923,-0.792297 0,-0.437574 0.35473,-0.792297 0.7923,-0.792297 0.43757,0 0.7923,0.354723 0.7923,0.792297 z" opacity="1" transform="matrix(-0.6310757,0,0,0.6310783,181.16659,6.222168)"/><path id="path3669" fill="#323232" fill-opacity="1" stroke="none" stroke-dasharray="none" stroke-miterlimit="4" stroke-opacity="1" stroke-width="2" d="m 109.6011,28.96286 c 0,0.437574 -0.35473,0.792297 -0.7923,0.792297 -0.43757,0 -0.7923,-0.354723 -0.7923,-0.792297 0,-0.437574 0.35473,-0.792297 0.7923,-0.792297 0.43757,0 0.7923,0.354723 0.7923,0.792297 z" opacity="1" transform="matrix(0.6310757,0,0,0.6310783,40.833408,6.222168)"/></g><g id="g3677" transform="translate(0,28)"><path id="path3679" fill="url(#linearGradient3711)" fill-opacity="1" fill-rule="evenodd" stroke="none" stroke-linecap="butt" stroke-linejoin="miter" stroke-opacity="1" stroke-width="1" d="M 112.75288,27.421502 L 112.69038,27.484002 C 112.7815,27.612572 112.86468,27.751107 112.94038,27.890252 L 112.75288,27.421502 z M 113.25288,28.671502 C 113.35793,29.029168 113.44038,29.405037 113.44038,29.796502 C 113.44038,32.005672 111.65189,33.796502 109.44038,33.796502 C 109.27008,33.796502 109.10511,33.754638 108.94038,33.734002 L 111.87788,34.609002 L 114.65913,36.327752 L 117.00288,33.984002 L 114.47163,31.702752 L 113.25288,28.671502 z" filter="url(#filter3590)" opacity=".668"/><path id="path3681" fill="url(#radialGradient3713)" fill-opacity="1" stroke="none" stroke-dasharray="none" stroke-miterlimit="4" stroke-opacity="1" stroke-width="2" d="m 112.33068,28.387917 c 0,2.303966 -1.86773,4.171701 -4.1717,4.171701 -2.30397,0 -4.1717,-1.867735 -4.1717,-4.171701 0,-2.303967 1.86773,-4.171701 4.1717,-4.171701 2.30397,0 4.1717,1.867734 4.1717,4.171701 z" opacity="1" transform="matrix(0.9603662,0,0,0.9593493,6.121415,2.7660729)"/><path id="path3683" fill="url(#linearGradient3715)" fill-opacity="1" stroke="none" stroke-dasharray="none" stroke-miterlimit="4" stroke-opacity="1" stroke-width="2" d="m 112.33068,28.387917 c 0,2.303966 -1.86773,4.171701 -4.1717,4.171701 -2.30397,0 -4.1717,-1.867735 -4.1717,-4.171701 0,-2.303967 1.86773,-4.171701 4.1717,-4.171701 2.30397,0 4.1717,1.867734 4.1717,4.171701 z" opacity="1" transform="matrix(0.6394807,0,0,0.6394807,40.828061,11.846477)"/><path id="path3685" fill="#a6a6a6" fill-opacity="1" fill-rule="evenodd" stroke="none" stroke-linecap="butt" stroke-linejoin="miter" stroke-opacity="1" stroke-width="1" d="M 111.25,27.65625 L 110,30 L 112.28125,28.625 C 112.03352,28.213855 111.67402,27.88393 111.25,27.65625 z" filter="url(#filter3561)" opacity=".4"/><path id="path3687" fill="#a6a6a6" fill-opacity="1" fill-rule="evenodd" stroke="none" stroke-linecap="butt" stroke-linejoin="miter" stroke-opacity="1" stroke-width="1" d="M 108.7419,32.340223 L 109.9919,29.996473 L 107.71065,31.371473 C 107.95838,31.782618 108.31788,32.112543 108.7419,32.340223 z" filter="url(#filter3553)" opacity=".4"/><path id="path3689" fill="#a6a6a6" fill-opacity="1" fill-rule="evenodd" stroke="none" stroke-linecap="butt" stroke-linejoin="miter" stroke-opacity="1" stroke-width="1" d="M 112.65119,29.913281 L 109.99645,30.002628 L 112.32786,31.290746 C 112.56005,30.870628 112.66602,30.394332 112.65119,29.913281 z" filter="url(#filter3557)" opacity=".4"/><path id="path3691" fill="#a6a6a6" fill-opacity="1" fill-rule="evenodd" stroke="none" stroke-linecap="butt" stroke-linejoin="miter" stroke-opacity="1" stroke-width="1" d="M 107.34071,30.083192 L 109.99545,29.993845 L 107.66404,28.705727 C 107.43185,29.125845 107.32588,29.602141 107.34071,30.083192 z" filter="url(#filter3549)" opacity=".4"/><path id="path3693" fill="#323232" fill-opacity="1" stroke="none" stroke-dasharray="none" stroke-miterlimit="4" stroke-opacity="1" stroke-width="2" d="m 109.6011,28.96286 c 0,0.437574 -0.35473,0.792297 -0.7923,0.792297 -0.43757,0 -0.7923,-0.354723 -0.7923,-0.792297 0,-0.437574 0.35473,-0.792297 0.7923,-0.792297 0.43757,0 0.7923,0.354723 0.7923,0.792297 z" opacity="1" transform="translate(0.186995,-0.3990364)"/><path id="path3695" fill="#323232" fill-opacity="1" stroke="none" stroke-dasharray="none" stroke-miterlimit="4" stroke-opacity="1" stroke-width="2" d="m 109.6011,28.96286 c 0,0.437574 -0.35473,0.792297 -0.7923,0.792297 -0.43757,0 -0.7923,-0.354723 -0.7923,-0.792297 0,-0.437574 0.35473,-0.792297 0.7923,-0.792297 0.43757,0 0.7923,0.354723 0.7923,0.792297 z" opacity="1" transform="matrix(0.6310757,0,0,0.6310783,37.833408,16.222168)"/><path id="path3697" fill="#323232" fill-opacity="1" stroke="none" stroke-dasharray="none" stroke-miterlimit="4" stroke-opacity="1" stroke-width="2" d="m 109.6011,28.96286 c 0,0.437574 -0.35473,0.792297 -0.7923,0.792297 -0.43757,0 -0.7923,-0.354723 -0.7923,-0.792297 0,-0.437574 0.35473,-0.792297 0.7923,-0.792297 0.43757,0 0.7923,0.354723 0.7923,0.792297 z" opacity="1" transform="matrix(0.6310757,0,0,0.6310783,35.833408,13.222168)"/><path id="path3699" fill="#323232" fill-opacity="1" stroke="none" stroke-dasharray="none" stroke-miterlimit="4" stroke-opacity="1" stroke-width="2" d="m 109.6011,28.96286 c 0,0.437574 -0.35473,0.792297 -0.7923,0.792297 -0.43757,0 -0.7923,-0.354723 -0.7923,-0.792297 0,-0.437574 0.35473,-0.792297 0.7923,-0.792297 0.43757,0 0.7923,0.354723 0.7923,0.792297 z" opacity="1" transform="matrix(0.6310757,0,0,0.6310783,35.833408,10.222168)"/><path id="path3701" fill="#323232" fill-opacity="1" stroke="none" stroke-dasharray="none" stroke-miterlimit="4" stroke-opacity="1" stroke-width="2" d="m 109.6011,28.96286 c 0,0.437574 -0.35473,0.792297 -0.7923,0.792297 -0.43757,0 -0.7923,-0.354723 -0.7923,-0.792297 0,-0.437574 0.35473,-0.792297 0.7923,-0.792297 0.43757,0 0.7923,0.354723 0.7923,0.792297 z" opacity="1" transform="matrix(0.6310757,0,0,0.6310783,37.833408,7.222168)"/><path id="path3703" fill="#323232" fill-opacity="1" stroke="none" stroke-dasharray="none" stroke-miterlimit="4" stroke-opacity="1" stroke-width="2" d="m 109.6011,28.96286 c 0,0.437574 -0.35473,0.792297 -0.7923,0.792297 -0.43757,0 -0.7923,-0.354723 -0.7923,-0.792297 0,-0.437574 0.35473,-0.792297 0.7923,-0.792297 0.43757,0 0.7923,0.354723 0.7923,0.792297 z" opacity="1" transform="matrix(-0.6310757,0,0,0.6310783,184.16659,11.222168)"/><path id="path3705" fill="#323232" fill-opacity="1" stroke="none" stroke-dasharray="none" stroke-miterlimit="4" stroke-opacity="1" stroke-width="2" d="m 109.6011,28.96286 c 0,0.437574 -0.35473,0.792297 -0.7923,0.792297 -0.43757,0 -0.7923,-0.354723 -0.7923,-0.792297 0,-0.437574 0.35473,-0.792297 0.7923,-0.792297 0.43757,0 0.7923,0.354723 0.7923,0.792297 z" opacity="1" transform="matrix(-0.6310757,0,0,0.6310783,183.16659,8.222168)"/><path id="path3707" fill="#323232" fill-opacity="1" stroke="none" stroke-dasharray="none" stroke-miterlimit="4" stroke-opacity="1" stroke-width="2" d="m 109.6011,28.96286 c 0,0.437574 -0.35473,0.792297 -0.7923,0.792297 -0.43757,0 -0.7923,-0.354723 -0.7923,-0.792297 0,-0.437574 0.35473,-0.792297 0.7923,-0.792297 0.43757,0 0.7923,0.354723 0.7923,0.792297 z" opacity="1" transform="matrix(-0.6310757,0,0,0.6310783,181.16659,6.222168)"/><path id="path3709" fill="#323232" fill-opacity="1" stroke="none" stroke-dasharray="none" stroke-miterlimit="4" stroke-opacity="1" stroke-width="2" d="m 109.6011,28.96286 c 0,0.437574 -0.35473,0.792297 -0.7923,0.792297 -0.43757,0 -0.7923,-0.354723 -0.7923,-0.792297 0,-0.437574 0.35473,-0.792297 0.7923,-0.792297 0.43757,0 0.7923,0.354723 0.7923,0.792297 z" opacity="1" transform="matrix(0.6310757,0,0,0.6310783,40.833408,6.222168)"/></g></g><rect id="rect3717" width="12" height="32" x="104" y="72" fill="#9c9c9c" fill-opacity="1" stroke="none" stroke-dasharray="none" stroke-miterlimit="4" stroke-opacity="1" stroke-width="2" opacity="1"/><rect id="rect3719" width="8" height="28" x="106" y="74" fill="#6b6b6b" fill-opacity="1" stroke="none" stroke-dasharray="none" stroke-miterlimit="4" stroke-opacity="1" stroke-width="2" opacity="1"/><rect id="rect3727" width="8" height="28" x="106" y="74" fill="url(#radialGradient3755)" fill-opacity="1" stroke="none" stroke-dasharray="none" stroke-miterlimit="4" stroke-opacity="1" stroke-width="2" opacity="1"/><path id="path3721" fill="#000" fill-opacity="1" fill-rule="evenodd" stroke="none" stroke-linecap="butt" stroke-linejoin="miter" stroke-opacity="1" stroke-width="1" d="M 116,72 L 114,74 L 106,74 L 106,102 L 104,104 L 104,72 L 116,72 z" opacity=".532"/><rect id="rect3725" width="8" height="4" x="106" y="84" fill="url(#linearGradient3743)" fill-opacity="1" stroke="none" stroke-dasharray="none" stroke-miterlimit="4" stroke-opacity="1" stroke-width="2" opacity="1"/><path id="path3783" fill="url(#linearGradient3791)" fill-opacity="1" fill-rule="evenodd" stroke="none" stroke-linecap="butt" stroke-linejoin="miter" stroke-opacity="1" stroke-width="1" d="M 113.75517,74.073132 L 115.99364,75.497615 L 118.02862,75.90461 L 118.02862,86.689984 L 115.79014,85.875994 L 113.75517,88.72496 L 113.75517,74.073132 z" filter="url(#filter3853)" opacity=".705"/><rect id="rect3723" width="8" height="10" x="106" y="74" fill="url(#linearGradient3735)" fill-opacity="1" stroke="none" stroke-dasharray="none" stroke-miterlimit="4" stroke-opacity="1" stroke-width="2" opacity="1"/><rect id="rect3745" width="8" height="2" x="106" y="-76" fill="url(#linearGradient3747)" fill-opacity="1" stroke="none" stroke-dasharray="none" stroke-miterlimit="4" stroke-opacity="1" stroke-width="2" opacity="1" transform="scale(1,-1)"/><rect id="rect3767" width="4" height="1" x="108" y="82" fill="#181818" fill-opacity="1" stroke="none" stroke-dasharray="none" stroke-miterlimit="4" stroke-opacity="1" stroke-width="2" opacity=".432"/><rect id="rect3769" width="4" height="1" x="108" y="80" fill="#181818" fill-opacity="1" stroke="none" stroke-dasharray="none" stroke-miterlimit="4" stroke-opacity="1" stroke-width="2" opacity=".432"/><rect id="rect3771" width="4" height="1" x="108" y="78" fill="#181818" fill-opacity="1" stroke="none" stroke-dasharray="none" stroke-miterlimit="4" stroke-opacity="1" stroke-width="2" opacity=".432"/><rect id="rect3773" width="4" height="1" x="108" y="76" fill="#181818" fill-opacity="1" stroke="none" stroke-dasharray="none" stroke-miterlimit="4" stroke-opacity="1" stroke-width="2" opacity=".432"/><rect id="rect3775" width="4" height="1" x="108" y="77" fill="#fff" fill-opacity="1" stroke="none" stroke-dasharray="none" stroke-miterlimit="4" stroke-opacity="1" stroke-width="2" opacity=".432"/><rect id="rect3777" width="4" height="1" x="108" y="79" fill="#fff" fill-opacity="1" stroke="none" stroke-dasharray="none" stroke-miterlimit="4" stroke-opacity="1" stroke-width="2" opacity=".432"/><rect id="rect3779" width="4" height="1" x="108" y="81" fill="#fff" fill-opacity="1" stroke="none" stroke-dasharray="none" stroke-miterlimit="4" stroke-opacity="1" stroke-width="2" opacity=".432"/><rect id="rect3781" width="4" height="1" x="108" y="75" fill="#fff" fill-opacity="1" stroke="none" stroke-dasharray="none" stroke-miterlimit="4" stroke-opacity="1" stroke-width="2" opacity=".432"/></g><rect id="rect4105" width="88" height="72" x="-100" y="24" fill="url(#linearGradient4107)" fill-opacity="1" stroke="none" stroke-dasharray="none" stroke-miterlimit="4" stroke-opacity="1" stroke-width="1" opacity=".321" rx="5.017" ry="5.017" transform="scale(-1,1)"/><path id="rect3367" fill="url(#linearGradient3380)" fill-opacity="1" stroke="none" stroke-dasharray="none" stroke-miterlimit="4" stroke-opacity="1" stroke-width="1" d="M 17.03125,24 C 14.25197,24 12,26.251971 12,29.03125 L 12,62.558488 C 19.751551,63.90637 28.021232,64.652238 36.59375,64.652238 C 62.34027,64.652238 85.244596,58.082986 100,47.870988 L 100,29.03125 C 100,26.25197 97.748033,24 94.96875,24 L 17.03125,24 z" opacity=".221"/><rect id="rect4097" width="88" height="72" x="12" y="24" fill="url(#linearGradient4099)" fill-opacity="1" stroke="none" stroke-dasharray="none" stroke-miterlimit="4" stroke-opacity="1" stroke-width="1" opacity=".321" rx="5.017" ry="5.017"/><rect id="rect4109" width="104" height="12" x="12" y="96" fill="url(#radialGradient4119)" fill-opacity="1" stroke="none" stroke-dasharray="none" stroke-linejoin="round" stroke-miterlimit="4" stroke-opacity="1" stroke-width="1" filter="url(#filter4137)" opacity=".253" rx="5.017" ry="5.017"/><rect id="rect4101" width="88" height="72" x="-100" y="24" fill="url(#linearGradient4103)" fill-opacity="1" stroke="none" stroke-dasharray="none" stroke-miterlimit="4" stroke-opacity="1" stroke-width="1" opacity=".321" rx="5.017" ry="5.017" transform="scale(-1,1)"/><path id="rect3283" fill="#fff" fill-opacity="1" stroke="none" stroke-dasharray="none" stroke-miterlimit="4" stroke-opacity="1" stroke-width="1" d="M 12 89.96875 L 12 90.96875 C 12 93.74803 14.251971 96 17.03125 96 L 94.96875 96 C 97.74803 96 100 93.748033 100 90.96875 L 100 89.96875 C 100 92.748033 97.74803 95 94.96875 95 L 17.03125 95 C 14.251971 95 12 92.74803 12 89.96875 z" opacity="1"/><path id="path3418" fill="#fff" fill-opacity="1" stroke="none" stroke-dasharray="none" stroke-miterlimit="4" stroke-opacity="1" stroke-width="1" d="M 12 89.96875 L 12 90.96875 C 12 93.74803 14.251971 96 17.03125 96 L 94.96875 96 C 97.74803 96 100 93.748033 100 90.96875 L 100 89.96875 C 100 92.748033 97.74803 95 94.96875 95 L 17.03125 95 C 14.251971 95 12 92.74803 12 89.96875 z" filter="url(#filter3424)" opacity="1"/><rect id="rect4029" width="4" height="10" x="16" y="98" fill="url(#linearGradient4037)" fill-opacity="1" stroke="none" stroke-dasharray="none" stroke-linejoin="round" stroke-miterlimit="4" stroke-opacity="1" stroke-width="1" opacity="1"/><rect id="rect4039" width="4" height="10" x="20" y="98" fill="url(#linearGradient4041)" fill-opacity="1" stroke="none" stroke-dasharray="none" stroke-linejoin="round" stroke-miterlimit="4" stroke-opacity="1" stroke-width="1" opacity="1"/><rect id="rect4043" width="4" height="10" x="24" y="98" fill="url(#linearGradient4047)" fill-opacity="1" stroke="none" stroke-dasharray="none" stroke-linejoin="round" stroke-miterlimit="4" stroke-opacity="1" stroke-width="1" opacity="1"/><rect id="rect4045" width="4" height="10" x="28" y="98" fill="url(#linearGradient4049)" fill-opacity="1" stroke="none" stroke-dasharray="none" stroke-linejoin="round" stroke-miterlimit="4" stroke-opacity="1" stroke-width="1" opacity="1"/><rect id="rect4051" width="4" height="10" x="32" y="98" fill="url(#linearGradient4059)" fill-opacity="1" stroke="none" stroke-dasharray="none" stroke-linejoin="round" stroke-miterlimit="4" stroke-opacity="1" stroke-width="1" opacity="1"/><rect id="rect4053" width="4" height="10" x="36" y="98" fill="url(#linearGradient4061)" fill-opacity="1" stroke="none" stroke-dasharray="none" stroke-linejoin="round" stroke-miterlimit="4" stroke-opacity="1" stroke-width="1" opacity="1"/><rect id="rect4055" width="4" height="10" x="40" y="98" fill="url(#linearGradient4063)" fill-opacity="1" stroke="none" stroke-dasharray="none" stroke-linejoin="round" stroke-miterlimit="4" stroke-opacity="1" stroke-width="1" opacity="1"/><rect id="rect4057" width="4" height="10" x="44" y="98" fill="url(#linearGradient4065)" fill-opacity="1" stroke="none" stroke-dasharray="none" stroke-linejoin="round" stroke-miterlimit="4" stroke-opacity="1" stroke-width="1" opacity="1"/><rect id="rect4093" width="32" height="2" x="16" y="-108" fill="url(#linearGradient4095)" fill-opacity="1" stroke="none" stroke-dasharray="none" stroke-linejoin="round" stroke-miterlimit="4" stroke-opacity="1" stroke-width="1" opacity=".384" transform="scale(1,-1)"/><rect id="rect4083" width="32" height="2" x="16" y="98" fill="url(#linearGradient4091)" fill-opacity="1" stroke="none" stroke-dasharray="none" stroke-linejoin="round" stroke-miterlimit="4" stroke-opacity="1" stroke-width="1" opacity=".779"/><path id="path2144" fill="none" fill-rule="evenodd" stroke="#00bf00" stroke-dasharray="none" stroke-linecap="butt" stroke-linejoin="miter" stroke-miterlimit="4" stroke-opacity="1" stroke-width="2.176" d="M 15.938019,84.061981 L 53.429393,47.962812 L 66.81917,72.028925 L 98.061982,38.938019 L 98.061982,38.938019"/></g></svg>