<svg xmlns="http://www.w3.org/2000/svg" xmlns:cc="http://web.resource.org/cc/" xmlns:svg="http://www.w3.org/2000/svg" xmlns:xlink="http://www.w3.org/1999/xlink" id="svg3007" width="128" height="128" version="1.0"><defs id="defs3009"><linearGradient id="polygon3477_7_" x1="585.16" x2="596.66" y1="-675.018" y2="-675.018" gradientTransform="matrix(0,3.9299,-3.9299,0,-2310.174,-2228.907)" gradientUnits="userSpaceOnUse"><stop id="stop286" offset="0" stop-color="#FFF"/><stop id="stop288" offset=".541" stop-color="#FCFCFC"/><stop id="stop290" offset=".866" stop-color="#F4F4F4"/><stop id="stop292" offset="1" stop-color="#EEE"/></linearGradient><linearGradient id="circle3581_7_" x1="-84.002" x2="-12.003" y1="-383.997" y2="-383.997" gradientTransform="matrix(0,1,-1,0,-39.9985,140.0029)" gradientUnits="userSpaceOnUse"><stop id="stop280" offset="0" stop-color="#008CFF"/><stop id="stop282" offset="1" stop-color="#0063CC"/></linearGradient><linearGradient id="linearGradient3291"><stop id="stop3293" offset="0" stop-color="#000" stop-opacity="1"/><stop id="stop3295" offset="1" stop-color="#000" stop-opacity="0"/></linearGradient><radialGradient id="radialGradient3336" cx="63.912" cy="115.709" r="63.912" fx="63.912" fy="115.709" gradientTransform="matrix(1,0,0,0.197802,0,92.82166)" gradientUnits="userSpaceOnUse" xlink:href="#linearGradient3291"/><linearGradient id="polygon3293_1_" x1="615.5" x2="615.5" y1="-584.602" y2="-595.852" gradientTransform="matrix(4,0,0,-4,-2402,-2314.406)" gradientUnits="userSpaceOnUse"><stop id="stop2997" offset="0" stop-color="#6193CF"/><stop id="stop2999" offset="1" stop-color="#EEE"/></linearGradient><linearGradient id="polygon3286_1_" x1="615.5" x2="615.5" y1="-589.851" y2="-580.601" gradientTransform="matrix(4,0,0,-4,-2402,-2314.406)" gradientUnits="userSpaceOnUse"><stop id="stop2991" offset="0" stop-color="#6193CF"/><stop id="stop2993" offset="1" stop-color="#D1DFF1"/></linearGradient><linearGradient id="rect3244_1_" x1="59.999" x2="59.999" y1="4" y2="72.001" gradientUnits="userSpaceOnUse"><stop id="stop2983" offset="0" stop-color="#A4C0E4"/><stop id="stop2985" offset=".25" stop-color="#D1DFF1"/><stop id="stop2987" offset=".85" stop-color="#FFF"/></linearGradient><linearGradient id="linearGradient1958" x1="59.999" x2="59.999" y1="4" y2="72.001" gradientUnits="userSpaceOnUse" xlink:href="#rect3244_1_"/><linearGradient id="linearGradient1960" x1="615.5" x2="615.5" y1="-589.851" y2="-580.601" gradientTransform="matrix(4,0,0,-4,-2402,-2314.406)" gradientUnits="userSpaceOnUse" xlink:href="#polygon3286_1_"/><linearGradient id="linearGradient1962" x1="615.5" x2="615.5" y1="-584.602" y2="-595.852" gradientTransform="matrix(4,0,0,-4,-2402,-2314.406)" gradientUnits="userSpaceOnUse" xlink:href="#polygon3293_1_"/><linearGradient id="linearGradient2008" x1="59.999" x2="59.999" y1="4" y2="72.001" gradientUnits="userSpaceOnUse" xlink:href="#rect3244_1_"/><linearGradient id="linearGradient2010" x1="615.5" x2="615.5" y1="-589.851" y2="-580.601" gradientTransform="matrix(4,0,0,-4,-2402,-2314.406)" gradientUnits="userSpaceOnUse" xlink:href="#polygon3286_1_"/><linearGradient id="linearGradient2012" x1="615.5" x2="615.5" y1="-584.602" y2="-595.852" gradientTransform="matrix(4,0,0,-4,-2402,-2314.406)" gradientUnits="userSpaceOnUse" xlink:href="#polygon3293_1_"/><linearGradient id="linearGradient2058" x1="59.999" x2="59.999" y1="4" y2="72.001" gradientUnits="userSpaceOnUse" xlink:href="#rect3244_1_"/><linearGradient id="linearGradient2060" x1="615.5" x2="615.5" y1="-589.851" y2="-580.601" gradientTransform="matrix(4,0,0,-4,-2402,-2314.406)" gradientUnits="userSpaceOnUse" xlink:href="#polygon3286_1_"/><linearGradient id="linearGradient2062" x1="615.5" x2="615.5" y1="-584.602" y2="-595.852" gradientTransform="matrix(4,0,0,-4,-2402,-2314.406)" gradientUnits="userSpaceOnUse" xlink:href="#polygon3293_1_"/><linearGradient id="linearGradient2064" x1="59.999" x2="59.999" y1="4" y2="72.001" gradientUnits="userSpaceOnUse" xlink:href="#rect3244_1_"/><linearGradient id="linearGradient2066" x1="615.5" x2="615.5" y1="-589.851" y2="-580.601" gradientTransform="matrix(4,0,0,-4,-2402,-2314.406)" gradientUnits="userSpaceOnUse" xlink:href="#polygon3286_1_"/><linearGradient id="linearGradient2068" x1="615.5" x2="615.5" y1="-584.602" y2="-595.852" gradientTransform="matrix(4,0,0,-4,-2402,-2314.406)" gradientUnits="userSpaceOnUse" xlink:href="#polygon3293_1_"/></defs><metadata id="metadata3012"/><g id="layer1"><switch id="switch2966" transform="matrix(0.695238,0,0,0.549986,5.015873,18.37037)"><g id="g2970"><g id="g2972"><path id="path2974" d="M 4,0 C 1.794,0 0,1.794 0,4 L 0,72 C 0,74.206 1.794,76 4,76 L 116,76 C 118.206,76 120,74.206 120,72 L 120,4 C 120,1.794 118.206,0 116,0 L 4,0 z" opacity=".1"/><path id="path2976" d="M 4,1 C 2.346,1 1,2.346 1,4 L 1,72 C 1,73.654 2.346,75 4,75 L 116,75 C 117.654,75 119,73.654 119,72 L 119,4 C 119,2.346 117.654,1 116,1 L 4,1 z" opacity=".15"/><path id="path2978" d="M 4,2 C 2.897,2 2,2.897 2,4 L 2,72 C 2,73.103 2.897,74 4,74 L 116,74 C 117.103,74 118,73.103 118,72 L 118,4 C 118,2.897 117.103,2 116,2 L 4,2 z" opacity=".2"/><path id="path2980" d="M 4,3 C 3.448,3 3,3.448 3,4 L 3,72 C 3,72.553 3.448,73 4,73 L 116,73 C 116.553,73 117,72.553 117,72 L 117,4 C 117,3.448 116.553,3 116,3 L 4,3 z" opacity=".25"/><linearGradient id="linearGradient3033" x1="59.999" x2="59.999" y1="4" y2="72.001" gradientUnits="userSpaceOnUse"><stop id="stop3035" offset="0" stop-color="#A4C0E4"/><stop id="stop3037" offset=".25" stop-color="#D1DFF1"/><stop id="stop3039" offset=".85" stop-color="#FFF"/></linearGradient><rect id="rect3244_9_" width="112" height="68" x="4" y="4" fill="url(#linearGradient2064)"/><linearGradient id="linearGradient3042" x1="615.5" x2="615.5" y1="-589.851" y2="-580.601" gradientTransform="matrix(4,0,0,-4,-2402,-2314.406)" gradientUnits="userSpaceOnUse"><stop id="stop3044" offset="0" stop-color="#6193CF"/><stop id="stop3046" offset="1" stop-color="#D1DFF1"/></linearGradient><polygon id="polygon3286_9_" fill="url(#linearGradient2066)" points="4 8 4 12 60 45 116 12 116 8 60 41 4 8"/><linearGradient id="linearGradient3049" x1="615.5" x2="615.5" y1="-584.602" y2="-595.852" gradientTransform="matrix(4,0,0,-4,-2402,-2314.406)" gradientUnits="userSpaceOnUse"><stop id="stop3051" offset="0" stop-color="#6193CF"/><stop id="stop3053" offset="1" stop-color="#EEE"/></linearGradient><polygon id="polygon3293_9_" fill="url(#linearGradient2068)" points="116 69 116 65 59.997 24 4 65 4 69 59.997 28 116 69"/><polygon id="polygon3002" fill="#fff" points="4 8 60.004 40.967 116 8 116 4 4 4 4 8"/></g></g></switch><switch id="switch1914" transform="matrix(0.695238,0,0,0.549986,12.12699,29.55556)"><g id="g1918"><g id="g1920"><path id="path1922" d="M 4,0 C 1.794,0 0,1.794 0,4 L 0,72 C 0,74.206 1.794,76 4,76 L 116,76 C 118.206,76 120,74.206 120,72 L 120,4 C 120,1.794 118.206,0 116,0 L 4,0 z" opacity=".1"/><path id="path1924" d="M 4,1 C 2.346,1 1,2.346 1,4 L 1,72 C 1,73.654 2.346,75 4,75 L 116,75 C 117.654,75 119,73.654 119,72 L 119,4 C 119,2.346 117.654,1 116,1 L 4,1 z" opacity=".15"/><path id="path1926" d="M 4,2 C 2.897,2 2,2.897 2,4 L 2,72 C 2,73.103 2.897,74 4,74 L 116,74 C 117.103,74 118,73.103 118,72 L 118,4 C 118,2.897 117.103,2 116,2 L 4,2 z" opacity=".2"/><path id="path1928" d="M 4,3 C 3.448,3 3,3.448 3,4 L 3,72 C 3,72.553 3.448,73 4,73 L 116,73 C 116.553,73 117,72.553 117,72 L 117,4 C 117,3.448 116.553,3 116,3 L 4,3 z" opacity=".25"/><linearGradient id="linearGradient1930" x1="59.999" x2="59.999" y1="4" y2="72.001" gradientUnits="userSpaceOnUse"><stop id="stop1932" offset="0" stop-color="#A4C0E4"/><stop id="stop1934" offset=".25" stop-color="#D1DFF1"/><stop id="stop1936" offset=".85" stop-color="#FFF"/></linearGradient><rect id="rect1938" width="112" height="68" x="4" y="4" fill="url(#linearGradient1958)"/><linearGradient id="linearGradient1940" x1="615.5" x2="615.5" y1="-589.851" y2="-580.601" gradientTransform="matrix(4,0,0,-4,-2402,-2314.406)" gradientUnits="userSpaceOnUse"><stop id="stop1942" offset="0" stop-color="#6193CF"/><stop id="stop1944" offset="1" stop-color="#D1DFF1"/></linearGradient><polygon id="polygon1946" fill="url(#linearGradient1960)" points="4 8 4 12 60 45 116 12 116 8 60 41 4 8"/><linearGradient id="linearGradient1948" x1="615.5" x2="615.5" y1="-584.602" y2="-595.852" gradientTransform="matrix(4,0,0,-4,-2402,-2314.406)" gradientUnits="userSpaceOnUse"><stop id="stop1950" offset="0" stop-color="#6193CF"/><stop id="stop1952" offset="1" stop-color="#EEE"/></linearGradient><polygon id="polygon1954" fill="url(#linearGradient1962)" points="116 69 116 65 59.997 24 4 65 4 69 59.997 28 116 69"/><polygon id="polygon1956" fill="#fff" points="4 8 60.004 40.967 116 8 116 4 4 4 4 8"/></g></g></switch><switch id="switch1964" transform="matrix(0.695238,0,0,0.549986,22.28571,41.40741)"><g id="g1968"><g id="g1970"><path id="path1972" d="M 4,0 C 1.794,0 0,1.794 0,4 L 0,72 C 0,74.206 1.794,76 4,76 L 116,76 C 118.206,76 120,74.206 120,72 L 120,4 C 120,1.794 118.206,0 116,0 L 4,0 z" opacity=".1"/><path id="path1974" d="M 4,1 C 2.346,1 1,2.346 1,4 L 1,72 C 1,73.654 2.346,75 4,75 L 116,75 C 117.654,75 119,73.654 119,72 L 119,4 C 119,2.346 117.654,1 116,1 L 4,1 z" opacity=".15"/><path id="path1976" d="M 4,2 C 2.897,2 2,2.897 2,4 L 2,72 C 2,73.103 2.897,74 4,74 L 116,74 C 117.103,74 118,73.103 118,72 L 118,4 C 118,2.897 117.103,2 116,2 L 4,2 z" opacity=".2"/><path id="path1978" d="M 4,3 C 3.448,3 3,3.448 3,4 L 3,72 C 3,72.553 3.448,73 4,73 L 116,73 C 116.553,73 117,72.553 117,72 L 117,4 C 117,3.448 116.553,3 116,3 L 4,3 z" opacity=".25"/><linearGradient id="linearGradient1980" x1="59.999" x2="59.999" y1="4" y2="72.001" gradientUnits="userSpaceOnUse"><stop id="stop1982" offset="0" stop-color="#A4C0E4"/><stop id="stop1984" offset=".25" stop-color="#D1DFF1"/><stop id="stop1986" offset=".85" stop-color="#FFF"/></linearGradient><rect id="rect1988" width="112" height="68" x="4" y="4" fill="url(#linearGradient2008)"/><linearGradient id="linearGradient1990" x1="615.5" x2="615.5" y1="-589.851" y2="-580.601" gradientTransform="matrix(4,0,0,-4,-2402,-2314.406)" gradientUnits="userSpaceOnUse"><stop id="stop1992" offset="0" stop-color="#6193CF"/><stop id="stop1994" offset="1" stop-color="#D1DFF1"/></linearGradient><polygon id="polygon1996" fill="url(#linearGradient2010)" points="4 8 4 12 60 45 116 12 116 8 60 41 4 8"/><linearGradient id="linearGradient1998" x1="615.5" x2="615.5" y1="-584.602" y2="-595.852" gradientTransform="matrix(4,0,0,-4,-2402,-2314.406)" gradientUnits="userSpaceOnUse"><stop id="stop2000" offset="0" stop-color="#6193CF"/><stop id="stop2002" offset="1" stop-color="#EEE"/></linearGradient><polygon id="polygon2004" fill="url(#linearGradient2012)" points="116 69 116 65 59.997 24 4 65 4 69 59.997 28 116 69"/><polygon id="polygon2006" fill="#fff" points="4 8 60.004 40.967 116 8 116 4 4 4 4 8"/></g></g></switch><switch id="switch2014" transform="matrix(0.695238,0,0,0.549986,33.46034,53.93652)"><g id="g2018"><g id="g2020"><path id="path2022" d="M 4,0 C 1.794,0 0,1.794 0,4 L 0,72 C 0,74.206 1.794,76 4,76 L 116,76 C 118.206,76 120,74.206 120,72 L 120,4 C 120,1.794 118.206,0 116,0 L 4,0 z" opacity=".1"/><path id="path2024" d="M 4,1 C 2.346,1 1,2.346 1,4 L 1,72 C 1,73.654 2.346,75 4,75 L 116,75 C 117.654,75 119,73.654 119,72 L 119,4 C 119,2.346 117.654,1 116,1 L 4,1 z" opacity=".15"/><path id="path2026" d="M 4,2 C 2.897,2 2,2.897 2,4 L 2,72 C 2,73.103 2.897,74 4,74 L 116,74 C 117.103,74 118,73.103 118,72 L 118,4 C 118,2.897 117.103,2 116,2 L 4,2 z" opacity=".2"/><path id="path2028" d="M 4,3 C 3.448,3 3,3.448 3,4 L 3,72 C 3,72.553 3.448,73 4,73 L 116,73 C 116.553,73 117,72.553 117,72 L 117,4 C 117,3.448 116.553,3 116,3 L 4,3 z" opacity=".25"/><linearGradient id="linearGradient2030" x1="59.999" x2="59.999" y1="4" y2="72.001" gradientUnits="userSpaceOnUse"><stop id="stop2032" offset="0" stop-color="#A4C0E4"/><stop id="stop2034" offset=".25" stop-color="#D1DFF1"/><stop id="stop2036" offset=".85" stop-color="#FFF"/></linearGradient><rect id="rect2038" width="112" height="68" x="4" y="4" fill="url(#linearGradient2058)"/><linearGradient id="linearGradient2040" x1="615.5" x2="615.5" y1="-589.851" y2="-580.601" gradientTransform="matrix(4,0,0,-4,-2402,-2314.406)" gradientUnits="userSpaceOnUse"><stop id="stop2042" offset="0" stop-color="#6193CF"/><stop id="stop2044" offset="1" stop-color="#D1DFF1"/></linearGradient><polygon id="polygon2046" fill="url(#linearGradient2060)" points="4 8 4 12 60 45 116 12 116 8 60 41 4 8"/><linearGradient id="linearGradient2048" x1="615.5" x2="615.5" y1="-584.602" y2="-595.852" gradientTransform="matrix(4,0,0,-4,-2402,-2314.406)" gradientUnits="userSpaceOnUse"><stop id="stop2050" offset="0" stop-color="#6193CF"/><stop id="stop2052" offset="1" stop-color="#EEE"/></linearGradient><polygon id="polygon2054" fill="url(#linearGradient2062)" points="116 69 116 65 59.997 24 4 65 4 69 59.997 28 116 69"/><polygon id="polygon2056" fill="#fff" points="4 8 60.004 40.967 116 8 116 4 4 4 4 8"/></g></g></switch></g></svg>