<svg xmlns="http://www.w3.org/2000/svg" xmlns:cc="http://web.resource.org/cc/" xmlns:svg="http://www.w3.org/2000/svg" xmlns:xlink="http://www.w3.org/1999/xlink" id="svg2196" width="128" height="128" version="1.0"><defs id="defs2198"><linearGradient id="polygon3293_1_" x1="615.5" x2="615.5" y1="-584.602" y2="-595.852" gradientTransform="matrix(4,0,0,-4,-2402,-2314.406)" gradientUnits="userSpaceOnUse"><stop id="stop2997" offset="0" stop-color="#6193CF"/><stop id="stop2999" offset="1" stop-color="#EEE"/></linearGradient><linearGradient id="polygon3286_1_" x1="615.5" x2="615.5" y1="-589.851" y2="-580.601" gradientTransform="matrix(4,0,0,-4,-2402,-2314.406)" gradientUnits="userSpaceOnUse"><stop id="stop2991" offset="0" stop-color="#6193CF"/><stop id="stop2993" offset="1" stop-color="#D1DFF1"/></linearGradient><linearGradient id="rect3244_1_" x1="59.999" x2="59.999" y1="4" y2="72.001" gradientUnits="userSpaceOnUse"><stop id="stop2983" offset="0" stop-color="#A4C0E4"/><stop id="stop2985" offset=".25" stop-color="#D1DFF1"/><stop id="stop2987" offset=".85" stop-color="#FFF"/></linearGradient><radialGradient id="path2489_1_" cx="305.027" cy="-349" r="34.178" gradientTransform="matrix(1.1658,0,0,-1,-353.77589,-376.98677)" gradientUnits="userSpaceOnUse"><stop id="stop44" offset="0" stop-color="#4b73ad" stop-opacity="1"/><stop id="stop46" offset="1" stop-color="#80B3FF"/></radialGradient><radialGradient id="radialGradient2421" cx="312.723" cy="-349" r="34.178" fx="312.723" fy="-349" gradientTransform="matrix(1.0909626,0,0,-1,-273.56664,-316.5)" gradientUnits="userSpaceOnUse" xlink:href="#path2489_1_"/><radialGradient id="path4248_1_" cx="354.852" cy="-426" r="34.179" gradientTransform="matrix(1,0,0,-1,-359.20739,-378.98677)" gradientUnits="userSpaceOnUse"><stop id="stop38" offset="0" stop-color="#538BCF"/><stop id="stop40" offset="1" stop-color="#80B3FF"/></radialGradient><radialGradient id="radialGradient2424" cx="354.852" cy="-426" r="34.179" gradientTransform="matrix(1,0,0,-1,-290.46665,-322.5)" gradientUnits="userSpaceOnUse" xlink:href="#path4248_1_"/><radialGradient id="path2471_1_" cx="354.852" cy="-426" r="34.179" gradientTransform="matrix(1,0,0,-1,-359.20739,-376.98677)" gradientUnits="userSpaceOnUse"><stop id="stop32" offset="0" stop-color="#538BCF"/><stop id="stop34" offset="1" stop-color="#80B3FF"/></radialGradient><radialGradient id="radialGradient2427" cx="354.852" cy="-426" r="34.179" gradientTransform="matrix(1,0,0,-1,-290.46665,-320.5)" gradientUnits="userSpaceOnUse" xlink:href="#path2471_1_"/><linearGradient id="front_1_" x1="354.685" x2="354.685" y1="-601.276" y2="-503.146" gradientTransform="matrix(1,0,0,-0.6522,-359.42609,-340.63827)" gradientUnits="userSpaceOnUse"><stop id="stop20" offset="0" stop-color="#B3D9FF"/><stop id="stop22" offset=".486" stop-color="#71A8F5"/><stop id="stop24" offset=".799" stop-color="#2C72C7"/><stop id="stop26" offset=".98" stop-color="#2C72C7"/><stop id="stop28" offset="1" stop-color="#DEEBFF"/></linearGradient><linearGradient id="linearGradient2430" x1="354.685" x2="354.685" y1="-601.276" y2="-503.146" gradientTransform="matrix(1,0,0,-0.6522,-290.68535,-284.1515)" gradientUnits="userSpaceOnUse" xlink:href="#front_1_"/><linearGradient id="XMLID_1_" x1="63.499" x2="63.499" y1="-79.239" y2="9.327" gradientTransform="translate(-68.240592,44.013228)" gradientUnits="userSpaceOnUse"><stop id="stop6" offset="0" stop-color="#73A3E7"/><stop id="stop8" offset=".139" stop-color="#83B1F5"/><stop id="stop10" offset=".369" stop-color="#BCD6FC"/><stop id="stop12" offset=".501" stop-color="#659FEE"/><stop id="stop14" offset="1" stop-color="#06F"/></linearGradient><linearGradient id="linearGradient2433" x1="63.499" x2="63.499" y1="-79.239" y2="9.327" gradientTransform="translate(0.500149,100.5)" gradientUnits="userSpaceOnUse" xlink:href="#XMLID_1_"/></defs><metadata id="metadata2201"/><g id="layer1"><g id="g2866" transform="translate(1.147243e-4,0)"><path id="shadow" d="M 120,107.084 C 120,108.441 94.928,112 64.000001,112 C 33.072,112 8,108.441 8,107.084 C 8,105.727 33.072,105.855 64.000001,105.855 C 94.927,105.855 120,105.727 120,107.084 z" enable-background="new" filter="url(#filter3021)" opacity=".5"/><path id="path16" fill="url(#linearGradient2433)" d="M 108.00015,26 C 108.00015,24.9 107.10015,24 106.00015,24 L 22.000149,24 C 20.900149,24 20.000149,24.9 20.000149,26 C 20.000149,26 20.125149,108 12.000149,108 C 15.396149,108 112.60415,108 116.00015,108 C 107.87515,108 108.00015,26 108.00015,26 z"/><path id="front" fill="url(#linearGradient2430)" d="M 116.00015,108 L 12.000149,108 C 12.000149,80.25 4.046149,45.953 4.046149,45.953 C 3.807149,44.879 4.518149,44 5.625149,44 L 122.37415,44 C 123.48215,44 124.19215,44.879 123.95415,45.953 C 123.95415,45.953 116.00015,80.25 116.00015,108 z" enable-background="new" opacity=".8"/><path id="path2471" fill="url(#radialGradient2427)" d="M 16.552149,105 C 16.276149,105 16.052149,105.225 16.052149,105.5 C 16.052149,105.775 16.276149,106 16.552149,106 L 112.21915,106 C 112.49515,106 112.71915,105.775 112.71915,105.5 C 112.71915,105.225 112.49515,105 112.21915,105 L 16.552149,105 z" enable-background="new" opacity=".2"/><path id="path4248" fill="url(#radialGradient2424)" d="M 16.552149,103 C 16.276149,103 16.052149,103.225 16.052149,103.5 C 16.052149,103.775 16.276149,104 16.552149,104 L 112.21915,104 C 112.49515,104 112.71915,103.775 112.71915,103.5 C 112.71915,103.225 112.49515,103 112.21915,103 L 16.552149,103 z" enable-background="new" opacity=".2"/><path id="path2489" fill="url(#radialGradient2421)" d="M 32.331428,32 C 32.147429,32 32,32.224 32,32.5 C 32,32.776 32.147429,33 32.331428,33 L 95.66856,33 C 95.85144,33 96,32.776 96,32.5 C 96,32.224 95.85029,32 95.66856,32 L 32.331428,32 z" enable-background="new" opacity=".2"/><path id="back" fill="#fff" d="M 22.010149,24 C 20.910149,24 20.052149,24.901 20.104149,26 C 20.104149,26 20.174149,28.543 20.292149,32 L 40.010149,32 L 48.010149,24 L 22.010149,24 z" enable-background="new" opacity=".4"/></g><switch id="switch2966" transform="matrix(0.525,0,0,0.486842,33,59)"><g id="g2970"><g id="g2972"><path id="path2974" d="M 4,0 C 1.794,0 0,1.794 0,4 L 0,72 C 0,74.206 1.794,76 4,76 L 116,76 C 118.206,76 120,74.206 120,72 L 120,4 C 120,1.794 118.206,0 116,0 L 4,0 z" opacity=".1"/><path id="path2976" d="M 4,1 C 2.346,1 1,2.346 1,4 L 1,72 C 1,73.654 2.346,75 4,75 L 116,75 C 117.654,75 119,73.654 119,72 L 119,4 C 119,2.346 117.654,1 116,1 L 4,1 z" opacity=".15"/><path id="path2978" d="M 4,2 C 2.897,2 2,2.897 2,4 L 2,72 C 2,73.103 2.897,74 4,74 L 116,74 C 117.103,74 118,73.103 118,72 L 118,4 C 118,2.897 117.103,2 116,2 L 4,2 z" opacity=".2"/><path id="path2980" d="M 4,3 C 3.448,3 3,3.448 3,4 L 3,72 C 3,72.553 3.448,73 4,73 L 116,73 C 116.553,73 117,72.553 117,72 L 117,4 C 117,3.448 116.553,3 116,3 L 4,3 z" opacity=".25"/><linearGradient id="linearGradient3033" x1="59.999" x2="59.999" y1="4" y2="72.001" gradientUnits="userSpaceOnUse"><stop id="stop3035" offset="0" stop-color="#A4C0E4"/><stop id="stop3037" offset=".25" stop-color="#D1DFF1"/><stop id="stop3039" offset=".85" stop-color="#FFF"/></linearGradient><rect id="rect3244_9_" width="112" height="68" x="4" y="4" fill="url(#rect3244_1_)"/><linearGradient id="linearGradient3042" x1="615.5" x2="615.5" y1="-589.851" y2="-580.601" gradientTransform="matrix(4,0,0,-4,-2402,-2314.406)" gradientUnits="userSpaceOnUse"><stop id="stop3044" offset="0" stop-color="#6193CF"/><stop id="stop3046" offset="1" stop-color="#D1DFF1"/></linearGradient><polygon id="polygon3286_9_" fill="url(#polygon3286_1_)" points="4 8 4 12 60 45 116 12 116 8 60 41 4 8"/><linearGradient id="linearGradient3049" x1="615.5" x2="615.5" y1="-584.602" y2="-595.852" gradientTransform="matrix(4,0,0,-4,-2402,-2314.406)" gradientUnits="userSpaceOnUse"><stop id="stop3051" offset="0" stop-color="#6193CF"/><stop id="stop3053" offset="1" stop-color="#EEE"/></linearGradient><polygon id="polygon3293_9_" fill="url(#polygon3293_1_)" points="116 69 116 65 59.997 24 4 65 4 69 59.997 28 116 69"/><polygon id="polygon3002" fill="#fff" points="4 8 60.004 40.967 116 8 116 4 4 4 4 8"/></g></g></switch></g></svg>