<svg xmlns="http://www.w3.org/2000/svg" xmlns:cc="http://web.resource.org/cc/" xmlns:svg="http://www.w3.org/2000/svg" xmlns:xlink="http://www.w3.org/1999/xlink" id="Livello_1" width="128" height="128" enable-background="new 0 0 128 128" overflow="visible" version="1.1" viewBox="0 0 128 128" xml:space="preserve"><defs id="defs101"><linearGradient id="XMLID_166_" x1="63.106" x2="65.106" y1="71.977" y2="80.977" gradientUnits="userSpaceOnUse"><stop id="stop2629" offset=".051" stop-color="#FFF"/><stop id="stop2631" offset="1" stop-color="#D3D7CF"/></linearGradient><linearGradient id="XMLID_165_" x1="62" x2="66" y1="76" y2="76" gradientUnits="userSpaceOnUse"><stop id="stop2620" offset=".051" stop-color="#FFF"/><stop id="stop2622" offset=".933" stop-color="#D3D7CF"/><stop id="stop2624" offset="1" stop-color="#888A85"/></linearGradient><linearGradient id="XMLID_164_" x1="61.706" x2="67.762" y1="77.532" y2="107.808" gradientUnits="userSpaceOnUse"><stop id="stop2613" offset="0" stop-color="#EEEEEC"/><stop id="stop2615" offset="1" stop-color="#BABDB6"/></linearGradient><linearGradient id="XMLID_163_" x1="61.316" x2="68.316" y1="83.099" y2="101.099" gradientUnits="userSpaceOnUse"><stop id="stop2600" offset=".006" stop-color="#FFF"/><stop id="stop2602" offset=".135" stop-color="#F0F0F0"/><stop id="stop2604" offset=".384" stop-color="#CACAC9"/><stop id="stop2606" offset=".723" stop-color="#8C8D8B"/><stop id="stop2608" offset="1" stop-color="#555753"/></linearGradient><linearGradient id="XMLID_162_" x1="63.542" x2="64.542" y1="74.092" y2="79.093" gradientUnits="userSpaceOnUse"><stop id="stop2593" offset="0" stop-color="#a9ada4" stop-opacity="1"/><stop id="stop2595" offset="1" stop-color="#3f403d" stop-opacity="1"/></linearGradient><linearGradient id="XMLID_161_" x1="62.05" x2="67.05" y1="69.625" y2="83.624" gradientUnits="userSpaceOnUse"><stop id="stop2574" offset="0" stop-color="#FFF"/><stop id="stop2576" offset=".133" stop-color="#FAFAFA"/><stop id="stop2578" offset=".288" stop-color="#ECEDEC"/><stop id="stop2580" offset=".453" stop-color="#D5D6D5"/><stop id="stop2582" offset=".625" stop-color="#B5B6B4"/><stop id="stop2584" offset=".803" stop-color="#8C8D8A"/><stop id="stop2586" offset=".984" stop-color="#5A5C58"/><stop id="stop2588" offset="1" stop-color="#555753"/></linearGradient><linearGradient id="XMLID_160_" x1="56.891" x2="68.891" y1="67.886" y2="82.886" gradientUnits="userSpaceOnUse"><stop id="stop2567" offset="0" stop-color="#FFF"/><stop id="stop2569" offset="1" stop-color="#373836" stop-opacity="1"/></linearGradient><linearGradient id="XMLID_159_" x1="60.333" x2="68.415" y1="67.612" y2="103.983" gradientUnits="userSpaceOnUse"><stop id="stop2560" offset=".051" stop-color="#515151" stop-opacity="1"/><stop id="stop2562" offset="1" stop-color="#343633" stop-opacity="1"/></linearGradient><linearGradient id="XMLID_148_" x1="60.999" x2="60.999" y1="58.001" y2="119.001" gradientUnits="userSpaceOnUse"><stop id="stop2532" offset=".051" stop-color="#EEEEEC"/><stop id="stop2534" offset="1" stop-color="#888A85"/></linearGradient><linearGradient id="XMLID_147_" x1="67" x2="67" y1="58.001" y2="119.001" gradientUnits="userSpaceOnUse"><stop id="stop2525" offset=".051" stop-color="#EEEEEC"/><stop id="stop2527" offset="1" stop-color="#888A85"/></linearGradient><linearGradient id="XMLID_144_" x1="25.594" x2="25.594" y1="58" y2="119.001" gradientUnits="userSpaceOnUse"><stop id="stop2504" offset=".051" stop-color="#EEEEEC"/><stop id="stop2506" offset="1" stop-color="#888A85"/></linearGradient><linearGradient id="XMLID_143_" x1="33.789" x2="33.789" y1="57.999" y2="119" gradientUnits="userSpaceOnUse"><stop id="stop2497" offset=".051" stop-color="#EEEEEC"/><stop id="stop2499" offset="1" stop-color="#888A85"/></linearGradient><linearGradient id="XMLID_142_" x1="41.035" x2="41.035" y1="58" y2="119.001" gradientUnits="userSpaceOnUse"><stop id="stop2490" offset=".051" stop-color="#EEEEEC"/><stop id="stop2492" offset="1" stop-color="#888A85"/></linearGradient><linearGradient id="XMLID_141_" x1="48.586" x2="48.586" y1="57.999" y2="119" gradientUnits="userSpaceOnUse"><stop id="stop2483" offset=".051" stop-color="#EEEEEC"/><stop id="stop2485" offset="1" stop-color="#888A85"/></linearGradient><linearGradient id="XMLID_140_" x1="55.313" x2="55.313" y1="57.999" y2="119" gradientUnits="userSpaceOnUse"><stop id="stop2476" offset=".051" stop-color="#EEEEEC"/><stop id="stop2478" offset="1" stop-color="#888A85"/></linearGradient><linearGradient id="XMLID_139_" x1="59.367" x2="59.367" y1="57.999" y2="119" gradientUnits="userSpaceOnUse"><stop id="stop2469" offset=".051" stop-color="#EEEEEC"/><stop id="stop2471" offset="1" stop-color="#888A85"/></linearGradient><linearGradient id="XMLID_135_" x1="97.772" x2="97.772" y1="57.999" y2="119" gradientUnits="userSpaceOnUse"><stop id="stop2441" offset=".051" stop-color="#EEEEEC"/><stop id="stop2443" offset="1" stop-color="#888A85"/></linearGradient><linearGradient id="XMLID_134_" x1="89.807" x2="89.807" y1="57.999" y2="119" gradientUnits="userSpaceOnUse"><stop id="stop2434" offset=".051" stop-color="#EEEEEC"/><stop id="stop2436" offset="1" stop-color="#888A85"/></linearGradient><linearGradient id="XMLID_133_" x1="82.473" x2="82.473" y1="58" y2="118.996" gradientUnits="userSpaceOnUse"><stop id="stop2427" offset=".051" stop-color="#EEEEEC"/><stop id="stop2429" offset="1" stop-color="#888A85"/></linearGradient><linearGradient id="XMLID_132_" x1="75.595" x2="75.595" y1="58" y2="119.001" gradientUnits="userSpaceOnUse"><stop id="stop2420" offset=".051" stop-color="#EEEEEC"/><stop id="stop2422" offset="1" stop-color="#888A85"/></linearGradient><linearGradient id="XMLID_131_" x1="70.199" x2="70.199" y1="57.999" y2="119" gradientUnits="userSpaceOnUse"><stop id="stop2413" offset=".051" stop-color="#EEEEEC"/><stop id="stop2415" offset="1" stop-color="#888A85"/></linearGradient><linearGradient id="XMLID_130_" x1="72.53" x2="73.862" y1="94.651" y2="101.311" gradientTransform="matrix(-1 0 0 1 134 0)" gradientUnits="userSpaceOnUse"><stop id="stop2406" offset=".051" stop-color="#EEEEEC"/><stop id="stop2408" offset="1" stop-color="#888A85"/></linearGradient><linearGradient id="XMLID_129_" x1="66.53" x2="67.862" y1="90.649" y2="97.31" gradientUnits="userSpaceOnUse"><stop id="stop2399" offset=".051" stop-color="#EEEEEC"/><stop id="stop2401" offset="1" stop-color="#888A85"/></linearGradient><linearGradient id="XMLID_128_" x1="72.529" x2="73.861" y1="78.65" y2="85.31" gradientTransform="matrix(-1 0 0 1 134 0)" gradientUnits="userSpaceOnUse"><stop id="stop2392" offset=".051" stop-color="#EEEEEC"/><stop id="stop2394" offset="1" stop-color="#888A85"/></linearGradient><linearGradient id="XMLID_127_" x1="66.529" x2="67.862" y1="74.648" y2="81.31" gradientUnits="userSpaceOnUse"><stop id="stop2385" offset=".051" stop-color="#EEEEEC"/><stop id="stop2387" offset="1" stop-color="#888A85"/></linearGradient><linearGradient id="XMLID_126_" x1="72.529" x2="73.861" y1="86.649" y2="93.31" gradientTransform="matrix(-1 0 0 1 134 0)" gradientUnits="userSpaceOnUse"><stop id="stop2378" offset=".051" stop-color="#EEEEEC"/><stop id="stop2380" offset="1" stop-color="#888A85"/></linearGradient><linearGradient id="XMLID_125_" x1="66.53" x2="67.862" y1="82.649" y2="89.31" gradientUnits="userSpaceOnUse"><stop id="stop2371" offset=".051" stop-color="#EEEEEC"/><stop id="stop2373" offset="1" stop-color="#888A85"/></linearGradient><linearGradient id="XMLID_123_" x1="66.529" x2="67.861" y1="114.649" y2="121.31" gradientUnits="userSpaceOnUse"><stop id="stop2357" offset=".051" stop-color="#EEEEEC"/><stop id="stop2359" offset="1" stop-color="#888A85"/></linearGradient><linearGradient id="XMLID_122_" x1="72.529" x2="73.862" y1="102.648" y2="109.311" gradientTransform="matrix(-1 0 0 1 134 0)" gradientUnits="userSpaceOnUse"><stop id="stop2350" offset=".051" stop-color="#EEEEEC"/><stop id="stop2352" offset="1" stop-color="#888A85"/></linearGradient><linearGradient id="XMLID_121_" x1="66.53" x2="67.862" y1="98.649" y2="105.31" gradientUnits="userSpaceOnUse"><stop id="stop2343" offset=".051" stop-color="#EEEEEC"/><stop id="stop2345" offset="1" stop-color="#888A85"/></linearGradient><linearGradient id="XMLID_120_" x1="72.53" x2="73.862" y1="110.65" y2="117.31" gradientTransform="matrix(-1 0 0 1 134 0)" gradientUnits="userSpaceOnUse"><stop id="stop2336" offset=".051" stop-color="#EEEEEC"/><stop id="stop2338" offset="1" stop-color="#888A85"/></linearGradient><linearGradient id="XMLID_119_" x1="66.53" x2="67.862" y1="106.649" y2="113.31" gradientUnits="userSpaceOnUse"><stop id="stop2329" offset=".051" stop-color="#EEEEEC"/><stop id="stop2331" offset="1" stop-color="#888A85"/></linearGradient><linearGradient id="XMLID_116_" x1="84.339" x2="85.671" y1="20.002" y2="26.661" gradientTransform="matrix(-0.0825 0.9966 0.9966 0.0825 10.3161 -34.5121)" gradientUnits="userSpaceOnUse"><stop id="stop2308" offset=".051" stop-color="#EEEEEC"/><stop id="stop2310" offset="1" stop-color="#888A85"/></linearGradient><linearGradient id="XMLID_115_" x1="84.012" x2="85.344" y1="28.52" y2="35.179" gradientTransform="matrix(-0.2556 0.9668 0.9668 0.2556 25.5372 -35.9141)" gradientUnits="userSpaceOnUse"><stop id="stop2301" offset=".051" stop-color="#EEEEEC"/><stop id="stop2303" offset="1" stop-color="#888A85"/></linearGradient><linearGradient id="XMLID_114_" x1="83.388" x2="84.72" y1="36.475" y2="43.134" gradientTransform="matrix(-0.4243 0.9055 0.9055 0.4243 41.46 -36.3299)" gradientUnits="userSpaceOnUse"><stop id="stop2294" offset=".051" stop-color="#EEEEEC"/><stop id="stop2296" offset="1" stop-color="#888A85"/></linearGradient><linearGradient id="XMLID_113_" x1="83.064" x2="84.395" y1="44.913" y2="51.571" gradientTransform="matrix(-0.5962 0.8028 0.8028 0.5962 60.4483 -34.8312)" gradientUnits="userSpaceOnUse"><stop id="stop2287" offset=".051" stop-color="#EEEEEC"/><stop id="stop2289" offset="1" stop-color="#888A85"/></linearGradient><linearGradient id="XMLID_112_" x1="54.889" x2="55.889" y1="61.902" y2="70.901" gradientUnits="userSpaceOnUse"><stop id="stop2280" offset=".051" stop-color="#EEEEEC"/><stop id="stop2282" offset="1" stop-color="#888A85"/></linearGradient><linearGradient id="XMLID_111_" x1="81.427" x2="82.758" y1="64.792" y2="71.45" gradientTransform="matrix(-0.894 0.4481 0.4481 0.894 102.4965 -24.3783)" gradientUnits="userSpaceOnUse"><stop id="stop2273" offset=".051" stop-color="#EEEEEC"/><stop id="stop2275" offset="1" stop-color="#888A85"/></linearGradient><linearGradient id="XMLID_107_" x1="96.897" x2="98.897" y1="47.837" y2="58.836" gradientUnits="userSpaceOnUse"><stop id="stop2245" offset=".051" stop-color="#EEEEEC"/><stop id="stop2247" offset="1" stop-color="#888A85"/></linearGradient><linearGradient id="XMLID_106_" x1="89.171" x2="90.735" y1="49.849" y2="61.925" gradientUnits="userSpaceOnUse"><stop id="stop2238" offset=".051" stop-color="#EEEEEC"/><stop id="stop2240" offset="1" stop-color="#888A85"/></linearGradient><linearGradient id="XMLID_105_" x1="80.381" x2="84.38" y1="53.248" y2="63.247" gradientUnits="userSpaceOnUse"><stop id="stop2231" offset=".051" stop-color="#EEEEEC"/><stop id="stop2233" offset="1" stop-color="#888A85"/></linearGradient><linearGradient id="XMLID_104_" x1="74.097" x2="77.097" y1="58.301" y2="67.301" gradientUnits="userSpaceOnUse"><stop id="stop2224" offset=".051" stop-color="#EEEEEC"/><stop id="stop2226" offset="1" stop-color="#888A85"/></linearGradient><linearGradient id="XMLID_103_" x1="68.615" x2="71.615" y1="63.116" y2="73.116" gradientUnits="userSpaceOnUse"><stop id="stop2217" offset=".051" stop-color="#EEEEEC"/><stop id="stop2219" offset="1" stop-color="#888A85"/></linearGradient><linearGradient id="linearGradient2257"><stop id="stop2259" offset="0" stop-color="#8f6b32" stop-opacity="1"/><stop id="stop2261" offset="1" stop-color="#debc85" stop-opacity="1"/></linearGradient><linearGradient id="linearGradient5242"><stop id="stop5244" offset="0" stop-color="#180f00" stop-opacity="1"/><stop id="stop5246" offset="1" stop-color="#613e00" stop-opacity="0"/></linearGradient><linearGradient id="linearGradient2899" x1="64.569" x2="64.535" y1="126.671" y2="82.906" gradientUnits="userSpaceOnUse" xlink:href="#linearGradient5242"/><linearGradient id="linearGradient3292" x1="106.376" x2="21.697" y1="-8.576" y2="138.359" gradientUnits="userSpaceOnUse" xlink:href="#linearGradient3272"/><linearGradient id="linearGradient3290" x1="106.376" x2="21.697" y1="-8.576" y2="138.359" gradientUnits="userSpaceOnUse" xlink:href="#linearGradient3272"/><linearGradient id="linearGradient3288" x1="106.376" x2="21.697" y1="-8.576" y2="138.359" gradientUnits="userSpaceOnUse" xlink:href="#linearGradient3272"/><linearGradient id="linearGradient3286" x1="106.376" x2="21.697" y1="-8.576" y2="138.359" gradientUnits="userSpaceOnUse" xlink:href="#linearGradient3272"/><linearGradient id="linearGradient3284" x1="106.376" x2="21.697" y1="-8.576" y2="138.359" gradientUnits="userSpaceOnUse" xlink:href="#linearGradient3272"/><linearGradient id="linearGradient3282" x1="106.376" x2="21.697" y1="-8.576" y2="138.359" gradientUnits="userSpaceOnUse" xlink:href="#linearGradient3272"/><linearGradient id="linearGradient3280" x1="106.376" x2="21.697" y1="-8.576" y2="138.359" gradientUnits="userSpaceOnUse" xlink:href="#linearGradient3272"/><linearGradient id="linearGradient3278" x1="106.376" x2="21.697" y1="-8.576" y2="138.359" gradientUnits="userSpaceOnUse" xlink:href="#linearGradient3272"/><linearGradient id="linearGradient2998"><stop id="stop3000" offset="0" stop-color="#8f6b32" stop-opacity="1"/><stop id="stop3002" offset="1" stop-color="#debc85" stop-opacity="1"/></linearGradient><linearGradient id="linearGradient3194"><stop id="stop3196" offset="0" stop-color="#967239" stop-opacity="1"/><stop id="stop3198" offset="1" stop-color="#967239" stop-opacity="0"/></linearGradient><linearGradient id="linearGradient3272"><stop id="stop3274" offset="0" stop-color="#fff" stop-opacity="1"/><stop id="stop3276" offset="1" stop-color="#fff" stop-opacity="0"/></linearGradient><linearGradient id="linearGradient3654"><stop id="stop3656" offset="0" stop-color="#fff" stop-opacity="1"/><stop id="stop3658" offset="1" stop-color="#fff" stop-opacity="0"/></linearGradient><linearGradient id="linearGradient3068" x1="112.395" x2="103.281" y1="52.859" y2="59.734" gradientTransform="matrix(0.771511,0,0,0.795819,40.31981,26.37111)" gradientUnits="userSpaceOnUse" xlink:href="#linearGradient3654"/><linearGradient id="linearGradient3071" x1="119.59" x2="103.77" y1="42.132" y2="63.319" gradientTransform="matrix(0.771511,0,0,0.795819,40.31981,26.37111)" gradientUnits="userSpaceOnUse" xlink:href="#linearGradient3654"/><linearGradient id="linearGradient3092" x1="76.601" x2="37.204" y1="165.693" y2="33.424" gradientTransform="matrix(0.773584,0,0,0.237678,41.38441,54.40871)" gradientUnits="userSpaceOnUse" xlink:href="#linearGradient2257"/><linearGradient id="linearGradient3095" x1="61.061" x2="61.061" y1="67.373" y2="84.336" gradientTransform="matrix(0.773584,0,0,0.797958,41.38441,27.70424)" gradientUnits="userSpaceOnUse" xlink:href="#linearGradient3194"/><linearGradient id="linearGradient3099" x1="63.109" x2="42.708" y1="123.581" y2="36.314" gradientTransform="matrix(0.773584,0,0,0.797958,41.38441,27.70424)" gradientUnits="userSpaceOnUse" xlink:href="#linearGradient2257"/></defs><metadata id="metadata3"/><switch id="switch5"><g id="g9"><g id="g11"><radialGradient id="XMLID_5_" cx="51.999" cy="-9" r="111.001" gradientUnits="userSpaceOnUse"><stop id="stop14" offset=".15" stop-color="#80B3FF"/><stop id="stop16" offset=".316" stop-color="#69A1F0"/><stop id="stop18" offset=".603" stop-color="#4888DA"/><stop id="stop20" offset=".841" stop-color="#3378CC"/><stop id="stop22" offset="1" stop-color="#2C72C7"/></radialGradient><path id="path24" fill="url(#XMLID_5_)" d="M13.188,15.957c-1.121,0-2.031,0.911-2.031,2.031v85.697c0,1.806,1.468,3.274,3.273,3.274h97.142 c1.805,0,3.273-1.469,3.273-3.274V17.988c0-1.12-0.91-2.031-2.031-2.031H13.188z"/><g id="g26"><path id="path28" d="M14.237,28.826c-0.544,0-1.071,0.223-1.45,0.609s-0.592,0.919-0.581,1.46 c0,0.002,1.373,70.665,1.373,70.665c0.021,1.098,0.933,1.992,2.031,1.992h94.779c1.1,0,2.01-0.895,2.031-1.992l1.373-70.663 c0.012-0.544-0.201-1.076-0.58-1.462c-0.381-0.387-0.908-0.609-1.451-0.609H14.237z" opacity=".05"/><path id="path30" d="M14.237,29.842c-0.273,0-0.533,0.109-0.726,0.305c-0.191,0.195-0.296,0.458-0.29,0.731l1.373,70.663 c0.01,0.554,0.462,0.996,1.016,0.996h94.779c0.555,0,1.006-0.442,1.016-0.996l1.373-70.663c0.004-0.273-0.098-0.536-0.291-0.731 c-0.191-0.195-0.453-0.305-0.725-0.305H14.237z" opacity=".1"/><radialGradient id="XMLID_6_" cx="42.379" cy="6.049" r="122.394" fx="63.067" fy="24.16" gradientTransform="matrix(1.0151 0 0 1.0491 -1.0186 -1.3463)" gradientUnits="userSpaceOnUse"><stop id="stop33" offset="0" stop-color="#FFF"/><stop id="stop35" offset=".373" stop-color="#DDD"/><stop id="stop37" offset=".769" stop-color="#BABDB6"/><stop id="stop39" offset="1" stop-color="#888"/></radialGradient><polygon id="polygon41" fill="url(#XMLID_6_)" points="110.39 102.537 15.61 102.537 14.237 31.874 111.763 31.874"/></g><path id="path43" fill="#FFF" d="M12.173,16.973c0,1.471,0,6.782,0,8.252c1.85,0,24.484,0,25.269,0 c0.464-0.464,5.937-5.938,8.25-8.252C41.542,16.973,13.965,16.973,12.173,16.973z" opacity=".4"/><g id="g45"><path id="path47" d="M13.223,101.877c-2.804,0-5.083,2.279-5.083,5.083c0,2.802,2.279,5.083,5.083,5.083h99.558 c2.801,0,5.082-2.281,5.082-5.083c0-2.804-2.281-5.083-5.082-5.083H13.223z" opacity=".05"/><path id="path49" d="M13.223,102.893c-2.244,0-4.067,1.823-4.067,4.067c0,2.242,1.823,4.067,4.067,4.067h99.558 c2.242,0,4.066-1.825,4.066-4.067c0-2.244-1.824-4.067-4.066-4.067H13.223z" opacity=".1"/><path id="path51" d="M13.223,103.908c-1.683,0-3.052,1.369-3.052,3.052s1.369,3.052,3.052,3.052h99.558 c1.682,0,3.051-1.369,3.051-3.052s-1.369-3.052-3.051-3.052H13.223z" opacity=".15"/><path id="path53" d="M13.223,104.924c-1.123,0-2.036,0.913-2.036,2.036c0,1.121,0.913,2.036,2.036,2.036h99.558 c1.121,0,2.035-0.915,2.035-2.036c0-1.123-0.914-2.036-2.035-2.036H13.223z" opacity=".2"/><path id="path55" d="M13.223,105.94c-0.563,0-1.02,0.456-1.02,1.02s0.456,1.02,1.02,1.02h99.558 c0.562,0,1.02-0.456,1.02-1.02s-0.457-1.02-1.02-1.02H13.223z" opacity=".25"/></g><g id="g57"><path id="path59" d="M28.919,53.455l13.923-8.428h72.003v-4.502H47.051c-1.021,0-2.007,0.353-2.776,0.993 c0,0-9.702,8.069-10.275,8.548c-0.772,0-22.255,0-22.255,0c-0.198,0-0.393,0.034-0.587,0.06v3.329H28.919z" opacity=".05"/><g id="g61"><path id="path63" d="M42.842,45.027h0.286h71.717v-3.544H47.034c-0.766,0-1.506,0.266-2.081,0.746 c0,0-3.667,3.054-6.69,5.571L42.842,45.027z" opacity=".1"/><path id="path65" d="M32.907,51.041c-5.029,0-21.213,0-21.213,0c-0.182,0-0.36,0.027-0.537,0.058v2.356h17.762L32.907,51.041 z" opacity=".1"/></g><path id="path67" d="M114.845,44.027v-1.623H47.003c-0.256,0-0.502,0.089-0.694,0.25c0,0-0.653,0.545-1.646,1.373H114.845z" opacity=".15"/></g><g id="g69"><path id="path71" d="M28.919,52.455l0.754-0.456c-6.952,0-18.077,0-18.077,0c-0.153,0-0.302,0.034-0.438,0.091v0.365H28.919z" opacity=".2"/><polygon id="polygon73" points="114.845 44.027 114.845 43.368 46.985 43.368 46.197 44.027" opacity=".2"/></g><linearGradient id="XMLID_7_" x1="63.999" x2="63.999" y1="25.158" y2="157.632" gradientUnits="userSpaceOnUse"><stop id="stop76" offset="0" stop-color="#BFD9FF"/><stop id="stop78" offset=".219" stop-color="#80B3FF"/><stop id="stop80" offset=".293" stop-color="#6EA5F3"/><stop id="stop82" offset=".443" stop-color="#3E80D3"/><stop id="stop84" offset=".494" stop-color="#2C72C7"/><stop id="stop86" offset=".7" stop-color="#00438A"/></linearGradient><path id="path88" fill="url(#XMLID_7_)" d="M43.18,44.027c-0.399,0-0.79,0.108-1.132,0.315c0,0-12.437,7.529-13.402,8.112 c-1.165,0-26.463,0-26.463,0c-0.69,0-1.341,0.328-1.752,0.883C0.147,53.72,0,54.176,0,54.638c0,0.213,0.032,0.425,0.094,0.633 c0,0,10.194,35.136,10.319,50.138c0.279,0.921,1.127,1.552,2.089,1.552H112.95c0.963,0,1.811-0.631,2.09-1.552 c0-15.002,12.867-58.567,12.867-58.567c0.199-0.661,0.074-1.377-0.338-1.933c-0.41-0.554-1.061-0.881-1.752-0.881H43.18z" opacity=".85"/><linearGradient id="XMLID_8_" x1="-37.875" x2="230.237" y1="48.787" y2="48.787" gradientUnits="userSpaceOnUse"><stop id="stop91" offset="0" stop-color="#2C72C7"/><stop id="stop93" offset=".296" stop-color="#FFF"/><stop id="stop95" offset="1" stop-color="#2C72C7"/></linearGradient><path id="path97" fill="url(#XMLID_8_)" d="M41.838,44.466c-1.589,0.962-12.304,7.45-13.198,7.989c-1.165,0-26.463,0-26.463,0 c-0.69,0-1.341,0.328-1.752,0.883c-0.048,0.064-0.067,0.142-0.109,0.209H28.64l13.923-8.429h85.122 c-0.039-0.069-0.07-0.145-0.121-0.21c-0.41-0.554-1.061-0.881-1.752-0.881H43.174c-0.399,0-0.79,0.108-1.132,0.315L41.838,44.466 z"/></g><rect id="_x3C_Sezione_x3E_" width="128" height="128" fill="none"/></g></switch><path id="path2276" fill="#fff" fill-opacity=".757" fill-rule="nonzero" stroke="none" stroke-dasharray="none" stroke-dashoffset="4" stroke-linecap="round" stroke-linejoin="round" stroke-miterlimit="4" stroke-opacity="1" stroke-width=".5" d="M 90.121652,66.461414 L 90.121652,65.17286 L 90.121652,66.461414 z"/><path id="path3206" fill="#fff" fill-opacity=".757" fill-rule="nonzero" stroke="none" stroke-dasharray="none" stroke-dashoffset="4" stroke-linecap="round" stroke-linejoin="round" stroke-miterlimit="4" stroke-opacity="1" stroke-width=".5" d="M 35.022892,26.518891 L 35.022892,25.230337 L 35.022892,26.518891 z"/><path id="path3022" fill="#fff" fill-opacity=".757" fill-rule="nonzero" stroke="none" stroke-dasharray="none" stroke-dashoffset="4" stroke-linecap="round" stroke-linejoin="round" stroke-miterlimit="4" stroke-opacity="1" stroke-width=".5" d="M -223.0978,104.1679 L -223.0978,101.37319 L -223.0978,104.1679 z"/><path id="path3024" fill="#fff" fill-opacity=".757" fill-rule="nonzero" stroke="none" stroke-dasharray="none" stroke-dashoffset="4" stroke-linecap="round" stroke-linejoin="round" stroke-miterlimit="4" stroke-opacity="1" stroke-width=".5" d="M -342.6,17.537646 L -342.6,14.742937 L -342.6,17.537646 z"/><g id="g3343" opacity=".62" transform="matrix(0.688629,0,0,0.570033,46.8612,63.43185)"><path id="path3345" d="M 13.223,101.877 C 10.419,101.877 8.14,104.156 8.14,106.96 C 8.14,109.762 10.419,112.043 13.223,112.043 L 112.781,112.043 C 115.582,112.043 117.863,109.762 117.863,106.96 C 117.863,104.156 115.582,101.877 112.781,101.877 L 13.223,101.877 z" opacity=".05"/><path id="path3347" d="M 13.223,102.893 C 10.979,102.893 9.156,104.716 9.156,106.96 C 9.156,109.202 10.979,111.027 13.223,111.027 L 112.781,111.027 C 115.023,111.027 116.847,109.202 116.847,106.96 C 116.847,104.716 115.023,102.893 112.781,102.893 L 13.223,102.893 z" opacity=".1"/><path id="path3349" d="M 13.223,103.908 C 11.54,103.908 10.171,105.277 10.171,106.96 C 10.171,108.643 11.54,110.012 13.223,110.012 L 112.781,110.012 C 114.463,110.012 115.832,108.643 115.832,106.96 C 115.832,105.277 114.463,103.908 112.781,103.908 L 13.223,103.908 z" opacity=".15"/><path id="path3351" d="M 13.223,104.924 C 12.1,104.924 11.187,105.837 11.187,106.96 C 11.187,108.081 12.1,108.996 13.223,108.996 L 112.781,108.996 C 113.902,108.996 114.816,108.081 114.816,106.96 C 114.816,105.837 113.902,104.924 112.781,104.924 L 13.223,104.924 z" opacity=".2"/><path id="path3353" d="M 13.223,105.94 C 12.66,105.94 12.203,106.396 12.203,106.96 C 12.203,107.524 12.659,107.98 13.223,107.98 L 112.781,107.98 C 113.343,107.98 113.801,107.524 113.801,106.96 C 113.801,106.396 113.344,105.94 112.781,105.94 L 13.223,105.94 z" opacity=".25"/></g><rect id="rect2270" width="68.774" height="58.528" x="55.818" y="65.737" fill="url(#linearGradient3099)" fill-opacity="1" fill-rule="nonzero" stroke="none" stroke-dasharray="none" stroke-dashoffset="4" stroke-linecap="round" stroke-linejoin="round" stroke-miterlimit="4" stroke-opacity="1" stroke-width="1.631" rx=".92" ry=".949"/><rect id="rect3192" width="68.774" height="32.628" x="55.818" y="65.737" fill="url(#linearGradient3095)" fill-opacity="1" fill-rule="nonzero" stroke="none" stroke-dasharray="none" stroke-dashoffset="4" stroke-linecap="round" stroke-linejoin="round" stroke-miterlimit="4" stroke-opacity="1" stroke-width="1.631" rx=".92" ry=".949"/><path id="rect3187" fill="url(#linearGradient3092)" fill-opacity="1" fill-rule="nonzero" stroke="none" stroke-dashoffset="4" stroke-linecap="round" stroke-linejoin="round" stroke-miterlimit="4" stroke-opacity="1" stroke-width="1.631" d="M 56.996583,65.737102 L 123.41301,65.737102 C 124.06611,65.737102 124.59191,66.279463 124.59191,66.953147 L 128.45984,81.954014 C 128.45984,82.627706 127.93405,83.170053 127.28092,83.170053 L 53.128657,83.170053 C 52.475549,83.170053 51.949756,82.627706 51.949756,81.954014 L 55.817682,66.953147 C 55.817682,66.279463 56.34347,65.737102 56.996583,65.737102 z"/><g id="g3231" fill="none" fill-opacity="1" stroke="url(#linearGradient3278)" opacity=".705" transform="matrix(0.717349,0,0,0.321371,44.2161,51.25856)"><path id="path3217" fill="none" fill-opacity="1" fill-rule="evenodd" stroke="url(#linearGradient3280)" stroke-dasharray="none" stroke-linecap="round" stroke-linejoin="round" stroke-miterlimit="4" stroke-opacity=".126" stroke-width="2.5" d="M 18,47.999999 L 110.25,47.999999"/><path id="path3219" fill="none" fill-opacity="1" fill-rule="evenodd" stroke="url(#linearGradient3282)" stroke-dasharray="none" stroke-linecap="round" stroke-linejoin="round" stroke-miterlimit="4" stroke-opacity=".126" stroke-width="2.1" d="M 18,47.799999 L 110.25,47.799999"/><path id="path3221" fill="none" fill-opacity="1" fill-rule="evenodd" stroke="url(#linearGradient3284)" stroke-dasharray="none" stroke-linecap="round" stroke-linejoin="round" stroke-miterlimit="4" stroke-opacity=".126" stroke-width="1.9" d="M 18,47.699999 L 110.25,47.699999"/><path id="path3223" fill="none" fill-opacity="1" fill-rule="evenodd" stroke="url(#linearGradient3286)" stroke-dasharray="none" stroke-linecap="round" stroke-linejoin="round" stroke-miterlimit="4" stroke-opacity=".224" stroke-width="1.8" d="M 18,47.649999 L 110.25,47.649999"/><path id="path3225" fill="none" fill-opacity="1" fill-rule="evenodd" stroke="url(#linearGradient3288)" stroke-dasharray="none" stroke-linecap="round" stroke-linejoin="round" stroke-miterlimit="4" stroke-opacity=".224" stroke-width="1.6" d="M 18,47.649999 L 110.25,47.649999"/><path id="path3227" fill="none" fill-opacity="1" fill-rule="evenodd" stroke="url(#linearGradient3290)" stroke-dasharray="none" stroke-linecap="round" stroke-linejoin="round" stroke-miterlimit="4" stroke-opacity=".224" stroke-width=".8" d="M 18,47.249999 L 110.25,47.249999"/><path id="path3229" fill="none" fill-opacity="1" fill-rule="evenodd" stroke="url(#linearGradient3292)" stroke-dasharray="none" stroke-linecap="round" stroke-linejoin="round" stroke-miterlimit="4" stroke-opacity=".224" stroke-width=".5" d="M 18,47.199999 L 110.25,47.199999"/></g><g id="g3254" transform="matrix(0.717349,0,0,0.73995,32.19013,-35.71813)"><path id="path3240" fill="#000" fill-opacity=".069" fill-rule="nonzero" stroke="none" stroke-dashoffset="4" stroke-linecap="round" stroke-linejoin="round" stroke-miterlimit="4" stroke-opacity="1" stroke-width="1.631" d="M 27.65625,158.6875 L 27.53125,159.09375 C 27.53125,160.0042 28.277048,160.71875 29.1875,160.71875 L 132.53125,160.71875 C 133.44169,160.71875 134.1875,160.0042 134.1875,159.09375 L 134.0625,158.6875 C 133.8203,159.29223 133.22452,159.71875 132.53125,159.71875 L 29.1875,159.71875 C 28.49422,159.71875 27.898446,159.29224 27.65625,158.6875 z"/><path id="path3249" fill="#000" fill-opacity=".069" fill-rule="nonzero" stroke="none" stroke-dashoffset="4" stroke-linecap="round" stroke-linejoin="round" stroke-miterlimit="4" stroke-opacity="1" stroke-width="1.631" d="M 27.5625,159.03125 L 27.53125,159.09375 C 27.53125,160.0042 28.277048,160.71875 29.1875,160.71875 L 132.53125,160.71875 C 133.44169,160.71875 134.1875,160.0042 134.1875,159.09375 L 134.15625,159.03125 C 134.00105,159.77795 133.32788,160.31249 132.53125,160.3125 L 29.1875,160.3125 C 28.390855,160.3125 27.717698,159.77795 27.5625,159.03125 z"/></g><g id="g3258" transform="matrix(0.717349,0,0,0.73995,32.19013,-35.86619)"><path id="path3260" fill="#000" fill-opacity=".069" fill-rule="nonzero" stroke="none" stroke-dashoffset="4" stroke-linecap="round" stroke-linejoin="round" stroke-miterlimit="4" stroke-opacity="1" stroke-width="1.631" d="M 27.65625,158.6875 L 27.53125,159.09375 C 27.53125,160.0042 28.277048,160.71875 29.1875,160.71875 L 132.53125,160.71875 C 133.44169,160.71875 134.1875,160.0042 134.1875,159.09375 L 134.0625,158.6875 C 133.8203,159.29223 133.22452,159.71875 132.53125,159.71875 L 29.1875,159.71875 C 28.49422,159.71875 27.898446,159.29224 27.65625,158.6875 z"/><path id="path3262" fill="#000" fill-opacity=".069" fill-rule="nonzero" stroke="none" stroke-dashoffset="4" stroke-linecap="round" stroke-linejoin="round" stroke-miterlimit="4" stroke-opacity="1" stroke-width="1.631" d="M 27.5625,159.03125 L 27.53125,159.09375 C 27.53125,160.0042 28.277048,160.71875 29.1875,160.71875 L 132.53125,160.71875 C 133.44169,160.71875 134.1875,160.0042 134.1875,159.09375 L 134.15625,159.03125 C 134.00105,159.77795 133.32788,160.31249 132.53125,160.3125 L 29.1875,160.3125 C 28.390855,160.3125 27.717698,159.77795 27.5625,159.03125 z"/></g><path id="path3640" fill="url(#linearGradient3071)" fill-opacity="1" fill-rule="nonzero" stroke="none" stroke-dashoffset="4" stroke-linecap="round" stroke-linejoin="round" stroke-miterlimit="4" stroke-opacity="1" stroke-width="1.631" d="M 122.26559,66.079517 C 122.91869,66.079511 123.41287,66.642012 123.63449,67.517927 L 127.49205,82.195825 C 127.49205,82.598352 127.30028,82.969521 127.00986,83.1906 C 127.66297,83.1906 128.19122,82.645687 128.19122,81.971996 L 124.30957,67.269233 C 124.30957,66.595548 123.78129,66.075508 123.12819,66.075508 L 122.26559,66.079517 z" opacity=".209"/><path id="path3649" fill="url(#linearGradient3068)" fill-opacity="1" fill-rule="nonzero" stroke="none" stroke-dashoffset="4" stroke-linecap="round" stroke-linejoin="round" stroke-miterlimit="4" stroke-opacity="1" stroke-width="1.631" d="M 122.72685,66.082497 C 123.37995,66.082497 123.87946,66.649002 124.1011,67.524917 L 127.95865,82.202815 C 127.95865,82.485475 127.85032,82.738279 127.69345,82.948894 C 127.99156,82.727822 128.19975,82.38717 128.19975,81.978992 L 124.31808,67.276229 C 124.31808,66.602538 123.78982,66.082497 123.13672,66.082497 L 122.72685,66.082497 z" opacity=".209"/><path id="path3946" fill="#fff" fill-opacity=".757" fill-rule="nonzero" stroke="none" stroke-dasharray="none" stroke-dashoffset="4" stroke-linecap="round" stroke-linejoin="round" stroke-miterlimit="4" stroke-opacity="1" stroke-width=".5" d="M -96.0086,83.292916 L -96.0086,80.498207 L -96.0086,83.292916 z"/><rect id="rect1327" width="1" height="0" x="-246.118" y="100.587" fill="#fff" fill-opacity="1" fill-rule="nonzero" stroke="none" stroke-dasharray="none" stroke-dashoffset="4" stroke-linecap="round" stroke-linejoin="round" stroke-miterlimit="4" stroke-opacity="1" stroke-width="3.632" opacity=".578"/></svg>