<svg xmlns="http://www.w3.org/2000/svg" xmlns:cc="http://web.resource.org/cc/" xmlns:svg="http://www.w3.org/2000/svg" xmlns:xlink="http://www.w3.org/1999/xlink" id="Livello_1" width="128" height="128" enable-background="new 0 0 119.999 120.061" overflow="visible" version="1.0" viewBox="0 0 119.999 120.061" xml:space="preserve"><defs id="defs127"><linearGradient id="linearGradient3273"><stop id="stop3275" offset="0" stop-color="#fff" stop-opacity=".55"/><stop id="stop3277" offset="1" stop-color="#fff" stop-opacity="0"/></linearGradient><linearGradient id="linearGradient3605" x1="80.1" x2="77.715" y1="44.808" y2="101.473" gradientTransform="matrix(0.90042,0,0,0.90042,6.203648,38.76525)" gradientUnits="userSpaceOnUse" spreadMethod="reflect" xlink:href="#linearGradient3273"/><linearGradient id="linearGradient3290"><stop id="stop3292" offset="0" stop-color="#ff0" stop-opacity="1"/><stop id="stop3294" offset="1" stop-color="#ffb66d" stop-opacity="1"/></linearGradient><linearGradient id="linearGradient3106" x1="84.635" x2="89.725" y1="116.101" y2="-15.337" gradientTransform="matrix(0.937975,0,0,0.937975,3.994257,35.69299)" gradientUnits="userSpaceOnUse" xlink:href="#linearGradient3290"/><linearGradient id="linearGradient3648" x1="57.287" x2="144.253" y1="1.16" y2="16.877" gradientTransform="matrix(0.937975,0,0,0.937975,3.994257,35.69299)" gradientUnits="userSpaceOnUse" xlink:href="#linearGradient3638"/><linearGradient id="linearGradient3646" x1="57.287" x2="144.253" y1="1.16" y2="16.877" gradientTransform="matrix(0.937975,0,0,0.937975,3.994257,35.69299)" gradientUnits="userSpaceOnUse" xlink:href="#linearGradient3638"/><linearGradient id="linearGradient3638"><stop id="stop3640" offset="0" stop-color="#fff" stop-opacity="0"/><stop id="stop3661" offset=".069" stop-color="#fff" stop-opacity="1"/><stop id="stop3659" offset=".5" stop-color="#fff" stop-opacity="1"/><stop id="stop3642" offset="1" stop-color="#fff" stop-opacity="0"/></linearGradient><linearGradient id="linearGradient3644" x1="57.287" x2="144.253" y1="1.16" y2="16.877" gradientTransform="matrix(0.937975,0,0,0.937975,3.994257,35.69299)" gradientUnits="userSpaceOnUse" xlink:href="#linearGradient3638"/><linearGradient id="linearGradient12948"><stop id="stop12950" offset="0" stop-color="#fff" stop-opacity="1"/><stop id="stop12952" offset="1" stop-color="silver" stop-opacity="0"/></linearGradient><radialGradient id="radialGradient3716" cx="23.19" cy="59.379" r="2.108" fx="22.471" fy="59.355" gradientTransform="matrix(1,0,0,0.941176,0,3.492906)" gradientUnits="userSpaceOnUse" xlink:href="#linearGradient12948"/><linearGradient id="linearGradient3732" x1="98.292" x2="44.243" y1="-126.75" y2="101.457" gradientTransform="matrix(0.937975,0,0,0.937975,3.994257,35.69299)" gradientUnits="userSpaceOnUse" xlink:href="#linearGradient1563"/><linearGradient id="linearGradient1563"><stop id="stop1565" offset="0" stop-color="#fff" stop-opacity="1"/><stop id="stop1567" offset="1" stop-color="#fff" stop-opacity="0"/></linearGradient><linearGradient id="linearGradient3739" x1="98.292" x2="44.243" y1="-44.015" y2="101.457" gradientTransform="matrix(0.937975,0,0,0.937975,3.994257,35.69299)" gradientUnits="userSpaceOnUse" xlink:href="#linearGradient1563"/><radialGradient id="radialGradient3753" cx="5.753" cy="-45.416" r="124.103" fx="74.817" fy="-43.169" gradientTransform="matrix(1,0,0,9.492274e-2,0,-41.10492)" gradientUnits="userSpaceOnUse" xlink:href="#linearGradient3747"/><radialGradient id="radialGradient3757" cx="5.753" cy="-45.416" r="124.103" fx="74.817" fy="-43.169" gradientTransform="matrix(1,0,0,9.492274e-2,0,-41.10492)" gradientUnits="userSpaceOnUse" xlink:href="#linearGradient3747"/><linearGradient id="linearGradient3747"><stop id="stop3749" offset="0" stop-color="#fff" stop-opacity="1"/><stop id="stop3751" offset="1" stop-color="#fff" stop-opacity="0"/></linearGradient><radialGradient id="radialGradient3761" cx="5.753" cy="-45.416" r="124.103" fx="74.817" fy="-43.169" gradientTransform="matrix(1,0,0,9.492274e-2,0,-41.10492)" gradientUnits="userSpaceOnUse" xlink:href="#linearGradient3747"/><linearGradient id="linearGradient3765"><stop id="stop3767" offset="0" stop-color="#fff" stop-opacity="1"/><stop id="stop3769" offset="1" stop-color="#fff" stop-opacity="0"/></linearGradient><radialGradient id="radialGradient3771" cx="23.663" cy="95.899" r="2.794" fx="24.261" fy="96.779" gradientTransform="matrix(1.392088,0.121487,-0.459403,5.26415,37.3048,-382.0555)" gradientUnits="userSpaceOnUse" xlink:href="#linearGradient3765"/><linearGradient id="linearGradient3291"><stop id="stop3293" offset="0" stop-color="#000" stop-opacity="1"/><stop id="stop3295" offset="1" stop-color="#000" stop-opacity="0"/></linearGradient><radialGradient id="radialGradient3336" cx="63.912" cy="115.709" r="63.912" fx="33.953" fy="115.709" gradientTransform="matrix(1,0,0,0.197802,0,92.82166)" gradientUnits="userSpaceOnUse" xlink:href="#linearGradient3291"/><linearGradient id="linearGradient9291" x1="41.189" x2="27.645" y1="80.102" y2="66.558" gradientTransform="matrix(1.1250507,0.1245433,0.1244801,1.1244802,-2.8257128,-11.708873)" gradientUnits="userSpaceOnUse" xlink:href="#XMLID_11_"/><linearGradient id="linearGradient6141"><stop id="stop6143" offset="0" stop-color="#000" stop-opacity="1"/><stop id="stop6145" offset="1" stop-color="#fff" stop-opacity="0"/></linearGradient><linearGradient id="linearGradient5166" x1="77.543" x2="88.108" y1="41.869" y2="31.303" gradientTransform="translate(-3.0255781e-2,3.056501e-4)" gradientUnits="userSpaceOnUse"><stop id="stop5168" offset="0" stop-color="#323232" stop-opacity="1"/><stop id="stop5170" offset=".757" stop-color="#fff" stop-opacity="0"/></linearGradient><linearGradient id="XMLID_16_" x1="77.543" x2="88.108" y1="41.869" y2="31.303" gradientTransform="translate(-3.0255781e-2,3.056501e-4)" gradientUnits="userSpaceOnUse"><stop id="stop92" offset="0" stop-color="#fff" stop-opacity="1"/><stop id="stop106" offset=".757" stop-color="#fff" stop-opacity=".019"/></linearGradient><linearGradient id="linearGradient3295" x1="-6.165" x2="11.018" y1="112.505" y2="112.505" gradientTransform="matrix(0.7074656,-0.7074656,0.7071068,0.7071068,-18.749172,36.539651)" gradientUnits="userSpaceOnUse" xlink:href="#XMLID_18_"/><linearGradient id="linearGradient3298" x1="38.758" x2="63.923" y1="7.428" y2="7.428" gradientTransform="matrix(1.0002442,-2.5378062e-4,-2.5378062e-4,1.0002442,8.6347844,-24.632129)" gradientUnits="userSpaceOnUse" xlink:href="#XMLID_17_"/><linearGradient id="linearGradient3301" x1="76.281" x2="86.611" y1="43.06" y2="31.303" gradientTransform="matrix(0.7074656,-0.7074656,0.7071068,0.7071068,-24.896055,39.032512)" gradientUnits="userSpaceOnUse" xlink:href="#XMLID_16_"/><linearGradient id="linearGradient3304" x1="76.919" x2="100.641" y1="43.144" y2="19.421" gradientTransform="matrix(0.7074656,-0.7074656,0.7071068,0.7071068,-24.895791,39.125846)" gradientUnits="userSpaceOnUse" xlink:href="#XMLID_15_"/><linearGradient id="linearGradient3307" x1="67.88" x2="105.392" y1="6.433" y2="43.946" gradientTransform="matrix(0.7074656,-0.7074656,0.7071068,0.7071068,-18.749172,36.539651)" gradientUnits="userSpaceOnUse" xlink:href="#XMLID_14_"/><linearGradient id="linearGradient3310" x1="-.478" x2="6.316" y1="105.059" y2="111.852" gradientTransform="matrix(-0.7074656,0.7074656,-0.7071068,-0.7071068,101.2385,185.78751)" gradientUnits="userSpaceOnUse" xlink:href="#XMLID_13_"/><linearGradient id="linearGradient3313" x1="1.35" x2="8.144" y1="103.232" y2="110.026" gradientTransform="matrix(-0.7074656,0.7074656,-0.7071068,-0.7071068,107.38512,183.20132)" gradientUnits="userSpaceOnUse" xlink:href="#XMLID_12_"/><linearGradient id="XMLID_10_" x1="61.969" x2="40.816" y1="88.431" y2="88.431" gradientTransform="matrix(0.7074589,0.7071,-0.7074589,0.7071,68.76314,-21.373694)" gradientUnits="userSpaceOnUse"><stop id="stop10" offset=".053" stop-color="#555"/><stop id="stop12" offset=".211" stop-color="#BBB"/><stop id="stop14" offset=".363" stop-color="#fff" stop-opacity="1"/><stop id="stop16" offset=".603" stop-color="#fff" stop-opacity="1"/><stop id="stop18" offset=".85" stop-color="#e9e9e9" stop-opacity="1"/><stop id="stop20" offset="1" stop-color="#555"/></linearGradient><linearGradient id="linearGradient10168" x1="61.969" x2="40.816" y1="88.431" y2="88.431" gradientTransform="matrix(1.5628683,-3.9649986e-4,-3.9652886e-4,1.562754,-20.23462,-103.35726)" gradientUnits="userSpaceOnUse" xlink:href="#XMLID_10_"/><linearGradient id="linearGradient10170" x1="61.969" x2="40.816" y1="88.431" y2="88.431" gradientTransform="matrix(1.0663866,2.7056218e-4,-2.7056218e-4,-1.0663866,9.2387294,154.26114)" gradientUnits="userSpaceOnUse" xlink:href="#XMLID_10_"/><linearGradient id="linearGradient10203" x1="56.031" x2="72.031" y1="121.5" y2="121.5" gradientUnits="userSpaceOnUse" xlink:href="#XMLID_17_"/><linearGradient id="linearGradient10205" x1="56.031" x2="72.031" y1="110.5" y2="110.5" gradientUnits="userSpaceOnUse" xlink:href="#XMLID_17_"/><linearGradient id="linearGradient10219" x1="61.969" x2="40.816" y1="88.431" y2="88.431" gradientTransform="matrix(1.0663866,2.7056218e-4,-2.7056218e-4,-1.0663866,9.2387294,154.26114)" gradientUnits="userSpaceOnUse" xlink:href="#XMLID_10_"/><linearGradient id="linearGradient10221" x1="56.031" x2="72.031" y1="110.5" y2="110.5" gradientUnits="userSpaceOnUse" xlink:href="#XMLID_17_"/><linearGradient id="linearGradient10223" x1="67.88" x2="105.392" y1="6.433" y2="43.946" gradientTransform="matrix(0.7074656,-0.7074656,0.7071068,0.7071068,-18.749172,36.539651)" gradientUnits="userSpaceOnUse" xlink:href="#XMLID_14_"/><linearGradient id="linearGradient10225" x1="76.919" x2="100.641" y1="43.144" y2="19.421" gradientTransform="matrix(0.7074656,-0.7074656,0.7071068,0.7071068,-24.895791,39.125846)" gradientUnits="userSpaceOnUse" xlink:href="#XMLID_15_"/><linearGradient id="linearGradient10227" x1="76.281" x2="86.611" y1="43.06" y2="31.303" gradientTransform="matrix(0.7074656,-0.7074656,0.7071068,0.7071068,-24.895791,39.125846)" gradientUnits="userSpaceOnUse" xlink:href="#XMLID_16_"/><linearGradient id="linearGradient10229" x1="38.758" x2="63.923" y1="7.428" y2="7.428" gradientTransform="matrix(1.0002442,-2.5378062e-4,-2.5378062e-4,1.0002442,8.6347844,-24.632129)" gradientUnits="userSpaceOnUse" xlink:href="#XMLID_17_"/><linearGradient id="linearGradient10231" x1="56.031" x2="72.031" y1="121.5" y2="121.5" gradientUnits="userSpaceOnUse" xlink:href="#XMLID_17_"/><linearGradient id="linearGradient10233" x1="-6.165" x2="11.018" y1="112.505" y2="112.505" gradientTransform="matrix(0.7074656,-0.7074656,0.7071068,0.7071068,-18.749172,36.539651)" gradientUnits="userSpaceOnUse" xlink:href="#XMLID_18_"/><linearGradient id="linearGradient10236" x1="-6.165" x2="11.018" y1="112.505" y2="112.505" gradientTransform="matrix(1.0005075,0,0,1.0000001,6.1427973,2.5178157)" gradientUnits="userSpaceOnUse" xlink:href="#XMLID_18_"/><linearGradient id="linearGradient10239" x1="56.031" x2="72.031" y1="121.5" y2="121.5" gradientTransform="matrix(0.6632486,0.6632486,-0.6632486,0.6632486,45.21604,-10.083813)" gradientUnits="userSpaceOnUse" xlink:href="#XMLID_17_"/><linearGradient id="linearGradient10242" x1="38.758" x2="63.923" y1="7.428" y2="7.428" gradientTransform="matrix(0.7074589,0.7071,-0.7074589,0.7071,68.761161,-21.373784)" gradientUnits="userSpaceOnUse" xlink:href="#XMLID_17_"/><linearGradient id="linearGradient10245" x1="76.281" x2="86.611" y1="43.06" y2="31.303" gradientTransform="matrix(1.0005075,0,0,1.0000001,-3.223487e-2,2.1565487e-4)" gradientUnits="userSpaceOnUse" xlink:href="#XMLID_16_"/><linearGradient id="linearGradient10248" x1="76.919" x2="100.641" y1="43.144" y2="19.421" gradientTransform="matrix(1.0005075,0,0,1.0000001,-3.223487e-2,2.1565487e-4)" gradientUnits="userSpaceOnUse" xlink:href="#XMLID_15_"/><linearGradient id="linearGradient10251" x1="67.88" x2="105.392" y1="6.433" y2="43.946" gradientTransform="matrix(1.0005075,0,0,1.0000001,6.1427973,2.5178157)" gradientUnits="userSpaceOnUse" xlink:href="#XMLID_14_"/><linearGradient id="linearGradient10254" x1="56.031" x2="72.031" y1="110.5" y2="110.5" gradientTransform="matrix(0.6632486,0.6632486,-0.6632486,0.6632486,45.21604,-10.083813)" gradientUnits="userSpaceOnUse" xlink:href="#XMLID_17_"/><linearGradient id="linearGradient10257" x1="61.969" x2="40.816" y1="88.431" y2="88.431" gradientTransform="matrix(0.7071,0.7074589,0.7071,-0.7074589,-50.969871,98.357246)" gradientUnits="userSpaceOnUse" xlink:href="#XMLID_10_"/><linearGradient id="linearGradient10260" x1="51.339" x2="51.327" y1="30.16" y2="-17.583" gradientTransform="matrix(0.7074589,0.7071,-0.7074589,0.7071,68.761161,-21.373784)" gradientUnits="userSpaceOnUse" xlink:href="#XMLID_17_"/><linearGradient id="linearGradient6147" x1="7.249" x2="57.626" y1="120.251" y2="69.874" gradientUnits="userSpaceOnUse" xlink:href="#linearGradient6141"/><linearGradient id="linearGradient2112" x1="98.292" x2="44.243" y1="-44.015" y2="101.457" gradientTransform="matrix(0.937975,0,0,0.937975,3.994257,35.69299)" gradientUnits="userSpaceOnUse" xlink:href="#linearGradient1563"/><linearGradient id="linearGradient2132" x1="84.635" x2="89.725" y1="116.101" y2="-15.337" gradientTransform="matrix(0.937975,0,0,0.937975,3.994257,35.69299)" gradientUnits="userSpaceOnUse" xlink:href="#linearGradient3290"/><linearGradient id="linearGradient2134" x1="80.1" x2="77.715" y1="44.808" y2="101.473" gradientTransform="matrix(0.90042,0,0,0.90042,6.203648,38.76525)" gradientUnits="userSpaceOnUse" spreadMethod="reflect" xlink:href="#linearGradient3273"/><linearGradient id="linearGradient2136" x1="57.287" x2="144.253" y1="1.16" y2="16.877" gradientTransform="matrix(0.937975,0,0,0.937975,3.994257,35.69299)" gradientUnits="userSpaceOnUse" xlink:href="#linearGradient3638"/><linearGradient id="linearGradient2138" x1="57.287" x2="144.253" y1="1.16" y2="16.877" gradientTransform="matrix(0.937975,0,0,0.937975,3.994257,35.69299)" gradientUnits="userSpaceOnUse" xlink:href="#linearGradient3638"/><linearGradient id="linearGradient2140" x1="57.287" x2="144.253" y1="1.16" y2="16.877" gradientTransform="matrix(0.937975,0,0,0.937975,3.994257,35.69299)" gradientUnits="userSpaceOnUse" xlink:href="#linearGradient3638"/><radialGradient id="radialGradient2142" cx="23.19" cy="59.379" r="2.108" fx="22.471" fy="59.355" gradientTransform="matrix(1,0,0,0.941176,0,3.492906)" gradientUnits="userSpaceOnUse" xlink:href="#linearGradient12948"/><linearGradient id="linearGradient2144" x1="98.292" x2="44.243" y1="-126.75" y2="101.457" gradientTransform="matrix(0.937975,0,0,0.937975,3.994257,35.69299)" gradientUnits="userSpaceOnUse" xlink:href="#linearGradient1563"/><linearGradient id="linearGradient2146" x1="98.292" x2="44.243" y1="-44.015" y2="101.457" gradientTransform="matrix(0.937975,0,0,0.937975,3.994257,35.69299)" gradientUnits="userSpaceOnUse" xlink:href="#linearGradient1563"/><linearGradient id="linearGradient2148" x1="98.292" x2="44.243" y1="-44.015" y2="101.457" gradientTransform="matrix(0.937975,0,0,0.937975,3.994257,35.69299)" gradientUnits="userSpaceOnUse" xlink:href="#linearGradient1563"/><radialGradient id="radialGradient2150" cx="5.753" cy="-45.416" r="124.103" fx="74.817" fy="-43.169" gradientTransform="matrix(1,0,0,9.492274e-2,0,-41.10492)" gradientUnits="userSpaceOnUse" xlink:href="#linearGradient3747"/><radialGradient id="radialGradient2152" cx="5.753" cy="-45.416" r="124.103" fx="74.817" fy="-43.169" gradientTransform="matrix(1,0,0,9.492274e-2,0,-41.10492)" gradientUnits="userSpaceOnUse" xlink:href="#linearGradient3747"/><radialGradient id="radialGradient2154" cx="5.753" cy="-45.416" r="124.103" fx="74.817" fy="-43.169" gradientTransform="matrix(1,0,0,9.492274e-2,0,-41.10492)" gradientUnits="userSpaceOnUse" xlink:href="#linearGradient3747"/><radialGradient id="radialGradient2156" cx="23.663" cy="95.899" r="2.794" fx="24.261" fy="96.779" gradientTransform="matrix(1.392088,0.121487,-0.459403,5.26415,37.3048,-382.0555)" gradientUnits="userSpaceOnUse" xlink:href="#linearGradient3765"/></defs><metadata id="metadata3"/><linearGradient id="XMLID_11_" x1="41.189" x2="27.645" y1="80.102" y2="66.558" gradientTransform="translate(8.7075442,3.5814057)" gradientUnits="userSpaceOnUse"><stop id="stop25" offset=".408" stop-color="#f0f0f0" stop-opacity="1"/><stop id="stop27" offset=".506" stop-color="#C3C3C3"/><stop id="stop29" offset=".56" stop-color="#8b8b8b" stop-opacity="1"/><stop id="stop12212" offset=".679" stop-color="#393939" stop-opacity="1"/></linearGradient><linearGradient id="XMLID_12_" x1="1.35" x2="8.144" y1="103.232" y2="110.026" gradientTransform="matrix(-1,0,0,-1,18.150444,221.94371)" gradientUnits="userSpaceOnUse"><stop id="stop36" offset="0" stop-color="#EEE"/><stop id="stop38" offset="1" stop-color="#BBB"/></linearGradient><linearGradient id="XMLID_13_" x1="-.478" x2="6.316" y1="105.059" y2="111.852" gradientTransform="matrix(-1,0,0,-1,11.978544,219.42611)" gradientUnits="userSpaceOnUse"><stop id="stop43" offset="0" stop-color="#BBB"/><stop id="stop45" offset="1" stop-color="#555"/></linearGradient><linearGradient id="XMLID_14_" x1="67.88" x2="105.392" y1="6.433" y2="43.946" gradientTransform="translate(6.1416442,2.5179057)" gradientUnits="userSpaceOnUse"><stop id="stop50" offset=".095" stop-color="#666" stop-opacity="1"/><stop id="stop3330" offset=".41" stop-color="#b7b7b7" stop-opacity="1"/><stop id="stop56" offset=".505" stop-color="#fff" stop-opacity="1"/><stop id="stop3328" offset=".63" stop-color="#a3a3a3" stop-opacity="1"/><stop id="stop62" offset=".935" stop-color="#646464" stop-opacity="1"/></linearGradient><linearGradient id="XMLID_15_" x1="76.919" x2="100.641" y1="43.144" y2="19.421" gradientTransform="translate(-3.0255781e-2,3.056501e-4)" gradientUnits="userSpaceOnUse"><stop id="stop67" offset="0" stop-color="#aeaeae" stop-opacity="1"/><stop id="stop69" offset=".06" stop-color="#b2b2b2" stop-opacity="1"/><stop id="stop71" offset=".181" stop-color="#d9d9d9" stop-opacity="1"/><stop id="stop73" offset=".32" stop-color="#fff" stop-opacity="1"/><stop id="stop75" offset=".435" stop-color="#f4f4f4" stop-opacity="1"/><stop id="stop77" offset=".603" stop-color="#D4D4D4"/><stop id="stop79" offset=".763" stop-color="#BBB"/><stop id="stop81" offset=".808" stop-color="#b9bcc1" stop-opacity="1"/><stop id="stop83" offset=".93" stop-color="#bdc0c3" stop-opacity="1"/><stop id="stop85" offset="1" stop-color="#b5b9bb" stop-opacity="1"/></linearGradient><linearGradient id="XMLID_17_" x1="38.758" x2="63.923" y1="7.428" y2="7.428" gradientTransform="matrix(0.7071,0.7071,-0.7071,0.7071,68.728244,-21.373694)" gradientUnits="userSpaceOnUse"><stop id="stop111" offset="0" stop-color="#3a3a3a" stop-opacity="1"/><stop id="stop113" offset=".602" stop-color="#fff" stop-opacity="1"/><stop id="stop115" offset="1" stop-color="#888"/></linearGradient><linearGradient id="XMLID_18_" x1="-6.165" x2="11.018" y1="112.505" y2="112.505" gradientTransform="translate(6.1416442,2.5179057)" gradientUnits="userSpaceOnUse"><stop id="stop120" offset="0" stop-color="#BBB"/><stop id="stop122" offset="1" stop-color="#000"/></linearGradient><path id="path10166" fill="url(#linearGradient10257)" d="M 76.409451,31.804481 C 75.443086,30.924606 74.357677,30.748097 72.740857,32.364097 L 2.6023174,103.87059 C 2.5703077,103.90258 2.569153,103.93922 2.5401379,103.97422 C -0.95363288,107.73022 -0.88972357,113.60492 2.7681296,117.25992 C 6.4259848,120.91592 12.29792,120.98291 16.053828,117.48791 C 16.088848,117.45991 16.126446,117.45673 16.157461,117.42573 L 87.72613,47.307917 C 90.960771,44.076918 86.953486,42.972159 84.679332,40.696158 L 79.373343,35.390169 C 78.234266,34.251669 77.375816,32.684356 76.409451,31.804481 z M 16.053828,104.01567 C 18.984982,106.94689 18.986335,111.69819 16.053828,114.62765 C 13.124457,117.55553 8.3745634,117.55731 5.4418505,114.62765 C 2.5091357,111.69799 2.5109065,106.94669 5.4418505,104.01567 C 8.3727812,101.08623 13.121121,101.086 16.053828,104.01567 z"/><path id="path10186" fill="url(#linearGradient10254)" d="M 17.380325,102.68918 C 14.447618,99.759506 9.6992784,99.759734 6.7683477,102.68918 C 6.5428061,102.91472 6.3373933,103.14849 6.1465522,103.39388 C 9.0905761,101.11028 13.348454,101.3131 16.053828,104.01567 C 18.759425,106.72134 18.965866,110.98021 16.675624,113.92295 C 16.920967,113.73233 17.15491,113.52645 17.380325,113.30115 C 20.312833,110.3717 20.31148,105.6204 17.380325,102.68918 z"/><path id="path64" fill="url(#linearGradient10251)" d="M 118.731,16.620217 L 103.19512,32.150217 C 99.80841,35.534217 93.549236,33.235217 90.160517,29.850217 C 86.776801,26.465216 84.475632,20.211217 87.86035,16.825217 L 103.40023,1.2962158 C 92.523716,-2.8617843 79.067889,3.9452161 74.82974,8.1812158 C 63.636062,19.367217 62.837657,34.722217 74.065352,45.942217 C 85.286043,57.160217 100.64883,56.490217 111.84151,45.303218 C 116.07966,41.066217 122.89111,27.489217 118.731,16.620217 z"/><path id="path87" fill="url(#linearGradient10248)" fill-opacity="1" d="M 77.659175,11.009216 C 72.74068,15.925216 70.031306,21.867217 70.031306,27.741217 L 70.030305,27.742217 C 70.031306,33.311217 72.404509,38.626217 76.894787,43.113217 C 81.422083,47.639217 86.7778,50.031218 92.381644,50.031217 L 92.381644,50.031217 C 98.22961,50.031218 104.1346,47.348218 109.01107,42.474217 C 111.8225,39.664217 115.5714,32.245217 115.93458,25.071217 C 111.35626,29.647217 106.02356,34.977217 106.02356,34.977217 C 100.96199,40.037217 92.379643,37.724217 87.331082,32.680217 C 84.259524,29.607217 82.198478,25.228217 82.198477,21.129217 C 82.199478,18.494217 83.050911,15.977216 85.028913,13.997217 C 85.029914,13.996217 90.524701,8.5042158 94.982962,4.049216 C 87.471153,4.3972165 80.050388,8.6212158 77.659175,11.009216 z"/><path id="path117" fill="url(#linearGradient10260)" d="M 85.387095,16.818216 C 81.792271,20.411216 84.661727,27.477217 88.592721,31.406217 C 92.527718,35.337217 99.594302,38.205217 103.19012,34.613217 C 103.19012,34.613217 118.96412,17.234216 118.73,16.620217 L 103.19412,32.150217 C 99.80741,35.534218 93.548235,33.235217 90.159515,29.850217 C 86.775799,26.465216 84.474633,20.211217 87.85935,16.825217 L 103.39923,1.2962158 L 85.387095,16.818216 z"/><path id="path10190" fill="url(#linearGradient10239)" d="M 4.820055,104.72037 C 4.5726725,104.91226 4.3425471,105.11509 4.1153533,105.34217 C 1.1844093,108.27319 1.1826385,113.02448 4.1153533,115.95415 C 7.0480662,118.88381 11.79796,118.88203 14.727331,115.95415 C 14.952993,115.72872 15.158195,115.49477 15.349126,115.24945 C 12.406133,117.53606 8.148893,117.33187 5.4418505,114.62765 C 2.734806,111.92343 2.5308464,107.66392 4.820055,104.72037 z"/><path id="path124" fill="url(#linearGradient10236)" d="M 2.7691837,116.26123 C 1.0242958,114.51723 0.10383016,112.26923 -0.011225313,109.98622 C -0.15229878,112.60123 0.76716563,115.26323 2.7691816,117.26123 C 6.4270358,120.91723 12.302016,120.99023 16.057925,117.49522 C 16.092943,117.46722 16.134962,117.44623 16.165977,117.41523 L 17.166488,116.41622 C 13.410582,119.90922 6.427038,119.91723 2.7691837,116.26123 z"/><path id="path2236" fill="url(#linearGradient6147)" fill-opacity="1" fill-rule="nonzero" d="M 43.21875 69.5625 L 2.8125 110.75 C 2.7783735 110.78411 2.7809338 110.80644 2.75 110.84375 C -0.97480066 114.84812 -0.93098327 121.10331 2.96875 125 C 6.8684854 128.89776 13.151978 128.97611 17.15625 125.25 C 17.193586 125.22015 17.216934 125.22055 17.25 125.1875 L 57.3125 85.9375 C 53.66929 79.550692 48.861858 73.979783 43.21875 69.5625 z M 11.5 108.5625 C 13.547005 108.56247 15.592932 109.34455 17.15625 110.90625 C 20.281231 114.0313 20.282673 119.09558 17.15625 122.21875 C 14.033171 125.34024 8.9703922 125.34214 5.84375 122.21875 C 2.7171056 119.09537 2.7189937 114.03109 5.84375 110.90625 C 7.406121 109.34467 9.4529953 108.56253 11.5 108.5625 z" opacity=".5" transform="matrix(0.9379752,0,0,0.9379752,-3.0914126e-2,0)"/><path id="path33" fill="url(#linearGradient9291)" d="M 15.537923,96.062539 C 14.713663,96.978699 14.388162,98.22441 14.530816,99.52305 C 14.682682,100.89492 15.361817,102.33182 16.533505,103.50003 C 18.808146,105.77775 22.084895,106.19602 23.991153,104.45332 C 24.002148,104.47231 67.492075,61.01118 77.726913,50.782827 C 77.294045,50.416137 69.737251,42.875414 69.288707,42.347047 C 66.356033,45.277862 15.537923,96.062539 15.537923,96.062539 z" opacity=".5"/><path id="path108" fill="url(#linearGradient3301)" d="M 94.304331,48.937972 C 88.699488,48.937972 83.344772,46.545972 78.817475,42.019972 C 74.327198,37.532972 71.953994,32.217972 71.952993,26.648972 L 71.953994,26.647972 C 71.953994,20.773972 74.663368,14.831973 79.581863,9.9159745 C 80.407282,9.0909731 81.84201,8.0489732 83.661933,7.0219732 C 80.923544,8.3389732 78.759446,9.8199731 77.661889,10.915974 C 72.743394,15.831973 70.034021,21.773972 70.034021,27.647972 L 70.033021,27.648972 C 70.034021,33.217972 72.407224,38.532972 76.897502,43.019972 C 81.424798,47.545972 86.780515,49.937972 92.384357,49.937972 C 96.062223,49.937972 99.7631,48.874972 103.21585,46.874972 C 100.32739,48.224972 97.308855,48.937972 94.304331,48.937972 z"/><g id="g2114" transform="matrix(0.624882,0,0,0.62092,35.5804,14.74356)"><path id="path3574" fill="#e3ad00" fill-opacity="1" fill-rule="nonzero" stroke="none" stroke-dasharray="none" stroke-dashoffset="4" stroke-linecap="round" stroke-linejoin="round" stroke-miterlimit="4" stroke-opacity="1" stroke-width="14.809" d="M 153.09403,94.713757 C 144.53658,107.09689 92.616372,93.013297 78.414631,98.001518 C 64.21289,102.98974 32.50348,146.4474 18.082028,142.13539 C 3.6605746,137.82337 1.0106378,84.092245 -8.1220219,72.127031 C -17.254681,60.161818 -68.384124,43.433534 -68.739625,28.385431 C -69.095125,13.337327 -18.812666,-5.7867426 -10.255219,-18.169872 C -1.697772,-30.553002 -1.5880954,-84.349316 12.613645,-89.337536 C 26.815387,-94.325757 60.541592,-52.41396 74.963045,-48.101941 C 89.384498,-43.789923 140.58172,-60.30959 149.71438,-48.344376 C 158.84704,-36.379162 129.40853,8.6478227 129.76403,23.695927 C 130.11953,38.74403 161.65148,82.330628 153.09403,94.713757 z" opacity="1" transform="matrix(0.479573,0.176116,-0.176116,0.479573,43.12959,77.04143)"/><path id="path3580" fill="url(#linearGradient2132)" fill-opacity="1" fill-rule="nonzero" stroke="url(#linearGradient2134)" stroke-dasharray="none" stroke-dashoffset="4" stroke-linecap="round" stroke-linejoin="round" stroke-miterlimit="4" stroke-opacity="1" stroke-width="6.381" d="M 64.791557,45.222189 C 64.570187,45.370535 63.379943,45.970474 62.001584,47.613595 C 60.367976,49.560998 58.527072,52.498767 56.687352,55.611517 C 54.847629,58.724266 53.004804,62.042819 51.213689,64.911427 C 49.422572,67.780035 47.898008,70.174989 45.52746,71.846502 C 43.156912,73.518014 40.354778,74.151909 37.051256,74.875615 C 33.747734,75.59932 30.025736,76.20753 26.47593,76.895024 C 22.926124,77.582519 19.532375,78.348567 17.149451,79.233288 C 15.101623,79.993594 14.151745,80.904603 13.960909,81.040127 C 13.961966,81.041963 13.959795,81.064126 13.960909,81.066697 C 14.027138,81.251464 14.190312,82.5818 15.369182,84.467809 C 16.71646,86.623243 18.9558,89.30245 21.347695,92.01402 C 23.73959,94.725592 26.294047,97.475181 28.468768,100.06509 C 30.64349,102.65499 32.474129,104.86682 33.331291,107.63787 C 34.188453,110.40892 33.929562,113.25345 33.597005,116.61892 C 33.264446,119.9844 32.71155,123.71202 32.268446,127.30053 C 32.239951,127.5313 32.21194,127.76155 32.184496,127.99107 C 31.785168,131.33074 31.505866,134.51635 31.604167,136.89273 C 31.696089,139.11495 32.29669,140.31544 32.348159,140.50641 C 32.544455,140.50043 33.856993,140.72591 36.01498,140.18755 C 38.481253,139.57229 41.704613,138.30306 45.022607,136.86616 C 48.3406,135.42926 51.771914,133.82958 54.907083,132.56162 C 58.042251,131.29366 60.695553,130.23541 63.595856,130.27652 C 66.496158,130.3176 69.106923,131.44449 72.204914,132.80076 C 75.302904,134.15703 78.707148,135.86725 81.983104,137.39759 C 85.259061,138.9279 88.436596,140.27322 90.884448,140.95813 C 93.026319,141.5574 94.353143,141.37275 94.551269,141.38325 C 94.607574,141.19338 95.246701,140.01489 95.401546,137.79614 C 95.578506,135.26045 95.370809,131.80358 95.029549,128.20395 C 94.68829,124.60433 94.203784,120.84275 93.966702,117.4692 C 93.729622,114.09566 93.562806,111.26037 94.498126,108.51472 C 95.433456,105.76906 97.325994,103.60204 99.573224,101.07479 C 101.82043,98.547537 104.46567,95.879013 106.93344,93.236293 C 109.40118,90.593573 111.66359,87.965912 113.07138,85.849509 C 114.28121,84.030725 114.53439,82.721052 114.6125,82.501541 C 114.61374,82.498996 114.61136,82.476781 114.6125,82.474971 C 114.42374,82.334584 113.47599,81.406434 111.45053,80.588417 C 109.09362,79.636543 105.75924,78.772229 102.23034,77.984443 C 98.701433,77.196657 94.98985,76.463182 91.708152,75.646178 C 88.42646,74.829174 85.633907,74.142494 83.311664,72.404495 C 80.989422,70.666497 79.547133,68.201622 77.838003,65.283422 C 76.128873,62.365223 74.380852,59.014277 72.630053,55.850658 C 70.879255,52.687038 69.10617,49.712783 67.528388,47.71988 C 66.147828,45.976089 64.946242,45.347895 64.791557,45.222189 z" opacity="1"/><path id="path3632" fill="none" fill-opacity="1" fill-rule="evenodd" stroke="url(#linearGradient2136)" stroke-dasharray="none" stroke-linecap="butt" stroke-linejoin="miter" stroke-miterlimit="4" stroke-opacity=".581" stroke-width=".475" d="M 55.833059,45.766564 C 57.008803,43.730117 61.417742,36.966701 64.970528,37.018753 C 71.42475,37.116167 82.325676,64.89177 87.423436,68.016012 C 93.698394,71.861718 116.47985,74.58532 120.62484,77.873056"/><path id="path3634" fill="none" fill-opacity="1" fill-rule="evenodd" stroke="url(#linearGradient2138)" stroke-dasharray="none" stroke-linecap="round" stroke-linejoin="round" stroke-miterlimit="4" stroke-opacity=".431" stroke-width=".938" d="M 55.80437,46.268614 C 56.980114,44.232166 61.432602,37.1684 64.984872,37.248261 C 71.369897,37.391808 82.100687,65.223456 87.351715,68.245521 C 93.730418,71.916583 116.54049,74.868321 120.68548,78.156057"/><path id="path3636" fill="none" fill-opacity="1" fill-rule="evenodd" stroke="url(#linearGradient2140)" stroke-dasharray="none" stroke-linecap="round" stroke-linejoin="round" stroke-miterlimit="4" stroke-opacity=".431" stroke-width="1.876" d="M 55.775759,47.241392 C 56.951503,45.204945 61.605456,37.602839 64.984872,37.706039 C 70.8558,37.887072 82.243742,66.139013 87.265882,68.7033 C 93.820542,72.050085 117.57049,75.726656 120.9716,78.928558"/><path id="path11160" fill="url(#radialGradient2142)" fill-opacity="1" fill-rule="nonzero" stroke="none" stroke-dasharray="none" stroke-dashoffset="4" stroke-linecap="round" stroke-linejoin="round" stroke-miterlimit="4" stroke-opacity="1" stroke-width=".9" d="M 25.298673 59.379417 A 2.1082227 1.9842097 0 1 1 21.082228,59.379417 A 2.1082227 1.9842097 0 1 1 25.298673 59.379417 z" opacity=".702" transform="matrix(-1.634831,-0.997523,-0.441343,1.167102,183.2919,32.22329)"/><path id="path3718" fill="url(#linearGradient2144)" fill-opacity="1" fill-rule="nonzero" stroke="none" stroke-dasharray="none" stroke-dashoffset="4" stroke-linecap="round" stroke-linejoin="round" stroke-miterlimit="4" stroke-opacity="1" stroke-width="6.803" d="M 64.786761,45.219302 C 64.565392,45.367648 63.380507,45.979742 62.002148,47.622863 C 60.368542,49.570266 58.536447,52.512212 56.696727,55.624962 C 54.857004,58.737711 53.00655,62.048169 51.215436,64.916777 C 49.424319,67.785386 47.89951,70.16283 45.528962,71.834343 C 43.158414,73.505856 40.361397,74.159056 37.057875,74.882761 C 33.754354,75.606465 30.026151,76.217777 26.476345,76.90527 C 22.926539,77.592766 19.538143,78.336174 17.155218,79.220896 C 15.107391,79.981203 14.151077,80.902698 13.960241,81.038222 C 13.960204,81.040598 13.960377,81.064488 13.960241,81.067534 C 14.026471,81.252302 14.188334,82.581685 15.367204,84.467693 C 16.714482,86.623129 18.9549,89.289235 21.346794,92.000805 C 23.15006,94.045077 25.043093,96.124183 26.798774,98.126954 C 48.255247,100.38276 71.089556,108.33961 93.805363,112.16727 C 93.880525,110.90577 94.103081,109.69443 94.508844,108.5033 C 95.444176,105.75765 97.332541,103.61469 99.579772,101.08744 C 101.82698,98.560189 104.46925,95.874618 106.93701,93.231897 C 109.40475,90.58918 111.65537,87.961748 113.06316,85.845344 C 114.27299,84.02656 114.53857,82.723319 114.61668,82.503808 C 114.61666,82.50134 114.61683,82.477546 114.61668,82.474497 C 114.42793,82.334108 113.47648,81.416563 111.45102,80.598547 C 109.09411,79.646672 105.74672,78.777589 102.21783,77.989804 C 98.68892,77.202016 94.976617,76.46187 91.694919,75.644866 C 88.413228,74.827861 85.634011,74.129264 83.311768,72.391265 C 80.989529,70.653265 79.539606,68.216029 77.830476,65.297829 C 76.121345,62.379631 74.393101,59.023075 72.642302,55.859456 C 70.891507,52.695836 69.119845,49.703701 67.542063,47.710798 C 66.161504,45.967008 64.941447,45.345008 64.786761,45.219302 z" opacity="1"/><path id="path3736" fill="url(#linearGradient2146)" fill-opacity="1" fill-rule="nonzero" stroke="none" stroke-dasharray="none" stroke-dashoffset="4" stroke-linecap="round" stroke-linejoin="round" stroke-miterlimit="4" stroke-opacity="1" stroke-width="6.803" d="M 64.786761,45.219302 C 64.565392,45.367648 63.380507,45.979742 62.002148,47.622863 C 60.368542,49.570266 58.536447,52.512212 56.696727,55.624962 C 54.857004,58.737711 53.00655,62.048169 51.215436,64.916777 C 49.424319,67.785386 47.89951,70.16283 45.528962,71.834343 C 43.158414,73.505856 40.361397,74.159056 37.057875,74.882761 C 33.754354,75.606465 30.026151,76.217777 26.476345,76.90527 C 22.926539,77.592766 19.538143,78.336174 17.155218,79.220896 C 15.107391,79.981203 14.151077,80.902698 13.960241,81.038222 C 13.960204,81.040598 13.960377,81.064488 13.960241,81.067534 C 14.026471,81.252302 14.188334,82.581685 15.367204,84.467693 C 16.714482,86.623129 18.9549,89.289235 21.346794,92.000805 C 23.15006,94.045077 25.043093,96.124183 26.798774,98.126954 C 28.149529,98.268965 29.5118,98.440508 30.873103,98.625254 C 43.697655,88.804776 60.961021,76.20267 77.654606,65.004712 C 76.003876,62.159628 74.331951,58.912581 72.642302,55.859456 C 70.891507,52.695836 69.119845,49.703701 67.542063,47.710798 C 66.161504,45.967008 64.941447,45.345008 64.786761,45.219302 z M 97.176211,76.875958 C 85.406407,85.763374 75.085583,95.643518 66.1351,106.12905 C 75.311241,108.39022 84.567787,110.61072 93.805363,112.16727 C 93.880525,110.90577 94.103081,109.69443 94.508844,108.5033 C 95.444176,105.75765 97.332541,103.61469 99.579772,101.08744 C 101.82698,98.560189 104.46925,95.874618 106.93701,93.231897 C 109.40475,90.58918 111.65537,87.961748 113.06316,85.845344 C 114.27299,84.02656 114.53857,82.723319 114.61668,82.503808 C 114.61666,82.50134 114.61683,82.477546 114.61668,82.474497 C 114.42793,82.334108 113.47648,81.416563 111.45102,80.598547 C 109.09411,79.646672 105.74672,78.777589 102.21783,77.989804 C 100.55808,77.619284 98.853216,77.238353 97.176211,76.875958 z" opacity=".414"/><path id="path3741" fill="url(#linearGradient2148)" fill-opacity="1" fill-rule="nonzero" stroke="none" stroke-dasharray="none" stroke-dashoffset="4" stroke-linecap="round" stroke-linejoin="round" stroke-miterlimit="4" stroke-opacity="1" stroke-width="6.803" d="M 64.786761,45.219302 C 64.565392,45.367648 63.380507,45.979742 62.002148,47.622863 C 60.368542,49.570266 58.536447,52.512212 56.696727,55.624962 C 54.857004,58.737711 53.00655,62.048169 51.215436,64.916777 C 49.424319,67.785386 47.89951,70.16283 45.528962,71.834343 C 43.158414,73.505856 40.361397,74.159056 37.057875,74.882761 C 33.754354,75.606465 30.026151,76.217777 26.476345,76.90527 C 22.926539,77.592766 19.538143,78.336174 17.155218,79.220896 C 15.107391,79.981203 14.151077,80.902698 13.960241,81.038222 C 13.960204,81.040598 13.960377,81.064488 13.960241,81.067534 C 14.026471,81.252302 14.188334,82.581685 15.367204,84.467693 C 16.714482,86.623129 60.961021,76.20267 77.654606,65.004712 C 76.003876,62.159628 74.331951,58.912581 72.642302,55.859456 C 70.891507,52.695836 69.119845,49.703701 67.542063,47.710798 C 66.161504,45.967008 64.941447,45.345008 64.786761,45.219302 z M 97.176211,76.875958 C 68.217599,98.994416 84.567787,110.61072 93.805363,112.16727 C 93.880525,110.90577 94.103081,109.69443 94.508844,108.5033 C 95.444176,105.75765 97.332541,103.61469 99.579772,101.08744 C 101.82698,98.560189 104.46925,95.874618 106.93701,93.231897 C 109.40475,90.58918 111.65537,87.961748 113.06316,85.845344 C 114.27299,84.02656 114.53857,82.723319 114.61668,82.503808 C 114.61666,82.50134 114.61683,82.477546 114.61668,82.474497 C 114.42793,82.334108 113.47648,81.416563 111.45102,80.598547 C 109.09411,79.646672 105.74672,78.777589 102.21783,77.989804 C 100.55808,77.619284 98.853216,77.238353 97.176211,76.875958 z" opacity=".348"/><path id="path3745" fill="url(#radialGradient2150)" fill-opacity="1" fill-rule="nonzero" stroke="none" stroke-dasharray="none" stroke-dashoffset="4" stroke-linecap="round" stroke-linejoin="round" stroke-miterlimit="4" stroke-opacity=".431" stroke-width="2" d="M 129.85647 -45.41592 A 124.10334 11.780229 0 1 1 -118.35021,-45.41592 A 124.10334 11.780229 0 1 1 129.85647 -45.41592 z" opacity=".357" transform="matrix(0.118968,-5.274923e-2,-3.630419e-2,-8.640574e-2,46.02676,135.359)"/><path id="path3755" fill="url(#radialGradient2152)" fill-opacity="1" fill-rule="nonzero" stroke="none" stroke-dasharray="none" stroke-dashoffset="4" stroke-linecap="round" stroke-linejoin="round" stroke-miterlimit="4" stroke-opacity=".431" stroke-width="2" d="M 129.85647 -45.41592 A 124.10334 11.780229 0 1 1 -118.35021,-45.41592 A 124.10334 11.780229 0 1 1 129.85647 -45.41592 z" opacity=".496" transform="matrix(-0.118967,-5.349163e-2,3.630419e-2,-8.762182e-2,80.86987,135.4116)"/><path id="path3759" fill="url(#radialGradient2154)" fill-opacity="1" fill-rule="nonzero" stroke="none" stroke-dasharray="none" stroke-dashoffset="4" stroke-linecap="round" stroke-linejoin="round" stroke-miterlimit="4" stroke-opacity=".431" stroke-width="2" d="M 129.85647 -45.41592 A 124.10334 11.780229 0 1 1 -118.35021,-45.41592 A 124.10334 11.780229 0 1 1 129.85647 -45.41592 z" opacity=".275" transform="matrix(-6.142485e-3,-0.126948,-9.368692e-2,2.529279e-3,90.23967,128.489)"/><path id="path3308" fill="#2e3436" fill-opacity="1" fill-rule="nonzero" stroke="none" stroke-dasharray="none" stroke-dashoffset="4" stroke-linecap="round" stroke-linejoin="round" stroke-miterlimit="4" stroke-opacity="1" stroke-width="14.809" d="M 122.47363,78.788518 C 123.65843,86.357198 102.53333,102.18475 100.10879,109.30202 C 97.629072,116.58129 105.07455,143.03437 98.789771,147.46587 C 92.504971,151.89739 70.07389,136.02599 62.384615,135.91706 C 54.69534,135.80812 31.843061,151.04774 25.686343,146.43996 C 25.394849,146.22181 25.154033,145.93005 24.924238,145.61924 C 25.294166,146.8463 25.830172,147.8095 26.624318,148.40385 C 32.781036,153.01162 55.633315,137.772 63.32259,137.88094 C 71.011865,137.98988 93.442946,153.89058 99.727737,149.45907 C 106.01253,145.02757 98.567049,118.57447 101.04676,111.29521 C 103.52649,104.01595 125.56687,87.600709 123.29436,80.254104 C 123.13591,79.741848 122.86127,79.243296 122.47363,78.788518 z M 5.4026336,82.452483 C 8.2931442,89.944211 21.453618,101.45513 25.422538,108.21748 C 23.594884,102.43841 9.9936085,90.73545 5.4026336,82.452483 z" opacity=".17"/><path id="path3303" fill="#2e3436" fill-opacity="1" fill-rule="nonzero" stroke="none" stroke-dasharray="none" stroke-dashoffset="4" stroke-linecap="round" stroke-linejoin="round" stroke-miterlimit="4" stroke-opacity="1" stroke-width="14.809" d="M 123.23574,80.136857 C 123.84442,87.815749 103.23489,103.33166 100.84158,110.35724 C 98.361867,117.63651 105.80734,144.0896 99.522555,148.5211 C 93.237764,152.9526 70.835995,137.0519 63.14672,136.94297 C 55.457454,136.83402 32.575854,152.10296 26.419136,147.49519 C 25.486855,146.79745 24.903603,145.58524 24.543186,144.0364 C 24.864339,146.04889 25.509319,147.59867 26.624318,148.43316 C 32.781036,153.04094 55.633324,137.772 63.32259,137.88094 C 71.011865,137.98988 93.442965,153.89057 99.727737,149.45907 C 106.01253,145.02757 98.56704,118.57448 101.04676,111.29521 C 103.52649,104.01595 125.56686,87.6007 123.29436,80.254104 C 123.28172,80.213227 123.24994,80.17735 123.23574,80.136857 z M 4.8750226,80.488598 C 5.8528803,88.501465 24.297502,103.47589 26.389824,110.23999 C 26.41529,110.32231 26.42558,110.4168 26.448448,110.5038 C 26.384647,110.06367 26.29477,109.65804 26.184642,109.30202 C 24.171945,102.79533 7.0480762,88.684802 4.8750226,80.488598 z" opacity=".17"/><path id="path3763" fill="url(#radialGradient2156)" fill-opacity="1" fill-rule="evenodd" stroke="none" stroke-linecap="butt" stroke-linejoin="miter" stroke-opacity="1" stroke-width="1" d="M 27.526368,110.93582 C 27.944955,120.81217 24.680904,135.07406 24.852264,140.24399 L 27.09851,140.45793 C 28.944445,131.07803 30.273649,121.52589 30.414399,111.5776 L 27.526368,110.93582 z" opacity=".553"/><path id="path3296" fill="#2e3436" fill-opacity="1" fill-rule="nonzero" stroke="none" stroke-dasharray="none" stroke-dashoffset="4" stroke-linecap="round" stroke-linejoin="round" stroke-miterlimit="4" stroke-opacity="1" stroke-width="14.809" d="M 4.8339487,79.84374 C 4.8301311,87.673064 24.257798,103.29084 26.407364,110.23999 C 26.620416,110.92873 26.738873,111.77342 26.788417,112.7608 C 26.747765,111.66446 26.63866,110.6946 26.407364,109.94688 C 24.282091,103.07624 5.259508,87.756375 4.8339487,79.84374 z M 123.45846,81.455885 C 122.89961,89.338711 103.38905,104.17778 101.0643,111.0021 C 100.73472,111.96959 100.57115,113.29364 100.53669,114.84193 C 100.58269,113.41321 100.75434,112.20512 101.0643,111.29521 C 103.41775,104.38664 123.37233,89.259602 123.45846,81.455885 z M 63.34013,137.58783 C 55.650855,137.47889 32.798576,152.74782 26.641858,148.14004 C 25.295076,147.1321 24.618149,145.07788 24.384856,142.42426 C 24.5953,145.21693 25.247099,147.3893 26.641858,148.43316 C 32.798576,153.04094 55.650855,137.772 63.34013,137.88094 C 71.029396,137.98988 93.460496,153.89057 99.745277,149.45907 C 101.36157,148.31939 102.03434,145.71789 102.23677,142.36564 C 102.01225,145.58282 101.31647,148.05807 99.745277,149.16595 C 93.460496,153.59745 71.029396,137.69676 63.34013,137.58783 z" opacity=".62"/></g></svg>