<svg xmlns="http://www.w3.org/2000/svg" xmlns:cc="http://web.resource.org/cc/" xmlns:svg="http://www.w3.org/2000/svg" xmlns:xlink="http://www.w3.org/1999/xlink" id="svg1" width="1365.333" height="1024"><defs id="defs3"><linearGradient id="linearGradient2891"><stop id="stop2895" offset="0" stop-color="#bb171e" stop-opacity="1"/><stop id="stop2897" offset="1" stop-color="#e47c81" stop-opacity="1"/></linearGradient><linearGradient id="path59_3_" x1="-204.989" x2="-204.989" y1="387.694" y2="412.591" gradientTransform="matrix(7.412,0,0,7.412,1621.137,-2763.574)" gradientUnits="userSpaceOnUse"><stop id="stop55" offset=".681" stop-color="#FFF"/><stop id="stop57" offset=".799" stop-color="#FBFBFC"/><stop id="stop59" offset=".912" stop-color="#F0F1F3"/><stop id="stop61" offset="1" stop-color="#E1E3E8"/></linearGradient><linearGradient id="path99_2_" x1="653.723" x2="653.723" y1="1427.638" y2="1514.088" gradientTransform="translate(-587.3542,-1410.099)" gradientUnits="userSpaceOnUse"><stop id="stop47" offset=".13" stop-color="#FFF"/><stop id="stop49" offset=".5" stop-color="#FFF"/></linearGradient><radialGradient id="path5692_3_" cx="-1113.465" cy="-2485.681" r="65.628" gradientTransform="matrix(0.4413,-0.5959,-0.5323,-0.394,-773.878,-1569.439)" gradientUnits="userSpaceOnUse"><stop id="stop37" offset="0" stop-color="#FFF"/><stop id="stop39" offset=".328" stop-color="#FDFDFC"/><stop id="stop41" offset=".677" stop-color="#F4F5F4"/><stop id="stop43" offset="1" stop-color="#CACFD0"/></radialGradient><radialGradient id="path53_2_" cx="675.758" cy="1527.28" r="85.026" gradientTransform="matrix(1.048,0,0,1.048,-641.8231,-1514.578)" gradientUnits="userSpaceOnUse"><stop id="stop29" offset=".5" stop-color="#166D2C"/><stop id="stop31" offset=".781" stop-color="#07240F"/><stop id="stop33" offset="1" stop-color="#4AC900"/></radialGradient><linearGradient id="path35_2_" x1="-1279.124" x2="-1151.124" y1="-1406.488" y2="-1406.488" gradientTransform="matrix(-1,0,0,-1,-1148.754,-1320.477)" gradientUnits="userSpaceOnUse"><stop id="stop7" offset="0" stop-color="#2D7800"/><stop id="stop9" offset=".011" stop-color="#0F491D"/><stop id="stop11" offset=".053" stop-color="#07240F"/><stop id="stop13" offset=".099" stop-color="#166D2C"/><stop id="stop15" offset=".148" stop-color="#1D923A"/><stop id="stop17" offset=".201" stop-color="#1D923A"/><stop id="stop19" offset=".262" stop-color="#1D923A"/><stop id="stop21" offset=".349" stop-color="#1D923A"/><stop id="stop23" offset=".586" stop-color="#166D2C"/><stop id="stop25" offset="1" stop-color="#07240F"/></linearGradient><linearGradient id="linearGradient1823"><stop id="stop1824" offset="0" stop-color="#fff" stop-opacity="0"/><stop id="stop1825" offset=".5" stop-color="#fff" stop-opacity=".352"/><stop id="stop1826" offset="1" stop-color="#fff" stop-opacity="0"/></linearGradient><linearGradient id="linearGradient1817"><stop id="stop1818" offset="0" stop-color="#fff" stop-opacity="0"/><stop id="stop1821" offset=".5" stop-color="#fff" stop-opacity=".039"/><stop id="stop1822" offset="1" stop-color="#fff" stop-opacity="0"/></linearGradient><linearGradient id="linearGradient1818"><stop id="stop1819" offset="0" stop-color="#fff" stop-opacity="1"/><stop id="stop1820" offset="1" stop-color="#fff" stop-opacity="0"/></linearGradient><linearGradient id="linearGradient1813"><stop id="stop1815" offset="0" stop-color="#fff" stop-opacity="0"/><stop id="stop1816" offset=".5" stop-color="#fff" stop-opacity=".498"/><stop id="stop1817" offset="1" stop-color="#fff" stop-opacity="0"/></linearGradient><linearGradient id="linearGradient1807"><stop id="stop1808" offset="0" stop-color="#fff" stop-opacity=".685"/><stop id="stop1809" offset="1" stop-color="#fefeff" stop-opacity="0"/></linearGradient><linearGradient id="linearGradient13017"><stop id="stop13018" offset="0" stop-color="#000" stop-opacity="1"/><stop id="stop13019" offset="1" stop-color="#fff" stop-opacity="1"/></linearGradient><linearGradient id="linearGradient1812"><stop id="stop1813" offset="0" stop-color="#fff" stop-opacity=".059"/><stop id="stop1814" offset="1" stop-color="#fff" stop-opacity="0"/></linearGradient><linearGradient id="linearGradient4276"><stop id="stop4277" offset="0" stop-color="#fff" stop-opacity=".118"/><stop id="stop4278" offset="1" stop-color="#fefeff" stop-opacity="0"/></linearGradient><linearGradient id="linearGradient3030"><stop id="stop3031" offset="0" stop-color="#434839" stop-opacity="0"/><stop id="stop3032" offset=".5" stop-color="#434838" stop-opacity="1"/><stop id="stop3033" offset="1" stop-color="#43483a" stop-opacity="0"/></linearGradient><linearGradient id="linearGradient2402"><stop id="stop2403" offset="0" stop-color="#43483c" stop-opacity="1"/><stop id="stop2404" offset=".5" stop-color="#43483b" stop-opacity="1"/><stop id="stop2405" offset="1" stop-color="#43483f" stop-opacity="1"/></linearGradient><linearGradient id="linearGradient9839"><stop id="stop9840" offset="0" stop-color="#000" stop-opacity="1"/><stop id="stop9841" offset="1" stop-color="#000" stop-opacity="0"/></linearGradient><linearGradient id="linearGradient4069"><stop id="stop4070" offset="0" stop-color="#ffbe34" stop-opacity=".685"/><stop id="stop4071" offset="1" stop-color="#ffdc4c" stop-opacity="0"/></linearGradient><linearGradient id="linearGradient16912"><stop id="stop16913" offset="0" stop-color="#fff" stop-opacity=".667"/><stop id="stop16914" offset="1" stop-color="#fff" stop-opacity="0"/></linearGradient><linearGradient id="linearGradient8708"><stop id="stop8709" offset="0" stop-color="#43483c" stop-opacity="1"/><stop id="stop12476" offset=".5" stop-color="#43483b" stop-opacity="1"/><stop id="stop8710" offset="1" stop-color="#43483f" stop-opacity="1"/></linearGradient><linearGradient id="linearGradient3704"><stop id="stop3705" offset="0" stop-color="#0b1d41" stop-opacity="1"/><stop id="stop3706" offset="1" stop-color="#000" stop-opacity="1"/></linearGradient><linearGradient id="linearGradient1810"><stop id="stop1811" offset="0" stop-color="#fff" stop-opacity=".392"/><stop id="stop1812" offset="1" stop-color="#fefeff" stop-opacity=".055"/></linearGradient><linearGradient id="linearGradient12401"><stop id="stop12402" offset="0" stop-color="#fff" stop-opacity="0"/><stop id="stop9333" offset=".5" stop-color="#fff" stop-opacity=".039"/><stop id="stop12403" offset="1" stop-color="#fff" stop-opacity="0"/></linearGradient><linearGradient id="linearGradient11763"><stop id="stop11764" offset="0" stop-color="#000" stop-opacity="1"/><stop id="stop11765" offset="1" stop-color="#000" stop-opacity=".634"/></linearGradient><linearGradient id="linearGradient9855"><stop id="stop9856" offset="0" stop-color="#43483d" stop-opacity="1"/><stop id="stop9857" offset="1" stop-color="#fdfdfd" stop-opacity="0"/></linearGradient><linearGradient id="linearGradient9230"><stop id="stop9231" offset="0" stop-color="#43483d" stop-opacity="1"/><stop id="stop9232" offset="1" stop-color="#fdfdfd" stop-opacity="0"/></linearGradient><linearGradient id="linearGradient7972"><stop id="stop7973" offset="0" stop-color="#fdfdfd" stop-opacity=".294"/><stop id="stop8597" offset=".5" stop-color="#fdfdfd" stop-opacity=".353"/><stop id="stop7974" offset="1" stop-color="#fdfdfd" stop-opacity=".098"/></linearGradient><linearGradient id="linearGradient2353"><stop id="stop2354" offset="0" stop-color="#898989" stop-opacity="1"/><stop id="stop2355" offset="1" stop-color="#43483e" stop-opacity="1"/></linearGradient><style id="style2415" type="text/css"/><style id="style2017" type="text/css"/><linearGradient id="linearGradient11136" x1="585.872" x2="607.184" y1="411.427" y2="640.82" gradientTransform="scale(1.263675,0.791343)" gradientUnits="userSpaceOnUse" xlink:href="#linearGradient7972"/><linearGradient id="linearGradient11762" x1="624.758" x2="593.875" y1="1078.112" y2="751.445" gradientTransform="matrix(1.091599,0.000000,0.000000,0.806927,0.000000,81.69132)" gradientUnits="userSpaceOnUse" xlink:href="#linearGradient11763"/><linearGradient id="linearGradient12404" x1="44.145" x2="3.172" y1="19776.625" y2="19776.625" gradientTransform="matrix(17.94556,0,0,3.463785e-2,479.1854,74.40953)" gradientUnits="userSpaceOnUse" xlink:href="#linearGradient2891"/><radialGradient id="radialGradient9346" cx="905.614" cy="375.396" r="201.992" fx="905.614" fy="375.396" gradientTransform="matrix(0.404153,0.000000,0.000000,0.406072,598.1281,554.3846)" gradientUnits="userSpaceOnUse" xlink:href="#linearGradient1810"/><linearGradient id="linearGradient16915" x1="68.285" x2="123.764" y1="507.989" y2="612.884" gradientTransform="scale(3.401788,0.293963)" gradientUnits="userSpaceOnUse" xlink:href="#linearGradient16912"/><linearGradient id="linearGradient9842" x1="102.818" x2="424.562" y1="150.294" y2="722.417" gradientTransform="scale(1.111535,0.899657)" gradientUnits="userSpaceOnUse" xlink:href="#linearGradient9839"/><linearGradient id="linearGradient1357" x1="318.578" x2="351" y1="-62.641" y2="820.594" gradientTransform="scale(1.586615,0.630273)" gradientUnits="userSpaceOnUse" spreadMethod="pad" xlink:href="#linearGradient1810"/><pattern id="pattern1981" width="176.623" height="177.462" patternTransform="translate(876.9406,614.1349)" patternUnits="userSpaceOnUse"><rect id="rect1982" width="176.623" height="177.462" x="876.941" y="614.135" fill="url(#radialGradient9346)" fill-opacity="1" fill-rule="nonzero" stroke="none" stroke-dashoffset="0" stroke-linecap="round" stroke-linejoin="round" stroke-miterlimit="4" stroke-opacity="1" stroke-width="1.25" opacity=".452" rx="49.709" ry="49.705" transform="translate(-876.9406,-614.1349)"/></pattern><linearGradient id="linearGradient1158" x1="548.978" x2="1061.005" y1="762.543" y2="924.937" gradientTransform="matrix(1.154700,0.000000,0.000000,0.866026,0.000000,1.250000e-6)" gradientUnits="userSpaceOnUse" xlink:href="#linearGradient3030"/><linearGradient id="linearGradient1811" x1="1339.273" x2="618.57" y1="626.073" y2="422.781" gradientTransform="matrix(1.065232,0.000000,0.000000,0.938763,3.875000e-6,1.250000e-6)" gradientUnits="userSpaceOnUse" xlink:href="#linearGradient1812"/><linearGradient id="linearGradient3061" x1="1384.516" x2="2398.271" y1="128.082" y2="264.828" gradientTransform="matrix(0.541725,0.000000,0.000000,1.845955,0.000000,1.250000e-6)" gradientUnits="userSpaceOnUse" xlink:href="#linearGradient4276"/><linearGradient id="linearGradient11144" x1="929.924" x2="1407.936" y1="365.153" y2="550.31" gradientTransform="matrix(0.762786,0.000000,0.000000,1.310983,212.5985,1.250000e-6)" gradientUnits="userSpaceOnUse" xlink:href="#linearGradient12401"/><linearGradient id="linearGradient11147" x1="929.924" x2="1407.936" y1="365.153" y2="550.31" gradientTransform="matrix(-0.762786,0.000000,0.000000,-1.310983,1832.162,961.8219)" gradientUnits="userSpaceOnUse" xlink:href="#linearGradient12401"/></defs><metadata id="metadata4"/><rect id="rect1107" width="1280.028" height="960.084" x="-.018" y=".027" fill="#43483c" fill-opacity="1" fill-rule="evenodd" stroke="none" stroke-dashoffset="0" stroke-linecap="round" stroke-linejoin="round" stroke-miterlimit="4" stroke-opacity=".538" stroke-width="1.264" opacity="1"/><path id="path4304" fill="url(#linearGradient11144)" fill-opacity="1" fill-rule="evenodd" stroke="none" stroke-linecap="butt" stroke-linejoin="miter" stroke-opacity="1" stroke-width=".333" d="M 1164.6875,-0.75000000 C 1264.1658,310.36483 928.09429,637.67931 910.37499,960.25000 L 1174.2188,960.25000 C 1061.8331,737.67599 1049.9459,485.68925 1280.0312,197.40625 L 1280.0312,-0.75000000 L 1164.6875,-0.75000000 z" opacity="1"/><path id="path4930" fill="url(#linearGradient11147)" fill-opacity="1" fill-rule="evenodd" stroke="none" stroke-linecap="butt" stroke-linejoin="miter" stroke-opacity="1" stroke-width=".333" d="M 829.65625,-0.50000025 C 1031.4017,557.04606 845.39092,808.53061 580.62500,960.50000 L 825.75000,960.50000 C 904.33533,619.24414 1060.6764,323.51245 1073.2812,-0.50000025 L 829.65625,-0.50000025 z" opacity="1"/><rect id="rect1157" width="1280" height="960" x="0" y="0" fill="url(#linearGradient1158)" fill-opacity="1" fill-rule="evenodd" stroke="none" stroke-dashoffset="0" stroke-linecap="round" stroke-linejoin="round" stroke-miterlimit="4" stroke-opacity=".538" stroke-width="1.264"/><path id="path1186" fill="url(#linearGradient1811)" fill-opacity="1" fill-rule="evenodd" stroke="none" stroke-linecap="butt" stroke-linejoin="miter" stroke-opacity="1" stroke-width=".333" d="M 998.64315,0.12143725 C 1178.5884,346.48963 979.64602,613.84975 763.74942,960.21179 L 227.12670,959.99461 C 651.81793,559.41702 1097.6512,512.65965 1135.4391,-0.15054875 L 998.64315,0.12143725 z" opacity="1"/><path id="path2436" fill="url(#linearGradient3061)" fill-opacity="1" fill-rule="evenodd" stroke="none" stroke-linecap="butt" stroke-linejoin="miter" stroke-opacity="1" stroke-width=".333" d="M 1191.6322,-0.054393750 L 1279.5057,0.026825250 C 1202.3723,340.29241 1121.0153,603.28417 1279.6757,959.65988 L 1062.2333,960.08122 C 884.53364,723.31105 1118.8925,258.68414 1191.6322,-0.054393750 z" opacity="1"/><rect id="rect1983" width="176.623" height="177.462" x="876.941" y="614.135" fill="none" fill-opacity=".352" fill-rule="nonzero" stroke="none" stroke-linejoin="round" stroke-opacity="1" opacity="1"/><path id="path9883" fill="none" fill-opacity=".75" fill-rule="evenodd" stroke="url(#linearGradient12404)" stroke-linecap="butt" stroke-linejoin="miter" stroke-miterlimit="4" stroke-opacity="1" stroke-width="1.27" d="M 527.33578,759.42930 L 1277.8420,759.42930"/><path id="path1356" fill="url(#linearGradient1357)" fill-opacity="1" fill-rule="nonzero" stroke="none" stroke-dashoffset="0" stroke-linecap="round" stroke-linejoin="round" stroke-miterlimit="4" stroke-opacity="1" stroke-width="1.25" d="M -1.0449995,-4.9737992e-14 L -1.0449995,509.30198 C 628.20728,497.68494 637.42476,319.15544 1281.0450,311.40751 L 1281.0450,-4.9737992e-14 L -1.0449995,-4.9737992e-14 z" opacity="1"/><text id="text1988" x="915.082" y="784" fill="#fff" fill-opacity="1" stroke="none" stroke-linecap="butt" stroke-linejoin="miter" stroke-opacity="1" stroke-width="1" font-family="Univers" font-size="12" font-style="normal" font-weight="normal" xml:space="preserve"><tspan id="tspan1990" x="915.082" y="784" fill="#fff" fill-opacity="1" font-size="18" font-weight="bold">Univention Corporate Desktop</tspan></text><g id="g3114" transform="matrix(0.71875,0,0,0.695312,912.2962,647.6957)"><path id="path35_1_" fill="url(#path35_2_)" d="M 2.3703704,39.077582 C 2.3703704,29.690582 10.05037,22.010582 19.43737,22.010582 L 113.30437,22.010582 C 122.68937,22.010582 130.37037,29.690582 130.37037,39.077582 L 130.37037,132.94458 C 130.37037,142.33058 122.68937,150.01058 113.30437,150.01058 L 19.43737,150.01058 C 10.05037,150.01058 2.3703704,142.32958 2.3703704,132.94458 L 2.3703704,39.077582 z"/><path id="path53_1_" fill="url(#path53_2_)" d="M 20.25937,26.277582 C 12.74737,26.277582 6.6363704,32.388582 6.6363704,39.901582 L 6.6363704,132.12158 C 6.6363704,139.63258 12.74737,145.74458 20.25937,145.74458 L 112.48037,145.74458 C 119.99337,145.74458 126.10337,139.63258 126.10337,132.12158 L 126.10337,39.900582 C 126.10337,32.389582 119.99337,26.277582 112.48037,26.277582 L 20.25937,26.277582 L 20.25937,26.277582 z"/><path id="path5692_2_" fill="url(#path5692_3_)" d="M 63.76137,40.688582 L 51.16737,41.898582 L 51.16737,93.780582 L 63.62737,91.897582 L 63.62737,69.777582 L 80.39137,94.321582 L 93.52437,90.149582 L 76.35537,66.548582 L 93.65837,44.294582 L 80.25837,41.227582 L 63.62737,63.480582 L 63.76137,40.688582 z M 35.21037,53.336582 C 35.06637,53.351582 34.91437,53.389582 34.80737,53.497582 L 29.85537,58.449582 C 29.64737,58.658582 29.62137,58.977582 29.77437,59.230582 L 35.56037,68.783582 C 34.53337,70.510582 33.69837,72.363582 33.11137,74.328582 L 22.48137,76.533582 C 22.18537,76.595582 21.97037,76.877582 21.97037,77.179582 L 21.97037,84.175582 C 21.97037,84.470582 22.19437,84.726582 22.48137,84.793582 L 32.78837,87.296582 C 33.34037,89.571582 34.19137,91.747582 35.31837,93.729582 L 29.34437,102.82358 C 29.17737,103.07658 29.20937,103.41758 29.42537,103.63258 L 34.37737,108.58458 C 34.58637,108.79258 34.90537,108.81758 35.15837,108.66558 L 44.52237,102.98658 C 46.35837,104.04758 48.34637,104.89758 50.44237,105.46358 L 52.62037,115.95858 C 52.68237,116.25558 52.93537,116.46958 53.24037,116.46958 L 60.23837,116.46958 C 60.53037,116.46958 60.78737,116.27158 60.85737,115.98458 L 63.44037,105.43458 C 65.60037,104.85258 67.63837,103.98958 69.52237,102.87758 L 78.75137,108.93458 C 79.00437,109.10158 79.34437,109.06858 79.56037,108.85458 L 84.48537,103.90158 C 84.69237,103.69458 84.74637,103.37458 84.59237,103.12258 L 81.22937,97.578582 L 80.12637,97.929582 C 79.96737,97.979582 79.79137,97.906582 79.69737,97.766582 C 79.69737,97.766582 77.57237,94.641582 74.79737,90.584582 C 71.48337,97.073582 64.71937,101.50858 56.93037,101.50858 C 45.86237,101.50858 36.88237,92.529582 36.88237,81.462582 C 36.88237,73.319582 41.75237,66.326582 48.72337,63.190582 L 48.72337,58.023582 C 47.45537,58.467582 46.22937,59.002582 45.06337,59.638582 C 45.06237,59.637582 45.06537,59.613582 45.06337,59.612582 L 35.61837,53.422582 C 35.48637,53.332582 35.35237,53.321582 35.21037,53.336582 z"/><path id="path99_1_" fill="url(#path99_2_)" d="M 123.97037,66.185582 C 122.69637,51.805582 120.69337,41.866582 120.66037,41.700582 C 120.18337,39.130582 116.43237,35.409582 113.88437,34.930582 C 113.63737,34.883582 89.77137,30.249582 65.87437,30.559582 L 65.81937,30.559582 C 41.92737,30.249582 18.05937,34.883582 17.80937,34.930582 C 15.26237,35.409582 11.51337,39.130582 11.03937,41.700582 C 11.01637,41.825582 9.8743704,47.039582 8.7673704,56.254582 C 8.7673704,62.425582 8.7673704,68.594582 8.7673704,74.766582 C 8.7673704,78.614582 11.32337,83.065582 14.45037,84.676582 C 14.45037,84.565582 19.39637,98.811582 61.39537,98.811582 C 103.39537,98.811582 118.60937,76.758582 118.60537,77.003582 C 121.55537,75.021582 123.96737,70.276582 123.96737,66.428582 C 123.97037,66.346582 123.97037,66.265582 123.97037,66.185582 z" enable-background="new" opacity=".3"/><path id="path52" fill="#c03" d="M 114.21437,103.78958 L 95.55237,103.78958 C 92.11237,103.78958 89.32737,106.57758 89.32737,110.01358 C 85.89137,110.01358 83.10337,112.80258 83.10337,116.23858 L 83.10337,134.90058 C 83.10337,138.33958 85.89137,141.12558 89.32737,141.12558 L 107.99137,141.12558 C 111.42937,141.12558 114.21437,138.34458 114.21437,134.90058 C 117.65337,134.90058 120.43737,132.12158 120.43737,128.68558 L 120.43737,110.01458 C 120.43437,106.57858 117.65337,103.78958 114.21437,103.78958 z"/><path id="path59_1_" fill="url(#path59_3_)" d="M 114.19137,115.69458 L 114.19137,115.68158 L 114.19137,115.68158 C 114.16637,115.43758 114.13037,115.21258 114.07837,115.00358 C 113.32837,111.12658 109.33737,110.09358 108.62637,110.03258 L 108.62637,128.27458 C 107.81837,130.18458 104.61337,131.46058 101.21137,131.24758 C 97.05237,130.98458 95.04237,129.47258 94.92437,128.09358 L 94.92437,110.01458 L 89.32837,110.01458 L 89.32837,128.67858 C 89.42037,132.18958 91.78037,134.71058 95.54737,134.90258 L 104.73137,134.90258 C 106.11737,134.63258 107.71437,133.44858 108.61837,132.19458 L 108.61837,134.90258 L 109.42837,134.90258 L 114.19037,134.90258 L 114.21337,134.90258 L 114.21337,116.23558 C 114.21437,116.04458 114.19937,115.86658 114.19137,115.69458 z"/></g></svg>