<svg xmlns="http://www.w3.org/2000/svg" xmlns:svg="http://www.w3.org/2000/svg" xmlns:xlink="http://www.w3.org/1999/xlink" id="Ebene_1" width="16" height="16" x="0" y="0" enable-background="new 0 0 16 16" version="1.1" viewBox="0 0 16 16" xml:space="preserve"><metadata id="metadata68"/><defs id="defs66"><linearGradient id="linearGradient3147"><stop id="stop3149" offset="0" stop-color="#8ae234" stop-opacity="1"/><stop id="stop3151" offset="1" stop-color="#4f9a05" stop-opacity="1"/></linearGradient><linearGradient id="linearGradient3405" x1="9.033" x2="15.626" y1="2.355" y2="18.891" gradientTransform="matrix(0.418947,0,0,0.687907,34.75998,29.60497)" gradientUnits="userSpaceOnUse" xlink:href="#linearGradient3147"/><linearGradient id="linearGradient2679"><stop id="stop2681" offset="0" stop-color="#f7f7f7" stop-opacity="1"/><stop id="stop2683" offset="1" stop-color="#ccd0c7" stop-opacity="1"/></linearGradient><linearGradient id="linearGradient3409" x1="5.028" x2="18.118" y1="11.022" y2="11.022" gradientTransform="translate(28.74998,26.00027)" gradientUnits="userSpaceOnUse" xlink:href="#linearGradient2679"/><linearGradient id="linearGradient8163" x1="4.95" x2="16.633" y1="10.331" y2="10.504" gradientUnits="userSpaceOnUse" xlink:href="#linearGradient2679"/><linearGradient id="linearGradient8191" x1="-.409" x2="8.348" y1="8.857" y2="8.857" gradientTransform="matrix(1,0,0,-1,0.4204,16.864677)" gradientUnits="userSpaceOnUse" xlink:href="#SVGID_1_"/><linearGradient id="linearGradient8193" x1="-.892" x2="18.101" y1="4.633" y2="6.158" gradientUnits="userSpaceOnUse" xlink:href="#SVGID_1_"/><linearGradient id="linearGradient8195" x1="4.95" x2="16.633" y1="10.331" y2="10.504" gradientUnits="userSpaceOnUse" xlink:href="#SVGID_1_"/></defs><linearGradient id="SVGID_1_" x1="-.409" x2="8.348" y1="8.857" y2="8.857" gradientTransform="matrix(1 0 0 -1 0.4204 16.8359)" gradientUnits="userSpaceOnUse"><stop id="stop4" offset=".294" stop-color="#3f3e41" stop-opacity=".482"/><stop id="stop6" offset=".601" stop-color="#fff" stop-opacity=".196"/><stop id="stop8" offset=".828" stop-color="#6f7072" stop-opacity=".395"/></linearGradient><linearGradient id="SVGID_2_" x1="2.603" x2="7.43" y1="12.844" y2="12.844" gradientTransform="matrix(1 0 0 -1 0.4204 16.8359)" gradientUnits="userSpaceOnUse"><stop id="stop13" offset="0" stop-color="#000"/><stop id="stop15" offset=".387" stop-color="#58585A"/><stop id="stop17" offset="1" stop-color="#3F3E41"/></linearGradient><path id="path19" fill="none" stroke="#5b5b5b" stroke-dasharray="none" stroke-miterlimit="4" stroke-opacity="1" stroke-width=".1" d="M 3.023,5.089777 L 3.023,3.731777 C 3.023,3.731777 4.527,2.780777 7.85,2.982777 L 7.85,4.537777 C 7.851,4.536777 5.529,4.284777 3.023,5.089777 z" opacity="1"/><linearGradient id="SVGID_3_" x1="2.603" x2="7.43" y1="14.983" y2="14.983" gradientTransform="matrix(1 0 0 -1 0.4204 16.8359)" gradientUnits="userSpaceOnUse"><stop id="stop22" offset="0" stop-color="#000"/><stop id="stop24" offset=".387" stop-color="#58585A"/><stop id="stop26" offset="1" stop-color="#3F3E41"/></linearGradient><path id="path28" fill="none" stroke="#5b5b5b" stroke-dasharray="none" stroke-miterlimit="4" stroke-opacity="1" stroke-width=".1" d="M 3.023,3.031777 L 3.023,1.677777 C 3.023,1.677777 4.48,0.37277698 7.85,0.82577698 L 7.85,2.278777 C 7.851,2.278777 4.938,2.076777 3.023,3.031777 z" opacity="1"/><linearGradient id="SVGID_4_" x1="4.422" x2="5.299" y1="11.549" y2="10.321" gradientTransform="matrix(1 0 0 -1 0.4204 16.8359)" gradientUnits="userSpaceOnUse"><stop id="stop31" offset="0" stop-color="#FFF"/><stop id="stop33" offset=".387" stop-color="#B5B5B8"/><stop id="stop35" offset=".626" stop-color="#D9D9DA"/><stop id="stop37" offset="1" stop-color="#6F7072"/></linearGradient><g id="g41" fill="#565656" fill-opacity="1" opacity=".997" transform="translate(0,2.8776978e-2)"><path id="path43" fill="#565656" fill-opacity="1" d="M 5.218,6.512 C 4.864,6.512 4.576,6.199 4.576,5.813 C 4.576,5.429 4.864,5.117 5.218,5.117 C 5.573,5.117 5.863,5.429 5.863,5.813 C 5.862,6.199 5.573,6.512 5.218,6.512 L 5.218,6.512 z M 5.218,5.308 C 4.97,5.308 4.768,5.535 4.768,5.813 C 4.768,6.093 4.97,6.321 5.218,6.321 C 5.468,6.321 5.671,6.093 5.671,5.813 C 5.671,5.535 5.468,5.308 5.218,5.308 L 5.218,5.308 z"/></g><path id="path8155" fill="none" stroke="#5b5b5b" stroke-dasharray="none" stroke-miterlimit="4" stroke-opacity="1" stroke-width=".1" d="M 2.567,1.325777 L 2.567,14.774777 C 2.567,14.774777 3.339,16.276777 8.484,15.924777 L 8.484,0.22177698 C 8.484,0.22177698 4.753,-0.63122302 2.567,1.325777 z" opacity="1"/><g id="g3204" fill="none" fill-opacity="1" stroke="#5a5a5a" stroke-dasharray="none" stroke-miterlimit="4" stroke-opacity="1" stroke-width=".1" opacity="1" transform="translate(0,2.8776978e-2)"><linearGradient id="linearGradient3206" x1="7.779" x2="20.518" y1="14.361" y2="-10.813" fill="url(#linearGradient8163)" fill-opacity="1" gradientTransform="matrix(1,0,0,-1,0.4204,16.8359)" gradientUnits="userSpaceOnUse"><stop id="stop3208" fill="url(#linearGradient8163)" fill-opacity="1" offset=".233" stop-color="#B5B5B8"/><stop id="stop3210" fill="url(#linearGradient8163)" fill-opacity="1" offset=".626" stop-color="#D9D9DA"/><stop id="stop3212" fill="url(#linearGradient8163)" fill-opacity="1" offset="1" stop-color="#6F7072"/></linearGradient><path id="polygon3214" stroke="#5a5a5a" d="M 8.481,0.194 L 14.367,1.801 L 14.367,14.242 L 8.481,15.896"/><linearGradient id="linearGradient3216" x1="8.321" x2="20.89" y1="14.367" y2="-15.527" fill="url(#linearGradient8163)" fill-opacity="1" gradientTransform="matrix(1,0,0,-1,0.4204,16.8359)" gradientUnits="userSpaceOnUse"><stop id="stop3218" fill="url(#linearGradient8163)" fill-opacity="1" offset=".387" stop-color="#B5B5B8"/><stop id="stop3220" fill="url(#linearGradient8163)" fill-opacity="1" offset=".626" stop-color="#D9D9DA"/><stop id="stop3222" fill="url(#linearGradient8163)" fill-opacity="1" offset="1" stop-color="#6F7072"/></linearGradient></g></svg>