<svg xmlns="http://www.w3.org/2000/svg" xmlns:svg="http://www.w3.org/2000/svg" xmlns:xlink="http://www.w3.org/1999/xlink" id="Ebene_1" width="16" height="16" x="0" y="0" enable-background="new 0 0 16 16" version="1.1" viewBox="0 0 16 16" xml:space="preserve"><metadata id="metadata68"/><defs id="defs66"><linearGradient id="linearGradient3147"><stop id="stop3149" offset="0" stop-color="#71db09" stop-opacity="1"/><stop id="stop3151" offset="1" stop-color="#204100" stop-opacity="1"/></linearGradient><linearGradient id="linearGradient3405" x1="9.033" x2="15.626" y1="2.355" y2="18.891" gradientTransform="matrix(0.418947,0,0,0.687907,34.75998,29.60497)" gradientUnits="userSpaceOnUse" xlink:href="#linearGradient3147"/><linearGradient id="linearGradient2679"><stop id="stop2681" offset="0" stop-color="#f7f7f7" stop-opacity="1"/><stop id="stop2683" offset="1" stop-color="#ccd0c7" stop-opacity="1"/></linearGradient><linearGradient id="linearGradient3409" x1="5.028" x2="18.118" y1="11.022" y2="11.022" gradientTransform="translate(28.74998,26.00027)" gradientUnits="userSpaceOnUse" xlink:href="#linearGradient2679"/></defs><linearGradient id="SVGID_1_" x1="-.409" x2="8.348" y1="8.857" y2="8.857" gradientTransform="matrix(1 0 0 -1 0.4204 16.8359)" gradientUnits="userSpaceOnUse"><stop id="stop4" offset=".294" stop-color="#3F3E41"/><stop id="stop6" offset=".601" stop-color="#909092"/><stop id="stop8" offset=".828" stop-color="#6F7072"/></linearGradient><path id="path10" fill="url(#SVGID_1_)" d="M2.567,1.297v13.449c0,0,0.772,1.502,5.917,1.15V0.193 C8.484,0.193,4.753-0.66,2.567,1.297z" opacity=".4"/><linearGradient id="SVGID_2_" x1="2.603" x2="7.43" y1="12.844" y2="12.844" gradientTransform="matrix(1 0 0 -1 0.4204 16.8359)" gradientUnits="userSpaceOnUse"><stop id="stop13" offset="0" stop-color="#000"/><stop id="stop15" offset=".387" stop-color="#58585A"/><stop id="stop17" offset="1" stop-color="#3F3E41"/></linearGradient><path id="path19" fill="url(#SVGID_2_)" d="M3.023,5.061V3.703c0,0,1.504-0.951,4.827-0.749v1.555 C7.851,4.508,5.529,4.256,3.023,5.061z" opacity=".4"/><linearGradient id="SVGID_3_" x1="2.603" x2="7.43" y1="14.983" y2="14.983" gradientTransform="matrix(1 0 0 -1 0.4204 16.8359)" gradientUnits="userSpaceOnUse"><stop id="stop22" offset="0" stop-color="#000"/><stop id="stop24" offset=".387" stop-color="#58585A"/><stop id="stop26" offset="1" stop-color="#3F3E41"/></linearGradient><path id="path28" fill="url(#SVGID_3_)" d="M3.023,3.003V1.649c0,0,1.457-1.305,4.827-0.852V2.25 C7.851,2.25,4.938,2.048,3.023,3.003z" opacity=".4"/><linearGradient id="SVGID_4_" x1="4.422" x2="5.299" y1="11.549" y2="10.321" gradientTransform="matrix(1 0 0 -1 0.4204 16.8359)" gradientUnits="userSpaceOnUse"><stop id="stop31" offset="0" stop-color="#FFF"/><stop id="stop33" offset=".387" stop-color="#B5B5B8"/><stop id="stop35" offset=".626" stop-color="#D9D9DA"/><stop id="stop37" offset="1" stop-color="#6F7072"/></linearGradient><path id="path39" fill="url(#SVGID_4_)" d="M5.767,5.813c0,0.332-0.247,0.604-0.549,0.604c-0.301,0-0.546-0.27-0.546-0.604 c0-0.335,0.245-0.601,0.546-0.601C5.521,5.212,5.767,5.481,5.767,5.813z" opacity=".4"/><g id="g41" opacity=".4"><path id="path43" fill="#3F3E41" d="M5.218,6.512c-0.354,0-0.642-0.313-0.642-0.699c0-0.384,0.288-0.696,0.642-0.696 c0.355,0,0.645,0.312,0.645,0.696C5.862,6.199,5.573,6.512,5.218,6.512L5.218,6.512z M5.218,5.308c-0.248,0-0.45,0.227-0.45,0.505 c0,0.28,0.202,0.508,0.45,0.508c0.25,0,0.453-0.228,0.453-0.508C5.671,5.535,5.468,5.308,5.218,5.308L5.218,5.308z"/></g><g id="g45" opacity=".4"><linearGradient id="SVGID_5_" x1="7.779" x2="20.518" y1="14.361" y2="-10.813" gradientTransform="matrix(1 0 0 -1 0.4204 16.8359)" gradientUnits="userSpaceOnUse"><stop id="stop48" offset=".233" stop-color="#B5B5B8"/><stop id="stop50" offset=".626" stop-color="#D9D9DA"/><stop id="stop52" offset="1" stop-color="#6F7072"/></linearGradient><polygon id="polygon54" fill="url(#SVGID_5_)" points="14.367 1.801 14.367 14.242 8.481 15.896 8.481 .194"/><linearGradient id="SVGID_6_" x1="8.321" x2="20.89" y1="14.367" y2="-15.527" gradientTransform="matrix(1 0 0 -1 0.4204 16.8359)" gradientUnits="userSpaceOnUse"><stop id="stop57" offset=".387" stop-color="#B5B5B8"/><stop id="stop59" offset=".626" stop-color="#D9D9DA"/><stop id="stop61" offset="1" stop-color="#6F7072"/></linearGradient><path id="path63" fill="url(#SVGID_6_)" d="M14.367,1.801v12.441l-5.886,1.654c0,0,6.104-2.674,3.575-7.54 C9.257,2.969,14.367,1.801,14.367,1.801z"/></g><g id="layer1" transform="matrix(0.5983275,0,0,0.5983275,-3.1439066,-4.2953027)"><g id="g3414" transform="translate(-14.86834,-14.58015)"><path id="path4809" fill="url(#linearGradient3409)" fill-opacity="1" stroke="none" stroke-dashoffset="0" stroke-linecap="round" stroke-linejoin="round" stroke-miterlimit="4" stroke-opacity="1" stroke-width="1" d="M 46.36834,37.022087 L 36.27936,46.080147 L 34.27771,46.080147 L 34.27771,27.964037 L 36.27936,27.964037 L 46.36834,37.022087 z"/><path id="path4811" fill="none" fill-opacity="1" stroke="#215f00" stroke-dashoffset="0" stroke-linecap="round" stroke-linejoin="round" stroke-miterlimit="4" stroke-opacity="1" stroke-width="1" d="M 46.36834,37.022087 L 36.27936,46.080147 L 34.27771,46.080147 L 34.27771,27.964037 L 36.27936,27.964037 L 46.36834,37.022087 z"/><path id="path4813" fill="url(#linearGradient3405)" fill-opacity="1" stroke="none" stroke-dashoffset="0" stroke-linecap="round" stroke-linejoin="round" stroke-miterlimit="4" stroke-opacity="1" stroke-width="1.679" d="M 44.13392,36.999971 L 35.78123,44.624973 L 35.78123,29.374969 L 44.13392,36.999971 z"/><path id="path4815" fill="#f7f7f7" fill-opacity="1" stroke="none" stroke-dashoffset="0" stroke-linecap="round" stroke-linejoin="round" stroke-miterlimit="4" stroke-opacity="1" stroke-width="1.679" d="M 44.13395,36.999977 L 35.75136,36.999977 L 35.75136,29.374997 L 44.13395,36.999977 z" opacity=".247"/></g></g></svg>