<svg xmlns="http://www.w3.org/2000/svg" xmlns:svg="http://www.w3.org/2000/svg" xmlns:xlink="http://www.w3.org/1999/xlink" id="Ebene_1" width="16" height="16" x="0" y="0" enable-background="new 0 0 16 16" version="1.1" viewBox="0 0 16 16" xml:space="preserve"><metadata id="metadata68"/><defs id="defs66"><linearGradient id="linearGradient3147"><stop id="stop3149" offset="0" stop-color="#8ae234" stop-opacity="1"/><stop id="stop3151" offset="1" stop-color="#4f9a05" stop-opacity="1"/></linearGradient><linearGradient id="linearGradient3405" x1="9.033" x2="15.626" y1="2.355" y2="18.891" gradientTransform="matrix(0.418947,0,0,0.687907,34.75998,29.60497)" gradientUnits="userSpaceOnUse" xlink:href="#linearGradient3147"/><linearGradient id="linearGradient2679"><stop id="stop2681" offset="0" stop-color="#f7f7f7" stop-opacity="1"/><stop id="stop2683" offset="1" stop-color="#ccd0c7" stop-opacity="1"/></linearGradient><linearGradient id="linearGradient3409" x1="5.028" x2="18.118" y1="11.022" y2="11.022" gradientTransform="translate(28.74998,26.00027)" gradientUnits="userSpaceOnUse" xlink:href="#linearGradient2679"/><filter id="filter5366"><feGaussianBlur id="feGaussianBlur5368" stdDeviation=".521"/></filter><radialGradient id="radialGradient5223" cx="64" cy="26.932" r="44" fx="64" fy="26.932" gradientTransform="matrix(1.1954201,0,0,0.2784785,-12.506884,12.187875)" gradientUnits="userSpaceOnUse" xlink:href="#linearGradient5225"/><linearGradient id="linearGradient5225"><stop id="stop5227" offset="0" stop-color="#fff" stop-opacity="1"/><stop id="stop5229" offset="1" stop-color="#fff" stop-opacity="0"/></linearGradient><linearGradient id="linearGradient3146" x1="61.212" x2="61.212" y1="15.015" y2="105.089" gradientTransform="matrix(1.1954201,0,0,1.1954201,-12.506884,-12.506884)" gradientUnits="userSpaceOnUse" spreadMethod="pad" xlink:href="#linearGradient4997"/><linearGradient id="linearGradient4997"><stop id="stop4999" offset="0" stop-color="#8c0000" stop-opacity="1"/><stop id="stop5001" offset="1" stop-color="#470000" stop-opacity="1"/></linearGradient><radialGradient id="radialGradient5231" cx="64" cy="21.661" r="44" fx="64" fy="21.661" gradientTransform="matrix(3.3075569,0,0,0.427102,-147.68366,4.135353)" gradientUnits="userSpaceOnUse" xlink:href="#linearGradient5225"/><radialGradient id="radialGradient5213" cx="26.031" cy="26.031" r="5.969" fx="26.031" fy="26.031" gradientTransform="matrix(4.0188417,4.0188417,-0.7071068,0.7071068,-60.177349,-96.991095)" gradientUnits="userSpaceOnUse" xlink:href="#linearGradient5225"/><filter id="filter5199" width="1.24" height="1.24" x="-.12" y="-.12"><feGaussianBlur id="feGaussianBlur5201" stdDeviation=".597"/></filter><radialGradient id="radialGradient5209" cx="26.031" cy="26.031" r="5.969" fx="26.031" fy="26.031" gradientTransform="matrix(4.0188417,4.0188417,-0.7071068,0.7071068,-60.177349,-96.991095)" gradientUnits="userSpaceOnUse" xlink:href="#linearGradient5215"/><linearGradient id="linearGradient5215"><stop id="stop5217" offset="0" stop-color="#e16e00" stop-opacity="1"/><stop id="stop5219" offset="1" stop-color="#803f00" stop-opacity="0"/></linearGradient><radialGradient id="radialGradient5205" cx="26.031" cy="26.031" r="5.969" fx="26.031" fy="26.031" gradientTransform="matrix(4.0188417,4.0188417,-0.7071068,0.7071068,-60.177349,-96.991095)" gradientUnits="userSpaceOnUse" xlink:href="#linearGradient5215"/><radialGradient id="radialGradient5193" cx="26.031" cy="26.031" r="5.969" fx="26.031" fy="26.031" gradientTransform="matrix(4.0188417,4.0188417,-0.7071068,0.7071068,-60.177349,-96.991095)" gradientUnits="userSpaceOnUse" xlink:href="#linearGradient5225"/><radialGradient id="radialGradient5023" cx="64" cy="73.475" r="40" fx="64" fy="77.238" gradientTransform="matrix(2.0783306,-9.927972e-8,6.9726035e-8,1.4596512,-69.013166,-26.914)" gradientUnits="userSpaceOnUse" xlink:href="#linearGradient5015"/><linearGradient id="linearGradient5015"><stop id="stop5017" offset="0" stop-color="#ff1212" stop-opacity="1"/><stop id="stop5019" offset="1" stop-color="#750000" stop-opacity="1"/></linearGradient><radialGradient id="radialGradient5258" cx="64" cy="82" r="37.817" fx="64" fy="82" gradientUnits="userSpaceOnUse" xlink:href="#linearGradient5252"/><linearGradient id="linearGradient5252"><stop id="stop5254" offset="0" stop-color="red" stop-opacity="1"/><stop id="stop5256" offset="1" stop-color="red" stop-opacity="0"/></linearGradient><filter id="filter5312" width="1.269" height="1.269" x="-.135" y="-.135"><feGaussianBlur id="feGaussianBlur5314" stdDeviation="4.243"/></filter><linearGradient id="linearGradient5086" x1="77.451" x2="77.451" y1="17.868" y2="89.445" gradientTransform="matrix(1.1954201,0,0,1.1954201,-12.506884,-12.506884)" gradientUnits="userSpaceOnUse" xlink:href="#linearGradient5080"/><linearGradient id="linearGradient5080"><stop id="stop5082" offset="0" stop-color="#ffb5b5" stop-opacity="1"/><stop id="stop5084" offset="1" stop-color="#ffbfbf" stop-opacity="0"/></linearGradient><linearGradient id="linearGradient5103" x1="113.419" x2="101.991" y1="76.387" y2="38.609" gradientTransform="matrix(1.1954201,0,0,1.1954201,-12.506884,-12.506884)" gradientUnits="userSpaceOnUse" xlink:href="#linearGradient5097"/><linearGradient id="linearGradient5097"><stop id="stop5099" offset="0" stop-color="#fff" stop-opacity="1"/><stop id="stop5101" offset="1" stop-color="#ffbebe" stop-opacity="0"/></linearGradient><linearGradient id="linearGradient5114" x1="77.451" x2="77.451" y1="17.868" y2="67.763" gradientTransform="matrix(1.1954201,0,0,1.1954201,-12.506884,-12.506884)" gradientUnits="userSpaceOnUse" xlink:href="#linearGradient5225"/><linearGradient id="linearGradient5138" x1="82.55" x2="82.55" y1="108.25" y2="35.434" gradientUnits="userSpaceOnUse" xlink:href="#linearGradient5132"/><linearGradient id="linearGradient5132"><stop id="stop5134" offset="0" stop-color="#ff7e00" stop-opacity="1"/><stop id="stop5136" offset="1" stop-color="#ff7e00" stop-opacity="0"/></linearGradient><filter id="filter5316"><feGaussianBlur id="feGaussianBlur5318" stdDeviation=".402"/></filter><radialGradient id="radialGradient5539" cx="62.781" cy="66.176" r="29.844" fx="62.781" fy="77.98" gradientTransform="matrix(1.3513697,0,0,1.3513697,-21.49693,-22.68578)" gradientUnits="userSpaceOnUse" xlink:href="#linearGradient3530"/><linearGradient id="linearGradient3530"><stop id="stop3532" offset="0" stop-color="#590000" stop-opacity="1"/><stop id="stop3534" offset="1" stop-color="#590000" stop-opacity="0"/></linearGradient><filter id="filter3550"><feGaussianBlur id="feGaussianBlur3552" stdDeviation="1.234"/></filter><linearGradient id="linearGradient5530" x1="68.938" x2="68.938" y1="38.906" y2="103.407" gradientTransform="translate(0.5625,0.25)" gradientUnits="userSpaceOnUse" xlink:href="#linearGradient3554"/><linearGradient id="linearGradient3554"><stop id="stop3556" offset="0" stop-color="#fff" stop-opacity="1"/><stop id="stop3558" offset="1" stop-color="#dfdfdf" stop-opacity="1"/></linearGradient><filter id="filter3576"><feGaussianBlur id="feGaussianBlur3578" stdDeviation=".577"/></filter></defs><linearGradient id="SVGID_1_" x1="-.409" x2="8.348" y1="8.857" y2="8.857" gradientTransform="matrix(1 0 0 -1 0.4204 16.8359)" gradientUnits="userSpaceOnUse"><stop id="stop4" offset=".294" stop-color="#3F3E41"/><stop id="stop6" offset=".601" stop-color="#909092"/><stop id="stop8" offset=".828" stop-color="#6F7072"/></linearGradient><path id="path10" fill="url(#SVGID_1_)" d="M2.567,1.297v13.449c0,0,0.772,1.502,5.917,1.15V0.193 C8.484,0.193,4.753-0.66,2.567,1.297z" opacity=".4"/><linearGradient id="SVGID_2_" x1="2.603" x2="7.43" y1="12.844" y2="12.844" gradientTransform="matrix(1 0 0 -1 0.4204 16.8359)" gradientUnits="userSpaceOnUse"><stop id="stop13" offset="0" stop-color="#000"/><stop id="stop15" offset=".387" stop-color="#58585A"/><stop id="stop17" offset="1" stop-color="#3F3E41"/></linearGradient><path id="path19" fill="url(#SVGID_2_)" d="M3.023,5.061V3.703c0,0,1.504-0.951,4.827-0.749v1.555 C7.851,4.508,5.529,4.256,3.023,5.061z" opacity=".4"/><linearGradient id="SVGID_3_" x1="2.603" x2="7.43" y1="14.983" y2="14.983" gradientTransform="matrix(1 0 0 -1 0.4204 16.8359)" gradientUnits="userSpaceOnUse"><stop id="stop22" offset="0" stop-color="#000"/><stop id="stop24" offset=".387" stop-color="#58585A"/><stop id="stop26" offset="1" stop-color="#3F3E41"/></linearGradient><path id="path28" fill="url(#SVGID_3_)" d="M3.023,3.003V1.649c0,0,1.457-1.305,4.827-0.852V2.25 C7.851,2.25,4.938,2.048,3.023,3.003z" opacity=".4"/><linearGradient id="SVGID_4_" x1="4.422" x2="5.299" y1="11.549" y2="10.321" gradientTransform="matrix(1 0 0 -1 0.4204 16.8359)" gradientUnits="userSpaceOnUse"><stop id="stop31" offset="0" stop-color="#FFF"/><stop id="stop33" offset=".387" stop-color="#B5B5B8"/><stop id="stop35" offset=".626" stop-color="#D9D9DA"/><stop id="stop37" offset="1" stop-color="#6F7072"/></linearGradient><path id="path39" fill="url(#SVGID_4_)" d="M5.767,5.813c0,0.332-0.247,0.604-0.549,0.604c-0.301,0-0.546-0.27-0.546-0.604 c0-0.335,0.245-0.601,0.546-0.601C5.521,5.212,5.767,5.481,5.767,5.813z" opacity=".4"/><g id="g41" opacity=".4"><path id="path43" fill="#3F3E41" d="M5.218,6.512c-0.354,0-0.642-0.313-0.642-0.699c0-0.384,0.288-0.696,0.642-0.696 c0.355,0,0.645,0.312,0.645,0.696C5.862,6.199,5.573,6.512,5.218,6.512L5.218,6.512z M5.218,5.308c-0.248,0-0.45,0.227-0.45,0.505 c0,0.28,0.202,0.508,0.45,0.508c0.25,0,0.453-0.228,0.453-0.508C5.671,5.535,5.468,5.308,5.218,5.308L5.218,5.308z"/></g><g id="g45" opacity=".4"><linearGradient id="SVGID_5_" x1="7.779" x2="20.518" y1="14.361" y2="-10.813" gradientTransform="matrix(1 0 0 -1 0.4204 16.8359)" gradientUnits="userSpaceOnUse"><stop id="stop48" offset=".233" stop-color="#B5B5B8"/><stop id="stop50" offset=".626" stop-color="#D9D9DA"/><stop id="stop52" offset="1" stop-color="#6F7072"/></linearGradient><polygon id="polygon54" fill="url(#SVGID_5_)" points="14.367 1.801 14.367 14.242 8.481 15.896 8.481 .194"/><linearGradient id="SVGID_6_" x1="8.321" x2="20.89" y1="14.367" y2="-15.527" gradientTransform="matrix(1 0 0 -1 0.4204 16.8359)" gradientUnits="userSpaceOnUse"><stop id="stop57" offset=".387" stop-color="#B5B5B8"/><stop id="stop59" offset=".626" stop-color="#D9D9DA"/><stop id="stop61" offset="1" stop-color="#6F7072"/></linearGradient><path id="path63" fill="url(#SVGID_6_)" d="M14.367,1.801v12.441l-5.886,1.654c0,0,6.104-2.674,3.575-7.54 C9.257,2.969,14.367,1.801,14.367,1.801z"/></g><g id="g72240" transform="matrix(0.0804,0,0,0.0804,5.7789288,5.6539284)"><rect id="rect5320" width="95.634" height="95.634" x="16.183" y="16.183" fill="#9c0f0f" fill-opacity="1" stroke="#9c0f0f" stroke-dasharray="none" stroke-miterlimit="4" stroke-opacity="1" stroke-width="8.5" filter="url(#filter5366)" opacity=".75" rx="6.005" ry="6.005"/><rect id="rect5221" width="95.634" height="95.634" x="16.183" y="16.183" fill="none" fill-opacity="1" stroke="url(#radialGradient5223)" stroke-dasharray="none" stroke-miterlimit="4" stroke-opacity="1" stroke-width="8" opacity="1" rx="6.005" ry="6.005"/><rect id="rect2160" width="95.634" height="95.634" x="16.183" y="16.183" fill="none" fill-opacity="1" stroke="url(#linearGradient3146)" stroke-dasharray="none" stroke-miterlimit="4" stroke-opacity="1" stroke-width="8" opacity="1" rx="6.005" ry="6.005"/><rect id="rect5029" width="95.634" height="95.634" x="16.183" y="16.183" fill="none" fill-opacity="1" stroke="url(#radialGradient5231)" stroke-dasharray="none" stroke-miterlimit="4" stroke-opacity="1" stroke-width="8" opacity=".727" rx="6.005" ry="6.005"/><path id="path5211" fill="url(#radialGradient5213)" fill-opacity="1" stroke="none" stroke-dasharray="none" stroke-miterlimit="4" stroke-opacity="1" stroke-width="8" d="m 28.03125,20.0625 c -4.139326,0.473587 -7.495163,3.829424 -7.96875,7.96875 L 32,32 Z" filter="url(#filter5199)" opacity=".6" transform="matrix(-1.0246293e-7,1.1954199,-1.1954199,-1.0246293e-7,140.50776,-12.509486)"/><path id="path5207" fill="url(#radialGradient5209)" fill-opacity="1" stroke="none" stroke-dasharray="none" stroke-miterlimit="4" stroke-opacity="1" stroke-width="8" d="m 28.03125,20.0625 c -4.139326,0.473587 -7.495163,3.829424 -7.96875,7.96875 L 32,32 Z" filter="url(#filter5199)" opacity=".517" transform="matrix(-1.1954199,-1.0246293e-7,1.0246293e-7,-1.1954199,140.51037,140.50515)"/><path id="path5203" fill="url(#radialGradient5205)" fill-opacity="1" stroke="none" stroke-dasharray="none" stroke-miterlimit="4" stroke-opacity="1" stroke-width="8" d="m 28.03125,20.0625 c -4.139326,0.473587 -7.495163,3.829424 -7.96875,7.96875 L 32,32 Z" filter="url(#filter5199)" opacity=".517" transform="matrix(1.0246293e-7,-1.1954199,1.1954199,1.0246293e-7,-12.504272,140.50777)"/><path id="path5176" fill="url(#radialGradient5193)" fill-opacity="1" stroke="none" stroke-dasharray="none" stroke-miterlimit="4" stroke-opacity="1" stroke-width="8" d="m 28.03125,20.0625 c -4.139326,0.473587 -7.495163,3.829424 -7.96875,7.96875 L 32,32 Z" filter="url(#filter5199)" opacity=".75" transform="matrix(1.1954201,0,0,1.1954201,-12.506884,-12.506884)"/><rect id="rect2164" width="95.634" height="95.634" x="16.183" y="16.183" fill="url(#radialGradient5023)" fill-opacity="1" stroke="none" stroke-dasharray="none" stroke-miterlimit="4" stroke-opacity="1" stroke-width=".5" opacity="1" rx="6.245" ry="6.245"/><rect id="rect5248" width="75.634" height="75.634" x="26.183" y="26.183" fill="url(#radialGradient5258)" fill-opacity="1" stroke="none" stroke-dasharray="none" stroke-miterlimit="4" stroke-opacity="1" stroke-width=".5" filter="url(#filter5312)" opacity="1" rx="25.502" ry="25.502" transform="matrix(1.1322164,0,0,1.0793299,-8.4618486,-3.0771092)"/><path id="rect5073" fill="url(#linearGradient5086)" fill-opacity="1" stroke="none" stroke-dasharray="none" stroke-miterlimit="4" stroke-opacity="1" stroke-width=".5" d="m 22.421796,16.183197 c -3.459986,0 -6.238599,2.778612 -6.238599,6.238599 v 42.1012 c 12.542408,2.732009 26.264524,4.258683 40.644282,4.258683 20.094497,0 38.89047,-2.951395 54.989321,-8.069085 V 22.421796 c 0,-3.459986 -2.77862,-6.238599 -6.2386,-6.238599 z" opacity="1"/><path id="path5088" fill="url(#linearGradient5103)" fill-opacity="1" stroke="none" stroke-dasharray="none" stroke-miterlimit="4" stroke-opacity="1" stroke-width=".5" d="m 110.88288,19.171747 c 0.18415,0.595458 0.2615,1.247121 0.2615,1.905201 V 59.9281 c -16.33045,5.191311 -35.390248,8.181154 -55.773819,8.181156 -13.823048,0 -27.013182,-1.418387 -39.187364,-3.922472 v 0.336212 c 12.542408,2.732009 26.264524,4.258683 40.644282,4.258683 20.094497,0 38.89047,-2.951395 54.989321,-8.069085 V 22.421796 c 0,-1.196876 -0.35576,-2.30305 -0.93392,-3.250049 z" opacity="1"/><path id="path5105" fill="url(#linearGradient5114)" fill-opacity="1" stroke="none" stroke-dasharray="none" stroke-miterlimit="4" stroke-opacity="1" stroke-width=".5" d="m 22.421796,16.183197 c -3.459986,0 -6.238599,2.778612 -6.238599,6.238599 v 42.1012 c 0.481489,0.104879 0.971982,0.197546 1.456918,0.298855 v -40.79371 c 0,-3.428383 2.696118,-6.163884 6.051814,-6.163884 h 80.616141 c 3.35569,0 6.05181,2.735501 6.05181,6.163884 v 37.132736 c 0.48366,-0.148391 0.978,-0.296037 1.45692,-0.448283 V 22.421796 c 0,-3.459986 -2.77862,-6.238599 -6.2386,-6.238599 z" opacity="1"/><rect id="rect5122" width="80" height="80" x="24" y="24" fill="none" fill-opacity="1" stroke="url(#linearGradient5138)" stroke-dasharray="none" stroke-miterlimit="4" stroke-opacity="1" stroke-width=".418" filter="url(#filter5316)" opacity="1" rx="5.224" ry="5.224" transform="matrix(1.1954201,0,0,1.1954201,-12.506884,-12.506884)"/><path id="path3528" fill="none" fill-opacity="1" stroke="url(#radialGradient5539)" stroke-dasharray="none" stroke-linecap="round" stroke-linejoin="round" stroke-miterlimit="4" stroke-opacity="1" stroke-width="5" d="M 46.3125,35.8125 34.5,47.59375 51.5625,64.65625 34.5,81.6875 46.3125,93.5 63.34375,76.4375 80.40625,93.5 92.1875,81.6875 75.15625,64.65625 92.1875,47.59375 80.40625,35.8125 63.34375,52.84375 Z" filter="url(#filter3550)"/><path id="rect3376" fill="url(#linearGradient5530)" fill-opacity="1" stroke="none" stroke-dasharray="none" stroke-linecap="round" stroke-linejoin="round" stroke-miterlimit="4" stroke-opacity="1" stroke-width=".885" d="M 46.3125,35.8125 34.5,47.59375 51.5625,64.65625 34.5,81.6875 46.3125,93.5 63.34375,76.4375 80.40625,93.5 92.1875,81.6875 75.15625,64.65625 92.1875,47.59375 80.40625,35.8125 63.34375,52.84375 Z"/><path id="path3381" fill="none" fill-opacity="1" stroke="none" stroke-dasharray="none" stroke-linecap="round" stroke-linejoin="round" stroke-miterlimit="4" stroke-opacity="1" stroke-width=".885" d="M 46.3125,35.8125 34.5,47.59375 51.5625,64.65625 34.5,81.6875 46.3125,93.5 63.34375,76.4375 80.40625,93.5 92.1875,81.6875 75.15625,64.65625 92.1875,47.59375 80.40625,35.8125 63.34375,52.84375 Z"/><path id="path3566" fill="#fff" fill-opacity="1" stroke="none" stroke-dasharray="none" stroke-linecap="round" stroke-linejoin="round" stroke-miterlimit="4" stroke-opacity="1" stroke-width=".885" d="M 46.3125,35.8125 34.5,47.59375 51.5625,64.65625 48.59375,67.625 c 5.04146,0.77689 10.40123,1.1875 15.96875,1.1875 4.79161,0 9.42877,-0.32448 13.84375,-0.90625 l -3.25,-3.25 L 92.1875,47.59375 80.40625,35.8125 63.34375,52.84375 Z" filter="url(#filter3576)"/></g></svg>