<svg xmlns="http://www.w3.org/2000/svg" xmlns:svg="http://www.w3.org/2000/svg" xmlns:xlink="http://www.w3.org/1999/xlink" id="svg2811" width="20" height="20" version="1.0"><defs id="defs2813"><linearGradient id="linearGradient3067" x1="122.744" x2="122.392" y1="96.722" y2="20.044" gradientTransform="matrix(1.0033808,0,0,1,-8.2378002,8)" gradientUnits="userSpaceOnUse"><stop id="stop3069" offset="0" stop-color="#0055f2" stop-opacity="1"/><stop id="stop3077" offset=".131" stop-color="#5ca9ff" stop-opacity="1"/><stop id="stop3071" offset=".72" stop-color="#106ced" stop-opacity="1"/><stop id="stop3073" offset="1" stop-color="#3462d3" stop-opacity="1"/></linearGradient><linearGradient id="linearGradient2822"><stop id="stop2824" offset="0" stop-color="#fff" stop-opacity="1"/><stop id="stop2826" offset="1" stop-color="#fff" stop-opacity="0"/></linearGradient><linearGradient id="XMLID_9_" x1="71.999" x2="71.999" y1="14.258" y2="19.958" gradientTransform="matrix(0.1565204,0,0,0.1559992,-1.2850391,2.4531236)" gradientUnits="userSpaceOnUse"><stop id="stop46" offset=".25" stop-color="#71a8f5" stop-opacity="0"/><stop id="stop48" offset="1" stop-color="#0057ae" stop-opacity="1"/></linearGradient><linearGradient id="XMLID_8_" x1="72.001" x2="72.001" y1="96" y2="20" gradientTransform="matrix(1.0033876,0,0,1,1.7561237,8)" gradientUnits="userSpaceOnUse"><stop id="stop35" offset="0" stop-color="#cfe7ff" stop-opacity="1"/><stop id="stop37" offset=".592" stop-color="#71A8F5"/><stop id="stop39" offset="1" stop-color="#2C72C7"/></linearGradient><filter id="filter2807" width="1.051" height="1.768" x="-.026" y="-.384"><feGaussianBlur id="feGaussianBlur2809" stdDeviation="1.28"/></filter><linearGradient id="XMLID_6_" x1="72.001" x2="72.001" y1="96" y2="0" gradientTransform="matrix(0.1559992,0,0,0.1559992,-1.2479934,2.4531236)" gradientUnits="userSpaceOnUse"><stop id="stop7" offset="0" stop-color="#001f81" stop-opacity="1"/><stop id="stop9" offset=".077" stop-color="#2451a4" stop-opacity="1"/><stop id="stop11" offset=".586" stop-color="#299ebe" stop-opacity="1"/><stop id="stop13" offset=".965" stop-color="#8ba7e7" stop-opacity="1"/></linearGradient><linearGradient id="linearGradient2828" x1="22.414" x2="22.414" y1="28.5" y2="34.473" gradientTransform="translate(10,0)" gradientUnits="userSpaceOnUse" xlink:href="#linearGradient2822"/><linearGradient id="linearGradient2838" x1="72.001" x2="72.001" y1="96" y2="20" gradientTransform="matrix(0.1565277,0,0,0.1559992,-1.2860388,2.4531236)" gradientUnits="userSpaceOnUse" xlink:href="#XMLID_8_"/><clipPath id="clipPath2844" clipPathUnits="userSpaceOnUse"><path id="path2846" fill="#ff00bf" d="M 133.86613,100.978 C 133.79288,102.369 132.59585,103.5 131.19913,103.5 L 16.812952,103.5 C 15.415236,103.5 14.2192,102.368 14.145947,100.979 C 14.145947,100.979 10.508666,30.967 10.508666,30.957 C 10.461513,30.301 10.673223,29.685 11.105684,29.22 C 11.539144,28.756 12.140172,28.501 12.799403,28.501 L 135.21268,28.501 C 135.8719,28.501 136.47293,28.756 136.90339,29.219 C 137.33384,29.682 137.54254,30.298 137.49137,30.966 L 133.86613,100.978 z"/></clipPath><filter id="filter2848" width="1.025" height="1.83" x="-.012" y="-.415"><feGaussianBlur id="feGaussianBlur2850" stdDeviation=".654"/></filter><linearGradient id="linearGradient3109" x1="122.744" x2="122.744" y1="96.722" y2="20" gradientTransform="matrix(0.1565266,0,0,0.1559992,-1.2850908,2.4531236)" gradientUnits="userSpaceOnUse" xlink:href="#linearGradient3067"/></defs><metadata id="metadata2816"/><g id="layer1"><path id="path15" fill="url(#XMLID_6_)" d="M 18.405263,4.1691159 C 18.406667,3.911717 18.197314,3.701118 17.939916,3.701118 L 7.0138847,3.701118 L 5.9864733,2.6737066 C 5.8651057,2.5523392 5.6254908,2.4531236 5.4538909,2.4531236 L 2.1839895,2.4531236 C 1.8407908,2.4531236 1.5599926,2.7339223 1.5599926,3.0771207 L 1.5599926,4.1691159 C 1.5599926,4.1691159 1.7159919,17.429059 1.0919949,17.429059 L 18.875913,17.429059 C 18.251914,17.429059 18.405263,4.1691159 18.405263,4.1691159 z"/><g id="g17" filter="url(#filter2807)" opacity=".6" transform="matrix(0.1565204,0,0,0.1559992,-1.2850391,2.4531236)"><path id="path19" d="M 132,96 C 132,98.2 128.4,100 124,100 L 20,100 C 15.6,100 12,98.2 12,96 C 12,93.8 15.6,92 20,92 L 124,92 C 128.4,92 132,93.8 132,96 z"/></g><path id="path30" fill="url(#linearGradient3109)" fill-opacity="1" d="M 19.401003,16.961684 C 19.387542,17.218772 19.165118,17.429059 18.906849,17.429059 L 1.0628084,17.429059 C 0.80453961,17.429059 0.58211472,17.218772 0.56849694,16.961684 L 0.0012451868,6.0398588 C -0.017537906,5.7832403 0.17843322,5.5731093 0.43670189,5.5731093 L 19.532955,5.5731093 C 19.791224,5.5731093 19.986256,5.7830837 19.966535,6.0397031 L 19.401003,16.961684 z" opacity=".9"/><path id="path32" fill="#5293ee" fill-opacity="1" d="M 1.650487,5.5731093 C 1.6459618,4.8881162 1.640502,4.3862669 1.6380046,4.1691159 L 1.6380046,3.0771207 C 1.6380046,2.7760421 1.8829628,2.5311233 2.1840877,2.5311233 L 5.4545025,2.5311233 C 5.606158,2.5311233 5.8249029,2.6217588 5.9320922,2.7289303 L 6.9824428,3.7791174 L 17.942488,3.7791174 C 18.046089,3.7791174 18.143447,3.8196773 18.216934,3.8934651 C 18.290421,3.9672525 18.330675,4.065064 18.330051,4.1686479 C 18.330051,4.1686479 18.341284,4.1574159 18.347058,4.1516434 C 18.328023,4.2463355 18.325995,4.4907861 18.321627,5.1302268 L 18.320067,5.5731093 L 18.39683,5.5731093 C 18.401665,4.7101213 18.407907,4.1691159 18.407907,4.1691159 C 18.409312,3.911717 18.199927,3.701118 17.942488,3.701118 L 7.0147411,3.701118 L 5.9871686,2.6737066 C 5.8657819,2.5523392 5.6261294,2.4531236 5.4545025,2.4531236 L 2.1840877,2.4531236 C 1.8408352,2.4531236 1.5599927,2.7339223 1.5599927,3.0771207 L 1.5599927,4.1691159 C 1.5599927,4.1691159 1.5663902,4.7101213 1.5713835,5.5731093 L 1.650487,5.5731093 z"/><path id="path50" fill="url(#XMLID_9_)" d="M 1.5420313,4.6371137 C 1.5434399,4.9101121 1.5448487,5.2228904 1.5461013,5.5731093 L 18.422752,5.5731093 C 18.424161,5.2228904 18.42557,4.9101121 18.426822,4.6371137 L 1.5420313,4.6371137 z" opacity=".5"/><path id="path2788" fill="url(#linearGradient2828)" fill-opacity="1" d="M 12.8125,28.5 C 12.153269,28.5 11.52721,28.754751 11.09375,29.21875 C 10.661289,29.68375 10.452847,30.312749 10.5,30.96875 C 10.5,30.968937 10.559992,32.232788 10.5625,32.28125 C 10.647737,31.886257 10.815287,31.518165 11.09375,31.21875 C 11.52721,30.754751 12.153269,30.5 12.8125,30.5 L 135.21875,30.5 C 135.87797,30.500001 136.47579,30.75575 136.90625,31.21875 C 137.18342,31.516877 137.35439,31.883216 137.4375,32.28125 L 137.5,30.96875 C 137.55117,30.30075 137.3367,29.68175 136.90625,29.21875 C 136.47579,28.75575 135.87797,28.500001 135.21875,28.5 L 12.8125,28.5 z" clip-path="url(#clipPath2844)" filter="url(#filter2848)" transform="matrix(0.1559992,0,0,0.1559992,-1.5599927,1.2051294)"/><path id="path2836" fill="url(#linearGradient2838)" d="M 19.533088,5.5731093 L 0.43670486,5.5731093 C 0.17843432,5.5731093 -0.017538015,5.7832403 0.0012451868,6.0398588 L 0.56865841,16.961684 C 0.58211865,17.218772 0.80454506,17.429059 1.0628156,17.429059 L 18.906977,17.429059 C 19.165247,17.429059 19.387673,17.218772 19.401134,16.961684 L 19.966513,6.0397031 C 19.986392,5.7830837 19.791359,5.5731093 19.533088,5.5731093 z M 19.323027,16.957629 C 19.311599,17.174623 19.124864,17.351059 18.906977,17.351059 L 1.0628156,17.351059 C 0.84477291,17.351059 0.65819216,17.174468 0.64676473,16.957785 C 0.64676473,16.957785 0.079351529,6.0359591 0.079351529,6.0343986 C 0.071995694,5.9320636 0.1050223,5.8359675 0.17248591,5.7634278 C 0.24010535,5.6910447 0.33386528,5.6512649 0.43670486,5.6512649 L 19.533088,5.6512649 C 19.635925,5.6512649 19.729686,5.6910447 19.796837,5.7632721 C 19.863987,5.8354995 19.896544,5.9315956 19.888561,6.0358026 L 19.323027,16.957629 z"/></g></svg>