<svg xmlns="http://www.w3.org/2000/svg" xmlns:svg="http://www.w3.org/2000/svg" xmlns:xlink="http://www.w3.org/1999/xlink" id="Ebene_1" width="16" height="16" x="0" y="0" enable-background="new 0 0 16 16" version="1.1" viewBox="0 0 16 16" xml:space="preserve"><metadata id="metadata68"/><defs id="defs66"><linearGradient id="linearGradient3147"><stop id="stop3149" offset="0" stop-color="#8ae234" stop-opacity="1"/><stop id="stop3151" offset="1" stop-color="#4f9a05" stop-opacity="1"/></linearGradient><linearGradient id="linearGradient3405" x1="9.033" x2="15.626" y1="2.355" y2="18.891" gradientTransform="matrix(0.418947,0,0,0.687907,34.75998,29.60497)" gradientUnits="userSpaceOnUse" xlink:href="#linearGradient3147"/><linearGradient id="linearGradient2679"><stop id="stop2681" offset="0" stop-color="#f7f7f7" stop-opacity="1"/><stop id="stop2683" offset="1" stop-color="#ccd0c7" stop-opacity="1"/></linearGradient><linearGradient id="linearGradient3409" x1="5.028" x2="18.118" y1="11.022" y2="11.022" gradientTransform="translate(28.74998,26.00027)" gradientUnits="userSpaceOnUse" xlink:href="#linearGradient2679"/><linearGradient id="linearGradient15792" x1="30.416" x2="109.244" y1="62.733" y2="62.733" gradientUnits="userSpaceOnUse" xlink:href="#linearGradient15786"/><linearGradient id="linearGradient15786"><stop id="stop15788" offset="0" stop-color="#69c" stop-opacity="1"/><stop id="stop15790" offset="1" stop-color="#369" stop-opacity="1"/></linearGradient><linearGradient id="linearGradient17738" x1="30.416" x2="109.244" y1="62.733" y2="62.733" gradientUnits="userSpaceOnUse" xlink:href="#linearGradient17732"/><linearGradient id="linearGradient17732"><stop id="stop17734" offset="0" stop-color="#004c99" stop-opacity="1"/><stop id="stop17736" offset="1" stop-color="#a0d0ff" stop-opacity="1"/></linearGradient><filter id="filter3143"><feGaussianBlur id="feGaussianBlur3145" stdDeviation="3.153"/></filter><linearGradient id="linearGradient9938" x1="62.606" x2="62.606" y1="56.016" y2="83.39" gradientUnits="userSpaceOnUse" xlink:href="#linearGradient4112"/><linearGradient id="linearGradient4112"><stop id="stop4114" offset="0" stop-color="#fff" stop-opacity="1"/><stop id="stop4116" offset="1" stop-color="#ccc" stop-opacity="1"/></linearGradient><linearGradient id="linearGradient8196" x1="71.35" x2="71.35" y1="12.866" y2="70.948" gradientUnits="userSpaceOnUse" xlink:href="#linearGradient8190"/><linearGradient id="linearGradient8190"><stop id="stop8192" offset="0" stop-color="#fff" stop-opacity="1"/><stop id="stop8194" offset="1" stop-color="#fff" stop-opacity="0"/></linearGradient><linearGradient id="linearGradient4237" x1="64" x2="63.766" y1="60" y2="27.906" gradientTransform="rotate(-30,75.46415,61.999811)" gradientUnits="userSpaceOnUse" xlink:href="#linearGradient4242"/><linearGradient id="linearGradient4242"><stop id="stop4244" offset="0" stop-color="#888" stop-opacity="1"/><stop id="stop4246" offset="1" stop-color="#666" stop-opacity="1"/></linearGradient><linearGradient id="linearGradient4240" x1="72.667" x2="108.5" y1="64" y2="64" gradientTransform="rotate(-30,65.999998,60.535899)" gradientUnits="userSpaceOnUse" xlink:href="#linearGradient4242"/><linearGradient id="linearGradient12857" x1="55.154" x2="71.418" y1="64.36" y2="64.36" gradientUnits="userSpaceOnUse" xlink:href="#linearGradient12851"/><linearGradient id="linearGradient12851"><stop id="stop12853" offset="0" stop-color="#666" stop-opacity="1"/><stop id="stop12855" offset="1" stop-color="#333" stop-opacity="1"/></linearGradient><linearGradient id="linearGradient12866" x1="55.154" x2="71.418" y1="64.36" y2="64.36" gradientUnits="userSpaceOnUse" xlink:href="#linearGradient8190"/></defs><linearGradient id="SVGID_1_" x1="-.409" x2="8.348" y1="8.857" y2="8.857" gradientTransform="matrix(1 0 0 -1 0.4204 16.8359)" gradientUnits="userSpaceOnUse"><stop id="stop4" offset=".294" stop-color="#3F3E41"/><stop id="stop6" offset=".601" stop-color="#909092"/><stop id="stop8" offset=".828" stop-color="#6F7072"/></linearGradient><path id="path10" fill="url(#SVGID_1_)" d="M2.567,1.297v13.449c0,0,0.772,1.502,5.917,1.15V0.193 C8.484,0.193,4.753-0.66,2.567,1.297z" opacity=".4"/><linearGradient id="SVGID_2_" x1="2.603" x2="7.43" y1="12.844" y2="12.844" gradientTransform="matrix(1 0 0 -1 0.4204 16.8359)" gradientUnits="userSpaceOnUse"><stop id="stop13" offset="0" stop-color="#000"/><stop id="stop15" offset=".387" stop-color="#58585A"/><stop id="stop17" offset="1" stop-color="#3F3E41"/></linearGradient><path id="path19" fill="url(#SVGID_2_)" d="M3.023,5.061V3.703c0,0,1.504-0.951,4.827-0.749v1.555 C7.851,4.508,5.529,4.256,3.023,5.061z" opacity=".4"/><linearGradient id="SVGID_3_" x1="2.603" x2="7.43" y1="14.983" y2="14.983" gradientTransform="matrix(1 0 0 -1 0.4204 16.8359)" gradientUnits="userSpaceOnUse"><stop id="stop22" offset="0" stop-color="#000"/><stop id="stop24" offset=".387" stop-color="#58585A"/><stop id="stop26" offset="1" stop-color="#3F3E41"/></linearGradient><path id="path28" fill="url(#SVGID_3_)" d="M3.023,3.003V1.649c0,0,1.457-1.305,4.827-0.852V2.25 C7.851,2.25,4.938,2.048,3.023,3.003z" opacity=".4"/><linearGradient id="SVGID_4_" x1="4.422" x2="5.299" y1="11.549" y2="10.321" gradientTransform="matrix(1 0 0 -1 0.4204 16.8359)" gradientUnits="userSpaceOnUse"><stop id="stop31" offset="0" stop-color="#FFF"/><stop id="stop33" offset=".387" stop-color="#B5B5B8"/><stop id="stop35" offset=".626" stop-color="#D9D9DA"/><stop id="stop37" offset="1" stop-color="#6F7072"/></linearGradient><path id="path39" fill="url(#SVGID_4_)" d="M5.767,5.813c0,0.332-0.247,0.604-0.549,0.604c-0.301,0-0.546-0.27-0.546-0.604 c0-0.335,0.245-0.601,0.546-0.601C5.521,5.212,5.767,5.481,5.767,5.813z" opacity=".4"/><g id="g41" opacity=".4"><path id="path43" fill="#3F3E41" d="M5.218,6.512c-0.354,0-0.642-0.313-0.642-0.699c0-0.384,0.288-0.696,0.642-0.696 c0.355,0,0.645,0.312,0.645,0.696C5.862,6.199,5.573,6.512,5.218,6.512L5.218,6.512z M5.218,5.308c-0.248,0-0.45,0.227-0.45,0.505 c0,0.28,0.202,0.508,0.45,0.508c0.25,0,0.453-0.228,0.453-0.508C5.671,5.535,5.468,5.308,5.218,5.308L5.218,5.308z"/></g><g id="g45" opacity=".4"><linearGradient id="SVGID_5_" x1="7.779" x2="20.518" y1="14.361" y2="-10.813" gradientTransform="matrix(1 0 0 -1 0.4204 16.8359)" gradientUnits="userSpaceOnUse"><stop id="stop48" offset=".233" stop-color="#B5B5B8"/><stop id="stop50" offset=".626" stop-color="#D9D9DA"/><stop id="stop52" offset="1" stop-color="#6F7072"/></linearGradient><polygon id="polygon54" fill="url(#SVGID_5_)" points="14.367 1.801 14.367 14.242 8.481 15.896 8.481 .194"/><linearGradient id="SVGID_6_" x1="8.321" x2="20.89" y1="14.367" y2="-15.527" gradientTransform="matrix(1 0 0 -1 0.4204 16.8359)" gradientUnits="userSpaceOnUse"><stop id="stop57" offset=".387" stop-color="#B5B5B8"/><stop id="stop59" offset=".626" stop-color="#D9D9DA"/><stop id="stop61" offset="1" stop-color="#6F7072"/></linearGradient><path id="path63" fill="url(#SVGID_6_)" d="M14.367,1.801v12.441l-5.886,1.654c0,0,6.104-2.674,3.575-7.54 C9.257,2.969,14.367,1.801,14.367,1.801z"/></g><g id="g303468" transform="matrix(0.07,0,0,0.07,6.1387047,6.1674816)"><circle id="path2358" cx="69.83" cy="62.733" r="39.414" fill="url(#linearGradient15792)" fill-opacity="1" stroke="none" stroke-dasharray="none" stroke-miterlimit="0" stroke-opacity="1" stroke-width="1.356" opacity="1" transform="matrix(0,1.6237943,-1.6237943,0,165.86496,-49.389074)"/><circle id="path5267" cx="69.83" cy="62.733" r="39.414" fill="url(#linearGradient17738)" fill-opacity="1" stroke="none" stroke-dasharray="none" stroke-miterlimit="0" stroke-opacity="1" stroke-width="1.356" filter="url(#filter3143)" opacity="1" transform="matrix(-1.0087051e-7,1.3193328,-1.4208199,0,153.13184,-28.128621)"/><circle id="path9167" cx="62.606" cy="69.703" r="13.687" fill="url(#linearGradient9938)" fill-opacity="1" stroke="none" stroke-dasharray="none" stroke-miterlimit="0" stroke-opacity="1" stroke-width="1.903" opacity="1" transform="matrix(3.5069442,0,0,-3.5069443,-155.55554,308.44444)"/><ellipse id="path7219" cx="71.35" cy="44.483" fill="url(#linearGradient8196)" fill-opacity="1" stroke="none" stroke-dasharray="none" stroke-miterlimit="0" stroke-opacity="1" stroke-width="1.903" opacity=".8" rx="33.584" ry="24.459" transform="matrix(1.1910377,0,0,1.2265221,-20.98113,-4.5595891)"/><path id="rect12859" fill="url(#linearGradient4237)" fill-opacity="1" stroke="none" stroke-linejoin="round" stroke-miterlimit="0" stroke-opacity="1" stroke-width="16" d="M 47.071899,43.751288 46.536,34.823085 l 7.464102,4.928203 14,24.248712 -6.928203,4 z"/><path id="path2274" fill="url(#linearGradient4240)" fill-opacity="1" stroke="none" stroke-linejoin="round" stroke-miterlimit="0" stroke-opacity="1" stroke-width="16" d="m 98.64102,41.071797 8.9282,-0.535899 L 102.64102,48 68,68 64,61.071797 Z"/><circle id="path11880" cx="63.286" cy="64.36" r="8.132" fill="url(#linearGradient12857)" fill-opacity="1" stroke="none" stroke-dasharray="none" stroke-linejoin="round" stroke-miterlimit="0" stroke-opacity="1" stroke-width="16" transform="matrix(0,0.9838011,-0.9838005,0,127.31778,1.7391021)"/><circle id="path12864" cx="63.286" cy="64.36" r="8.132" fill="url(#linearGradient12866)" fill-opacity="1" stroke="none" stroke-dasharray="none" stroke-linejoin="round" stroke-miterlimit="0" stroke-opacity="1" stroke-width="16" opacity=".6" transform="matrix(0,-0.4919007,-0.4919007,0,95.658919,93.130458)"/></g></svg>