<svg xmlns="http://www.w3.org/2000/svg" xmlns:svg="http://www.w3.org/2000/svg" xmlns:xlink="http://www.w3.org/1999/xlink" id="Ebene_1" width="16" height="16" x="0" y="0" enable-background="new 0 0 16 16" version="1.1" viewBox="0 0 16 16" xml:space="preserve"><metadata id="metadata68"/><defs id="defs66"><filter id="filter4055"><feGaussianBlur id="feGaussianBlur4057" stdDeviation=".164"/></filter><linearGradient id="linearGradient3460" x1="4.361" x2="7.356" y1="339.126" y2="232.55" gradientTransform="translate(75.660426,5.6568543)" gradientUnits="userSpaceOnUse" xlink:href="#linearGradient2929"/><filter id="filter4076"><feGaussianBlur id="feGaussianBlur4078" stdDeviation=".275"/></filter><linearGradient id="linearGradient2929"><stop id="stop2931" offset="0" stop-color="#efa040" stop-opacity="1"/><stop id="stop2933" offset="1" stop-color="#c0a331" stop-opacity="0"/></linearGradient><linearGradient id="linearGradient3456" x1="4.361" x2="7.356" y1="339.126" y2="232.55" gradientTransform="translate(75.660426,5.6568543)" gradientUnits="userSpaceOnUse" xlink:href="#linearGradient2929"/><linearGradient id="linearGradient3467" x1="-13.206" x2="-84.773" y1="84.704" y2="19.431" gradientTransform="matrix(1.0117554,0,0,1.0117554,144.97897,15.322867)" gradientUnits="userSpaceOnUse" xlink:href="#linearGradient3260-778"/><linearGradient id="linearGradient3471" x1="-89.75" x2="-73.813" y1="-29" y2="76" gradientTransform="matrix(1.0117554,0,0,1.0117554,144.88314,15.221692)" gradientUnits="userSpaceOnUse" xlink:href="#linearGradient3260-778"/><linearGradient id="linearGradient3474" x1="-89.75" x2="-73.813" y1="-29" y2="76" gradientTransform="matrix(1.0117554,0,0,1.0117554,145.1695,15.436852)" gradientUnits="userSpaceOnUse" xlink:href="#linearGradient3598"/><linearGradient id="linearGradient3527"><stop id="stop3529" offset="0" stop-color="red" stop-opacity="1"/><stop id="stop3531" offset="1" stop-color="#7f0000" stop-opacity="1"/></linearGradient><radialGradient id="radialGradient3477" cx="-79.25" cy="81.75" r="43.5" fx="-79.25" fy="81.75" gradientTransform="matrix(1.2632322,0,0,1.5245906,165.09903,-31.579826)" gradientUnits="userSpaceOnUse" xlink:href="#linearGradient3527"/><filter id="filter4176" width="1.173" height="1.207" x="-.087" y="-.104"><feGaussianBlur id="feGaussianBlur4178" stdDeviation="1.31"/></filter><linearGradient id="linearGradient3260-778"><stop id="stop2489" offset="0" stop-color="#fff" stop-opacity="1"/><stop id="stop2491" offset="1" stop-color="#fff" stop-opacity="0"/></linearGradient><radialGradient id="radialGradient3446" cx="-830.375" cy="275.741" r="18.125" fx="-830.375" fy="275.741" gradientTransform="matrix(0.383106,0.3947293,-1.3121017,1.2734652,-149.51024,248.31073)" gradientUnits="userSpaceOnUse" xlink:href="#linearGradient3260-778"/><filter id="filter4248" width="1.109" height="1.516" x="-.054" y="-.258"><feGaussianBlur id="feGaussianBlur4250" stdDeviation=".669"/></filter><linearGradient id="linearGradient3598"><stop id="stop3600" offset="0" stop-color="#ffbfbf" stop-opacity="1"/><stop id="stop3602" offset="1" stop-color="#ffbfbf" stop-opacity="0"/></linearGradient><radialGradient id="radialGradient3444" cx="-825.225" cy="337.203" r="14.766" fx="-825.225" fy="337.203" gradientTransform="matrix(1,-5.9653348e-8,1.4682541e-7,2.4613106,-4.8987084e-5,-487.55424)" gradientUnits="userSpaceOnUse" xlink:href="#linearGradient3598"/><filter id="filter4202" width="1.081" height="1.256" x="-.04" y="-.128"><feGaussianBlur id="feGaussianBlur4204" stdDeviation=".598"/></filter><linearGradient id="linearGradient3706"><stop id="stop3708" offset="0" stop-color="#fff" stop-opacity="1"/><stop id="stop3710" offset="1" stop-color="#fff" stop-opacity="0"/></linearGradient><radialGradient id="radialGradient3442" cx="-825.971" cy="315.764" r="17.75" fx="-825.971" fy="315.764" gradientTransform="matrix(1,0,0,0.3160957,0,222.83692)" gradientUnits="userSpaceOnUse" xlink:href="#linearGradient3706"/><filter id="filter4134"><feGaussianBlur id="feGaussianBlur4136" stdDeviation=".287"/></filter><linearGradient id="linearGradient3835"><stop id="stop3837" offset="0" stop-color="#fff" stop-opacity="1"/><stop id="stop3839" offset="1" stop-color="#fff" stop-opacity="0"/></linearGradient><radialGradient id="radialGradient3440" cx="-824.581" cy="232.61" r="23.938" fx="-824.581" fy="232.61" gradientTransform="matrix(1,7.1693163e-7,-7.7186683e-7,1.0766255,1.795441e-4,-17.823295)" gradientUnits="userSpaceOnUse" xlink:href="#linearGradient3835"/><clipPath id="clipPath4258"><path id="path4260" fill="url(#linearGradient4262)" fill-opacity="1" stroke="none" stroke-dasharray="none" stroke-dashoffset="4.15" stroke-linecap="square" stroke-linejoin="miter" stroke-miterlimit="4" stroke-opacity="1" stroke-width="7.087" d="M -826.90422,227.34375 C -858.62937,227.34375 -884.43547,253.14985 -884.43547,284.875 C -884.43547,316.60015 -858.62937,342.40625 -826.90422,342.40625 C -795.17907,342.40625 -769.34172,316.60015 -769.34172,284.875 C -769.34172,253.14985 -795.17907,227.34375 -826.90422,227.34375 z M -826.90422,245.65625 C -819.86019,245.65625 -813.29975,247.56932 -807.59172,250.8125 L -860.96672,304.1875 C -864.2099,298.47948 -866.12297,291.91903 -866.12297,284.875 C -866.12297,263.18697 -848.59225,245.65625 -826.90422,245.65625 z M -791.34172,268.4375 C -789.0134,273.43966 -787.68547,278.99177 -787.68547,284.875 C -787.68547,306.56303 -805.2162,324.09375 -826.90422,324.09375 C -832.78745,324.09376 -838.33957,322.76582 -843.34172,320.4375 L -791.34172,268.4375 z" opacity="1"/></clipPath><linearGradient id="linearGradient3485" x1="11.844" x2="19.391" y1="365.376" y2="206.375" gradientTransform="matrix(1.0117554,0,0,1.0117554,64.604781,-224.22382)" gradientUnits="userSpaceOnUse" xlink:href="#linearGradient3671"/><linearGradient id="linearGradient3551"><stop id="stop3553" offset="0" stop-color="#bf0000" stop-opacity="1"/><stop id="stop3555" offset="1" stop-color="#8c0000" stop-opacity="1"/></linearGradient><linearGradient id="linearGradient3488" x1="3.344" x2=".391" y1="236.876" y2="351.875" gradientTransform="matrix(1.0117554,0,0,1.0117554,64.604781,-224.22382)" gradientUnits="userSpaceOnUse" xlink:href="#linearGradient3551"/><filter id="filter4068"><feGaussianBlur id="feGaussianBlur4070" stdDeviation=".575"/></filter><linearGradient id="linearGradient3671"><stop id="stop3673" offset="0" stop-color="#1a0000" stop-opacity="1"/><stop id="stop3675" offset="1" stop-color="#a20000" stop-opacity="0"/></linearGradient><linearGradient id="linearGradient3434" x1="9.722" x2="14.441" y1="320.475" y2="155.11" gradientTransform="translate(75.660426,5.6568543)" gradientUnits="userSpaceOnUse" xlink:href="#linearGradient3671"/><linearGradient id="linearGradient3147"><stop id="stop3149" offset="0" stop-color="#8ae234" stop-opacity="1"/><stop id="stop3151" offset="1" stop-color="#4f9a05" stop-opacity="1"/></linearGradient><linearGradient id="linearGradient3405" x1="9.033" x2="15.626" y1="2.355" y2="18.891" gradientTransform="matrix(0.418947,0,0,0.687907,34.75998,29.60497)" gradientUnits="userSpaceOnUse" xlink:href="#linearGradient3147"/><linearGradient id="linearGradient2679"><stop id="stop2681" offset="0" stop-color="#f7f7f7" stop-opacity="1"/><stop id="stop2683" offset="1" stop-color="#ccd0c7" stop-opacity="1"/></linearGradient><linearGradient id="linearGradient3409" x1="5.028" x2="18.118" y1="11.022" y2="11.022" gradientTransform="translate(28.74998,26.00027)" gradientUnits="userSpaceOnUse" xlink:href="#linearGradient2679"/></defs><linearGradient id="SVGID_1_" x1="-.409" x2="8.348" y1="8.857" y2="8.857" gradientTransform="matrix(1 0 0 -1 0.4204 16.8359)" gradientUnits="userSpaceOnUse"><stop id="stop4" offset=".294" stop-color="#3F3E41"/><stop id="stop6" offset=".601" stop-color="#909092"/><stop id="stop8" offset=".828" stop-color="#6F7072"/></linearGradient><path id="path10" fill="url(#SVGID_1_)" d="M2.567,1.297v13.449c0,0,0.772,1.502,5.917,1.15V0.193 C8.484,0.193,4.753-0.66,2.567,1.297z" opacity=".4"/><linearGradient id="SVGID_2_" x1="2.603" x2="7.43" y1="12.844" y2="12.844" gradientTransform="matrix(1 0 0 -1 0.4204 16.8359)" gradientUnits="userSpaceOnUse"><stop id="stop13" offset="0" stop-color="#000"/><stop id="stop15" offset=".387" stop-color="#58585A"/><stop id="stop17" offset="1" stop-color="#3F3E41"/></linearGradient><path id="path19" fill="url(#SVGID_2_)" d="M3.023,5.061V3.703c0,0,1.504-0.951,4.827-0.749v1.555 C7.851,4.508,5.529,4.256,3.023,5.061z" opacity=".4"/><linearGradient id="SVGID_3_" x1="2.603" x2="7.43" y1="14.983" y2="14.983" gradientTransform="matrix(1 0 0 -1 0.4204 16.8359)" gradientUnits="userSpaceOnUse"><stop id="stop22" offset="0" stop-color="#000"/><stop id="stop24" offset=".387" stop-color="#58585A"/><stop id="stop26" offset="1" stop-color="#3F3E41"/></linearGradient><path id="path28" fill="url(#SVGID_3_)" d="M3.023,3.003V1.649c0,0,1.457-1.305,4.827-0.852V2.25 C7.851,2.25,4.938,2.048,3.023,3.003z" opacity=".4"/><linearGradient id="SVGID_4_" x1="4.422" x2="5.299" y1="11.549" y2="10.321" gradientTransform="matrix(1 0 0 -1 0.4204 16.8359)" gradientUnits="userSpaceOnUse"><stop id="stop31" offset="0" stop-color="#FFF"/><stop id="stop33" offset=".387" stop-color="#B5B5B8"/><stop id="stop35" offset=".626" stop-color="#D9D9DA"/><stop id="stop37" offset="1" stop-color="#6F7072"/></linearGradient><path id="path39" fill="url(#SVGID_4_)" d="M5.767,5.813c0,0.332-0.247,0.604-0.549,0.604c-0.301,0-0.546-0.27-0.546-0.604 c0-0.335,0.245-0.601,0.546-0.601C5.521,5.212,5.767,5.481,5.767,5.813z" opacity=".4"/><g id="g41" opacity=".4"><path id="path43" fill="#3F3E41" d="M5.218,6.512c-0.354,0-0.642-0.313-0.642-0.699c0-0.384,0.288-0.696,0.642-0.696 c0.355,0,0.645,0.312,0.645,0.696C5.862,6.199,5.573,6.512,5.218,6.512L5.218,6.512z M5.218,5.308c-0.248,0-0.45,0.227-0.45,0.505 c0,0.28,0.202,0.508,0.45,0.508c0.25,0,0.453-0.228,0.453-0.508C5.671,5.535,5.468,5.308,5.218,5.308L5.218,5.308z"/></g><g id="g45" opacity=".4"><linearGradient id="SVGID_5_" x1="7.779" x2="20.518" y1="14.361" y2="-10.813" gradientTransform="matrix(1 0 0 -1 0.4204 16.8359)" gradientUnits="userSpaceOnUse"><stop id="stop48" offset=".233" stop-color="#B5B5B8"/><stop id="stop50" offset=".626" stop-color="#D9D9DA"/><stop id="stop52" offset="1" stop-color="#6F7072"/></linearGradient><polygon id="polygon54" fill="url(#SVGID_5_)" points="14.367 1.801 14.367 14.242 8.481 15.896 8.481 .194"/><linearGradient id="SVGID_6_" x1="8.321" x2="20.89" y1="14.367" y2="-15.527" gradientTransform="matrix(1 0 0 -1 0.4204 16.8359)" gradientUnits="userSpaceOnUse"><stop id="stop57" offset=".387" stop-color="#B5B5B8"/><stop id="stop59" offset=".626" stop-color="#D9D9DA"/><stop id="stop61" offset="1" stop-color="#6F7072"/></linearGradient><path id="path63" fill="url(#SVGID_6_)" d="M14.367,1.801v12.441l-5.886,1.654c0,0,6.104-2.674,3.575-7.54 C9.257,2.969,14.367,1.801,14.367,1.801z"/></g><g id="g2920" transform="matrix(0.1001154,0,0,0.1001154,2.7073157,2.9184639)"><rect id="rect1327" width="1" height="0" x="-267.889" y="-327.195" fill="#fff" fill-opacity="1" fill-rule="nonzero" stroke="none" stroke-dasharray="none" stroke-dashoffset="4" stroke-linecap="round" stroke-linejoin="round" stroke-miterlimit="4" stroke-opacity="1" stroke-width="3.632" opacity=".578"/><rect id="rect2482" width="1" height="0" x="-303.016" y="-354.722" fill="#fff" fill-opacity="1" fill-rule="nonzero" stroke="none" stroke-dasharray="none" stroke-dashoffset="4" stroke-linecap="round" stroke-linejoin="round" stroke-miterlimit="4" stroke-opacity="1" stroke-width="3.632" opacity=".578"/><rect id="rect6937" width="1" height="0" x="-127.464" y="-170.406" fill="#fff" fill-opacity="1" fill-rule="nonzero" stroke="none" stroke-dasharray="none" stroke-dashoffset="4" stroke-linecap="round" stroke-linejoin="round" stroke-miterlimit="4" stroke-opacity="1" stroke-width="3.632" opacity=".578"/><rect id="rect6939" width="1" height="0" x="-162.59" y="-197.934" fill="#fff" fill-opacity="1" fill-rule="nonzero" stroke="none" stroke-dasharray="none" stroke-dashoffset="4" stroke-linecap="round" stroke-linejoin="round" stroke-miterlimit="4" stroke-opacity="1" stroke-width="3.632" opacity=".578"/><rect id="rect7573" width="1" height="0" x="-176.964" y="-222.406" fill="#fff" fill-opacity="1" fill-rule="nonzero" stroke="none" stroke-dasharray="none" stroke-dashoffset="4" stroke-linecap="round" stroke-linejoin="round" stroke-miterlimit="4" stroke-opacity="1" stroke-width="3.632" opacity=".578"/><rect id="rect7575" width="1" height="0" x="-212.09" y="-249.934" fill="#fff" fill-opacity="1" fill-rule="nonzero" stroke="none" stroke-dasharray="none" stroke-dashoffset="4" stroke-linecap="round" stroke-linejoin="round" stroke-miterlimit="4" stroke-opacity="1" stroke-width="3.632" opacity=".578"/><rect id="rect8408" width="1" height="0" x="-564.214" y="-98.656" fill="#fff" fill-opacity="1" fill-rule="nonzero" stroke="none" stroke-dasharray="none" stroke-dashoffset="4" stroke-linecap="round" stroke-linejoin="round" stroke-miterlimit="4" stroke-opacity="1" stroke-width="3.632" opacity=".578"/><rect id="rect8410" width="1" height="0" x="-599.34" y="-126.184" fill="#fff" fill-opacity="1" fill-rule="nonzero" stroke="none" stroke-dasharray="none" stroke-dashoffset="4" stroke-linecap="round" stroke-linejoin="round" stroke-miterlimit="4" stroke-opacity="1" stroke-width="3.632" opacity=".578"/><rect id="rect9118" width="1" height="0" x="-311.821" y="77.736" fill="#fff" fill-opacity="1" fill-rule="nonzero" stroke="none" stroke-dasharray="none" stroke-dashoffset="4" stroke-linecap="round" stroke-linejoin="round" stroke-miterlimit="4" stroke-opacity="1" stroke-width="3.632" opacity=".578"/><rect id="rect9120" width="1" height="0" x="-346.948" y="50.208" fill="#fff" fill-opacity="1" fill-rule="nonzero" stroke="none" stroke-dasharray="none" stroke-dashoffset="4" stroke-linecap="round" stroke-linejoin="round" stroke-miterlimit="4" stroke-opacity="1" stroke-width="3.632" opacity=".578"/><rect id="rect3647" width="1" height="0" x="-412.471" y="-155.828" fill="#fff" fill-opacity="1" fill-rule="nonzero" stroke="none" stroke-dasharray="none" stroke-dashoffset="4" stroke-linecap="round" stroke-linejoin="round" stroke-miterlimit="4" stroke-opacity="1" stroke-width="3.632" opacity=".578"/><rect id="rect3649" width="1" height="0" x="-447.598" y="-183.355" fill="#fff" fill-opacity="1" fill-rule="nonzero" stroke="none" stroke-dasharray="none" stroke-dashoffset="4" stroke-linecap="round" stroke-linejoin="round" stroke-miterlimit="4" stroke-opacity="1" stroke-width="3.632" opacity=".578"/><rect id="rect10475" width="1" height="0" x="-410.464" y="-156.753" fill="#fff" fill-opacity="1" fill-rule="nonzero" stroke="none" stroke-dasharray="none" stroke-dashoffset="4" stroke-linecap="round" stroke-linejoin="round" stroke-miterlimit="4" stroke-opacity="1" stroke-width="3.632" opacity=".578"/><rect id="rect10477" width="1" height="0" x="-445.59" y="-184.28" fill="#fff" fill-opacity="1" fill-rule="nonzero" stroke="none" stroke-dasharray="none" stroke-dashoffset="4" stroke-linecap="round" stroke-linejoin="round" stroke-miterlimit="4" stroke-opacity="1" stroke-width="3.632" opacity=".578"/><path id="path4272" fill="url(#linearGradient3434)" fill-opacity="1" stroke="none" stroke-dasharray="none" stroke-dashoffset="4.15" stroke-linecap="square" stroke-linejoin="miter" stroke-miterlimit="4" stroke-opacity="1" stroke-width="7.087" d="M 76.035426,233.0006 C 44.310274,233.0006 18.504176,258.8067 18.504176,290.53185 C 18.504177,322.257 44.310274,348.0631 76.035426,348.0631 C 107.76058,348.0631 133.59793,322.257 133.59793,290.53185 C 133.59793,258.8067 107.76058,233.0006 76.035426,233.0006 z M 76.035426,251.3131 C 83.079457,251.3131 89.639902,253.22617 95.347926,256.46935 L 41.972926,309.84435 C 38.729746,304.13633 36.816676,297.57588 36.816676,290.53185 C 36.816676,268.84382 54.347398,251.3131 76.035426,251.3131 z M 111.59793,274.09435 C 113.92625,279.09651 115.25418,284.64862 115.25418,290.53185 C 115.25417,312.21988 97.723453,329.7506 76.035426,329.7506 C 70.152198,329.75061 64.60008,328.42267 59.597926,326.09435 L 111.59793,274.09435 z" filter="url(#filter4068)" transform="matrix(1.0117554,0,0,1.0117554,-11.945064,-229.64717)"/><path id="path3949" fill="url(#linearGradient3488)" fill-opacity="1" stroke="none" stroke-dasharray="none" stroke-dashoffset="4.15" stroke-linecap="square" stroke-linejoin="miter" stroke-miterlimit="4" stroke-opacity="1" stroke-width="7.087" d="M 64.984189,5.7924453 C 32.886095,5.7924453 6.776636,31.901906 6.776636,63.999998 C 6.776637,96.09809 32.886095,122.20755 64.984189,122.20755 C 97.082285,122.20755 123.22336,96.09809 123.22336,63.999998 C 123.22336,31.901906 97.082285,5.7924453 64.984189,5.7924453 z M 64.984189,24.320216 C 72.111025,24.320216 78.748591,26.255775 84.523715,29.53708 L 30.521271,83.539524 C 27.239966,77.764404 25.304407,71.126833 25.304407,63.999998 C 25.304407,42.057017 43.041209,24.320216 64.984189,24.320216 z M 100.96474,47.369269 C 103.32043,52.430231 104.66397,58.047608 104.66397,63.999998 C 104.66396,85.94298 86.927167,103.67978 64.984189,103.67978 C 59.031801,103.67979 53.414416,102.33624 48.353459,99.98055 L 100.96474,47.369269 z"/><path id="path4059" fill="url(#linearGradient3485)" fill-opacity="1" stroke="none" stroke-dasharray="none" stroke-dashoffset="4.15" stroke-linecap="square" stroke-linejoin="miter" stroke-miterlimit="4" stroke-opacity="1" stroke-width="7.087" d="M 64.984189,5.7924453 C 32.886095,5.7924453 6.776636,31.901906 6.776636,63.999998 C 6.776637,96.09809 32.886095,122.20755 64.984189,122.20755 C 97.082285,122.20755 123.22336,96.09809 123.22336,63.999998 C 123.22336,31.901906 97.082285,5.7924453 64.984189,5.7924453 z M 64.984189,24.320216 C 72.111025,24.320216 78.748591,26.255775 84.523715,29.53708 L 30.521271,83.539524 C 27.239966,77.764404 25.304407,71.126833 25.304407,63.999998 C 25.304407,42.057017 43.041209,24.320216 64.984189,24.320216 z M 100.96474,47.369269 C 103.32043,52.430231 104.66397,58.047608 104.66397,63.999998 C 104.66396,85.94298 86.927167,103.67978 64.984189,103.67978 C 59.031801,103.67979 53.414416,102.33624 48.353459,99.98055 L 100.96474,47.369269 z"/><g id="g4252" clip-path="url(#clipPath4258)" transform="matrix(1.0117554,0,0,1.0117554,901.39965,-224.22382)"><path id="path4063" fill="url(#radialGradient3440)" fill-opacity="1" stroke="none" stroke-dasharray="none" stroke-dashoffset="4.15" stroke-linecap="square" stroke-linejoin="miter" stroke-miterlimit="4" stroke-opacity="1" stroke-width="7.087" d="M -825.54942,227.34485 C -833.71236,227.34485 -841.47773,229.07917 -848.51817,232.15735 C -842.55546,235.65656 -833.70711,237.8761 -823.79942,237.8761 C -814.73123,237.8761 -806.54026,236.03053 -800.64317,233.03235 C -808.18413,229.39987 -816.63677,227.34485 -825.54942,227.34485 z" filter="url(#filter4134)" opacity="1"/><path id="path4069" fill="url(#radialGradient3442)" fill-opacity="1" stroke="none" stroke-dasharray="none" stroke-dashoffset="4.15" stroke-linecap="square" stroke-linejoin="miter" stroke-miterlimit="4" stroke-opacity="1" stroke-width="7.087" d="M -809.84989,320.21985 C -814.99443,322.69574 -820.75013,324.09485 -826.84989,324.09485 C -830.5269,324.09485 -834.07873,323.58358 -837.44364,322.6261 L -841.59989,328.8761 C -831.48565,331.50156 -820.19823,332.56277 -806.09989,329.8761 L -809.81864,320.21985 L -809.84989,320.21985 z" filter="url(#filter4202)" opacity="1"/><path id="path4077" fill="url(#radialGradient3444)" fill-opacity="1" stroke="none" stroke-dasharray="none" stroke-dashoffset="4.15" stroke-linecap="square" stroke-linejoin="miter" stroke-miterlimit="4" stroke-opacity="1" stroke-width="7.087" d="M -813.3501,336.18981 C -820.95958,338.29588 -828.56905,339.44498 -836.17853,336.8761 L -839.99103,341.1261 C -836.10391,341.95762 -832.06038,342.40735 -827.92853,342.40735 C -821.84043,342.40735 -815.97324,341.44873 -810.45978,339.6886 L -813.3501,336.18981 z" filter="url(#filter4248)" opacity=".436"/><path id="path4083" fill="url(#radialGradient3446)" fill-opacity="1" stroke="none" stroke-dasharray="none" stroke-dashoffset="4.15" stroke-linecap="square" stroke-linejoin="miter" stroke-miterlimit="4" stroke-opacity="1" stroke-width="7.087" d="M -816.83807,260.0636 L -841.90057,285.1261 L -839.15057,290.3761 L -805.65057,262.3761 L -816.83807,260.0636 z" filter="url(#filter4176)" opacity="1"/></g><path id="path3350" fill="url(#radialGradient3477)" fill-opacity="1" stroke="none" stroke-dasharray="none" stroke-dashoffset="4.15" stroke-linecap="square" stroke-linejoin="miter" stroke-miterlimit="4" stroke-opacity=".441" stroke-width=".5" d="M 64.987883,9.3663194 C 34.829478,9.3663194 10.353092,33.842706 10.353092,64.001111 C 10.353092,94.159516 34.829478,118.6359 64.987883,118.6359 C 95.146291,118.6359 119.62268,94.159516 119.62268,64.001111 C 119.62268,33.842706 95.146291,9.3663194 64.987883,9.3663194 z M 64.987883,20.735415 C 74.408682,20.735415 83.145531,23.748979 90.252531,28.86747 L 29.854238,89.265756 C 24.735748,82.158761 21.722182,73.42191 21.722182,64.001111 C 21.722182,40.118443 41.105215,20.735415 64.987883,20.735415 z M 101.85847,41.420835 C 105.89766,47.998834 108.25358,55.721299 108.25358,64.001111 C 108.25358,87.883779 88.87055,107.26682 64.987883,107.26682 C 56.708073,107.26682 48.985604,104.91089 42.407608,100.8717 L 101.85847,41.420835 z"/><path id="path3977" fill="url(#linearGradient3474)" fill-opacity="1" stroke="none" stroke-dasharray="none" stroke-dashoffset="4.15" stroke-linecap="square" stroke-linejoin="miter" stroke-miterlimit="4" stroke-opacity="1" stroke-width="7.087" d="M 64.987882,9.3663194 C 34.829477,9.3663194 10.35309,33.842706 10.35309,64.001111 C 10.35309,64.424713 10.375106,64.84451 10.384708,65.265805 C 14.084899,66.009962 17.892519,66.627001 21.83019,67.162847 C 21.75524,66.121892 21.735338,65.060722 21.735338,64.001111 C 21.735338,40.118443 41.105213,20.748568 64.987882,20.748568 C 74.408682,20.748568 83.143155,23.755737 90.250153,28.874228 L 50.06449,69.059888 C 50.149323,69.059989 50.232543,69.059888 50.317428,69.059888 C 59.112854,69.059888 67.617564,68.545046 75.706166,67.573872 L 101.85372,41.426319 C 105.3249,47.07929 107.55597,53.584047 108.11396,60.554819 C 112.01525,59.258578 115.65835,57.824162 119.05356,56.286476 C 115.30012,29.778697 92.526563,9.3663194 64.987882,9.3663194 z"/><path id="path4007" fill="url(#linearGradient3471)" fill-opacity="1" stroke="none" stroke-dasharray="none" stroke-dashoffset="4.15" stroke-linecap="square" stroke-linejoin="miter" stroke-miterlimit="4" stroke-opacity="1" stroke-width="7.087" d="M 64.701528,9.1511595 C 34.543124,9.1511595 10.066732,33.627546 10.066732,63.785951 C 10.066732,63.944706 10.062361,64.102256 10.066732,64.260211 C 10.356387,34.349798 34.723051,10.162915 64.701528,10.162915 C 91.90921,10.162915 114.45111,30.092169 118.60912,56.134551 C 118.66025,56.111493 118.7162,56.094415 118.76721,56.071316 C 115.01377,29.563527 92.240205,9.1511595 64.701528,9.1511595 z M 49.778136,68.844728 C 49.862969,68.844819 49.946189,68.844728 50.031074,68.844728 C 50.285961,68.844728 50.535496,68.845588 50.789891,68.844728 L 89.761445,29.367297 L 49.778136,68.844728 z M 21.44898,64.386681 C 21.447685,64.524866 21.44898,64.659217 21.44898,64.797707 C 21.44898,65.51836 21.482753,66.232436 21.512215,66.947687 C 21.522677,66.949113 21.533381,66.94626 21.543832,66.947687 C 21.483117,66.104429 21.456133,65.244892 21.44898,64.386681 z"/><path id="path4021" fill="url(#linearGradient3467)" fill-opacity="1" stroke="none" stroke-dasharray="none" stroke-dashoffset="4.15" stroke-linecap="square" stroke-linejoin="miter" stroke-miterlimit="4" stroke-opacity="1" stroke-width="7.087" d="M 91.925054,16.461092 C 105.43198,24.804321 115.02323,38.855752 117.34541,55.255588 C 114.35228,56.611159 111.45436,58.485567 108.06888,59.656724 C 108.12125,60.120159 108.08834,59.97308 108.12579,60.440835 C 112.02708,59.144584 115.46783,57.710168 118.86304,56.172492 C 116.45575,39.171602 106.219,24.670466 91.925054,16.461092 z M 65.202059,20.122382 C 41.319391,20.122382 20.735409,39.087555 20.735409,62.970223 C 20.735409,64.029835 20.047082,65.091004 20.122033,66.131959 C 16.720744,65.669091 13.415976,65.133083 10.194183,64.519474 C 10.200881,64.729899 10.189387,64.941295 10.194183,65.151821 C 13.894375,65.895977 17.701995,66.513006 21.639666,67.048862 C 21.564715,66.007908 21.544814,64.946738 21.544814,63.887127 C 21.544814,40.004458 40.914689,20.634583 64.797357,20.634583 C 72.411069,20.634583 79.570928,22.585733 85.791282,26.041151 C 79.229522,22.036573 73.445255,20.122382 65.202059,20.122382 z M 73.998008,66.542985 C 66.593223,67.432044 58.828516,67.918071 50.822486,67.997383 L 49.873965,68.945904 C 49.958801,68.945995 50.042018,68.945904 50.126904,68.945904 C 58.922326,68.945904 67.427041,68.431052 75.515641,67.459888 L 101.03085,41.944681 L 73.998008,66.542985 z"/><path id="path4035" fill="none" fill-opacity="1" stroke="url(#linearGradient3456)" stroke-dasharray="none" stroke-dashoffset="4.15" stroke-linecap="square" stroke-linejoin="miter" stroke-miterlimit="4" stroke-opacity=".441" stroke-width="1.483" d="M 76.039077,236.53295 C 46.231077,236.53295 22.039078,260.72495 22.039078,290.53295 C 22.039078,320.34095 46.231077,344.53295 76.039077,344.53295 C 105.84708,344.53295 130.03908,320.34095 130.03908,290.53295 C 130.03908,260.72495 105.84708,236.53295 76.039077,236.53295 z M 76.039077,247.76995 C 85.350418,247.76995 93.985755,250.7485 101.01018,255.80752 L 41.313644,315.50405 C 36.254624,308.47963 33.276072,299.84429 33.276072,290.53295 C 33.276072,266.92777 52.433898,247.76995 76.039077,247.76995 z M 112.48127,268.21503 C 116.47353,274.7166 118.80208,282.34934 118.80208,290.53295 C 118.80208,314.13813 99.644256,333.29596 76.039077,333.29596 C 67.855469,333.29596 60.222726,330.96741 53.721158,326.97515 L 112.48127,268.21503 z" filter="url(#filter4076)" transform="matrix(1.0117554,0,0,1.0117554,-11.945064,-229.94717)"/><path id="path4049" fill="none" fill-opacity="1" stroke="url(#linearGradient3460)" stroke-dasharray="none" stroke-dashoffset="4.15" stroke-linecap="square" stroke-linejoin="miter" stroke-miterlimit="4" stroke-opacity=".441" stroke-width=".87" d="M 76.039077,236.53295 C 46.231077,236.53295 22.039078,260.72495 22.039078,290.53295 C 22.039078,320.34095 46.231077,344.53295 76.039077,344.53295 C 105.84708,344.53295 130.03908,320.34095 130.03908,290.53295 C 130.03908,260.72495 105.84708,236.53295 76.039077,236.53295 z M 76.039077,247.76995 C 85.350418,247.76995 93.985755,250.7485 101.01018,255.80752 L 41.313644,315.50405 C 36.254624,308.47963 33.276072,299.84429 33.276072,290.53295 C 33.276072,266.92777 52.433898,247.76995 76.039077,247.76995 z M 112.48127,268.21503 C 116.47353,274.7166 118.80208,282.34934 118.80208,290.53295 C 118.80208,314.13813 99.644256,333.29596 76.039077,333.29596 C 67.855469,333.29596 60.222726,330.96741 53.721158,326.97515 L 112.48127,268.21503 z" filter="url(#filter4055)" transform="matrix(1.0117554,0,0,1.0117554,-11.945064,-229.94717)"/></g></svg>