<svg xmlns="http://www.w3.org/2000/svg" xmlns:svg="http://www.w3.org/2000/svg" xmlns:xlink="http://www.w3.org/1999/xlink" id="Ebene_1" width="64" height="64" x="0" y="0" enable-background="new 0 0 64 64" version="1.0" viewBox="0 0 64 64" xml:space="preserve"><metadata id="metadata614"/><defs id="defs612"><radialGradient id="SVGID_1_" cx="29.306" cy="113.435" r="30.679" gradientTransform="matrix(0.9376,0,1e-2,0.6095,3.6207,-51.6258)" gradientUnits="userSpaceOnUse"><stop id="stop6" offset=".663" stop-color="#FFF"/><stop id="stop8" offset="1" stop-color="#A2BADC"/></radialGradient><radialGradient id="SVGID_62_" cx="43.266" cy="36" r="4.764" gradientTransform="translate(0.2803,-0.1104)" gradientUnits="userSpaceOnUse"><stop id="stop591" offset=".442" stop-color="#FFF"/><stop id="stop593" offset="1" stop-color="#A2BADC"/></radialGradient><radialGradient id="SVGID_63_" cx="37.946" cy="42.772" r="2.421" gradientTransform="translate(0.2803,-0.1104)" gradientUnits="userSpaceOnUse"><stop id="stop598" offset=".264" stop-color="#FFF"/><stop id="stop600" offset="1" stop-color="#A2BADC"/></radialGradient><radialGradient id="SVGID_64_" cx="32.308" cy="46.355" r="1.9" gradientTransform="translate(0.2803,-0.1104)" gradientUnits="userSpaceOnUse"><stop id="stop605" offset=".239" stop-color="#FFF"/><stop id="stop607" offset="1" stop-color="#A2BADC"/></radialGradient><radialGradient id="radialGradient3022" cx="32.308" cy="46.355" r="1.9" gradientTransform="translate(0.2803,-0.1104)" gradientUnits="userSpaceOnUse" xlink:href="#SVGID_64_"/><radialGradient id="radialGradient3025" cx="37.946" cy="42.772" r="2.421" gradientTransform="translate(0.2803,-0.1104)" gradientUnits="userSpaceOnUse" xlink:href="#SVGID_63_"/><radialGradient id="radialGradient3028" cx="43.266" cy="36" r="4.764" gradientTransform="translate(0.2803,-0.1104)" gradientUnits="userSpaceOnUse" xlink:href="#SVGID_62_"/><radialGradient id="radialGradient3350" cx="29.306" cy="113.435" r="30.679" gradientTransform="matrix(0.9376,0,1e-2,0.6095,3.6207,-51.6258)" gradientUnits="userSpaceOnUse" xlink:href="#SVGID_1_"/><filter id="filter4076"><feGaussianBlur id="feGaussianBlur4078" stdDeviation=".275"/></filter><filter id="filter4068"><feGaussianBlur id="feGaussianBlur4070" stdDeviation=".575"/></filter><linearGradient id="linearGradient3488" x1="3.344" x2=".391" y1="236.876" y2="351.875" gradientTransform="matrix(1.0117554,0,0,1.0117554,64.604781,-224.22382)" gradientUnits="userSpaceOnUse" xlink:href="#linearGradient3551"/><linearGradient id="linearGradient3485" x1="11.844" x2="19.391" y1="365.376" y2="206.375" gradientTransform="matrix(1.0117554,0,0,1.0117554,64.604781,-224.22382)" gradientUnits="userSpaceOnUse" xlink:href="#linearGradient3671"/><radialGradient id="radialGradient3477" cx="-79.25" cy="81.75" r="43.5" fx="-79.25" fy="81.75" gradientTransform="matrix(1.2632322,0,0,1.5245906,165.09903,-31.579826)" gradientUnits="userSpaceOnUse" xlink:href="#linearGradient3527"/><linearGradient id="linearGradient3474" x1="-89.75" x2="-73.813" y1="-29" y2="76" gradientTransform="matrix(1.0117554,0,0,1.0117554,145.1695,15.436852)" gradientUnits="userSpaceOnUse" xlink:href="#linearGradient3598"/><linearGradient id="linearGradient3471" x1="-89.75" x2="-73.813" y1="-29" y2="76" gradientTransform="matrix(1.0117554,0,0,1.0117554,144.88314,15.221692)" gradientUnits="userSpaceOnUse" xlink:href="#linearGradient3260-778"/><linearGradient id="linearGradient3467" x1="-13.206" x2="-84.773" y1="84.704" y2="19.431" gradientTransform="matrix(1.0117554,0,0,1.0117554,144.97897,15.322867)" gradientUnits="userSpaceOnUse" xlink:href="#linearGradient3260-778"/><linearGradient id="linearGradient3460" x1="4.361" x2="7.356" y1="339.126" y2="232.55" gradientTransform="translate(75.660426,5.6568543)" gradientUnits="userSpaceOnUse" xlink:href="#linearGradient2929"/><linearGradient id="linearGradient3456" x1="4.361" x2="7.356" y1="339.126" y2="232.55" gradientTransform="translate(75.660426,5.6568543)" gradientUnits="userSpaceOnUse" xlink:href="#linearGradient2929"/><radialGradient id="radialGradient3446" cx="-830.375" cy="275.741" r="18.125" fx="-830.375" fy="275.741" gradientTransform="matrix(0.383106,0.3947293,-1.3121017,1.2734652,-149.51024,248.31073)" gradientUnits="userSpaceOnUse" xlink:href="#linearGradient3260-778"/><radialGradient id="radialGradient3444" cx="-825.225" cy="337.203" r="14.766" fx="-825.225" fy="337.203" gradientTransform="matrix(1,-5.9653348e-8,1.4682541e-7,2.4613106,-4.8987084e-5,-487.55424)" gradientUnits="userSpaceOnUse" xlink:href="#linearGradient3598"/><radialGradient id="radialGradient3442" cx="-825.971" cy="315.764" r="17.75" fx="-825.971" fy="315.764" gradientTransform="matrix(1,0,0,0.3160957,0,222.83692)" gradientUnits="userSpaceOnUse" xlink:href="#linearGradient3706"/><radialGradient id="radialGradient3440" cx="-824.581" cy="232.61" r="23.938" fx="-824.581" fy="232.61" gradientTransform="matrix(1,7.1693163e-7,-7.7186683e-7,1.0766255,1.795441e-4,-17.823295)" gradientUnits="userSpaceOnUse" xlink:href="#linearGradient3835"/><linearGradient id="linearGradient3434" x1="9.722" x2="14.441" y1="320.475" y2="155.11" gradientTransform="translate(75.660426,5.6568543)" gradientUnits="userSpaceOnUse" xlink:href="#linearGradient3671"/><linearGradient id="linearGradient4262" x1="11.844" x2="19.391" y1="365.376" y2="206.375" gradientTransform="translate(-827.27922,0)" gradientUnits="userSpaceOnUse" xlink:href="#linearGradient3671"/><clipPath id="clipPath4258"><path id="path4260" fill="url(#linearGradient4262)" fill-opacity="1" stroke="none" stroke-dasharray="none" stroke-dashoffset="4.15" stroke-linecap="square" stroke-linejoin="miter" stroke-miterlimit="4" stroke-opacity="1" stroke-width="7.087" d="M -826.90422,227.34375 C -858.62937,227.34375 -884.43547,253.14985 -884.43547,284.875 C -884.43547,316.60015 -858.62937,342.40625 -826.90422,342.40625 C -795.17907,342.40625 -769.34172,316.60015 -769.34172,284.875 C -769.34172,253.14985 -795.17907,227.34375 -826.90422,227.34375 z M -826.90422,245.65625 C -819.86019,245.65625 -813.29975,247.56932 -807.59172,250.8125 L -860.96672,304.1875 C -864.2099,298.47948 -866.12297,291.91903 -866.12297,284.875 C -866.12297,263.18697 -848.59225,245.65625 -826.90422,245.65625 z M -791.34172,268.4375 C -789.0134,273.43966 -787.68547,278.99177 -787.68547,284.875 C -787.68547,306.56303 -805.2162,324.09375 -826.90422,324.09375 C -832.78745,324.09376 -838.33957,322.76582 -843.34172,320.4375 L -791.34172,268.4375 z" opacity="1"/></clipPath><filter id="filter4248" width="1.109" height="1.516" x="-.054" y="-.258"><feGaussianBlur id="feGaussianBlur4250" stdDeviation=".669"/></filter><filter id="filter4202" width="1.081" height="1.256" x="-.04" y="-.128"><feGaussianBlur id="feGaussianBlur4204" stdDeviation=".598"/></filter><filter id="filter4176" width="1.173" height="1.207" x="-.087" y="-.104"><feGaussianBlur id="feGaussianBlur4178" stdDeviation="1.31"/></filter><filter id="filter4134"><feGaussianBlur id="feGaussianBlur4136" stdDeviation=".287"/></filter><filter id="filter4055"><feGaussianBlur id="feGaussianBlur4057" stdDeviation=".164"/></filter><linearGradient id="linearGradient3835"><stop id="stop3837" offset="0" stop-color="#fff" stop-opacity="1"/><stop id="stop3839" offset="1" stop-color="#fff" stop-opacity="0"/></linearGradient><linearGradient id="linearGradient3706"><stop id="stop3708" offset="0" stop-color="#fff" stop-opacity="1"/><stop id="stop3710" offset="1" stop-color="#fff" stop-opacity="0"/></linearGradient><linearGradient id="linearGradient3671"><stop id="stop3673" offset="0" stop-color="#1a0000" stop-opacity="1"/><stop id="stop3675" offset="1" stop-color="#a20000" stop-opacity="0"/></linearGradient><linearGradient id="linearGradient3598"><stop id="stop3600" offset="0" stop-color="#ffbfbf" stop-opacity="1"/><stop id="stop3602" offset="1" stop-color="#ffbfbf" stop-opacity="0"/></linearGradient><linearGradient id="linearGradient3551"><stop id="stop3553" offset="0" stop-color="#bf0000" stop-opacity="1"/><stop id="stop3555" offset="1" stop-color="#8c0000" stop-opacity="1"/></linearGradient><linearGradient id="linearGradient3527"><stop id="stop3529" offset="0" stop-color="red" stop-opacity="1"/><stop id="stop3531" offset="1" stop-color="#7f0000" stop-opacity="1"/></linearGradient><linearGradient id="linearGradient3260-778"><stop id="stop2489" offset="0" stop-color="#fff" stop-opacity="1"/><stop id="stop2491" offset="1" stop-color="#fff" stop-opacity="0"/></linearGradient><linearGradient id="linearGradient2929"><stop id="stop2931" offset="0" stop-color="#efa040" stop-opacity="1"/><stop id="stop2933" offset="1" stop-color="#c0a331" stop-opacity="0"/></linearGradient></defs><g id="g12" transform="matrix(1.8187329,0,0,1.8187329,-7.9376159,-51.301568)"><linearGradient id="SVGID_2_" x1="2.803" x2="25.458" y1="46.071" y2="46.071" gradientTransform="translate(0.2803,-0.1104)" gradientUnits="userSpaceOnUse"><stop id="stop15" offset=".294" stop-color="#3E3D40"/><stop id="stop17" offset=".626" stop-color="#B1B3B4"/><stop id="stop19" offset="1" stop-color="#6F7072"/></linearGradient><path id="path21" fill="url(#SVGID_2_)" d="M 9.695,31.961 L 9.695,60.134 C 9.695,60.134 11.695,63.285 25.004,62.548 L 25.004,29.649 C 25.004,29.649 15.349,27.862 9.695,31.961 z"/><linearGradient id="SVGID_3_" x1="22.343" x2="47.434" y1="35.172" y2="84.758" gradientTransform="translate(0.2803,-0.1104)" gradientUnits="userSpaceOnUse"><stop id="stop24" offset=".233" stop-color="#B4B5B7"/><stop id="stop26" offset=".626" stop-color="#D8D8DA"/><stop id="stop28" offset="1" stop-color="#6F7072"/></linearGradient><polygon id="polygon30" fill="url(#SVGID_3_)" points="33.115 33.015 33.115 59.082 25.004 62.548 25.004 29.649 33.115 33.015"/><linearGradient id="SVGID_4_" x1="22.882" x2="49.165" y1="33.864" y2="96.376" gradientTransform="translate(0.2803,-0.1104)" gradientUnits="userSpaceOnUse"><stop id="stop33" offset=".387" stop-color="#B4B5B7"/><stop id="stop35" offset=".626" stop-color="#D8D8DA"/><stop id="stop37" offset="1" stop-color="#6F7072"/></linearGradient><path id="path39" fill="url(#SVGID_4_)" d="M 33.115,33.015 L 33.115,59.082 L 25.004,62.548 C 25.004,62.548 33.415,56.945 29.931,46.75 C 26.073,35.463 33.115,33.015 33.115,33.015 z"/><path id="path41" fill="#3e3d40" d="M 16.295,43.737 C 12.172,44.05 10.878,44.258 10.878,44.258 L 10.878,59.608 C 10.878,59.608 14.414,61.826 23.363,61.088 L 23.363,43.534 C 23.363,43.535 20.419,43.416 16.295,43.737 z"/><linearGradient id="SVGID_5_" x1="-2.491" x2="27.218" y1="52.752" y2="52.752" gradientTransform="translate(0.2803,-0.1104)" gradientUnits="userSpaceOnUse"><stop id="stop44" offset=".374" stop-color="#000"/><stop id="stop46" offset=".564" stop-color="#9C9E9F"/><stop id="stop48" offset=".932" stop-color="#000"/></linearGradient><path id="path50" fill="url(#SVGID_5_)" d="M 15.936,44 C 11.812,44.315 10.515,44.526 10.515,44.526 L 10.515,59.872 C 10.515,59.872 14.052,62.091 23.004,61.353 L 23.004,43.799 C 23.005,43.799 20.059,43.687 15.936,44 z"/><linearGradient id="SVGID_6_" x1="10.596" x2="23.082" y1="37.719" y2="37.719" gradientTransform="translate(0.2803,-0.1104)" gradientUnits="userSpaceOnUse"><stop id="stop53" offset="0" stop-color="#000"/><stop id="stop55" offset=".387" stop-color="#58585A"/><stop id="stop57" offset="1" stop-color="#3E3D40"/></linearGradient><path id="path59" fill="url(#SVGID_6_)" d="M 10.877,39.846 L 10.877,37.001 C 10.877,37.001 14.765,35.011 23.362,35.43 L 23.362,38.689 C 23.363,38.688 17.357,38.162 10.877,39.846 z"/><linearGradient id="SVGID_7_" x1="-2.491" x2="27.218" y1="37.453" y2="37.453" gradientTransform="translate(0.2803,-0.1104)" gradientUnits="userSpaceOnUse"><stop id="stop62" offset=".374" stop-color="#000"/><stop id="stop64" offset=".564" stop-color="#9C9E9F"/><stop id="stop66" offset=".932" stop-color="#000"/></linearGradient><path id="path68" fill="url(#SVGID_7_)" d="M 10.515,39.579 L 10.515,36.736 C 10.515,36.736 14.404,34.744 23.004,35.164 L 23.004,38.42 C 23.005,38.42 16.996,37.896 10.515,39.579 z"/><linearGradient id="SVGID_8_" x1="10.596" x2="23.082" y1="33.233" y2="33.233" gradientTransform="translate(0.2803,-0.1104)" gradientUnits="userSpaceOnUse"><stop id="stop71" offset="0" stop-color="#000"/><stop id="stop73" offset=".387" stop-color="#58585A"/><stop id="stop75" offset="1" stop-color="#3E3D40"/></linearGradient><path id="path77" fill="url(#SVGID_8_)" d="M 10.877,35.534 L 10.877,32.697 C 10.877,32.697 14.647,29.966 23.362,30.911 L 23.362,33.958 C 23.363,33.958 15.825,33.536 10.877,35.534 z"/><linearGradient id="SVGID_9_" x1="-2.491" x2="27.218" y1="32.968" y2="32.968" gradientTransform="translate(0.2803,-0.1104)" gradientUnits="userSpaceOnUse"><stop id="stop80" offset=".374" stop-color="#000"/><stop id="stop82" offset=".564" stop-color="#9C9E9F"/><stop id="stop84" offset=".932" stop-color="#000"/></linearGradient><path id="path86" fill="url(#SVGID_9_)" d="M 10.515,35.27 L 10.515,32.431 C 10.515,32.431 14.286,29.7 23.004,30.644 L 23.004,33.694 C 23.005,33.693 15.466,33.273 10.515,35.27 z"/><linearGradient id="SVGID_10_" x1="15.428" x2="17.402" y1="40.348" y2="43.112" gradientTransform="translate(0.2803,-0.1104)" gradientUnits="userSpaceOnUse"><stop id="stop89" offset="0" stop-color="#FFF"/><stop id="stop91" offset=".387" stop-color="#B4B5B7"/><stop id="stop93" offset=".626" stop-color="#D8D8DA"/><stop id="stop95" offset="1" stop-color="#6F7072"/></linearGradient><path id="path97" fill="url(#SVGID_10_)" stroke="#3e3d40" stroke-width=".446" d="M 17.969,41.422 C 17.969,42.119 17.334,42.685 16.553,42.685 C 15.775,42.685 15.139,42.121 15.139,41.422 C 15.139,40.723 15.775,40.162 16.553,40.162 C 17.335,40.162 17.969,40.726 17.969,41.422 z"/><linearGradient id="SVGID_11_" x1="15.917" x2="17.58" y1="41.058" y2="42.529" gradientTransform="translate(0.2803,-0.1104)" gradientUnits="userSpaceOnUse"><stop id="stop100" offset="0" stop-color="#000"/><stop id="stop102" offset=".387" stop-color="#58585A"/><stop id="stop104" offset="1" stop-color="#3E3D40"/></linearGradient><path id="path106" fill="url(#SVGID_11_)" d="M 17.707,41.422 C 17.707,41.901 17.269,42.288 16.731,42.288 C 16.2,42.288 15.762,41.901 15.762,41.422 C 15.762,40.946 16.2,40.554 16.731,40.554 C 17.269,40.554 17.707,40.947 17.707,41.422 z"/></g></svg>