<svg xmlns="http://www.w3.org/2000/svg" xmlns:svg="http://www.w3.org/2000/svg" id="Ebene_1" width="16" height="16" x="0" y="0" enable-background="new 0 0 16 16" version="1.1" viewBox="0 0 16 16" xml:space="preserve"><metadata id="metadata6097"/><linearGradient id="SVGID_1_" x1="8.594" x2="-.835" y1="7.99" y2="7.99" gradientUnits="userSpaceOnUse"><stop id="stop6033" offset=".233" stop-color="#A09FA1"/><stop id="stop6035" offset=".387" stop-color="#B5B5B8"/><stop id="stop6037" offset=".54" stop-color="#D9D9DA"/><stop id="stop6039" offset=".81" stop-color="#6F7072"/></linearGradient><path id="path6041" fill="url(#SVGID_1_)" d="M2.549,1.297v13.471c0,0,0.773,1.506,5.921,1.154V0.192C8.47,0.192,4.736-0.664,2.549,1.297z"/><linearGradient id="SVGID_2_" x1="17.117" x2="-28.545" y1="9.161" y2="3.334" gradientUnits="userSpaceOnUse"><stop id="stop6044" offset="0" stop-color="#B5B5B8"/><stop id="stop6046" offset=".54" stop-color="#C3C2C4"/><stop id="stop6048" offset="1" stop-color="#6F7072"/></linearGradient><polygon id="polygon6050" fill="url(#SVGID_2_)" points="14.367 1.801 14.367 14.264 8.47 15.922 8.47 .192"/><linearGradient id="SVGID_3_" x1="19.184" x2="-23.99" y1="8.407" y2="10.927" gradientUnits="userSpaceOnUse"><stop id="stop6053" offset=".215" stop-color="#B3B3B5"/><stop id="stop6055" offset=".503" stop-color="#B5B5B8"/><stop id="stop6057" offset="1" stop-color="#6F7072"/></linearGradient><path id="path6059" fill="url(#SVGID_3_)" d="M14.367,1.801v12.462L8.47,15.922c0,0,6.113-2.681,3.583-7.555 C9.245,2.971,14.367,1.801,14.367,1.801z"/><linearGradient id="SVGID_4_" x1="-.746" x2="11.242" y1="12.839" y2="12.839" gradientTransform="matrix(1 0 0 -1 0.4204 16.8359)" gradientUnits="userSpaceOnUse"><stop id="stop6062" offset="0" stop-color="#000"/><stop id="stop6064" offset=".387" stop-color="#58585A"/><stop id="stop6066" offset="1" stop-color="#3F3E41"/></linearGradient><path id="path6068" fill="url(#SVGID_4_)" d="M3.006,5.066v-1.36c0,0,1.504-0.952,4.828-0.752v1.559C7.834,4.512,5.512,4.262,3.006,5.066z"/><linearGradient id="SVGID_5_" x1="-.746" x2="11.242" y1="14.984" y2="14.984" gradientTransform="matrix(1 0 0 -1 0.4204 16.8359)" gradientUnits="userSpaceOnUse"><stop id="stop6071" offset="0" stop-color="#000"/><stop id="stop6073" offset=".387" stop-color="#58585A"/><stop id="stop6075" offset="1" stop-color="#3F3E41"/></linearGradient><path id="path6077" fill="url(#SVGID_5_)" d="M3.006,3.005V1.649c0,0,1.458-1.307,4.828-0.854v1.457C7.834,2.252,4.92,2.049,3.006,3.005z"/><linearGradient id="SVGID_6_" x1="4.405" x2="5.283" y1="11.542" y2="10.313" gradientTransform="matrix(1 0 0 -1 0.4204 16.8359)" gradientUnits="userSpaceOnUse"><stop id="stop6080" offset="0" stop-color="#FFF"/><stop id="stop6082" offset=".387" stop-color="#B5B5B8"/><stop id="stop6084" offset=".626" stop-color="#D9D9DA"/><stop id="stop6086" offset="1" stop-color="#6F7072"/></linearGradient><path id="path6088" fill="url(#SVGID_6_)" d="M5.749,5.82c0,0.334-0.245,0.604-0.548,0.604c-0.301,0-0.546-0.269-0.546-0.604 c0-0.334,0.245-0.602,0.546-0.602C5.504,5.218,5.749,5.489,5.749,5.82z"/><g id="g6090"><path id="path6092" fill="#3F3E41" d="M5.201,6.52c-0.354,0-0.642-0.314-0.642-0.7c0-0.385,0.288-0.698,0.642-0.698 c0.355,0,0.644,0.313,0.644,0.698C5.845,6.206,5.556,6.52,5.201,6.52L5.201,6.52z M5.201,5.313c-0.248,0-0.45,0.227-0.45,0.506 c0,0.28,0.202,0.508,0.45,0.508c0.249,0,0.452-0.228,0.452-0.508C5.653,5.541,5.45,5.313,5.201,5.313L5.201,5.313z"/></g></svg>