<svg xmlns="http://www.w3.org/2000/svg" xmlns:svg="http://www.w3.org/2000/svg" xmlns:xlink="http://www.w3.org/1999/xlink" id="Ebene_1" width="64" height="64" x="0" y="0" enable-background="new 0 0 64 64" version="1.0" viewBox="0 0 64 64" xml:space="preserve"><metadata id="metadata614"/><defs id="defs612"><radialGradient id="SVGID_1_" cx="29.306" cy="113.435" r="30.679" gradientTransform="matrix(0.9376,0,1e-2,0.6095,3.6207,-51.6258)" gradientUnits="userSpaceOnUse"><stop id="stop6" offset=".663" stop-color="#FFF"/><stop id="stop8" offset="1" stop-color="#A2BADC"/></radialGradient><radialGradient id="SVGID_62_" cx="43.266" cy="36" r="4.764" gradientTransform="translate(0.2803,-0.1104)" gradientUnits="userSpaceOnUse"><stop id="stop591" offset=".442" stop-color="#FFF"/><stop id="stop593" offset="1" stop-color="#A2BADC"/></radialGradient><radialGradient id="SVGID_63_" cx="37.946" cy="42.772" r="2.421" gradientTransform="translate(0.2803,-0.1104)" gradientUnits="userSpaceOnUse"><stop id="stop598" offset=".264" stop-color="#FFF"/><stop id="stop600" offset="1" stop-color="#A2BADC"/></radialGradient><radialGradient id="SVGID_64_" cx="32.308" cy="46.355" r="1.9" gradientTransform="translate(0.2803,-0.1104)" gradientUnits="userSpaceOnUse"><stop id="stop605" offset=".239" stop-color="#FFF"/><stop id="stop607" offset="1" stop-color="#A2BADC"/></radialGradient><radialGradient id="radialGradient3022" cx="32.308" cy="46.355" r="1.9" gradientTransform="translate(0.2803,-0.1104)" gradientUnits="userSpaceOnUse" xlink:href="#SVGID_64_"/><radialGradient id="radialGradient3025" cx="37.946" cy="42.772" r="2.421" gradientTransform="translate(0.2803,-0.1104)" gradientUnits="userSpaceOnUse" xlink:href="#SVGID_63_"/><radialGradient id="radialGradient3028" cx="43.266" cy="36" r="4.764" gradientTransform="translate(0.2803,-0.1104)" gradientUnits="userSpaceOnUse" xlink:href="#SVGID_62_"/><radialGradient id="radialGradient3350" cx="29.306" cy="113.435" r="30.679" gradientTransform="matrix(0.9376,0,1e-2,0.6095,3.6207,-51.6258)" gradientUnits="userSpaceOnUse" xlink:href="#SVGID_1_"/><filter id="filter4076"><feGaussianBlur id="feGaussianBlur4078" stdDeviation=".275"/></filter><filter id="filter4068"><feGaussianBlur id="feGaussianBlur4070" stdDeviation=".575"/></filter><linearGradient id="linearGradient3488" x1="3.344" x2=".391" y1="236.876" y2="351.875" gradientTransform="matrix(1.0117554,0,0,1.0117554,64.604781,-224.22382)" gradientUnits="userSpaceOnUse" xlink:href="#linearGradient3551"/><linearGradient id="linearGradient3485" x1="11.844" x2="19.391" y1="365.376" y2="206.375" gradientTransform="matrix(1.0117554,0,0,1.0117554,64.604781,-224.22382)" gradientUnits="userSpaceOnUse" xlink:href="#linearGradient3671"/><radialGradient id="radialGradient3477" cx="-79.25" cy="81.75" r="43.5" fx="-79.25" fy="81.75" gradientTransform="matrix(1.2632322,0,0,1.5245906,165.09903,-31.579826)" gradientUnits="userSpaceOnUse" xlink:href="#linearGradient3527"/><linearGradient id="linearGradient3474" x1="-89.75" x2="-73.813" y1="-29" y2="76" gradientTransform="matrix(1.0117554,0,0,1.0117554,145.1695,15.436852)" gradientUnits="userSpaceOnUse" xlink:href="#linearGradient3598"/><linearGradient id="linearGradient3471" x1="-89.75" x2="-73.813" y1="-29" y2="76" gradientTransform="matrix(1.0117554,0,0,1.0117554,144.88314,15.221692)" gradientUnits="userSpaceOnUse" xlink:href="#linearGradient3260-778"/><linearGradient id="linearGradient3467" x1="-13.206" x2="-84.773" y1="84.704" y2="19.431" gradientTransform="matrix(1.0117554,0,0,1.0117554,144.97897,15.322867)" gradientUnits="userSpaceOnUse" xlink:href="#linearGradient3260-778"/><linearGradient id="linearGradient3460" x1="4.361" x2="7.356" y1="339.126" y2="232.55" gradientTransform="translate(75.660426,5.6568543)" gradientUnits="userSpaceOnUse" xlink:href="#linearGradient2929"/><linearGradient id="linearGradient3456" x1="4.361" x2="7.356" y1="339.126" y2="232.55" gradientTransform="translate(75.660426,5.6568543)" gradientUnits="userSpaceOnUse" xlink:href="#linearGradient2929"/><radialGradient id="radialGradient3446" cx="-830.375" cy="275.741" r="18.125" fx="-830.375" fy="275.741" gradientTransform="matrix(0.383106,0.3947293,-1.3121017,1.2734652,-149.51024,248.31073)" gradientUnits="userSpaceOnUse" xlink:href="#linearGradient3260-778"/><radialGradient id="radialGradient3444" cx="-825.225" cy="337.203" r="14.766" fx="-825.225" fy="337.203" gradientTransform="matrix(1,-5.9653348e-8,1.4682541e-7,2.4613106,-4.8987084e-5,-487.55424)" gradientUnits="userSpaceOnUse" xlink:href="#linearGradient3598"/><radialGradient id="radialGradient3442" cx="-825.971" cy="315.764" r="17.75" fx="-825.971" fy="315.764" gradientTransform="matrix(1,0,0,0.3160957,0,222.83692)" gradientUnits="userSpaceOnUse" xlink:href="#linearGradient3706"/><radialGradient id="radialGradient3440" cx="-824.581" cy="232.61" r="23.938" fx="-824.581" fy="232.61" gradientTransform="matrix(1,7.1693163e-7,-7.7186683e-7,1.0766255,1.795441e-4,-17.823295)" gradientUnits="userSpaceOnUse" xlink:href="#linearGradient3835"/><linearGradient id="linearGradient3434" x1="9.722" x2="14.441" y1="320.475" y2="155.11" gradientTransform="translate(75.660426,5.6568543)" gradientUnits="userSpaceOnUse" xlink:href="#linearGradient3671"/><linearGradient id="linearGradient4262" x1="11.844" x2="19.391" y1="365.376" y2="206.375" gradientTransform="translate(-827.27922,0)" gradientUnits="userSpaceOnUse" xlink:href="#linearGradient3671"/><clipPath id="clipPath4258"><path id="path4260" fill="url(#linearGradient4262)" fill-opacity="1" stroke="none" stroke-dasharray="none" stroke-dashoffset="4.15" stroke-linecap="square" stroke-linejoin="miter" stroke-miterlimit="4" stroke-opacity="1" stroke-width="7.087" d="M -826.90422,227.34375 C -858.62937,227.34375 -884.43547,253.14985 -884.43547,284.875 C -884.43547,316.60015 -858.62937,342.40625 -826.90422,342.40625 C -795.17907,342.40625 -769.34172,316.60015 -769.34172,284.875 C -769.34172,253.14985 -795.17907,227.34375 -826.90422,227.34375 z M -826.90422,245.65625 C -819.86019,245.65625 -813.29975,247.56932 -807.59172,250.8125 L -860.96672,304.1875 C -864.2099,298.47948 -866.12297,291.91903 -866.12297,284.875 C -866.12297,263.18697 -848.59225,245.65625 -826.90422,245.65625 z M -791.34172,268.4375 C -789.0134,273.43966 -787.68547,278.99177 -787.68547,284.875 C -787.68547,306.56303 -805.2162,324.09375 -826.90422,324.09375 C -832.78745,324.09376 -838.33957,322.76582 -843.34172,320.4375 L -791.34172,268.4375 z" opacity="1"/></clipPath><filter id="filter4248" width="1.109" height="1.516" x="-.054" y="-.258"><feGaussianBlur id="feGaussianBlur4250" stdDeviation=".669"/></filter><filter id="filter4202" width="1.081" height="1.256" x="-.04" y="-.128"><feGaussianBlur id="feGaussianBlur4204" stdDeviation=".598"/></filter><filter id="filter4176" width="1.173" height="1.207" x="-.087" y="-.104"><feGaussianBlur id="feGaussianBlur4178" stdDeviation="1.31"/></filter><filter id="filter4134"><feGaussianBlur id="feGaussianBlur4136" stdDeviation=".287"/></filter><filter id="filter4055"><feGaussianBlur id="feGaussianBlur4057" stdDeviation=".164"/></filter><linearGradient id="linearGradient3835"><stop id="stop3837" offset="0" stop-color="#fff" stop-opacity="1"/><stop id="stop3839" offset="1" stop-color="#fff" stop-opacity="0"/></linearGradient><linearGradient id="linearGradient3706"><stop id="stop3708" offset="0" stop-color="#fff" stop-opacity="1"/><stop id="stop3710" offset="1" stop-color="#fff" stop-opacity="0"/></linearGradient><linearGradient id="linearGradient3671"><stop id="stop3673" offset="0" stop-color="#1a0000" stop-opacity="1"/><stop id="stop3675" offset="1" stop-color="#a20000" stop-opacity="0"/></linearGradient><linearGradient id="linearGradient3598"><stop id="stop3600" offset="0" stop-color="#ffbfbf" stop-opacity="1"/><stop id="stop3602" offset="1" stop-color="#ffbfbf" stop-opacity="0"/></linearGradient><linearGradient id="linearGradient3551"><stop id="stop3553" offset="0" stop-color="#bf0000" stop-opacity="1"/><stop id="stop3555" offset="1" stop-color="#8c0000" stop-opacity="1"/></linearGradient><linearGradient id="linearGradient3527"><stop id="stop3529" offset="0" stop-color="red" stop-opacity="1"/><stop id="stop3531" offset="1" stop-color="#7f0000" stop-opacity="1"/></linearGradient><linearGradient id="linearGradient3260-778"><stop id="stop2489" offset="0" stop-color="#fff" stop-opacity="1"/><stop id="stop2491" offset="1" stop-color="#fff" stop-opacity="0"/></linearGradient><linearGradient id="linearGradient2929"><stop id="stop2931" offset="0" stop-color="#efa040" stop-opacity="1"/><stop id="stop2933" offset="1" stop-color="#c0a331" stop-opacity="0"/></linearGradient></defs><g id="g12" transform="matrix(1.8187329,0,0,1.8187329,-7.9376159,-51.301568)"><linearGradient id="SVGID_2_" x1="2.803" x2="25.458" y1="46.071" y2="46.071" gradientTransform="translate(0.2803,-0.1104)" gradientUnits="userSpaceOnUse"><stop id="stop15" offset=".294" stop-color="#3E3D40"/><stop id="stop17" offset=".626" stop-color="#B1B3B4"/><stop id="stop19" offset="1" stop-color="#6F7072"/></linearGradient><path id="path21" fill="url(#SVGID_2_)" d="M 9.695,31.961 L 9.695,60.134 C 9.695,60.134 11.695,63.285 25.004,62.548 L 25.004,29.649 C 25.004,29.649 15.349,27.862 9.695,31.961 z"/><linearGradient id="SVGID_3_" x1="22.343" x2="47.434" y1="35.172" y2="84.758" gradientTransform="translate(0.2803,-0.1104)" gradientUnits="userSpaceOnUse"><stop id="stop24" offset=".233" stop-color="#B4B5B7"/><stop id="stop26" offset=".626" stop-color="#D8D8DA"/><stop id="stop28" offset="1" stop-color="#6F7072"/></linearGradient><polygon id="polygon30" fill="url(#SVGID_3_)" points="33.115 33.015 33.115 59.082 25.004 62.548 25.004 29.649 33.115 33.015"/><linearGradient id="SVGID_4_" x1="22.882" x2="49.165" y1="33.864" y2="96.376" gradientTransform="translate(0.2803,-0.1104)" gradientUnits="userSpaceOnUse"><stop id="stop33" offset=".387" stop-color="#B4B5B7"/><stop id="stop35" offset=".626" stop-color="#D8D8DA"/><stop id="stop37" offset="1" stop-color="#6F7072"/></linearGradient><path id="path39" fill="url(#SVGID_4_)" d="M 33.115,33.015 L 33.115,59.082 L 25.004,62.548 C 25.004,62.548 33.415,56.945 29.931,46.75 C 26.073,35.463 33.115,33.015 33.115,33.015 z"/><path id="path41" fill="#3e3d40" d="M 16.295,43.737 C 12.172,44.05 10.878,44.258 10.878,44.258 L 10.878,59.608 C 10.878,59.608 14.414,61.826 23.363,61.088 L 23.363,43.534 C 23.363,43.535 20.419,43.416 16.295,43.737 z"/><linearGradient id="SVGID_5_" x1="-2.491" x2="27.218" y1="52.752" y2="52.752" gradientTransform="translate(0.2803,-0.1104)" gradientUnits="userSpaceOnUse"><stop id="stop44" offset=".374" stop-color="#000"/><stop id="stop46" offset=".564" stop-color="#9C9E9F"/><stop id="stop48" offset=".932" stop-color="#000"/></linearGradient><path id="path50" fill="url(#SVGID_5_)" d="M 15.936,44 C 11.812,44.315 10.515,44.526 10.515,44.526 L 10.515,59.872 C 10.515,59.872 14.052,62.091 23.004,61.353 L 23.004,43.799 C 23.005,43.799 20.059,43.687 15.936,44 z"/><linearGradient id="SVGID_6_" x1="10.596" x2="23.082" y1="37.719" y2="37.719" gradientTransform="translate(0.2803,-0.1104)" gradientUnits="userSpaceOnUse"><stop id="stop53" offset="0" stop-color="#000"/><stop id="stop55" offset=".387" stop-color="#58585A"/><stop id="stop57" offset="1" stop-color="#3E3D40"/></linearGradient><path id="path59" fill="url(#SVGID_6_)" d="M 10.877,39.846 L 10.877,37.001 C 10.877,37.001 14.765,35.011 23.362,35.43 L 23.362,38.689 C 23.363,38.688 17.357,38.162 10.877,39.846 z"/><linearGradient id="SVGID_7_" x1="-2.491" x2="27.218" y1="37.453" y2="37.453" gradientTransform="translate(0.2803,-0.1104)" gradientUnits="userSpaceOnUse"><stop id="stop62" offset=".374" stop-color="#000"/><stop id="stop64" offset=".564" stop-color="#9C9E9F"/><stop id="stop66" offset=".932" stop-color="#000"/></linearGradient><path id="path68" fill="url(#SVGID_7_)" d="M 10.515,39.579 L 10.515,36.736 C 10.515,36.736 14.404,34.744 23.004,35.164 L 23.004,38.42 C 23.005,38.42 16.996,37.896 10.515,39.579 z"/><linearGradient id="SVGID_8_" x1="10.596" x2="23.082" y1="33.233" y2="33.233" gradientTransform="translate(0.2803,-0.1104)" gradientUnits="userSpaceOnUse"><stop id="stop71" offset="0" stop-color="#000"/><stop id="stop73" offset=".387" stop-color="#58585A"/><stop id="stop75" offset="1" stop-color="#3E3D40"/></linearGradient><path id="path77" fill="url(#SVGID_8_)" d="M 10.877,35.534 L 10.877,32.697 C 10.877,32.697 14.647,29.966 23.362,30.911 L 23.362,33.958 C 23.363,33.958 15.825,33.536 10.877,35.534 z"/><linearGradient id="SVGID_9_" x1="-2.491" x2="27.218" y1="32.968" y2="32.968" gradientTransform="translate(0.2803,-0.1104)" gradientUnits="userSpaceOnUse"><stop id="stop80" offset=".374" stop-color="#000"/><stop id="stop82" offset=".564" stop-color="#9C9E9F"/><stop id="stop84" offset=".932" stop-color="#000"/></linearGradient><path id="path86" fill="url(#SVGID_9_)" d="M 10.515,35.27 L 10.515,32.431 C 10.515,32.431 14.286,29.7 23.004,30.644 L 23.004,33.694 C 23.005,33.693 15.466,33.273 10.515,35.27 z"/><linearGradient id="SVGID_10_" x1="15.428" x2="17.402" y1="40.348" y2="43.112" gradientTransform="translate(0.2803,-0.1104)" gradientUnits="userSpaceOnUse"><stop id="stop89" offset="0" stop-color="#FFF"/><stop id="stop91" offset=".387" stop-color="#B4B5B7"/><stop id="stop93" offset=".626" stop-color="#D8D8DA"/><stop id="stop95" offset="1" stop-color="#6F7072"/></linearGradient><path id="path97" fill="url(#SVGID_10_)" stroke="#3e3d40" stroke-width=".446" d="M 17.969,41.422 C 17.969,42.119 17.334,42.685 16.553,42.685 C 15.775,42.685 15.139,42.121 15.139,41.422 C 15.139,40.723 15.775,40.162 16.553,40.162 C 17.335,40.162 17.969,40.726 17.969,41.422 z"/><linearGradient id="SVGID_11_" x1="15.917" x2="17.58" y1="41.058" y2="42.529" gradientTransform="translate(0.2803,-0.1104)" gradientUnits="userSpaceOnUse"><stop id="stop100" offset="0" stop-color="#000"/><stop id="stop102" offset=".387" stop-color="#58585A"/><stop id="stop104" offset="1" stop-color="#3E3D40"/></linearGradient><path id="path106" fill="url(#SVGID_11_)" d="M 17.707,41.422 C 17.707,41.901 17.269,42.288 16.731,42.288 C 16.2,42.288 15.762,41.901 15.762,41.422 C 15.762,40.946 16.2,40.554 16.731,40.554 C 17.269,40.554 17.707,40.947 17.707,41.422 z"/></g><g id="g2920" transform="matrix(0.4159787,0,0,0.4159787,9.9116596,11.757977)"><rect id="rect1327" width="1" height="0" x="-267.889" y="-327.195" fill="#fff" fill-opacity="1" fill-rule="nonzero" stroke="none" stroke-dasharray="none" stroke-dashoffset="4" stroke-linecap="round" stroke-linejoin="round" stroke-miterlimit="4" stroke-opacity="1" stroke-width="3.632" opacity=".578"/><rect id="rect2482" width="1" height="0" x="-303.016" y="-354.722" fill="#fff" fill-opacity="1" fill-rule="nonzero" stroke="none" stroke-dasharray="none" stroke-dashoffset="4" stroke-linecap="round" stroke-linejoin="round" stroke-miterlimit="4" stroke-opacity="1" stroke-width="3.632" opacity=".578"/><rect id="rect6937" width="1" height="0" x="-127.464" y="-170.406" fill="#fff" fill-opacity="1" fill-rule="nonzero" stroke="none" stroke-dasharray="none" stroke-dashoffset="4" stroke-linecap="round" stroke-linejoin="round" stroke-miterlimit="4" stroke-opacity="1" stroke-width="3.632" opacity=".578"/><rect id="rect6939" width="1" height="0" x="-162.59" y="-197.934" fill="#fff" fill-opacity="1" fill-rule="nonzero" stroke="none" stroke-dasharray="none" stroke-dashoffset="4" stroke-linecap="round" stroke-linejoin="round" stroke-miterlimit="4" stroke-opacity="1" stroke-width="3.632" opacity=".578"/><rect id="rect7573" width="1" height="0" x="-176.964" y="-222.406" fill="#fff" fill-opacity="1" fill-rule="nonzero" stroke="none" stroke-dasharray="none" stroke-dashoffset="4" stroke-linecap="round" stroke-linejoin="round" stroke-miterlimit="4" stroke-opacity="1" stroke-width="3.632" opacity=".578"/><rect id="rect7575" width="1" height="0" x="-212.09" y="-249.934" fill="#fff" fill-opacity="1" fill-rule="nonzero" stroke="none" stroke-dasharray="none" stroke-dashoffset="4" stroke-linecap="round" stroke-linejoin="round" stroke-miterlimit="4" stroke-opacity="1" stroke-width="3.632" opacity=".578"/><rect id="rect8408" width="1" height="0" x="-564.214" y="-98.656" fill="#fff" fill-opacity="1" fill-rule="nonzero" stroke="none" stroke-dasharray="none" stroke-dashoffset="4" stroke-linecap="round" stroke-linejoin="round" stroke-miterlimit="4" stroke-opacity="1" stroke-width="3.632" opacity=".578"/><rect id="rect8410" width="1" height="0" x="-599.34" y="-126.184" fill="#fff" fill-opacity="1" fill-rule="nonzero" stroke="none" stroke-dasharray="none" stroke-dashoffset="4" stroke-linecap="round" stroke-linejoin="round" stroke-miterlimit="4" stroke-opacity="1" stroke-width="3.632" opacity=".578"/><rect id="rect9118" width="1" height="0" x="-311.821" y="77.736" fill="#fff" fill-opacity="1" fill-rule="nonzero" stroke="none" stroke-dasharray="none" stroke-dashoffset="4" stroke-linecap="round" stroke-linejoin="round" stroke-miterlimit="4" stroke-opacity="1" stroke-width="3.632" opacity=".578"/><rect id="rect9120" width="1" height="0" x="-346.948" y="50.208" fill="#fff" fill-opacity="1" fill-rule="nonzero" stroke="none" stroke-dasharray="none" stroke-dashoffset="4" stroke-linecap="round" stroke-linejoin="round" stroke-miterlimit="4" stroke-opacity="1" stroke-width="3.632" opacity=".578"/><rect id="rect3647" width="1" height="0" x="-412.471" y="-155.828" fill="#fff" fill-opacity="1" fill-rule="nonzero" stroke="none" stroke-dasharray="none" stroke-dashoffset="4" stroke-linecap="round" stroke-linejoin="round" stroke-miterlimit="4" stroke-opacity="1" stroke-width="3.632" opacity=".578"/><rect id="rect3649" width="1" height="0" x="-447.598" y="-183.355" fill="#fff" fill-opacity="1" fill-rule="nonzero" stroke="none" stroke-dasharray="none" stroke-dashoffset="4" stroke-linecap="round" stroke-linejoin="round" stroke-miterlimit="4" stroke-opacity="1" stroke-width="3.632" opacity=".578"/><rect id="rect10475" width="1" height="0" x="-410.464" y="-156.753" fill="#fff" fill-opacity="1" fill-rule="nonzero" stroke="none" stroke-dasharray="none" stroke-dashoffset="4" stroke-linecap="round" stroke-linejoin="round" stroke-miterlimit="4" stroke-opacity="1" stroke-width="3.632" opacity=".578"/><rect id="rect10477" width="1" height="0" x="-445.59" y="-184.28" fill="#fff" fill-opacity="1" fill-rule="nonzero" stroke="none" stroke-dasharray="none" stroke-dashoffset="4" stroke-linecap="round" stroke-linejoin="round" stroke-miterlimit="4" stroke-opacity="1" stroke-width="3.632" opacity=".578"/><path id="path4272" fill="url(#linearGradient3434)" fill-opacity="1" stroke="none" stroke-dasharray="none" stroke-dashoffset="4.15" stroke-linecap="square" stroke-linejoin="miter" stroke-miterlimit="4" stroke-opacity="1" stroke-width="7.087" d="M 76.035426,233.0006 C 44.310274,233.0006 18.504176,258.8067 18.504176,290.53185 C 18.504177,322.257 44.310274,348.0631 76.035426,348.0631 C 107.76058,348.0631 133.59793,322.257 133.59793,290.53185 C 133.59793,258.8067 107.76058,233.0006 76.035426,233.0006 z M 76.035426,251.3131 C 83.079457,251.3131 89.639902,253.22617 95.347926,256.46935 L 41.972926,309.84435 C 38.729746,304.13633 36.816676,297.57588 36.816676,290.53185 C 36.816676,268.84382 54.347398,251.3131 76.035426,251.3131 z M 111.59793,274.09435 C 113.92625,279.09651 115.25418,284.64862 115.25418,290.53185 C 115.25417,312.21988 97.723453,329.7506 76.035426,329.7506 C 70.152198,329.75061 64.60008,328.42267 59.597926,326.09435 L 111.59793,274.09435 z" filter="url(#filter4068)" transform="matrix(1.0117554,0,0,1.0117554,-11.945064,-229.64717)"/><path id="path3949" fill="url(#linearGradient3488)" fill-opacity="1" stroke="none" stroke-dasharray="none" stroke-dashoffset="4.15" stroke-linecap="square" stroke-linejoin="miter" stroke-miterlimit="4" stroke-opacity="1" stroke-width="7.087" d="M 64.984189,5.7924453 C 32.886095,5.7924453 6.776636,31.901906 6.776636,63.999998 C 6.776637,96.09809 32.886095,122.20755 64.984189,122.20755 C 97.082285,122.20755 123.22336,96.09809 123.22336,63.999998 C 123.22336,31.901906 97.082285,5.7924453 64.984189,5.7924453 z M 64.984189,24.320216 C 72.111025,24.320216 78.748591,26.255775 84.523715,29.53708 L 30.521271,83.539524 C 27.239966,77.764404 25.304407,71.126833 25.304407,63.999998 C 25.304407,42.057017 43.041209,24.320216 64.984189,24.320216 z M 100.96474,47.369269 C 103.32043,52.430231 104.66397,58.047608 104.66397,63.999998 C 104.66396,85.94298 86.927167,103.67978 64.984189,103.67978 C 59.031801,103.67979 53.414416,102.33624 48.353459,99.98055 L 100.96474,47.369269 z"/><path id="path4059" fill="url(#linearGradient3485)" fill-opacity="1" stroke="none" stroke-dasharray="none" stroke-dashoffset="4.15" stroke-linecap="square" stroke-linejoin="miter" stroke-miterlimit="4" stroke-opacity="1" stroke-width="7.087" d="M 64.984189,5.7924453 C 32.886095,5.7924453 6.776636,31.901906 6.776636,63.999998 C 6.776637,96.09809 32.886095,122.20755 64.984189,122.20755 C 97.082285,122.20755 123.22336,96.09809 123.22336,63.999998 C 123.22336,31.901906 97.082285,5.7924453 64.984189,5.7924453 z M 64.984189,24.320216 C 72.111025,24.320216 78.748591,26.255775 84.523715,29.53708 L 30.521271,83.539524 C 27.239966,77.764404 25.304407,71.126833 25.304407,63.999998 C 25.304407,42.057017 43.041209,24.320216 64.984189,24.320216 z M 100.96474,47.369269 C 103.32043,52.430231 104.66397,58.047608 104.66397,63.999998 C 104.66396,85.94298 86.927167,103.67978 64.984189,103.67978 C 59.031801,103.67979 53.414416,102.33624 48.353459,99.98055 L 100.96474,47.369269 z"/><g id="g4252" clip-path="url(#clipPath4258)" transform="matrix(1.0117554,0,0,1.0117554,901.39965,-224.22382)"><path id="path4063" fill="url(#radialGradient3440)" fill-opacity="1" stroke="none" stroke-dasharray="none" stroke-dashoffset="4.15" stroke-linecap="square" stroke-linejoin="miter" stroke-miterlimit="4" stroke-opacity="1" stroke-width="7.087" d="M -825.54942,227.34485 C -833.71236,227.34485 -841.47773,229.07917 -848.51817,232.15735 C -842.55546,235.65656 -833.70711,237.8761 -823.79942,237.8761 C -814.73123,237.8761 -806.54026,236.03053 -800.64317,233.03235 C -808.18413,229.39987 -816.63677,227.34485 -825.54942,227.34485 z" filter="url(#filter4134)" opacity="1"/><path id="path4069" fill="url(#radialGradient3442)" fill-opacity="1" stroke="none" stroke-dasharray="none" stroke-dashoffset="4.15" stroke-linecap="square" stroke-linejoin="miter" stroke-miterlimit="4" stroke-opacity="1" stroke-width="7.087" d="M -809.84989,320.21985 C -814.99443,322.69574 -820.75013,324.09485 -826.84989,324.09485 C -830.5269,324.09485 -834.07873,323.58358 -837.44364,322.6261 L -841.59989,328.8761 C -831.48565,331.50156 -820.19823,332.56277 -806.09989,329.8761 L -809.81864,320.21985 L -809.84989,320.21985 z" filter="url(#filter4202)" opacity="1"/><path id="path4077" fill="url(#radialGradient3444)" fill-opacity="1" stroke="none" stroke-dasharray="none" stroke-dashoffset="4.15" stroke-linecap="square" stroke-linejoin="miter" stroke-miterlimit="4" stroke-opacity="1" stroke-width="7.087" d="M -813.3501,336.18981 C -820.95958,338.29588 -828.56905,339.44498 -836.17853,336.8761 L -839.99103,341.1261 C -836.10391,341.95762 -832.06038,342.40735 -827.92853,342.40735 C -821.84043,342.40735 -815.97324,341.44873 -810.45978,339.6886 L -813.3501,336.18981 z" filter="url(#filter4248)" opacity=".436"/><path id="path4083" fill="url(#radialGradient3446)" fill-opacity="1" stroke="none" stroke-dasharray="none" stroke-dashoffset="4.15" stroke-linecap="square" stroke-linejoin="miter" stroke-miterlimit="4" stroke-opacity="1" stroke-width="7.087" d="M -816.83807,260.0636 L -841.90057,285.1261 L -839.15057,290.3761 L -805.65057,262.3761 L -816.83807,260.0636 z" filter="url(#filter4176)" opacity="1"/></g><path id="path3350" fill="url(#radialGradient3477)" fill-opacity="1" stroke="none" stroke-dasharray="none" stroke-dashoffset="4.15" stroke-linecap="square" stroke-linejoin="miter" stroke-miterlimit="4" stroke-opacity=".441" stroke-width=".5" d="M 64.987883,9.3663194 C 34.829478,9.3663194 10.353092,33.842706 10.353092,64.001111 C 10.353092,94.159516 34.829478,118.6359 64.987883,118.6359 C 95.146291,118.6359 119.62268,94.159516 119.62268,64.001111 C 119.62268,33.842706 95.146291,9.3663194 64.987883,9.3663194 z M 64.987883,20.735415 C 74.408682,20.735415 83.145531,23.748979 90.252531,28.86747 L 29.854238,89.265756 C 24.735748,82.158761 21.722182,73.42191 21.722182,64.001111 C 21.722182,40.118443 41.105215,20.735415 64.987883,20.735415 z M 101.85847,41.420835 C 105.89766,47.998834 108.25358,55.721299 108.25358,64.001111 C 108.25358,87.883779 88.87055,107.26682 64.987883,107.26682 C 56.708073,107.26682 48.985604,104.91089 42.407608,100.8717 L 101.85847,41.420835 z"/><path id="path3977" fill="url(#linearGradient3474)" fill-opacity="1" stroke="none" stroke-dasharray="none" stroke-dashoffset="4.15" stroke-linecap="square" stroke-linejoin="miter" stroke-miterlimit="4" stroke-opacity="1" stroke-width="7.087" d="M 64.987882,9.3663194 C 34.829477,9.3663194 10.35309,33.842706 10.35309,64.001111 C 10.35309,64.424713 10.375106,64.84451 10.384708,65.265805 C 14.084899,66.009962 17.892519,66.627001 21.83019,67.162847 C 21.75524,66.121892 21.735338,65.060722 21.735338,64.001111 C 21.735338,40.118443 41.105213,20.748568 64.987882,20.748568 C 74.408682,20.748568 83.143155,23.755737 90.250153,28.874228 L 50.06449,69.059888 C 50.149323,69.059989 50.232543,69.059888 50.317428,69.059888 C 59.112854,69.059888 67.617564,68.545046 75.706166,67.573872 L 101.85372,41.426319 C 105.3249,47.07929 107.55597,53.584047 108.11396,60.554819 C 112.01525,59.258578 115.65835,57.824162 119.05356,56.286476 C 115.30012,29.778697 92.526563,9.3663194 64.987882,9.3663194 z"/><path id="path4007" fill="url(#linearGradient3471)" fill-opacity="1" stroke="none" stroke-dasharray="none" stroke-dashoffset="4.15" stroke-linecap="square" stroke-linejoin="miter" stroke-miterlimit="4" stroke-opacity="1" stroke-width="7.087" d="M 64.701528,9.1511595 C 34.543124,9.1511595 10.066732,33.627546 10.066732,63.785951 C 10.066732,63.944706 10.062361,64.102256 10.066732,64.260211 C 10.356387,34.349798 34.723051,10.162915 64.701528,10.162915 C 91.90921,10.162915 114.45111,30.092169 118.60912,56.134551 C 118.66025,56.111493 118.7162,56.094415 118.76721,56.071316 C 115.01377,29.563527 92.240205,9.1511595 64.701528,9.1511595 z M 49.778136,68.844728 C 49.862969,68.844819 49.946189,68.844728 50.031074,68.844728 C 50.285961,68.844728 50.535496,68.845588 50.789891,68.844728 L 89.761445,29.367297 L 49.778136,68.844728 z M 21.44898,64.386681 C 21.447685,64.524866 21.44898,64.659217 21.44898,64.797707 C 21.44898,65.51836 21.482753,66.232436 21.512215,66.947687 C 21.522677,66.949113 21.533381,66.94626 21.543832,66.947687 C 21.483117,66.104429 21.456133,65.244892 21.44898,64.386681 z"/><path id="path4021" fill="url(#linearGradient3467)" fill-opacity="1" stroke="none" stroke-dasharray="none" stroke-dashoffset="4.15" stroke-linecap="square" stroke-linejoin="miter" stroke-miterlimit="4" stroke-opacity="1" stroke-width="7.087" d="M 91.925054,16.461092 C 105.43198,24.804321 115.02323,38.855752 117.34541,55.255588 C 114.35228,56.611159 111.45436,58.485567 108.06888,59.656724 C 108.12125,60.120159 108.08834,59.97308 108.12579,60.440835 C 112.02708,59.144584 115.46783,57.710168 118.86304,56.172492 C 116.45575,39.171602 106.219,24.670466 91.925054,16.461092 z M 65.202059,20.122382 C 41.319391,20.122382 20.735409,39.087555 20.735409,62.970223 C 20.735409,64.029835 20.047082,65.091004 20.122033,66.131959 C 16.720744,65.669091 13.415976,65.133083 10.194183,64.519474 C 10.200881,64.729899 10.189387,64.941295 10.194183,65.151821 C 13.894375,65.895977 17.701995,66.513006 21.639666,67.048862 C 21.564715,66.007908 21.544814,64.946738 21.544814,63.887127 C 21.544814,40.004458 40.914689,20.634583 64.797357,20.634583 C 72.411069,20.634583 79.570928,22.585733 85.791282,26.041151 C 79.229522,22.036573 73.445255,20.122382 65.202059,20.122382 z M 73.998008,66.542985 C 66.593223,67.432044 58.828516,67.918071 50.822486,67.997383 L 49.873965,68.945904 C 49.958801,68.945995 50.042018,68.945904 50.126904,68.945904 C 58.922326,68.945904 67.427041,68.431052 75.515641,67.459888 L 101.03085,41.944681 L 73.998008,66.542985 z"/><path id="path4035" fill="none" fill-opacity="1" stroke="url(#linearGradient3456)" stroke-dasharray="none" stroke-dashoffset="4.15" stroke-linecap="square" stroke-linejoin="miter" stroke-miterlimit="4" stroke-opacity=".441" stroke-width="1.483" d="M 76.039077,236.53295 C 46.231077,236.53295 22.039078,260.72495 22.039078,290.53295 C 22.039078,320.34095 46.231077,344.53295 76.039077,344.53295 C 105.84708,344.53295 130.03908,320.34095 130.03908,290.53295 C 130.03908,260.72495 105.84708,236.53295 76.039077,236.53295 z M 76.039077,247.76995 C 85.350418,247.76995 93.985755,250.7485 101.01018,255.80752 L 41.313644,315.50405 C 36.254624,308.47963 33.276072,299.84429 33.276072,290.53295 C 33.276072,266.92777 52.433898,247.76995 76.039077,247.76995 z M 112.48127,268.21503 C 116.47353,274.7166 118.80208,282.34934 118.80208,290.53295 C 118.80208,314.13813 99.644256,333.29596 76.039077,333.29596 C 67.855469,333.29596 60.222726,330.96741 53.721158,326.97515 L 112.48127,268.21503 z" filter="url(#filter4076)" transform="matrix(1.0117554,0,0,1.0117554,-11.945064,-229.94717)"/><path id="path4049" fill="none" fill-opacity="1" stroke="url(#linearGradient3460)" stroke-dasharray="none" stroke-dashoffset="4.15" stroke-linecap="square" stroke-linejoin="miter" stroke-miterlimit="4" stroke-opacity=".441" stroke-width=".87" d="M 76.039077,236.53295 C 46.231077,236.53295 22.039078,260.72495 22.039078,290.53295 C 22.039078,320.34095 46.231077,344.53295 76.039077,344.53295 C 105.84708,344.53295 130.03908,320.34095 130.03908,290.53295 C 130.03908,260.72495 105.84708,236.53295 76.039077,236.53295 z M 76.039077,247.76995 C 85.350418,247.76995 93.985755,250.7485 101.01018,255.80752 L 41.313644,315.50405 C 36.254624,308.47963 33.276072,299.84429 33.276072,290.53295 C 33.276072,266.92777 52.433898,247.76995 76.039077,247.76995 z M 112.48127,268.21503 C 116.47353,274.7166 118.80208,282.34934 118.80208,290.53295 C 118.80208,314.13813 99.644256,333.29596 76.039077,333.29596 C 67.855469,333.29596 60.222726,330.96741 53.721158,326.97515 L 112.48127,268.21503 z" filter="url(#filter4055)" transform="matrix(1.0117554,0,0,1.0117554,-11.945064,-229.94717)"/></g></svg>