<svg xmlns="http://www.w3.org/2000/svg" xmlns:svg="http://www.w3.org/2000/svg" xmlns:xlink="http://www.w3.org/1999/xlink" id="Ebene_1" width="16" height="16" x="0" y="0" enable-background="new 0 0 16 16" version="1.1" viewBox="0 0 16 16" xml:space="preserve"><metadata id="metadata68"/><defs id="defs66"><radialGradient id="radialGradient2448" cx="169.772" cy="100.201" r="11" fx="169.772" fy="100.201" gradientTransform="matrix(8.905772e-7,-0.6126,0.498026,-7.146617e-7,-24.5279,128.8794)" gradientUnits="userSpaceOnUse" xlink:href="#linearGradient3090"/><linearGradient id="linearGradient2446" x1="15.09" x2="14" y1="15.292" y2="52.511" gradientTransform="matrix(0.499999,0,0,0.684211,11.75,4.57896)" gradientUnits="userSpaceOnUse" xlink:href="#linearGradient3081"/><linearGradient id="linearGradient3090"><stop id="stop3092" offset="0" stop-color="#ffee51" stop-opacity="1"/><stop id="stop3094" offset="1" stop-color="#f2c800" stop-opacity="1"/></linearGradient><radialGradient id="radialGradient2444" cx="169.772" cy="100.201" r="11" fx="169.772" fy="100.201" gradientTransform="matrix(8.905772e-7,-0.6126,0.498026,-7.146617e-7,-34.5279,128.8794)" gradientUnits="userSpaceOnUse" xlink:href="#linearGradient3090"/><linearGradient id="linearGradient3081"><stop id="stop3083" offset="0" stop-color="#fff" stop-opacity="1"/><stop id="stop3085" offset="1" stop-color="#fff" stop-opacity="0"/></linearGradient><linearGradient id="linearGradient2442" x1="15.09" x2="14" y1="15.292" y2="52.511" gradientTransform="matrix(0.499999,0,0,0.684211,1.75,4.57896)" gradientUnits="userSpaceOnUse" xlink:href="#linearGradient3081"/><linearGradient id="linearGradient3147"><stop id="stop3149" offset="0" stop-color="#8ae234" stop-opacity="1"/><stop id="stop3151" offset="1" stop-color="#4f9a05" stop-opacity="1"/></linearGradient><linearGradient id="linearGradient3405" x1="9.033" x2="15.626" y1="2.355" y2="18.891" gradientTransform="matrix(0.418947,0,0,0.687907,34.75998,29.60497)" gradientUnits="userSpaceOnUse" xlink:href="#linearGradient3147"/><linearGradient id="linearGradient2679"><stop id="stop2681" offset="0" stop-color="#f7f7f7" stop-opacity="1"/><stop id="stop2683" offset="1" stop-color="#ccd0c7" stop-opacity="1"/></linearGradient><linearGradient id="linearGradient3409" x1="5.028" x2="18.118" y1="11.022" y2="11.022" gradientTransform="translate(28.74998,26.00027)" gradientUnits="userSpaceOnUse" xlink:href="#linearGradient2679"/><linearGradient id="linearGradient2485" x1="15.09" x2="14" y1="15.292" y2="52.511" gradientTransform="matrix(0.499999,0,0,0.684211,1.75,4.57896)" gradientUnits="userSpaceOnUse" xlink:href="#linearGradient3081"/><radialGradient id="radialGradient2487" cx="169.772" cy="100.201" r="11" fx="169.772" fy="100.201" gradientTransform="matrix(8.905772e-7,-0.6126,0.498026,-7.146617e-7,-34.5279,128.8794)" gradientUnits="userSpaceOnUse" xlink:href="#linearGradient3090"/><linearGradient id="linearGradient2489" x1="15.09" x2="14" y1="15.292" y2="52.511" gradientTransform="matrix(0.499999,0,0,0.684211,11.75,4.57896)" gradientUnits="userSpaceOnUse" xlink:href="#linearGradient3081"/><radialGradient id="radialGradient2491" cx="169.772" cy="100.201" r="11" fx="169.772" fy="100.201" gradientTransform="matrix(8.905772e-7,-0.6126,0.498026,-7.146617e-7,-24.5279,128.8794)" gradientUnits="userSpaceOnUse" xlink:href="#linearGradient3090"/><linearGradient id="linearGradient2506" x1="15.09" x2="14" y1="15.292" y2="52.511" gradientTransform="matrix(0.499999,0,0,0.684211,1.75,4.57896)" gradientUnits="userSpaceOnUse" xlink:href="#linearGradient3081"/><radialGradient id="radialGradient2508" cx="169.772" cy="100.201" r="11" fx="169.772" fy="100.201" gradientTransform="matrix(8.905772e-7,-0.6126,0.498026,-7.146617e-7,-34.5279,128.8794)" gradientUnits="userSpaceOnUse" xlink:href="#linearGradient3090"/><linearGradient id="linearGradient2510" x1="15.09" x2="14" y1="15.292" y2="52.511" gradientTransform="matrix(0.499999,0,0,0.684211,11.75,4.57896)" gradientUnits="userSpaceOnUse" xlink:href="#linearGradient3081"/><radialGradient id="radialGradient2512" cx="169.772" cy="100.201" r="11" fx="169.772" fy="100.201" gradientTransform="matrix(8.905772e-7,-0.6126,0.498026,-7.146617e-7,-24.5279,128.8794)" gradientUnits="userSpaceOnUse" xlink:href="#linearGradient3090"/><radialGradient id="radialGradient2517" cx="169.772" cy="100.201" r="11" fx="169.772" fy="100.201" gradientTransform="matrix(6.326941e-7,-0.4352103,0.3538134,-5.0771818e-7,-14.536903,85.374745)" gradientUnits="userSpaceOnUse" xlink:href="#linearGradient3090"/><linearGradient id="linearGradient2521" x1="15.09" x2="14" y1="15.292" y2="52.511" gradientTransform="matrix(0.355215,0,0,0.486085,11.23606,-2.9322027)" gradientUnits="userSpaceOnUse" xlink:href="#linearGradient3081"/><radialGradient id="radialGradient2527" cx="169.772" cy="100.201" r="11" fx="169.772" fy="100.201" gradientTransform="matrix(6.326941e-7,-0.4352103,0.3538134,-5.0771818e-7,-21.641218,85.374745)" gradientUnits="userSpaceOnUse" xlink:href="#linearGradient3090"/><linearGradient id="linearGradient2531" x1="15.09" x2="14" y1="15.292" y2="52.511" gradientTransform="matrix(0.355215,0,0,0.486085,4.1317447,-2.9322027)" gradientUnits="userSpaceOnUse" xlink:href="#linearGradient3081"/><linearGradient id="linearGradient2550" x1="15.09" x2="14" y1="15.292" y2="52.511" gradientTransform="matrix(0.355215,0,0,0.486085,11.23606,-2.9322027)" gradientUnits="userSpaceOnUse" xlink:href="#linearGradient3081"/><radialGradient id="radialGradient2552" cx="169.772" cy="100.201" r="11" fx="169.772" fy="100.201" gradientTransform="matrix(6.326941e-7,-0.4352103,0.3538134,-5.0771818e-7,-14.536903,85.374745)" gradientUnits="userSpaceOnUse" xlink:href="#linearGradient3090"/><linearGradient id="linearGradient2570" x1="15.09" x2="14" y1="15.292" y2="52.511" gradientTransform="matrix(0.355215,0,0,0.486085,4.1317447,-2.9322027)" gradientUnits="userSpaceOnUse" xlink:href="#linearGradient3081"/><radialGradient id="radialGradient2572" cx="169.772" cy="100.201" r="11" fx="169.772" fy="100.201" gradientTransform="matrix(6.326941e-7,-0.4352103,0.3538134,-5.0771818e-7,-21.641218,85.374745)" gradientUnits="userSpaceOnUse" xlink:href="#linearGradient3090"/><linearGradient id="linearGradient2574" x1="15.09" x2="14" y1="15.292" y2="52.511" gradientTransform="matrix(0.355215,0,0,0.486085,11.23606,-2.9322027)" gradientUnits="userSpaceOnUse" xlink:href="#linearGradient3081"/><radialGradient id="radialGradient2576" cx="169.772" cy="100.201" r="11" fx="169.772" fy="100.201" gradientTransform="matrix(6.326941e-7,-0.4352103,0.3538134,-5.0771818e-7,-14.536903,85.374745)" gradientUnits="userSpaceOnUse" xlink:href="#linearGradient3090"/><filter id="filter1733" color-interpolation-filters="sRGB"><feColorMatrix id="feColorMatrix1729" result="color1" type="hueRotate" values="306"/><feColorMatrix id="feColorMatrix1731" result="color2" type="saturate" values="1"/></filter><linearGradient id="linearGradient4199" x1="64.654" x2="82.169" y1="20.94" y2="149.079" gradientUnits="userSpaceOnUse" xlink:href="#linearGradient4193"/><linearGradient id="linearGradient4193"><stop id="stop4195" offset="0" stop-color="#ffc404" stop-opacity="1"/><stop id="stop4197" offset="1" stop-color="#ffc404" stop-opacity="0"/></linearGradient><filter id="filter3274"><feGaussianBlur id="feGaussianBlur3276" stdDeviation="1.443"/></filter><linearGradient id="linearGradient3857" x1="74.686" x2="74.686" y1="37.713" y2="108.009" gradientTransform="matrix(1.0003186,0,0,1.0920256,0.00489484,-2.1497485)" gradientUnits="userSpaceOnUse" xlink:href="#linearGradient3851"/><linearGradient id="linearGradient3851"><stop id="stop3853" offset="0" stop-color="#fd0" stop-opacity="1"/><stop id="stop3855" offset="1" stop-color="#e15800" stop-opacity="1"/></linearGradient><radialGradient id="radialGradient3326" cx="64.025" cy="25.957" r="52.025" fx="64.025" fy="25.957" gradientTransform="matrix(1.4073524,-0.04914583,0.03370177,0.9650923,-26.955636,5.4114576)" gradientUnits="userSpaceOnUse" xlink:href="#linearGradient3320"/><linearGradient id="linearGradient3320"><stop id="stop3322" offset="0" stop-color="#ea3b18" stop-opacity="1"/><stop id="stop3324" offset="1" stop-color="#ea3b18" stop-opacity="0"/></linearGradient><radialGradient id="radialGradient4076" cx="64" cy="21.994" r="4.219" fx="64" fy="21.994" gradientTransform="matrix(-1,0,0,-12.343127,128,293.46933)" gradientUnits="userSpaceOnUse" xlink:href="#linearGradient3081"/><filter id="filter4102" width="1.204" height="1.143" x="-.102" y="-.072"><feGaussianBlur id="feGaussianBlur4104" stdDeviation=".358"/></filter><radialGradient id="radialGradient4062" cx="22.005" cy="102" r="5.995" fx="22.005" fy="102" gradientTransform="matrix(8.2879791,-4.7852502,0.5464445,0.9465058,-219.3366,117.99253)" gradientUnits="userSpaceOnUse" xlink:href="#linearGradient4056"/><linearGradient id="linearGradient4056"><stop id="stop4058" offset="0" stop-color="#ffd500" stop-opacity="1"/><stop id="stop4060" offset="1" stop-color="#ff9" stop-opacity="0"/></linearGradient><radialGradient id="radialGradient4066" cx="22.005" cy="102" r="5.995" fx="22.005" fy="102" gradientTransform="matrix(-8.2879791,-4.7852502,-0.5464445,0.9465058,347.61812,117.99253)" gradientUnits="userSpaceOnUse" xlink:href="#linearGradient4056"/><radialGradient id="radialGradient3849" cx="63.684" cy="85.945" r="48.004" fx="63.684" fy="85.945" gradientTransform="matrix(4.125192,-0.4335743,0.1499795,1.4269598,-211.59742,-0.8510997)" gradientUnits="userSpaceOnUse" xlink:href="#linearGradient3932"/><linearGradient id="linearGradient3932"><stop id="stop3934" offset="0" stop-color="#ff0" stop-opacity="1"/><stop id="stop3936" offset="1" stop-color="#ff7e00" stop-opacity="1"/></linearGradient><radialGradient id="radialGradient3406" cx="63.75" cy="68.478" r="9" fx="63.75" fy="68.478" gradientTransform="matrix(4.5093795,0,0,4.2142344,-223.72294,-220.10349)" gradientUnits="userSpaceOnUse" xlink:href="#linearGradient3400"/><linearGradient id="linearGradient3400"><stop id="stop3402" offset="0" stop-color="#ff0" stop-opacity="1"/><stop id="stop3404" offset="1" stop-color="#ff0" stop-opacity="0"/></linearGradient><filter id="filter3396" width="1.228" height="1.061" x="-.114" y="-.03"><feGaussianBlur id="feGaussianBlur3398" stdDeviation=".855"/></filter><linearGradient id="linearGradient3977" x1="65.98" x2="67.189" y1="15.087" y2="82.91" gradientTransform="matrix(1.0152964,0,0,1.0920256,-1.3711972,-2.1497485)" gradientUnits="userSpaceOnUse" xlink:href="#linearGradient3081"/><radialGradient id="radialGradient3410" cx="63.75" cy="74.356" r="9" fx="63.75" fy="74.356" gradientTransform="matrix(4.5093795,0,0,1.3282315,-223.72294,-5.5119394)" gradientUnits="userSpaceOnUse" xlink:href="#linearGradient3400"/><linearGradient id="linearGradient3391" x1="67.097" x2="67.097" y1="35.312" y2="105.405" gradientUnits="userSpaceOnUse" xlink:href="#linearGradient3282"/><linearGradient id="linearGradient3282"><stop id="stop3284" offset="0" stop-color="#ac4311" stop-opacity="1"/><stop id="stop3286" offset="1" stop-color="#ea5418" stop-opacity="1"/></linearGradient><linearGradient id="linearGradient4179" x1="56.874" x2="72.923" y1="22.873" y2="77.707" gradientTransform="matrix(1.0229652,0,0,1.0920256,-1.4644437,-1.8338916)" gradientUnits="userSpaceOnUse" xlink:href="#linearGradient3081"/><linearGradient id="linearGradient3383" x1="85.398" x2="61.265" y1="82.806" y2="46.196" gradientUnits="userSpaceOnUse" xlink:href="#linearGradient3081"/><linearGradient id="linearGradient3960" x1="72.743" x2="72.743" y1="102.715" y2="42.471" gradientUnits="userSpaceOnUse" xlink:href="#linearGradient3954"/><linearGradient id="linearGradient3954"><stop id="stop3956" offset="0" stop-color="#ffffbf" stop-opacity="1"/><stop id="stop3958" offset="1" stop-color="#ffffbf" stop-opacity="0"/></linearGradient><filter id="filter3950"><feGaussianBlur id="feGaussianBlur3952" stdDeviation=".455"/></filter></defs><linearGradient id="SVGID_1_" x1="-.409" x2="8.348" y1="8.857" y2="8.857" gradientTransform="matrix(1 0 0 -1 0.4204 16.8359)" gradientUnits="userSpaceOnUse"><stop id="stop4" offset=".294" stop-color="#3F3E41"/><stop id="stop6" offset=".601" stop-color="#909092"/><stop id="stop8" offset=".828" stop-color="#6F7072"/></linearGradient><path id="path10" fill="url(#SVGID_1_)" d="M2.567,1.297v13.449c0,0,0.772,1.502,5.917,1.15V0.193 C8.484,0.193,4.753-0.66,2.567,1.297z" opacity=".4"/><linearGradient id="SVGID_2_" x1="2.603" x2="7.43" y1="12.844" y2="12.844" gradientTransform="matrix(1 0 0 -1 0.4204 16.8359)" gradientUnits="userSpaceOnUse"><stop id="stop13" offset="0" stop-color="#000"/><stop id="stop15" offset=".387" stop-color="#58585A"/><stop id="stop17" offset="1" stop-color="#3F3E41"/></linearGradient><path id="path19" fill="url(#SVGID_2_)" d="M3.023,5.061V3.703c0,0,1.504-0.951,4.827-0.749v1.555 C7.851,4.508,5.529,4.256,3.023,5.061z" opacity=".4"/><linearGradient id="SVGID_3_" x1="2.603" x2="7.43" y1="14.983" y2="14.983" gradientTransform="matrix(1 0 0 -1 0.4204 16.8359)" gradientUnits="userSpaceOnUse"><stop id="stop22" offset="0" stop-color="#000"/><stop id="stop24" offset=".387" stop-color="#58585A"/><stop id="stop26" offset="1" stop-color="#3F3E41"/></linearGradient><path id="path28" fill="url(#SVGID_3_)" d="M3.023,3.003V1.649c0,0,1.457-1.305,4.827-0.852V2.25 C7.851,2.25,4.938,2.048,3.023,3.003z" opacity=".4"/><linearGradient id="SVGID_4_" x1="4.422" x2="5.299" y1="11.549" y2="10.321" gradientTransform="matrix(1 0 0 -1 0.4204 16.8359)" gradientUnits="userSpaceOnUse"><stop id="stop31" offset="0" stop-color="#FFF"/><stop id="stop33" offset=".387" stop-color="#B5B5B8"/><stop id="stop35" offset=".626" stop-color="#D9D9DA"/><stop id="stop37" offset="1" stop-color="#6F7072"/></linearGradient><path id="path39" fill="url(#SVGID_4_)" d="M5.767,5.813c0,0.332-0.247,0.604-0.549,0.604c-0.301,0-0.546-0.27-0.546-0.604 c0-0.335,0.245-0.601,0.546-0.601C5.521,5.212,5.767,5.481,5.767,5.813z" opacity=".4"/><g id="g41" opacity=".4"><path id="path43" fill="#3F3E41" d="M5.218,6.512c-0.354,0-0.642-0.313-0.642-0.699c0-0.384,0.288-0.696,0.642-0.696 c0.355,0,0.645,0.312,0.645,0.696C5.862,6.199,5.573,6.512,5.218,6.512L5.218,6.512z M5.218,5.308c-0.248,0-0.45,0.227-0.45,0.505 c0,0.28,0.202,0.508,0.45,0.508c0.25,0,0.453-0.228,0.453-0.508C5.671,5.535,5.468,5.308,5.218,5.308L5.218,5.308z"/></g><g id="g45" opacity=".4"><linearGradient id="SVGID_5_" x1="7.779" x2="20.518" y1="14.361" y2="-10.813" gradientTransform="matrix(1 0 0 -1 0.4204 16.8359)" gradientUnits="userSpaceOnUse"><stop id="stop48" offset=".233" stop-color="#B5B5B8"/><stop id="stop50" offset=".626" stop-color="#D9D9DA"/><stop id="stop52" offset="1" stop-color="#6F7072"/></linearGradient><polygon id="polygon54" fill="url(#SVGID_5_)" points="14.367 1.801 14.367 14.242 8.481 15.896 8.481 .194"/><linearGradient id="SVGID_6_" x1="8.321" x2="20.89" y1="14.367" y2="-15.527" gradientTransform="matrix(1 0 0 -1 0.4204 16.8359)" gradientUnits="userSpaceOnUse"><stop id="stop57" offset=".387" stop-color="#B5B5B8"/><stop id="stop59" offset=".626" stop-color="#D9D9DA"/><stop id="stop61" offset="1" stop-color="#6F7072"/></linearGradient><path id="path63" fill="url(#SVGID_6_)" d="M14.367,1.801v12.441l-5.886,1.654c0,0,6.104-2.674,3.575-7.54 C9.257,2.969,14.367,1.801,14.367,1.801z"/></g><g id="g2554" filter="url(#filter1733)" transform="matrix(0.9012658,0,0,0.9012658,-4.4881886,1.9414626)"><g id="g2534"><rect id="rect3177" width="2.842" height="9.946" x="13.545" y="3.761" fill="#fce94f" fill-opacity=".995" stroke="none" stroke-dasharray="none" stroke-dashoffset="0" stroke-linecap="round" stroke-linejoin="miter" stroke-miterlimit="4" stroke-opacity="1" stroke-width="1"/><path id="path3400" fill="none" fill-opacity="1" fill-rule="evenodd" stroke="url(#linearGradient2570)" stroke-dasharray="none" stroke-dashoffset="0" stroke-linecap="square" stroke-linejoin="miter" stroke-miterlimit="4" stroke-opacity="1" stroke-width=".71" marker-end="none" marker-mid="none" marker-start="none" d="M 13.900178,4.1160074 L 13.900178,13.35161 L 16.031472,13.35161 L 16.031472,4.1160074 L 13.900178,4.1160074 z" display="inline" overflow="visible" visibility="visible" style="marker:none"/><path id="path3396" fill="none" fill-opacity="1" fill-rule="evenodd" stroke="#886f00" stroke-dasharray="none" stroke-dashoffset="0" stroke-linecap="square" stroke-linejoin="round" stroke-miterlimit="4" stroke-opacity="1" stroke-width=".71" marker-end="none" marker-mid="none" marker-start="none" d="M 13.189746,3.4055759 L 13.189746,14.062048 L 16.741911,14.062048 L 16.741911,3.4055759 L 13.189746,3.4055759 z" display="inline" overflow="visible" visibility="visible" style="marker:none"/><path id="path3404" fill="url(#radialGradient2572)" fill-opacity="1" fill-rule="evenodd" stroke="none" stroke-dasharray="none" stroke-dashoffset="0" stroke-linecap="square" stroke-linejoin="miter" stroke-miterlimit="4" stroke-opacity="1" stroke-width="1" marker-end="none" marker-mid="none" marker-start="none" d="M 14.255394,4.4712232 L 14.255394,12.996401 L 15.676257,12.996401 L 15.676257,4.4712232 L 14.255394,4.4712232 z" display="inline" overflow="visible" visibility="visible" style="marker:none"/><path id="path3408" fill="#f7f7f7" fill-opacity="1" fill-rule="nonzero" stroke="none" stroke-dasharray="none" stroke-dashoffset="0" stroke-linecap="round" stroke-linejoin="round" stroke-miterlimit="10" stroke-opacity="1" stroke-width="2" marker-end="none" marker-mid="none" marker-start="none" d="M 14.260942,4.4736102 L 14.255394,8.7695185 L 15.676257,7.6428878 L 15.676257,4.4712232 L 14.260942,4.4736102 z" display="block" opacity=".5" overflow="visible" visibility="visible" style="marker:none"/><rect id="rect3162" width="2.826" height="10.078" x="13.592" y="3.707" fill="none" fill-opacity=".995" stroke="none" stroke-dasharray="none" stroke-dashoffset="0" stroke-linecap="round" stroke-linejoin="miter" stroke-miterlimit="4" stroke-opacity="1" stroke-width="1" opacity=".15"/></g><g id="g2542" transform="translate(-1.510791,0)"><rect id="rect3179" width="2.842" height="9.946" x="20.649" y="3.761" fill="#fce94f" fill-opacity=".995" stroke="none" stroke-dasharray="none" stroke-dashoffset="0" stroke-linecap="round" stroke-linejoin="miter" stroke-miterlimit="4" stroke-opacity="1" stroke-width="1"/><path id="path3181" fill="none" fill-opacity="1" fill-rule="evenodd" stroke="url(#linearGradient2574)" stroke-dasharray="none" stroke-dashoffset="0" stroke-linecap="square" stroke-linejoin="miter" stroke-miterlimit="4" stroke-opacity="1" stroke-width=".71" marker-end="none" marker-mid="none" marker-start="none" d="M 21.004493,4.1160074 L 21.004493,13.35161 L 23.135787,13.35161 L 23.135787,4.1160074 L 21.004493,4.1160074 z" display="inline" overflow="visible" visibility="visible" style="marker:none"/><path id="path3185" fill="none" fill-opacity="1" fill-rule="evenodd" stroke="#886f00" stroke-dasharray="none" stroke-dashoffset="0" stroke-linecap="square" stroke-linejoin="round" stroke-miterlimit="4" stroke-opacity="1" stroke-width=".71" marker-end="none" marker-mid="none" marker-start="none" d="M 20.294061,3.4055759 L 20.294061,14.062048 L 23.846226,14.062048 L 23.846226,3.4055759 L 20.294061,3.4055759 z" display="inline" overflow="visible" visibility="visible" style="marker:none"/><path id="path3187" fill="url(#radialGradient2576)" fill-opacity="1" fill-rule="evenodd" stroke="none" stroke-dasharray="none" stroke-dashoffset="0" stroke-linecap="square" stroke-linejoin="miter" stroke-miterlimit="4" stroke-opacity="1" stroke-width="1" marker-end="none" marker-mid="none" marker-start="none" d="M 21.359709,4.4712232 L 21.359709,12.996401 L 22.780572,12.996401 L 22.780572,4.4712232 L 21.359709,4.4712232 z" display="inline" overflow="visible" visibility="visible" style="marker:none"/><path id="path3189" fill="#f7f7f7" fill-opacity="1" fill-rule="nonzero" stroke="none" stroke-dasharray="none" stroke-dashoffset="0" stroke-linecap="round" stroke-linejoin="round" stroke-miterlimit="10" stroke-opacity="1" stroke-width="2" marker-end="none" marker-mid="none" marker-start="none" d="M 21.365257,4.4736102 L 21.359709,8.7695185 L 22.780572,7.6428878 L 22.780572,4.4712232 L 21.365257,4.4736102 z" display="block" opacity=".5" overflow="visible" visibility="visible" style="marker:none"/><rect id="rect3191" width="2.826" height="10.078" x="20.696" y="3.707" fill="none" fill-opacity=".995" stroke="none" stroke-dasharray="none" stroke-dashoffset="0" stroke-linecap="round" stroke-linejoin="miter" stroke-miterlimit="4" stroke-opacity="1" stroke-width="1" opacity=".15"/></g></g><g id="g12796" transform="matrix(0.08344284,0,0,0.08344284,0.02854607,5.2334336)"><path id="path4137" fill="#ffc404" fill-opacity="1" fill-rule="evenodd" stroke="url(#linearGradient4199)" stroke-dasharray="none" stroke-linecap="round" stroke-linejoin="round" stroke-miterlimit="4" stroke-opacity="1" stroke-width="1.821" d="m 63.594525,15.80685 c -2.506042,0.148021 -4.772901,1.659513 -6.024187,4.016797 L 16.791222,96.142808 c -1.324729,2.487114 -1.323664,5.551202 0.0028,8.037242 1.326458,2.48602 3.776617,4.01599 6.426867,4.01315 h 81.558231 c 2.65026,0.003 5.10041,-1.52713 6.42686,-4.01315 1.32646,-2.48604 1.32753,-5.550128 0.003,-8.037242 L 70.429661,19.823647 C 69.033862,17.19393 66.390069,15.640255 63.594525,15.80685 Z" filter="url(#filter3274)" opacity="1" transform="matrix(1.0967227,0,0,1.1002593,-6.1902535,-2.2094077)"/><path id="path3833" fill="url(#linearGradient3857)" fill-opacity="1" fill-rule="evenodd" stroke="none" stroke-dasharray="none" stroke-linecap="round" stroke-linejoin="round" stroke-miterlimit="4" stroke-opacity="1" stroke-width="16" d="m 63.58764,15.32266 c -2.70484,0.160968 -5.151522,1.804653 -6.502071,4.368103 L 13.071555,102.6847 c -1.429817,2.70464 -1.428667,6.03671 0.003,8.74017 1.431683,2.70346 4.076207,4.36723 6.936694,4.36414 H 108.0393 c 2.86049,0.003 5.505,-1.66068 6.93669,-4.36414 1.43167,-2.70346 1.43282,-6.03553 0.003,-8.74017 L 70.964989,19.690763 C 69.458464,16.831053 66.604947,15.141495 63.58764,15.32266 Z"/><path id="path3318" fill="url(#radialGradient3326)" fill-opacity="1" fill-rule="evenodd" stroke="none" stroke-dasharray="none" stroke-linecap="round" stroke-linejoin="round" stroke-miterlimit="4" stroke-opacity="1" stroke-width="16" d="m 63.58764,15.32266 c -2.70484,0.160968 -5.151522,1.804653 -6.502071,4.368103 L 13.071555,102.6847 c -1.429817,2.70464 -1.428667,6.03671 0.003,8.74017 1.431683,2.70346 4.076207,4.36723 6.936694,4.36414 H 108.0393 c 2.86049,0.003 5.505,-1.66068 6.93669,-4.36414 1.43167,-2.70346 1.43282,-6.03553 0.003,-8.74017 L 70.964989,19.690763 C 69.458464,16.831053 66.604947,15.141495 63.58764,15.32266 Z" opacity=".367"/><path id="path4051" fill="url(#radialGradient4076)" fill-opacity="1" fill-rule="evenodd" stroke="none" stroke-dasharray="none" stroke-linecap="round" stroke-linejoin="round" stroke-miterlimit="4" stroke-opacity="1" stroke-width="16" d="m 63.59375,16 c -1.389197,0.08205 -2.704285,0.602887 -3.8125,1.4375 L 64,28 68.21875,17.4375 C 66.88987,16.43384 65.2712,15.900036 63.59375,16 Z" filter="url(#filter4102)" opacity=".922" transform="matrix(1.0919838,0,0,1.0920256,-7.2516225,-2.1497485)"/><path id="path4041" fill="url(#radialGradient4062)" fill-opacity="1" fill-rule="evenodd" stroke="none" stroke-dasharray="none" stroke-linecap="round" stroke-linejoin="round" stroke-miterlimit="4" stroke-opacity="1" stroke-width="16" d="m 25.323922,102.6847 -12.830809,2.14993 c -0.529257,2.19581 -0.257535,4.5686 0.818988,6.58628 1.442413,2.70346 4.113594,4.37119 6.99552,4.3681 h 2.832334 z" opacity=".801"/><path id="path4064" fill="url(#radialGradient4066)" fill-opacity="1" fill-rule="evenodd" stroke="none" stroke-dasharray="none" stroke-linecap="round" stroke-linejoin="round" stroke-miterlimit="4" stroke-opacity="1" stroke-width="16" d="m 102.9576,102.6847 12.83081,2.14993 c 0.52926,2.19581 0.25754,4.5686 -0.81899,6.58628 -1.44241,2.70346 -4.11359,4.37119 -6.99552,4.3681 h -2.83233 z" opacity=".719"/><path id="path3831" fill="url(#radialGradient3849)" fill-opacity="1" fill-rule="evenodd" stroke="none" stroke-dasharray="none" stroke-linecap="round" stroke-linejoin="round" stroke-miterlimit="4" stroke-opacity="1" stroke-width="8" d="m 63.78127,20.006639 c -1.351866,0.08071 -2.574707,0.904915 -3.249704,2.190318 L 16.535558,105.42905 c -0.714615,1.35618 -0.714041,3.02702 0.0015,4.38261 0.715546,1.35561 2.037267,2.18988 3.466925,2.18834 H 107.996 c 1.42967,0.002 2.7514,-0.83273 3.46693,-2.18834 0.71556,-1.35559 0.71612,-3.02643 0.002,-4.38261 L 67.468436,22.196957 c -0.752954,-1.433958 -2.17913,-2.281162 -3.687166,-2.190318 z"/><path id="path3394" fill="none" fill-opacity="1" stroke="url(#radialGradient3406)" stroke-dasharray="none" stroke-linecap="butt" stroke-linejoin="miter" stroke-miterlimit="4" stroke-opacity="1" stroke-width="4" d="M 63.40625,36.71875 C 60.266222,36.913888 57.331988,39.264296 57.875,44 l 3.5625,35.71875 C 62.189089,79.591351 62.962322,79.5 63.75,79.5 c 0.94875,0 1.886426,0.09799 2.78125,0.28125 L 70.09375,44 c 0.690281,-4.956492 -3.128802,-7.502406 -6.6875,-7.28125 z" filter="url(#filter3396)" font-family="Liberation Sans" font-size="83.714" font-style="normal" font-weight="normal" opacity=".75"/><path id="path3962" fill="url(#linearGradient3977)" fill-opacity="1" fill-rule="evenodd" stroke="none" stroke-dasharray="none" stroke-linecap="round" stroke-linejoin="round" stroke-miterlimit="4" stroke-opacity="1" stroke-width="8" d="m 63.385681,19.690763 c -1.372669,0.08048 -2.614328,0.902326 -3.299712,2.184051 L 34.100723,70.162819 h 0.03173 l 25.953518,-47.02535 c 0.685384,-1.249434 1.927043,-2.037344 3.299712,-2.115801 1.531243,-0.0883 2.979366,0.721968 3.743906,2.115801 L 92.35336,68.797787 c 0.01013,-0.0022 0.0216,0.0022 0.03173,0 L 67.12959,21.874814 C 66.36505,20.444959 64.916927,19.60018 63.385684,19.690763 Z"/><path id="path3408-3" fill="none" fill-opacity="1" stroke="url(#radialGradient3410)" stroke-dasharray="none" stroke-linecap="butt" stroke-linejoin="miter" stroke-miterlimit="4" stroke-opacity="1" stroke-width="4" d="m 63.75,86.25 c -3.864,0 -7,3.136 -7,7 0,3.864 3.136,7 7,7 3.864,0 7,-3.136 7,-7 0,-3.864 -3.136,-7 -7,-7 z" filter="url(#filter3396)" font-family="Liberation Sans" font-size="83.714" font-style="normal" font-weight="normal" opacity=".75"/><path id="text3278" fill="url(#linearGradient3391)" fill-opacity="1" stroke="none" stroke-linecap="butt" stroke-linejoin="miter" stroke-opacity="1" stroke-width="1" d="M 63.40625,36.71875 C 60.266222,36.913888 57.331988,39.264296 57.875,44 l 3.5625,35.71875 C 62.189089,79.591351 62.962322,79.5 63.75,79.5 c 0.94875,0 1.886426,0.09799 2.78125,0.28125 L 70.09375,44 c 0.690281,-4.956492 -3.128802,-7.502406 -6.6875,-7.28125 z M 63.75,86.25 c -3.864,0 -7,3.136 -7,7 0,3.864 3.136,7 7,7 3.864,0 7,-3.136 7,-7 0,-3.864 -3.136,-7 -7,-7 z" font-family="Liberation Sans" font-size="83.714" font-style="normal" font-weight="normal"/><path id="path3895" fill="url(#linearGradient4179)" fill-opacity="1" fill-rule="evenodd" stroke="none" stroke-dasharray="none" stroke-linecap="round" stroke-linejoin="round" stroke-miterlimit="4" stroke-opacity="1" stroke-width="8" d="m 63.781556,20.00662 c -1.383038,0.08048 -2.634075,0.902326 -3.324637,2.184051 L 34.275402,70.478676 c 8.029907,1.265205 16.65414,1.94517 25.638067,1.94517 11.832961,0 23.043608,-1.176131 33.086531,-3.310202 L 67.55374,22.190671 C 66.783425,20.760816 65.324364,19.916037 63.781556,20.00662 Z" opacity=".867"/><path id="path3368" fill="url(#linearGradient3383)" fill-opacity="1" fill-rule="evenodd" stroke="none" stroke-dasharray="none" stroke-linecap="round" stroke-linejoin="round" stroke-miterlimit="4" stroke-opacity="1" stroke-width="8" d="m 64.34375,20.03125 c 1.207851,0.179461 2.284124,0.944658 2.90625,2.09375 L 92.125,67.75 c -9.812623,2.074859 -20.782138,3.218751 -32.34375,3.21875 -8.674507,0 -16.983168,-0.672651 -24.75,-1.875 l -0.75,1.375 c 8.029907,1.265205 16.641073,1.96875 25.625,1.96875 C 71.739213,72.437503 82.957077,71.259071 93,69.125 L 67.5625,22.1875 c -0.674027,-1.251124 -1.895384,-2.035689 -3.21875,-2.15625 z" opacity="1"/><g id="g12779"><path id="path3948" fill="none" fill-opacity="1" fill-rule="evenodd" stroke="url(#linearGradient3960)" stroke-dasharray="none" stroke-linecap="round" stroke-linejoin="round" stroke-miterlimit="4" stroke-opacity="1" stroke-width=".955" d="m 63.78125,20 c -1.351989,0.0737 -2.574941,0.826287 -3.25,2 l -44,76 c -0.714681,1.238357 -0.714106,2.764 0.0015,4.00181 0.715621,1.23782 2.037462,1.9996 3.46725,1.99819 h 88 c 1.42979,0.001 2.75163,-0.76037 3.46724,-1.99819 0.71562,-1.23781 0.71619,-2.763453 0.002,-4.00181 l -44,-76 c -0.753022,-1.30936 -2.179327,-2.082949 -3.6875,-2 z" filter="url(#filter3950)" transform="matrix(0.9982143,0,0,1.0992242,-0.2503837,-2.6968261)"/></g></g></svg>