<svg xmlns="http://www.w3.org/2000/svg" xmlns:svg="http://www.w3.org/2000/svg" xmlns:xlink="http://www.w3.org/1999/xlink" id="svg1307" width="128" height="128" enable-background="new 0 0 128 128" overflow="visible" version="1.1" viewBox="0 0 128 128" xml:space="preserve"><metadata id="metadata3847"/><defs id="defs3845"><linearGradient id="linearGradient5075"><stop id="stop5077" offset="0" stop-color="#666" stop-opacity="1"/><stop id="stop5079" offset="1" stop-color="#2c2c2c" stop-opacity="1"/></linearGradient><linearGradient id="linearGradient5045"><stop id="stop5047" offset="0" stop-color="#000" stop-opacity="1"/><stop id="stop5053" offset=".5" stop-color="#000" stop-opacity=".426"/><stop id="stop5049" offset="1" stop-color="#000" stop-opacity="0"/></linearGradient><linearGradient id="linearGradient3394"><stop id="stop3396" offset="0" stop-color="#000" stop-opacity="1"/><stop id="stop3398" offset="1" stop-color="#000" stop-opacity="0"/></linearGradient><radialGradient id="radialGradient3563" cx="34.447" cy="87.857" r="57.774" fx="69.98" fy="87.857" gradientTransform="matrix(1,0,0,0.394366,0.520866,52.29887)" gradientUnits="userSpaceOnUse" xlink:href="#linearGradient3394"/><linearGradient id="linearGradient2594"><stop id="stop2596" offset="0" stop-color="#fafafa" stop-opacity="1"/><stop id="stop2598" offset="1" stop-color="#fafafa" stop-opacity="0"/></linearGradient><linearGradient id="linearGradient3645" x1="-113.998" x2="-102.014" y1="262" y2="265.211" gradientTransform="matrix(-0.522056,0.524838,0.524838,0.522056,-103.788,-3.491973)" gradientUnits="userSpaceOnUse" xlink:href="#linearGradient2594"/><linearGradient id="linearGradient3648" x1="-119.889" x2="-133.023" y1="290.393" y2="277.26" gradientTransform="matrix(-0.71555,-0.189698,-0.189698,0.71555,58.66463,-132.5783)" gradientUnits="userSpaceOnUse" xlink:href="#linearGradient3877"/><linearGradient id="linearGradient3651" x1="-119.94" x2="-123.912" y1="274.45" y2="276.743" gradientTransform="matrix(-0.71555,-0.189698,-0.189698,0.71555,58.66831,-132.5992)" gradientUnits="userSpaceOnUse" xlink:href="#linearGradient3877"/><linearGradient id="linearGradient3654" x1="-135.909" x2="-134.635" y1="273.131" y2="274.506" gradientTransform="matrix(-0.193493,-0.714535,0.714535,-0.193493,-124.2376,51.21838)" gradientUnits="userSpaceOnUse" xlink:href="#linearGradient3877"/><linearGradient id="linearGradient3657" x1="-203.842" x2="-120.47" y1="321.436" y2="273.301" gradientTransform="matrix(-0.71555,-0.189698,-0.189698,0.71555,58.55724,-132.5042)" gradientUnits="userSpaceOnUse" xlink:href="#linearGradient3877"/><linearGradient id="linearGradient4751"><stop id="stop4753" offset="0" stop-color="#6a6a6a" stop-opacity="1"/><stop id="stop4755" offset=".098" stop-color="#c7caca" stop-opacity="1"/><stop id="stop4757" offset=".325" stop-color="#bdc1c4" stop-opacity="1"/><stop id="stop4759" offset=".5" stop-color="#aea6a6" stop-opacity="1"/><stop id="stop4761" offset=".713" stop-color="#fff" stop-opacity="1"/><stop id="stop4763" offset=".901" stop-color="#dfd9df" stop-opacity="1"/><stop id="stop4765" offset="1" stop-color="#3a3a3a" stop-opacity="1"/></linearGradient><linearGradient id="linearGradient3660" x1="-162.56" x2="-118.898" y1="167.366" y2="161.924" gradientTransform="matrix(0.196843,-0.200905,-0.199647,-0.201589,160.7019,97.87814)" gradientUnits="userSpaceOnUse" xlink:href="#linearGradient4751"/><linearGradient id="linearGradient3630" x1="-128.984" x2="-129.631" y1="289.605" y2="280.785" gradientTransform="matrix(0.5,-0.866025,-0.866025,-0.5,175.2813,305.9918)" gradientUnits="userSpaceOnUse" xlink:href="#linearGradient3877"/><linearGradient id="linearGradient3877"><stop id="stop3879" offset="0" stop-color="#000" stop-opacity="1"/><stop id="stop3943" offset=".258" stop-color="#000" stop-opacity=".495"/><stop id="stop3881" offset="1" stop-color="#000" stop-opacity="0"/></linearGradient><linearGradient id="linearGradient3628" x1="-135.909" x2="-134.635" y1="273.131" y2="274.506" gradientTransform="translate(0.156219,2.723527)" gradientUnits="userSpaceOnUse" xlink:href="#linearGradient3877"/><linearGradient id="linearGradient3626" x1="-161.946" x2="-115.944" y1="164.395" y2="160.493" gradientTransform="matrix(0.192457,0.327601,0.333345,-0.189141,-161.2687,357.7563)" gradientUnits="userSpaceOnUse" xlink:href="#linearGradient2783"/><linearGradient id="linearGradient3624" x1="190.035" x2="208.772" y1="90.227" y2="90.227" gradientTransform="matrix(0.912724,0,0,0.424636,-3.966562,175.0292)" gradientUnits="userSpaceOnUse" xlink:href="#linearGradient2783"/><linearGradient id="linearGradient2904"><stop id="stop2906" offset="0" stop-color="#000" stop-opacity="1"/><stop id="stop2908" offset="1" stop-color="#000" stop-opacity="0"/></linearGradient><linearGradient id="linearGradient3622" x1="-151.526" x2="-151.822" y1="289.94" y2="290.109" gradientTransform="translate(4.234914e-2,0.738298)" gradientUnits="userSpaceOnUse" xlink:href="#linearGradient2904"/><linearGradient id="linearGradient3916"><stop id="stop3926" offset="0" stop-color="#fff" stop-opacity="1"/><stop id="stop3935" offset=".36" stop-color="#b9abb9" stop-opacity="1"/><stop id="stop3928" offset=".72" stop-color="#dfd9df" stop-opacity="1"/><stop id="stop3930" offset="1" stop-color="#3a3a3a" stop-opacity="1"/></linearGradient><radialGradient id="radialGradient3620" cx="-151.734" cy="289.98" r=".633" fx="-151.626" fy="290.385" gradientTransform="translate(4.234914e-2,0.738298)" gradientUnits="userSpaceOnUse" xlink:href="#linearGradient3916"/><linearGradient id="linearGradient3794"><stop id="stop3796" offset="0" stop-color="#000" stop-opacity="1"/><stop id="stop3798" offset="1" stop-color="#000" stop-opacity="0"/></linearGradient><linearGradient id="linearGradient3618" x1="-52.533" x2="-52.219" y1="212.261" y2="210.21" gradientTransform="matrix(0.603475,1.045249,-1.045249,0.603475,205.3152,144.826)" gradientUnits="userSpaceOnUse" xlink:href="#linearGradient3794"/><linearGradient id="linearGradient2334"><stop id="stop2336" offset="0" stop-color="#323232" stop-opacity="1"/><stop id="stop2346" offset=".077" stop-color="#9dabc6" stop-opacity="1"/><stop id="stop2342" offset=".5" stop-color="#d1d5d9" stop-opacity="1"/><stop id="stop2348" offset=".782" stop-color="#fff" stop-opacity="1"/><stop id="stop2344" offset=".901" stop-color="#dfd9df" stop-opacity="1"/><stop id="stop2338" offset="1" stop-color="#3a3a3a" stop-opacity="1"/></linearGradient><linearGradient id="linearGradient3616" x1="-52.719" x2="-49.313" y1="182.063" y2="182.063" gradientTransform="matrix(0.577491,1.44816,-1.045249,0.603475,203.6333,164.5422)" gradientUnits="userSpaceOnUse" xlink:href="#linearGradient2334"/><linearGradient id="linearGradient2803"><stop id="stop2809" offset="0" stop-color="#e2dcdc" stop-opacity="1"/><stop id="stop2811" offset=".391" stop-color="#fff" stop-opacity="1"/><stop id="stop2813" offset=".827" stop-color="#dfd9df" stop-opacity="1"/><stop id="stop2815" offset="1" stop-color="#c3c3c3" stop-opacity="1"/></linearGradient><linearGradient id="linearGradient3673" x1="22.229" x2="27.946" y1="-5.352" y2="-5.352" gradientTransform="matrix(0.857073,0,0,0.857073,5.368154,-5.855456)" gradientUnits="userSpaceOnUse" xlink:href="#linearGradient2803"/><linearGradient id="linearGradient2837"><stop id="stop2839" offset="0" stop-color="#000" stop-opacity="1"/><stop id="stop2841" offset="1" stop-color="#000" stop-opacity="0"/></linearGradient><linearGradient id="linearGradient3676" x1="-71.805" x2="-56.4" y1="128.929" y2="224.421" gradientTransform="matrix(1.091175,0,0,0.858996,43.51075,-106.3214)" gradientUnits="userSpaceOnUse" xlink:href="#linearGradient2837"/><linearGradient id="linearGradient3679" x1="175.138" x2="175.101" y1="233.434" y2="226.939" gradientTransform="matrix(0.740269,0,0,0.740269,-123.922,-33.86557)" gradientUnits="userSpaceOnUse" xlink:href="#linearGradient3969"/><linearGradient id="linearGradient3969"><stop id="stop3971" offset="0" stop-color="#000" stop-opacity="1"/><stop id="stop3973" offset="1" stop-color="#000" stop-opacity="0"/></linearGradient><linearGradient id="linearGradient3682" x1="298.998" x2="184.299" y1="186.106" y2="149.33" gradientTransform="matrix(0.740269,0,0,0.740269,-123.922,-33.86557)" gradientUnits="userSpaceOnUse" xlink:href="#linearGradient3969"/><linearGradient id="linearGradient3737"><stop id="stop4830" offset="0" stop-color="#000" stop-opacity="1"/><stop id="stop3741" offset="1" stop-color="#000" stop-opacity="0"/></linearGradient><linearGradient id="linearGradient3685" x1="-53.739" x2="-53.739" y1="145.543" y2="146.014" gradientTransform="matrix(0.740269,0,0,0.740269,39.02986,-89.58136)" gradientUnits="userSpaceOnUse" xlink:href="#linearGradient3737"/><linearGradient id="linearGradient3725"><stop id="stop4825" offset="0" stop-color="#000" stop-opacity="1"/><stop id="stop3729" offset="1" stop-color="#000" stop-opacity="0"/></linearGradient><linearGradient id="linearGradient3688" x1="-44.999" x2="-45.04" y1="132.863" y2="137" gradientTransform="matrix(0.740269,0,0,0.740269,39.02986,-89.58136)" gradientUnits="userSpaceOnUse" xlink:href="#linearGradient3725"/><linearGradient id="linearGradient2816"><stop id="stop2818" offset="0" stop-color="#000" stop-opacity="1"/><stop id="stop2820" offset="1" stop-color="#000" stop-opacity="0"/></linearGradient><linearGradient id="linearGradient3691" x1="-40.932" x2="-44.212" y1="154.805" y2="142.563" gradientTransform="matrix(0.740269,0,0,0.740269,39.02986,-89.58136)" gradientUnits="userSpaceOnUse" xlink:href="#linearGradient2816"/><linearGradient id="linearGradient2783"><stop id="stop2785" offset="0" stop-color="#6a6a6a" stop-opacity="1"/><stop id="stop2787" offset=".207" stop-color="#dfe1e1" stop-opacity="1"/><stop id="stop2799" offset=".325" stop-color="#b8c2c8" stop-opacity="1"/><stop id="stop2789" offset=".5" stop-color="#8d8282" stop-opacity="1"/><stop id="stop2791" offset=".782" stop-color="#fff" stop-opacity="1"/><stop id="stop2793" offset=".901" stop-color="#dfd9df" stop-opacity="1"/><stop id="stop2795" offset="1" stop-color="#3a3a3a" stop-opacity="1"/></linearGradient><linearGradient id="linearGradient3694" x1="190.035" x2="207.948" y1="90.227" y2="90.227" gradientTransform="matrix(0.740269,0,0,0.740269,-141.4285,9.886848)" gradientUnits="userSpaceOnUse" xlink:href="#linearGradient2783"/><linearGradient id="linearGradient2584"><stop id="stop2586" offset="0" stop-color="#000" stop-opacity="1"/><stop id="stop2588" offset="1" stop-color="#000" stop-opacity="0"/></linearGradient><linearGradient id="linearGradient3697" x1="254.013" x2="183.396" y1="282.733" y2="212.116" gradientTransform="matrix(0.740269,0,0,0.740269,-123.922,-51.93738)" gradientUnits="userSpaceOnUse" xlink:href="#linearGradient2584"/><linearGradient id="linearGradient3700" x1="190.035" x2="207.948" y1="90.227" y2="90.227" gradientTransform="matrix(0.617551,0,0,0.287311,-117.0087,7.576418)" gradientUnits="userSpaceOnUse" xlink:href="#linearGradient4735"/><linearGradient id="linearGradient4735"><stop id="stop4737" offset="0" stop-color="#484848" stop-opacity="1"/><stop id="stop4741" offset=".325" stop-color="#9b9b9b" stop-opacity="1"/><stop id="stop4743" offset=".5" stop-color="#8d8282" stop-opacity="1"/><stop id="stop4747" offset=".901" stop-color="#dfd9df" stop-opacity="1"/><stop id="stop4749" offset="1" stop-color="#3a3a3a" stop-opacity="1"/></linearGradient><linearGradient id="linearGradient3703" x1="190.035" x2="207.948" y1="90.227" y2="90.227" gradientTransform="matrix(0.675662,0,0,0.314345,-128.6622,76.72348)" gradientUnits="userSpaceOnUse" xlink:href="#linearGradient4735"/><linearGradient id="linearGradient5688" x1="48.783" x2="77.206" y1="29.467" y2="113.885" gradientUnits="userSpaceOnUse" xlink:href="#path795_1_"/><linearGradient id="linearGradient5690" x1="11.823" x2="19.962" y1="112.944" y2="112.944" gradientUnits="userSpaceOnUse" xlink:href="#polygon861_1_"/><linearGradient id="linearGradient5692" x1="31.638" x2="39.777" y1="111.789" y2="111.789" gradientUnits="userSpaceOnUse" xlink:href="#polygon863_1_"/><linearGradient id="linearGradient5694" x1="51.456" x2="59.593" y1="110.633" y2="110.633" gradientUnits="userSpaceOnUse" xlink:href="#polygon865_1_"/><linearGradient id="linearGradient5696" x1="71.272" x2="79.41" y1="109.476" y2="109.476" gradientUnits="userSpaceOnUse" xlink:href="#polygon867_1_"/><linearGradient id="linearGradient5698" x1="91.087" x2="99.227" y1="108.32" y2="108.32" gradientUnits="userSpaceOnUse" xlink:href="#polygon869_1_"/><linearGradient id="linearGradient5700" x1="110.906" x2="119.045" y1="107.164" y2="107.164" gradientUnits="userSpaceOnUse" xlink:href="#polygon871_1_"/><linearGradient id="linearGradient5702" x1="2.627" x2="7.307" y1="46.807" y2="46.807" gradientUnits="userSpaceOnUse" xlink:href="#polygon873_1_"/><linearGradient id="linearGradient5704" x1="3.749" x2="8.431" y1="66.064" y2="66.064" gradientUnits="userSpaceOnUse" xlink:href="#polygon875_1_"/><linearGradient id="linearGradient5706" x1="4.873" x2="9.554" y1="85.323" y2="85.323" gradientUnits="userSpaceOnUse" xlink:href="#polygon877_1_"/><linearGradient id="linearGradient5708" x1="5.996" x2="10.678" y1="104.581" y2="104.581" gradientUnits="userSpaceOnUse" xlink:href="#polygon879_1_"/><linearGradient id="linearGradient5710" x1="119.164" x2="123.843" y1="97.977" y2="97.977" gradientUnits="userSpaceOnUse" xlink:href="#polygon881_1_"/><linearGradient id="linearGradient5712" x1="118.079" x2="122.76" y1="79.416" y2="79.416" gradientUnits="userSpaceOnUse" xlink:href="#polygon883_1_"/><linearGradient id="linearGradient5714" x1="116.875" x2="121.557" y1="58.762" y2="58.762" gradientUnits="userSpaceOnUse" xlink:href="#polygon885_1_"/><linearGradient id="linearGradient5716" x1="115.79" x2="120.473" y1="40.203" y2="40.203" gradientUnits="userSpaceOnUse" xlink:href="#polygon887_1_"/><linearGradient id="linearGradient5718" x1="7.122" x2="15.26" y1="37.578" y2="37.578" gradientUnits="userSpaceOnUse" xlink:href="#polygon889_1_"/><linearGradient id="linearGradient5720" x1="26.939" x2="35.078" y1="36.422" y2="36.422" gradientUnits="userSpaceOnUse" xlink:href="#polygon891_1_"/><linearGradient id="linearGradient5722" x1="46.755" x2="54.893" y1="35.266" y2="35.266" gradientUnits="userSpaceOnUse" xlink:href="#polygon893_1_"/><linearGradient id="linearGradient5724" x1="66.573" x2="74.711" y1="34.109" y2="34.109" gradientUnits="userSpaceOnUse" xlink:href="#polygon895_1_"/><linearGradient id="linearGradient5726" x1="86.389" x2="94.527" y1="32.954" y2="32.954" gradientUnits="userSpaceOnUse" xlink:href="#polygon897_1_"/><linearGradient id="linearGradient5728" x1="106.203" x2="114.343" y1="31.797" y2="31.797" gradientUnits="userSpaceOnUse" xlink:href="#polygon899_1_"/><radialGradient id="radialGradient5730" cx="215.144" cy="-225.897" r="588.047" gradientTransform="matrix(1.0225,-7.21e-2,-7.21e-2,-1.0225,-409.5518,-213.3734)" gradientUnits="userSpaceOnUse" xlink:href="#path950_1_"/><radialGradient id="radialGradient5732" cx="3331.035" cy="1715.698" r="111.896" gradientTransform="matrix(0.1992,4.11e-2,-3.59e-2,0.2003,-492.5484,-420.882)" gradientUnits="userSpaceOnUse" xlink:href="#path959_1_"/><linearGradient id="linearGradient5051" x1="43.818" x2="43.818" y1="140.613" y2="91.34" gradientUnits="userSpaceOnUse" xlink:href="#linearGradient5045"/><linearGradient id="linearGradient5055" x1="43.818" x2="43.818" y1="140.613" y2="101.709" gradientUnits="userSpaceOnUse" xlink:href="#linearGradient5045"/><linearGradient id="linearGradient5081" x1="45.706" x2="45.706" y1="46.085" y2="123.486" gradientUnits="userSpaceOnUse" xlink:href="#linearGradient5075"/></defs><linearGradient id="path795_1_" x1="48.783" x2="77.206" y1="29.467" y2="113.885" gradientUnits="userSpaceOnUse"><stop id="stop3348" offset="0" stop-color="#E2E7EE"/><stop id="stop3350" offset=".201" stop-color="#FFF"/><stop id="stop3352" offset=".397" stop-color="#F9F9F9"/><stop id="stop3354" offset=".574" stop-color="#E1E6EE"/><stop id="stop3356" offset=".799" stop-color="#FFF"/></linearGradient><linearGradient id="polygon861_1_" x1="11.823" x2="19.962" y1="112.944" y2="112.944" gradientUnits="userSpaceOnUse"><stop id="stop3671" offset="0" stop-color="#0057AE"/><stop id="stop3673" offset="1" stop-color="#6193CF"/></linearGradient><linearGradient id="polygon863_1_" x1="31.638" x2="39.777" y1="111.789" y2="111.789" gradientUnits="userSpaceOnUse"><stop id="stop3677" offset="0" stop-color="#E20800"/><stop id="stop3679" offset="1" stop-color="#E85752"/></linearGradient><linearGradient id="polygon865_1_" x1="51.456" x2="59.593" y1="110.633" y2="110.633" gradientUnits="userSpaceOnUse"><stop id="stop3683" offset="0" stop-color="#0057AE"/><stop id="stop3685" offset="1" stop-color="#6193CF"/></linearGradient><linearGradient id="polygon867_1_" x1="71.272" x2="79.41" y1="109.476" y2="109.476" gradientUnits="userSpaceOnUse"><stop id="stop3689" offset="0" stop-color="#E20800"/><stop id="stop3691" offset="1" stop-color="#E85752"/></linearGradient><linearGradient id="polygon869_1_" x1="91.087" x2="99.227" y1="108.32" y2="108.32" gradientUnits="userSpaceOnUse"><stop id="stop3695" offset="0" stop-color="#0057AE"/><stop id="stop3697" offset="1" stop-color="#6193CF"/></linearGradient><linearGradient id="polygon871_1_" x1="110.906" x2="119.045" y1="107.164" y2="107.164" gradientUnits="userSpaceOnUse"><stop id="stop3701" offset="0" stop-color="#E20800"/><stop id="stop3703" offset="1" stop-color="#E85752"/></linearGradient><linearGradient id="polygon873_1_" x1="2.627" x2="7.307" y1="46.807" y2="46.807" gradientUnits="userSpaceOnUse"><stop id="stop3707" offset="0" stop-color="#0057AE"/><stop id="stop3709" offset="1" stop-color="#6193CF"/></linearGradient><linearGradient id="polygon875_1_" x1="3.749" x2="8.431" y1="66.064" y2="66.064" gradientUnits="userSpaceOnUse"><stop id="stop3713" offset="0" stop-color="#E20800"/><stop id="stop3715" offset="1" stop-color="#E85752"/></linearGradient><linearGradient id="polygon877_1_" x1="4.873" x2="9.554" y1="85.323" y2="85.323" gradientUnits="userSpaceOnUse"><stop id="stop3719" offset="0" stop-color="#0057AE"/><stop id="stop3721" offset="1" stop-color="#6193CF"/></linearGradient><linearGradient id="polygon879_1_" x1="5.996" x2="10.678" y1="104.581" y2="104.581" gradientUnits="userSpaceOnUse"><stop id="stop3725" offset="0" stop-color="#E20800"/><stop id="stop3727" offset="1" stop-color="#E85752"/></linearGradient><linearGradient id="polygon881_1_" x1="119.164" x2="123.843" y1="97.977" y2="97.977" gradientUnits="userSpaceOnUse"><stop id="stop3731" offset="0" stop-color="#0057AE"/><stop id="stop3733" offset="1" stop-color="#6193CF"/></linearGradient><linearGradient id="polygon883_1_" x1="118.079" x2="122.76" y1="79.416" y2="79.416" gradientUnits="userSpaceOnUse"><stop id="stop3737" offset="0" stop-color="#E20800"/><stop id="stop3739" offset="1" stop-color="#E85752"/></linearGradient><linearGradient id="polygon885_1_" x1="116.875" x2="121.557" y1="58.762" y2="58.762" gradientUnits="userSpaceOnUse"><stop id="stop3743" offset="0" stop-color="#0057AE"/><stop id="stop3745" offset="1" stop-color="#6193CF"/></linearGradient><linearGradient id="polygon887_1_" x1="115.79" x2="120.473" y1="40.203" y2="40.203" gradientUnits="userSpaceOnUse"><stop id="stop3749" offset="0" stop-color="#E20800"/><stop id="stop3751" offset="1" stop-color="#E85752"/></linearGradient><linearGradient id="polygon889_1_" x1="7.122" x2="15.26" y1="37.578" y2="37.578" gradientUnits="userSpaceOnUse"><stop id="stop3755" offset="0" stop-color="#E20800"/><stop id="stop3757" offset="1" stop-color="#E85752"/></linearGradient><linearGradient id="polygon891_1_" x1="26.939" x2="35.078" y1="36.422" y2="36.422" gradientUnits="userSpaceOnUse"><stop id="stop3761" offset="0" stop-color="#0057AE"/><stop id="stop3763" offset="1" stop-color="#6193CF"/></linearGradient><linearGradient id="polygon893_1_" x1="46.755" x2="54.893" y1="35.266" y2="35.266" gradientUnits="userSpaceOnUse"><stop id="stop3767" offset="0" stop-color="#E20800"/><stop id="stop3769" offset="1" stop-color="#E85752"/></linearGradient><linearGradient id="polygon895_1_" x1="66.573" x2="74.711" y1="34.109" y2="34.109" gradientUnits="userSpaceOnUse"><stop id="stop3773" offset="0" stop-color="#0057AE"/><stop id="stop3775" offset="1" stop-color="#6193CF"/></linearGradient><linearGradient id="polygon897_1_" x1="86.389" x2="94.527" y1="32.954" y2="32.954" gradientUnits="userSpaceOnUse"><stop id="stop3779" offset="0" stop-color="#E20800"/><stop id="stop3781" offset="1" stop-color="#E85752"/></linearGradient><linearGradient id="polygon899_1_" x1="106.203" x2="114.343" y1="31.797" y2="31.797" gradientUnits="userSpaceOnUse"><stop id="stop3785" offset="0" stop-color="#0057AE"/><stop id="stop3787" offset="1" stop-color="#6193CF"/></linearGradient><radialGradient id="path950_1_" cx="215.144" cy="-225.897" r="588.047" gradientTransform="matrix(1.0225 -0.0721 -0.0721 -1.0225 -409.5518 -213.3734)" gradientUnits="userSpaceOnUse"><stop id="stop3807" offset="0" stop-color="#A4C0E4"/><stop id="stop3809" offset="1" stop-color="#6193CF"/></radialGradient><radialGradient id="path959_1_" cx="3331.035" cy="1715.698" r="111.896" gradientTransform="matrix(0.1992 0.0411 -0.0359 0.2003 -492.5484 -420.882)" gradientUnits="userSpaceOnUse"><stop id="stop3813" offset="0" stop-color="#A4C0E4"/><stop id="stop3815" offset=".757" stop-color="#3385E8"/></radialGradient><g id="layer2" display="inline"><g id="g4248" fill="url(#linearGradient5081)" fill-opacity="1" transform="matrix(0.52986601,0,0,0.52986601,34.782085,21.580972)"><path id="path4250" fill="url(#linearGradient5081)" fill-opacity="1" d="m -59.099436,118.17873 -0.08759,-1.50181 0,-37.333333 0,-37.333333 8,0 8,0 0,16 0,16 0.02428,2.298097 2.499158,-2.298097 15.976557,-16 15.97656,-16 9.5,0 9.5,0 -15.73828,15.761372 c -8.65605,8.668755 -15.73828,16.288481 -15.73828,16.932726 0,0.644245 7.2,10.135029 16,21.090632 8.8,10.955606 16,20.435876 16,21.067276 l 0.795495,1.23638 -9.224065,-0.0884 -8.42857,0 -1.47374,-1.47373 c -0.81055,-0.81055 -6.80184,-8.23556 -13.31398,-16.5 l -11.840241,-15.026266 -1.545876,-1.59099 -1.899431,1.59099 -3.506318,3.078588 -3.506318,3.078589 -0.278478,13.171409 -0.278478,13.17141 -7.043688,0.28965 -7.043688,0.28965 z M 41.11811,116.76025 C 40.535965,115.34333 15.22799,48.313296 14.12026,44.077315 l -0.56278,-2.152074 8.35224,0.292507 8.35224,0.292506 4.70882,14.5 c 2.58985,7.975 6.643185,21.189029 9.38908,29.238827 l 5.298968,15.534329 c 0,0 2.35975,-6.489174 2.660502,-7.541639 0.90063,-3.152334 5.00195,-16.194017 9.11404,-28.981517 l 7.47651,-23.25 7.95155,0 7.95154,0 0,1.284832 c 0,0.980471 -22.82645,63.806964 -26.51009,72.965164 l -0.70389,1.75 -7.77056,0 -8.124123,0.17678 z m 50.785102,1.42113 -0.09024,-1.50446 0,-37.333333 0,-37.333333 10.824818,0 10.82481,0 8.25442,25.745901 c 4.53993,14.160246 8.79731,26.288799 9.02873,26.52022 0.85228,0.852276 1.19106,-1.397671 9.22171,-26.581543 l 8.19031,-25.684578 10.22061,0 10.75094,0 0.0767,1.581787 c 0.10708,2.209444 0.26517,72.836429 0.26517,72.836429 l -0.0767,1.67017 -6.72797,0.0884 -7.08151,0 -0.16505,-1.75856 c -0.0871,-0.92777 -0.60699,-12.88499 -0.60699,-26.700003 l 0,-26.002096 -0.83464,1.833883 c -0.28811,0.633031 -4.35025,11.975 -8.64712,25.45 -4.29686,13.474996 -8.25137,25.062496 -8.7878,25.749996 l -0.53339,1.25 -5.78106,0 -5.33912,0 -8.6942,-26.544233 -8.6942,-26.544237 -1.53371,-1.383101 -0.1195,3.036318 -0.26763,25.467628 -0.26763,25.467625 -6.041038,0.2923 -6.04104,0.29229 z"/></g><g id="g4273" fill="url(#linearGradient5051)" fill-opacity="1" transform="matrix(0.52986601,0,0,-0.52986601,34.782085,146.41903)"><path id="path4275" fill="url(#linearGradient5055)" fill-opacity="1" d="m -59.099436,118.17873 -0.08759,-1.50181 0,-37.333333 0,-37.333333 8,0 8,0 0,16 0,16 0.02428,2.298097 2.499158,-2.298097 15.976557,-16 15.97656,-16 9.5,0 9.5,0 -15.73828,15.761372 c -8.65605,8.668755 -15.73828,16.288481 -15.73828,16.932726 0,0.644245 7.2,10.135029 16,21.090632 8.8,10.955606 16,20.435876 16,21.067276 l 0.795495,1.23638 -9.224065,-0.0884 -8.42857,0 -1.47374,-1.47373 c -0.81055,-0.81055 -6.80184,-8.23556 -13.31398,-16.5 l -11.840241,-15.026266 -1.545876,-1.59099 -1.899431,1.59099 -3.506318,3.078588 -3.506318,3.078589 -0.278478,13.171409 -0.278478,13.17141 -7.043688,0.28965 -7.043688,0.28965 z M 41.11811,116.76025 C 40.535965,115.34333 15.22799,48.313296 14.12026,44.077315 l -0.56278,-2.152074 8.35224,0.292507 8.35224,0.292506 4.70882,14.5 c 2.58985,7.975 6.643185,21.189029 9.38908,29.238827 l 5.298968,15.534329 c 0,0 2.35975,-6.489174 2.660502,-7.541639 0.90063,-3.152334 5.00195,-16.194017 9.11404,-28.981517 l 7.47651,-23.25 7.95155,0 7.95154,0 0,1.284832 c 0,0.980471 -22.82645,63.806964 -26.51009,72.965164 l -0.70389,1.75 -7.77056,0 -8.124123,0.17678 z m 50.785102,1.42113 -0.09024,-1.50446 0,-37.333333 0,-37.333333 10.824818,0 10.82481,0 8.25442,25.745901 c 4.53993,14.160246 8.79731,26.288799 9.02873,26.52022 0.85228,0.852276 1.19106,-1.397671 9.22171,-26.581543 l 8.19031,-25.684578 10.22061,0 10.75094,0 0.0767,1.581787 c 0.10708,2.209444 0.26517,72.836429 0.26517,72.836429 l -0.0767,1.67017 -6.72797,0.0884 -7.08151,0 -0.16505,-1.75856 c -0.0871,-0.92777 -0.60699,-12.88499 -0.60699,-26.700003 l 0,-26.002096 -0.83464,1.833883 c -0.28811,0.633031 -4.35025,11.975 -8.64712,25.45 -4.29686,13.474996 -8.25137,25.062496 -8.7878,25.749996 l -0.53339,1.25 -5.78106,0 -5.33912,0 -8.6942,-26.544233 -8.6942,-26.544237 -1.53371,-1.383101 -0.1195,3.036318 -0.26763,25.467628 -0.26763,25.467625 -6.041038,0.2923 -6.04104,0.29229 z"/></g></g></svg>