<svg xmlns="http://www.w3.org/2000/svg" xmlns:svg="http://www.w3.org/2000/svg" xmlns:xlink="http://www.w3.org/1999/xlink" id="svg3802" width="101.21" height="157.561" version="1.1"><defs id="defs3804"><linearGradient id="linearGradient3956"><stop id="stop3958" offset="0" stop-color="#929292" stop-opacity="1"/><stop id="stop3960" offset="1" stop-color="#787878" stop-opacity="1"/></linearGradient><linearGradient id="linearGradient3947"><stop id="stop3949" offset="0" stop-color="#93c347" stop-opacity="1"/><stop id="stop3951" offset="1" stop-color="#7cb621" stop-opacity="1"/></linearGradient><clipPath id="clipPath620"><path id="path622" d="m 0,0 1600,0 0,1200 L 0,1200 0,0 z"/></clipPath><mask id="mask638"><g id="g640"><g id="g642" clip-path="url(#clipPath628)"><g id="g644"><g id="g646"><path id="path648" fill="url(#linearGradient632)" stroke="none" d="m -32763.3,32767 65530.3,0 0,-64152.4 -65530.3,0 0,64152.4 z"/></g></g></g></g></mask><clipPath id="clipPath628"><path id="path630" d="m -32763.3,32767 65530.3,0 0,-64152.4 -65530.3,0 0,64152.4 z"/></clipPath><linearGradient id="linearGradient632" x1="0" x2="1" y1="0" y2="0" gradientTransform="matrix(0,50.483902,50.483902,0,448.66217,823.51617)" gradientUnits="userSpaceOnUse" spreadMethod="pad"><stop id="stop634" offset="0" stop-color="#fff" stop-opacity="1"/><stop id="stop636" offset="1" stop-color="#fff" stop-opacity=".8"/></linearGradient><clipPath id="clipPath654"><path id="path656" d="m 447.662,875 58.803,0 0,-52.484 -58.803,0 0,52.484 z"/></clipPath><mask id="mask680"><g id="g682"><g id="g684" clip-path="url(#clipPath670)"><g id="g686"><g id="g688"><path id="path690" fill="url(#linearGradient674)" stroke="none" d="m -32768,32767 65517.5,0 0,-64238.3 -65517.5,0 0,64238.3 z"/></g></g></g></g></mask><clipPath id="clipPath670"><path id="path672" d="m -32768,32767 65517.5,0 0,-64238.3 -65517.5,0 0,64238.3 z"/></clipPath><linearGradient id="linearGradient674" x1="0" x2="1" y1="0" y2="0" gradientTransform="matrix(0,138.4558,138.4558,0,466.52438,716.43945)" gradientUnits="userSpaceOnUse" spreadMethod="pad"><stop id="stop676" offset="0" stop-color="#fff" stop-opacity="1"/><stop id="stop678" offset="1" stop-color="#fff" stop-opacity=".8"/></linearGradient><clipPath id="clipPath696"><path id="path698" d="m 465.524,855.895 68.081,0 0,-140.456 -68.081,0 0,140.456 z"/></clipPath><mask id="mask722"><g id="g724"><g id="g726" clip-path="url(#clipPath712)"><g id="g728"><g id="g730"><path id="path732" fill="url(#linearGradient716)" stroke="none" d="m -32768,32767 65517.5,0 0,-64238.3 -65517.5,0 0,64238.3 z"/></g></g></g></g></mask><clipPath id="clipPath712"><path id="path714" d="m -32768,32767 65517.5,0 0,-64238.3 -65517.5,0 0,64238.3 z"/></clipPath><linearGradient id="linearGradient716" x1="0" x2="1" y1="0" y2="0" gradientTransform="matrix(0,70.230606,70.230606,0,431.39499,733.70483)" gradientUnits="userSpaceOnUse" spreadMethod="pad"><stop id="stop718" offset="0" stop-color="#fff" stop-opacity="1"/><stop id="stop720" offset="1" stop-color="#fff" stop-opacity=".8"/></linearGradient><clipPath id="clipPath738"><path id="path740" d="m 430.395,804.935 47.212,0 0,-72.23 -47.212,0 0,72.23 z"/></clipPath><linearGradient id="linearGradient3953" x1="46.028" x2="46.028" y1=".54" y2="47.942" gradientUnits="userSpaceOnUse" xlink:href="#linearGradient3947"/><linearGradient id="linearGradient3962" x1="57.813" x2="57.813" y1="20.499" y2="151.758" gradientUnits="userSpaceOnUse" xlink:href="#linearGradient3956"/></defs><metadata id="metadata3807"/><path id="path664" fill="url(#linearGradient3953)" fill-opacity="1" fill-rule="nonzero" stroke="none" d="M 72.51,19.08 C 72.319,18.548 72.121,18.034 71.909,17.542 67.639,7.249 57.513,0 45.676,0 29.986,0 17.267,12.72 17.267,28.411 c 0,8.913 4.107,16.865 10.53,22.073 0.115,-3.476 0.676,-6.841 1.621,-10.043 -2.497,-3.366 -3.976,-7.528 -3.976,-12.03 0,-11.158 9.076,-20.235 20.234,-20.235 2.153,0 4.223,0.349 6.171,0.975 5.217,1.654 9.577,5.268 11.758,9.63 2.87,5.741 2.974,9.67 1.418,15.221 -0.043,0.241 -0.102,0.485 -0.2,0.741 1.245,2.461 5.082,4.171 7.781,3.605 0.247,-0.866 0.441,-1.7 0.622,-2.525 0.061,-0.282 0.126,-0.567 0.179,-0.845 0.126,-0.641 0.228,-1.265 0.317,-1.881 0.07,-0.496 0.126,-0.983 0.175,-1.464 0.511,-5.03 -0.168,-9.185 -1.358,-12.524 -0.007,-0.001 -0.013,-0.003 -0.019,-0.004 -0.003,-0.008 -0.007,-0.017 -0.01,-0.025"/><path id="path748" fill="url(#linearGradient3962)" fill-opacity="1" fill-rule="nonzero" stroke="none" d="M 32.022,70.0649 0,122.0659 l 4.412,18.23 26.285,-6.365 -2.589,-10.697 11.835,-2.864 -2.749,-11.352 8.017,-1.94 0,-21.898 c -5.562,-3.843 -10.117,-9.043 -13.189,-15.115 m 69.1875,-18.2136 c 0,-16.772 -12.5,-30.616 -28.69,-32.746 l 0,0 c 0.007,0.001 0.013,0.002 0.019,0.003 1.102,3.091 1.753,6.891 1.44,11.427 0.019,0.067 0.03,0.105 0.03,0.105 1.444,1.478 2.338,3.498 2.338,5.728 0,4.526 -3.668,8.194 -8.193,8.195 -4.525,0 -8.195,-3.669 -8.196,-8.195 10e-4,-3.747 2.519,-6.9 5.952,-7.876 0,0.036 0.032,0.053 0.081,0.059 0.148,-3.007 -0.506,-5.874 -2.215,-9.398 l -0.129,-0.026 c -16.106,2.206 -28.518,16.012 -28.518,32.724 10e-4,18.248 14.793,33.04 33.04,33.041 18.248,0 33.041,-14.793 33.041,-33.041 m -48.555,37.584 -10e-4,54.863 13.263,13.263 19.123,-19.124 -7.782,-7.783 8.611,-8.609 -8.259,-8.258 8.259,-8.259 0,-17.057 c -10.653,5.089 -22.747,5.245 -33.214,0.964"/></svg>