<svg xmlns="http://www.w3.org/2000/svg" xmlns:svg="http://www.w3.org/2000/svg" xmlns:xlink="http://www.w3.org/1999/xlink" id="svg3956" width="112.1" height="142.474" version="1.1"><defs id="defs3958"><linearGradient id="linearGradient4135"><stop id="stop4137" offset="0" stop-color="#93c347" stop-opacity="1"/><stop id="stop4139" offset="1" stop-color="#7eb724" stop-opacity="1"/></linearGradient><linearGradient id="linearGradient4127"><stop id="stop4129" offset="0" stop-color="#929292" stop-opacity="1"/><stop id="stop4131" offset="1" stop-color="#787878" stop-opacity="1"/></linearGradient><clipPath id="clipPath660"><path id="path662" d="m 0,0 1600,0 0,1200 L 0,1200 0,0 z"/></clipPath><mask id="mask678"><g id="g680"><g id="g682" clip-path="url(#clipPath668)"><g id="g684"><g id="g686"><path id="path688" fill="url(#linearGradient672)" stroke="none" d="m -31612.3,32767 64379.3,0 0,-64876.3 -64379.3,0 0,64876.3 z"/></g></g></g></g></mask><clipPath id="clipPath668"><path id="path670" d="m -31612.3,32767 64379.3,0 0,-64876.3 -64379.3,0 0,64876.3 z"/></clipPath><linearGradient id="linearGradient672" x1="0" x2="1" y1="0" y2="0" gradientTransform="matrix(0,34.623306,34.623306,0,165.67883,734.40054)" gradientUnits="userSpaceOnUse" spreadMethod="pad"><stop id="stop674" offset="0" stop-color="#fff" stop-opacity="1"/><stop id="stop676" offset="1" stop-color="#fff" stop-opacity=".8"/></linearGradient><clipPath id="clipPath694"><path id="path696" d="m 424.95,740.754 114.1,0 0,-27.52 -114.1,0 0,27.52 z"/></clipPath><mask id="mask708"><g id="g710"><g id="g712" clip-path="url(#clipPath698)"><g id="g714"><g id="g716"><path id="path718" fill="url(#linearGradient702)" stroke="none" d="m -32590.8,32767 65357.8,0 0,-64379.6 -65357.8,0 0,64379.6 z"/></g></g></g></g></mask><clipPath id="clipPath698"><path id="path700" d="m -32590.8,32767 65357.8,0 0,-64379.6 -65357.8,0 0,64379.6 z"/></clipPath><linearGradient id="linearGradient702" x1="0" x2="1" y1="0" y2="0" gradientTransform="matrix(0,34.623306,34.623306,0,-812.76025,1231.0987)" gradientUnits="userSpaceOnUse" spreadMethod="pad"><stop id="stop704" offset="0" stop-color="#fff" stop-opacity="1"/><stop id="stop706" offset="1" stop-color="#fff" stop-opacity=".8"/></linearGradient><clipPath id="clipPath720"><path id="path722" d="m 461.469,740.754 41.062,0 0,-27.52 -41.062,0 0,27.52 z"/></clipPath><mask id="mask734"><g id="g736"><g id="g738" clip-path="url(#clipPath724)"><g id="g740"><g id="g742"><path id="path744" fill="url(#linearGradient728)" stroke="none" d="m -32590.8,32767 65357.8,0 0,-64379.6 -65357.8,0 0,64379.6 z"/></g></g></g></g></mask><clipPath id="clipPath724"><path id="path726" d="m -32590.8,32767 65357.8,0 0,-64379.6 -65357.8,0 0,64379.6 z"/></clipPath><linearGradient id="linearGradient728" x1="0" x2="1" y1="0" y2="0" gradientTransform="matrix(0,34.623306,34.623306,0,-812.76025,1231.0987)" gradientUnits="userSpaceOnUse" spreadMethod="pad"><stop id="stop730" offset="0" stop-color="#fff" stop-opacity="1"/><stop id="stop732" offset="1" stop-color="#fff" stop-opacity=".8"/></linearGradient><clipPath id="clipPath746"><path id="path748" d="m 508.343,729.066 30.707,0 0,-15.832 -30.707,0 0,15.832 z"/></clipPath><mask id="mask760"><g id="g762"><g id="g764" clip-path="url(#clipPath750)"><g id="g766"><g id="g768"><path id="path770" fill="url(#linearGradient754)" stroke="none" d="m -32590.8,32767 65357.8,0 0,-64379.6 -65357.8,0 0,64379.6 z"/></g></g></g></g></mask><clipPath id="clipPath750"><path id="path752" d="m -32590.8,32767 65357.8,0 0,-64379.6 -65357.8,0 0,64379.6 z"/></clipPath><linearGradient id="linearGradient754" x1="0" x2="1" y1="0" y2="0" gradientTransform="matrix(0,34.623306,34.623306,0,-812.76025,1231.0987)" gradientUnits="userSpaceOnUse" spreadMethod="pad"><stop id="stop756" offset="0" stop-color="#fff" stop-opacity="1"/><stop id="stop758" offset="1" stop-color="#fff" stop-opacity=".8"/></linearGradient><clipPath id="clipPath772"><path id="path774" d="m 424.95,729.066 30.707,0 0,-15.832 -30.707,0 0,15.832 z"/></clipPath><mask id="mask838"><g id="g840"><g id="g842" clip-path="url(#clipPath828)"><g id="g844"><g id="g846"><path id="path848" fill="url(#linearGradient832)" stroke="none" d="m -31783.6,32767 64550.6,0 0,-59296.5 -64550.6,0 0,59296.5 z"/></g></g></g></g></mask><clipPath id="clipPath828"><path id="path830" d="m -31783.6,32767 64550.6,0 0,-59296.5 -64550.6,0 0,59296.5 z"/></clipPath><linearGradient id="linearGradient832" x1="0" x2="1" y1="0" y2="0" gradientTransform="matrix(0,111.80894,111.80894,0,426.10229,745.89844)" gradientUnits="userSpaceOnUse" spreadMethod="pad"><stop id="stop834" offset="0" stop-color="#fff" stop-opacity="1"/><stop id="stop836" offset="1" stop-color="#fff" stop-opacity=".8"/></linearGradient><clipPath id="clipPath854"><path id="path856" d="m 426.102,857.708 111.796,0 0,-111.81 -111.796,0 0,111.81 z"/></clipPath><linearGradient id="linearGradient4133" x1="57.886" x2="57.886" y1="118.123" y2="141.24" gradientUnits="userSpaceOnUse" xlink:href="#linearGradient4127"/><linearGradient id="linearGradient4141" x1="57.16" x2="57.16" y1="1.102" y2="107.411" gradientUnits="userSpaceOnUse" xlink:href="#linearGradient4135"/></defs><metadata id="metadata3961"/><path id="path822" fill="url(#linearGradient4133)" fill-opacity="1" fill-rule="nonzero" stroke="none" d="m 28.707,128.64184 -28.707,0 0,13.832 28.707,0 0,-13.832 z m 83.393,0 -28.707,0 0,13.832 28.707,0 0,-13.832 z m -48.2378,-11.6884 -15.624,0 0,11.688 -11.719,0 0,0.161 0,13.672 39.062,0 0,-13.672 0,-0.161 -11.719,0 0,-11.688 z"/><path id="path864" fill="url(#linearGradient4141)" fill-opacity="1" fill-rule="nonzero" stroke="none" d="m 102.2889,25.29674 c -7.716,-2.248 -15.834,-3.292 -24.07,-2.974 -0.267,1.312 -0.923,2.518 -1.883,3.502 7.473,12.164 11.676,26.243 12.068,40.543 4.641,1.732 6.538,7.277 3.959,11.707 2.513,3.445 4.751,7.097 6.702,10.928 14.913,-18.843 15.562,-44.413 3.224,-63.706 m -5.145,-6.806 c -11.385,-12.833 -28.407,-19.837 -45.912,-18.275 5.726,3.687 10.91,8.033 15.468,12.933 4.068,-1.032 8.382,0.681 10.445,3.864 6.713,-0.346 13.423,0.153 19.999,1.478 m -54.158,-16.9 c -23.089,5.682 -38.988,25.031 -41.487,47.184 3.919,-1.277 7.857,-2.255 12.076,-2.953 0.853,-5.392 6.557,-8.582 11.387,-6.364 10.231,-9.807 22.62,-16.491 35.774,-19.906 0.127,-1.255 0.605,-2.433 1.366,-3.442 -5.589,-5.845 -12.056,-10.734 -19.116,-14.519 m -28.476,49.488 c -4.704,0.768 -9.071,1.914 -13.356,3.443 -0.04,6.065 0.926,12.089 2.907,17.964 2.506,-7.46 6.057,-14.516 10.652,-21.068 -0.07,-0.11 -0.138,-0.224 -0.203,-0.339 m 4.474,3.597 c -5.398,7.73 -9.345,16.428 -11.594,25.626 12.171,23.386 39.596,34.96 64.963,27.01 4.682,-7.876 7.947,-16.579 9.562,-25.683 -4.285,-1.883 -5.979,-7.085 -3.659,-11.333 -13.4,-12.353 -31.004,-19.664 -49.501,-20.178 -1.721,3.782 -5.918,5.739 -9.771,4.558 m 10.302,-9.908 c 20.324,0.626 39.063,8.954 52.913,21.849 0.296,-0.133 0.512,-0.219 0.847,-0.331 -0.384,-13.442 -4.368,-26.626 -11.512,-38.046 -3.654,0.597 -7.308,-0.92 -9.302,-3.574 -12.64,3.259 -24.102,9.634 -33.467,18.595 0.261,0.565 0.408,1.031 0.521,1.507 m 58.024,37.226 c -1.295,7.641 -3.7,15.124 -7.198,22.25 5.745,-2.792 10.835,-6.507 15.14,-10.905 -1.979,-4.15 -4.304,-8.059 -6.932,-11.699 -0.302,0.126 -0.573,0.232 -1.01,0.354"/></svg>