<svg xmlns="http://www.w3.org/2000/svg" xmlns:svg="http://www.w3.org/2000/svg" xmlns:xlink="http://www.w3.org/1999/xlink" id="svg4090" width="86.944" height="86.944" version="1.1"><defs id="defs4092"><linearGradient id="linearGradient3863"><stop id="stop3865" offset="0" stop-color="#e23656" stop-opacity="1"/><stop id="stop3867" offset="1" stop-color="#dc0a31" stop-opacity="1"/></linearGradient><clipPath id="clipPath710"><path id="path712" d="m 0,0 1600,0 0,1200 L 0,1200 0,0 z"/></clipPath><mask id="mask728"><g id="g730"><g id="g732" clip-path="url(#clipPath718)"><g id="g734"><g id="g736"><path id="path738" fill="url(#linearGradient722)" stroke="none" d="m -32734.7,32767 65501.7,0 0,-65275.5 -65501.7,0 0,65275.5 z"/></g></g></g></g></mask><clipPath id="clipPath718"><path id="path720" d="m -32734.7,32767 65501.7,0 0,-65275.5 -65501.7,0 0,65275.5 z"/></clipPath><linearGradient id="linearGradient722" x1="0" x2="1" y1="0" y2="0" gradientTransform="matrix(0,232.43704,232.43704,0,423.74478,587.43188)" gradientUnits="userSpaceOnUse" spreadMethod="pad"><stop id="stop724" offset="0" stop-color="#fff" stop-opacity="1"/><stop id="stop726" offset="1" stop-color="#fff" stop-opacity=".8"/></linearGradient><clipPath id="clipPath744"><path id="path746" d="m 450.424,694.206 86.831,0 0,-107.774 -86.831,0 0,107.774 z"/></clipPath><mask id="mask770"><g id="g772"><g id="g774" clip-path="url(#clipPath760)"><g id="g776"><g id="g778"><path id="path780" fill="url(#linearGradient764)" stroke="none" d="m -32649.8,32767 65416.8,0 0,-65186.3 -65416.8,0 0,65186.3 z"/></g></g></g></g></mask><clipPath id="clipPath760"><path id="path762" d="m -32649.8,32767 65416.8,0 0,-65186.3 -65416.8,0 0,65186.3 z"/></clipPath><linearGradient id="linearGradient764" x1="0" x2="1" y1="0" y2="0" gradientTransform="matrix(0,188.274,188.274,0,434.4429,614.13977)" gradientUnits="userSpaceOnUse" spreadMethod="pad"><stop id="stop766" offset="0" stop-color="#fff" stop-opacity="1"/><stop id="stop768" offset="1" stop-color="#fff" stop-opacity=".8"/></linearGradient><clipPath id="clipPath786"><path id="path788" d="m 473.446,803.414 44.105,0 0,-37.509 -44.105,0 0,37.509 z"/></clipPath><mask id="mask812"><g id="g814"><g id="g816" clip-path="url(#clipPath802)"><g id="g818"><g id="g820"><path id="path822" fill="url(#linearGradient806)" stroke="none" d="m -32653.8,32767 65420.8,0 0,-65186.3 -65420.8,0 0,65186.3 z"/></g></g></g></g></mask><clipPath id="clipPath802"><path id="path804" d="m -32653.8,32767 65420.8,0 0,-65186.3 -65420.8,0 0,65186.3 z"/></clipPath><linearGradient id="linearGradient806" x1="0" x2="1" y1="0" y2="0" gradientTransform="matrix(0,188.274,188.274,0,430.4429,614.13977)" gradientUnits="userSpaceOnUse" spreadMethod="pad"><stop id="stop808" offset="0" stop-color="#fff" stop-opacity="1"/><stop id="stop810" offset="1" stop-color="#fff" stop-opacity=".8"/></linearGradient><clipPath id="clipPath828"><path id="path830" d="m 438.551,779.299 41.862,0 0,-41.45 -41.862,0 0,41.45 z"/></clipPath><mask id="mask854"><g id="g856"><g id="g858" clip-path="url(#clipPath844)"><g id="g860"><g id="g862"><path id="path864" fill="url(#linearGradient848)" stroke="none" d="m -32734.7,32767 65501.7,0 0,-65275.5 -65501.7,0 0,65275.5 z"/></g></g></g></g></mask><clipPath id="clipPath844"><path id="path846" d="m -32734.7,32767 65501.7,0 0,-65275.5 -65501.7,0 0,65275.5 z"/></clipPath><linearGradient id="linearGradient848" x1="0" x2="1" y1="0" y2="0" gradientTransform="matrix(0,232.43704,232.43704,0,423.74478,587.43188)" gradientUnits="userSpaceOnUse" spreadMethod="pad"><stop id="stop850" offset="0" stop-color="#fff" stop-opacity="1"/><stop id="stop852" offset="1" stop-color="#fff" stop-opacity=".8"/></linearGradient><clipPath id="clipPath870"><path id="path872" d="m 426.745,690.314 21.596,0 0,-102.549 -21.596,0 0,102.549 z"/></clipPath><mask id="mask896"><g id="g898"><g id="g900" clip-path="url(#clipPath886)"><g id="g902"><g id="g904"><path id="path906" fill="url(#linearGradient890)" stroke="none" d="m -32736.1,32767 65503.1,0 0,-65281.6 -65503.1,0 0,65281.6 z"/></g></g></g></g></mask><clipPath id="clipPath886"><path id="path888" d="m -32736.1,32767 65503.1,0 0,-65281.6 -65503.1,0 0,65281.6 z"/></clipPath><linearGradient id="linearGradient890" x1="0" x2="1" y1="0" y2="0" gradientTransform="matrix(0,232.43704,232.43704,0,422.34073,581.34842)" gradientUnits="userSpaceOnUse" spreadMethod="pad"><stop id="stop892" offset="0" stop-color="#fff" stop-opacity="1"/><stop id="stop894" offset="1" stop-color="#fff" stop-opacity=".8"/></linearGradient><clipPath id="clipPath912"><path id="path914" d="m 463.745,730.432 55.772,0 0,-44.328 -55.772,0 0,44.328 z"/></clipPath><mask id="mask938"><g id="g940"><g id="g942" clip-path="url(#clipPath928)"><g id="g944"><g id="g946"><path id="path948" fill="url(#linearGradient932)" stroke="none" d="m -32760.8,32767 65527.8,0 0,-65276.5 -65527.8,0 0,65276.5 z"/></g></g></g></g></mask><clipPath id="clipPath928"><path id="path930" d="m -32760.8,32767 65527.8,0 0,-65276.5 -65527.8,0 0,65276.5 z"/></clipPath><linearGradient id="linearGradient932" x1="0" x2="1" y1="0" y2="0" gradientTransform="matrix(0,232.43704,232.43704,0,397.61954,586.51694)" gradientUnits="userSpaceOnUse" spreadMethod="pad"><stop id="stop934" offset="0" stop-color="#fff" stop-opacity="1"/><stop id="stop936" offset="1" stop-color="#fff" stop-opacity=".8"/></linearGradient><clipPath id="clipPath954"><path id="path956" d="m 439.024,735.598 55.772,0 0,-44.326 -55.772,0 0,44.326 z"/></clipPath><clipPath id="clipPath726"><path id="path728" d="m 0,0 1600,0 0,1200 L 0,1200 0,0 z"/></clipPath><linearGradient id="linearGradient3869" x1="43.804" x2="43.14" y1="2.947" y2="82.523" gradientUnits="userSpaceOnUse" xlink:href="#linearGradient3863"/></defs><metadata id="metadata4095"/><path id="path732" fill="url(#linearGradient3869)" fill-opacity="1" fill-rule="nonzero" stroke="none" d="m 2.1736173,43.47199 c 0,-22.809742 18.4886287,-41.2983706 41.2983707,-41.2983706 22.809742,0 41.29837,18.4886286 41.29837,41.2983706 0,22.809742 -18.488628,41.298371 -41.29837,41.298371 -22.809742,0 -41.2983707,-18.488629 -41.2983707,-41.298371"/><path id="path744-9" fill="#fff" fill-opacity="1" fill-rule="nonzero" stroke="none" d="m 47.032342,18.462132 -7.120709,0 1.038981,35.242725 5.186205,0 0.895523,-35.242725 z M 46.836718,61.37766 c -0.656427,-0.630344 -1.795392,-0.947689 -3.416897,-0.947689 -1.551949,0 -2.656137,0.317345 -3.312564,0.947689 -0.656426,0.634691 -0.982466,1.664976 -0.982466,3.095204 0,1.265034 0.291262,2.251848 0.878134,2.951747 0.582524,0.704246 1.72149,1.056369 3.416896,1.056369 1.525866,0 2.638749,-0.291263 3.342995,-0.873787 0.704246,-0.586872 1.056369,-1.630199 1.056369,-3.134329 0,-1.430228 -0.32604,-2.460513 -0.982467,-3.095204"/></svg>