<svg xmlns="http://www.w3.org/2000/svg" xmlns:svg="http://www.w3.org/2000/svg" xmlns:xlink="http://www.w3.org/1999/xlink" id="svg4090" width="108.511" height="214.982" version="1.1"><defs id="defs4092"><linearGradient id="linearGradient4170"><stop id="stop4172" offset="0" stop-color="#787878" stop-opacity="1"/><stop id="stop4174" offset="1" stop-color="#929292" stop-opacity="1"/></linearGradient><linearGradient id="linearGradient4161"><stop id="stop4163" offset="0" stop-color="#7cb621" stop-opacity="1"/><stop id="stop4165" offset="1" stop-color="#93c347" stop-opacity="1"/></linearGradient><linearGradient id="linearGradient4152"><stop id="stop4154" offset="0" stop-color="#e13253" stop-opacity="1"/><stop id="stop4156" offset="1" stop-color="#db0930" stop-opacity="1"/></linearGradient><clipPath id="clipPath710"><path id="path712" d="m 0,0 1600,0 0,1200 L 0,1200 0,0 z"/></clipPath><mask id="mask728"><g id="g730"><g id="g732" clip-path="url(#clipPath718)"><g id="g734"><g id="g736"><path id="path738" fill="url(#linearGradient722)" stroke="none" d="m -32734.7,32767 65501.7,0 0,-65275.5 -65501.7,0 0,65275.5 z"/></g></g></g></g></mask><clipPath id="clipPath718"><path id="path720" d="m -32734.7,32767 65501.7,0 0,-65275.5 -65501.7,0 0,65275.5 z"/></clipPath><linearGradient id="linearGradient722" x1="0" x2="1" y1="0" y2="0" gradientTransform="matrix(0,232.43704,232.43704,0,423.74478,587.43188)" gradientUnits="userSpaceOnUse" spreadMethod="pad"><stop id="stop724" offset="0" stop-color="#fff" stop-opacity="1"/><stop id="stop726" offset="1" stop-color="#fff" stop-opacity=".8"/></linearGradient><clipPath id="clipPath744"><path id="path746" d="m 450.424,694.206 86.831,0 0,-107.774 -86.831,0 0,107.774 z"/></clipPath><mask id="mask770"><g id="g772"><g id="g774" clip-path="url(#clipPath760)"><g id="g776"><g id="g778"><path id="path780" fill="url(#linearGradient764)" stroke="none" d="m -32649.8,32767 65416.8,0 0,-65186.3 -65416.8,0 0,65186.3 z"/></g></g></g></g></mask><clipPath id="clipPath760"><path id="path762" d="m -32649.8,32767 65416.8,0 0,-65186.3 -65416.8,0 0,65186.3 z"/></clipPath><linearGradient id="linearGradient764" x1="0" x2="1" y1="0" y2="0" gradientTransform="matrix(0,188.274,188.274,0,434.4429,614.13977)" gradientUnits="userSpaceOnUse" spreadMethod="pad"><stop id="stop766" offset="0" stop-color="#fff" stop-opacity="1"/><stop id="stop768" offset="1" stop-color="#fff" stop-opacity=".8"/></linearGradient><clipPath id="clipPath786"><path id="path788" d="m 473.446,803.414 44.105,0 0,-37.509 -44.105,0 0,37.509 z"/></clipPath><mask id="mask812"><g id="g814"><g id="g816" clip-path="url(#clipPath802)"><g id="g818"><g id="g820"><path id="path822" fill="url(#linearGradient806)" stroke="none" d="m -32653.8,32767 65420.8,0 0,-65186.3 -65420.8,0 0,65186.3 z"/></g></g></g></g></mask><clipPath id="clipPath802"><path id="path804" d="m -32653.8,32767 65420.8,0 0,-65186.3 -65420.8,0 0,65186.3 z"/></clipPath><linearGradient id="linearGradient806" x1="0" x2="1" y1="0" y2="0" gradientTransform="matrix(0,188.274,188.274,0,430.4429,614.13977)" gradientUnits="userSpaceOnUse" spreadMethod="pad"><stop id="stop808" offset="0" stop-color="#fff" stop-opacity="1"/><stop id="stop810" offset="1" stop-color="#fff" stop-opacity=".8"/></linearGradient><clipPath id="clipPath828"><path id="path830" d="m 438.551,779.299 41.862,0 0,-41.45 -41.862,0 0,41.45 z"/></clipPath><mask id="mask854"><g id="g856"><g id="g858" clip-path="url(#clipPath844)"><g id="g860"><g id="g862"><path id="path864" fill="url(#linearGradient848)" stroke="none" d="m -32734.7,32767 65501.7,0 0,-65275.5 -65501.7,0 0,65275.5 z"/></g></g></g></g></mask><clipPath id="clipPath844"><path id="path846" d="m -32734.7,32767 65501.7,0 0,-65275.5 -65501.7,0 0,65275.5 z"/></clipPath><linearGradient id="linearGradient848" x1="0" x2="1" y1="0" y2="0" gradientTransform="matrix(0,232.43704,232.43704,0,423.74478,587.43188)" gradientUnits="userSpaceOnUse" spreadMethod="pad"><stop id="stop850" offset="0" stop-color="#fff" stop-opacity="1"/><stop id="stop852" offset="1" stop-color="#fff" stop-opacity=".8"/></linearGradient><clipPath id="clipPath870"><path id="path872" d="m 426.745,690.314 21.596,0 0,-102.549 -21.596,0 0,102.549 z"/></clipPath><mask id="mask896"><g id="g898"><g id="g900" clip-path="url(#clipPath886)"><g id="g902"><g id="g904"><path id="path906" fill="url(#linearGradient890)" stroke="none" d="m -32736.1,32767 65503.1,0 0,-65281.6 -65503.1,0 0,65281.6 z"/></g></g></g></g></mask><clipPath id="clipPath886"><path id="path888" d="m -32736.1,32767 65503.1,0 0,-65281.6 -65503.1,0 0,65281.6 z"/></clipPath><linearGradient id="linearGradient890" x1="0" x2="1" y1="0" y2="0" gradientTransform="matrix(0,232.43704,232.43704,0,422.34073,581.34842)" gradientUnits="userSpaceOnUse" spreadMethod="pad"><stop id="stop892" offset="0" stop-color="#fff" stop-opacity="1"/><stop id="stop894" offset="1" stop-color="#fff" stop-opacity=".8"/></linearGradient><clipPath id="clipPath912"><path id="path914" d="m 463.745,730.432 55.772,0 0,-44.328 -55.772,0 0,44.328 z"/></clipPath><mask id="mask938"><g id="g940"><g id="g942" clip-path="url(#clipPath928)"><g id="g944"><g id="g946"><path id="path948" fill="url(#linearGradient932)" stroke="none" d="m -32760.8,32767 65527.8,0 0,-65276.5 -65527.8,0 0,65276.5 z"/></g></g></g></g></mask><clipPath id="clipPath928"><path id="path930" d="m -32760.8,32767 65527.8,0 0,-65276.5 -65527.8,0 0,65276.5 z"/></clipPath><linearGradient id="linearGradient932" x1="0" x2="1" y1="0" y2="0" gradientTransform="matrix(0,232.43704,232.43704,0,397.61954,586.51694)" gradientUnits="userSpaceOnUse" spreadMethod="pad"><stop id="stop934" offset="0" stop-color="#fff" stop-opacity="1"/><stop id="stop936" offset="1" stop-color="#fff" stop-opacity=".8"/></linearGradient><clipPath id="clipPath954"><path id="path956" d="m 439.024,735.598 55.772,0 0,-44.326 -55.772,0 0,44.326 z"/></clipPath><linearGradient id="linearGradient4158" x1="53.71" x2="53.71" y1="-.557" y2="61.845" gradientUnits="userSpaceOnUse" xlink:href="#linearGradient4152"/><linearGradient id="linearGradient4167" x1="40.537" x2="40.537" y1="209.464" y2="114.178" gradientUnits="userSpaceOnUse" xlink:href="#linearGradient4161"/><linearGradient id="linearGradient4176" x1="54.791" x2="54.791" y1="112.193" y2="70.611" gradientUnits="userSpaceOnUse" xlink:href="#linearGradient4170"/></defs><metadata id="metadata4095"/><path id="path838" fill="url(#linearGradient4158)" fill-opacity="1" fill-rule="nonzero" stroke="none" d="m 51.6687,50.7622 -3.53,-19.884 -19.919,-6.763 -16.413,13.019 3.548,19.988 19.865,6.443 16.449,-12.803 z m -33.482,-8.611 11.149,3.728 1.908,10.747 -11.128,-3.608 -1.929,-10.867 z m 21.99,-8.301 -8.978,6.987 -10.83,-3.622 8.908,-7.066 10.9,3.701 z m 5.605,14.674 -9.214,7.17 -1.905,-10.73 9.214,-7.171 1.905,10.731 z M 88.8065,17.849 77.6115,0.142 56.6085,0 l -9.907,17.751 11.355,17.425 20.896,0.332 9.854,-17.659 z m -24.715,12.052 5.318,-9.529 11.704,0.187 -5.318,9.53 -11.704,-0.188 z m -5.704,-22.014 6.302,9.866 -5.326,9.544 -6.362,-9.758 5.386,-9.652 z m 22.349,7.294 -11.405,-0.181 -6.121,-9.585 11.401,0.077 6.125,9.689 z"/><path id="path880" fill="url(#linearGradient4167)" fill-opacity="1" fill-rule="nonzero" stroke="none" d="M 19.597,121.426 0,113.1 l 0,88.335 19.597,12.214 0,-92.223 z m 88.9137,80.8309 0,-93.049 -84.831,12.001 0,93.773 84.831,-12.725 z"/><path id="path964" fill="url(#linearGradient4176)" fill-opacity="1" fill-rule="nonzero" stroke="none" d="m 43.2909,78.4715 c 3.315,-3.236 7.252,-5.751 11.56,-7.224 -4.402,-2.745 -9.785,-3.997 -15.623,-3.19 -14.841,2.049 -26.9,16.48 -26.93,32.231 l -0.019,9.853 9.835,-1.358 0.019,-9.854 c 0.019,-9.972 7.679,-19.142 17.075,-20.44 1.41,-0.195 2.772,-0.181 4.083,-0.018 m 12.927,15.749 -0.019,9.853 9.835,-1.359 0.018,-9.853 c 0.006,-3.325 -0.543,-6.428 -1.529,-9.254 -0.199,0.02 -0.394,0.022 -0.594,0.05 -3.286,0.454 -6.349,1.887 -8.958,3.964 0.799,1.983 1.251,4.201 1.247,6.599 m 24.7209,5.168 -0.019,9.853 9.835,-1.359 0.018,-9.853 c 0.03,-15.75 -11.98,-26.855 -26.823,-24.803 -14.841,2.049 -26.901,16.479 -26.931,32.23 l -0.018,9.853 9.834,-1.358 0.019,-9.853 c 0.019,-9.973 7.679,-19.142 17.075,-20.441 9.398,-1.299 17.028,5.758 17.01,15.731"/><path id="path970" fill="#fff" fill-opacity="1" fill-rule="nonzero" stroke="none" d="m 80.846906,137.74467 -22.126012,3.281 c -4.075428,0.60433 -7.376326,4.4006 -7.376326,8.48075 l 6.635429,-0.98394 0,21.45822 c 0.137496,1.61835 2.520435,3.05638 7.450515,2.64072 4.03685,-0.34486 7.832339,-2.42308 8.790856,-4.82973 l 0,-21.65637 c 0.843772,-0.0463 5.576016,0.47828 6.46628,4.93998 0.05836,0.24408 0.103864,0.5022 0.127604,0.78882 l 0.002,-0.001 0,0.0131 c 0.0178,0.20461 0.02869,0.41428 0.02869,0.64275 l 0,22.15578 -0.02869,0.004 -5.647238,0.83741 -0.958517,0.14214 0,-3.21884 c -1.066337,1.64825 -2.965566,3.34318 -4.605629,3.90179 l -10.886931,1.61439 c -4.468154,0.43306 -7.26457,-2.14364 -7.377337,-6.293 l 0,-22.15578 c -4.071471,0.60577 -7.37237,4.40002 -7.37237,8.48017 l 0,22.15578 c 0,4.07914 3.301888,6.89832 7.375338,6.29429 l 22.127001,-3.28115 c 4.074438,-0.60419 7.376326,-4.40262 7.376326,-8.48177 4.07345,-0.60404 7.375337,-4.39944 7.375337,-8.47959 l 0,-22.15679 c 0,-4.08016 -3.301887,-6.89732 -7.376326,-6.29313"/></svg>