<svg xmlns="http://www.w3.org/2000/svg" xmlns:svg="http://www.w3.org/2000/svg" id="svg5028" width="42" height="42" version="1.1"><metadata id="metadata5033"/><g id="g1531"><circle id="path1526" cx="21" cy="21" r="20" fill="#27c2f3" fill-opacity="1" fill-rule="nonzero" stroke="none" stroke-dasharray="none" stroke-dashoffset="0" stroke-miterlimit="4" stroke-opacity="1" stroke-width=".544" paint-order="normal"/><g id="g1252" transform="matrix(0.79221882,0,0,-0.79221882,17.407288,32.765681)"><path id="path1254" fill="#fff" stroke-width=".747" d="m 16.376607,8.1077453 c -5.635642,-5.635642 -18.2743621,-5.635642 -23.910004,0 -4.403726,4.4037257 -4.403726,14.2797007 0,18.6834267 5.6356419,5.635641 18.274362,5.635641 23.910004,0 4.403725,-4.403726 4.403725,-14.279701 0,-18.6834267 z m -2.443304,2.4956067 c 3.233274,3.233274 3.233274,10.484344 0,13.717618 -4.4836814,4.483681 -14.53896778,4.483681 -19.022649,0 -3.233274,-3.233274 -3.233274,-10.484344 0,-13.717618 4.48368122,-4.4836817 14.5389676,-4.4836817 19.022649,0 z"/><path id="path4524" fill="#fff" fill-opacity="1" stroke="#fff" stroke-linecap="butt" stroke-linejoin="miter" stroke-opacity="1" stroke-width=".908" d="M -4.8421983,6.0258643 -6.6691066,0.98265928 0.44997166,5.4521823 Z"/></g></g></svg>