<svg xmlns="http://www.w3.org/2000/svg" xmlns:svg="http://www.w3.org/2000/svg" id="svg5028" width="42" height="42" version="1.1"><metadata id="metadata5033"/><g id="g901"><circle id="path869" cx="21" cy="21" r="20" fill="#146edc" fill-opacity="1" fill-rule="nonzero" stroke="none" stroke-dasharray="none" stroke-dashoffset="0" stroke-miterlimit="4" stroke-opacity="1" stroke-width="1.152" paint-order="normal"/><g id="g1264" transform="matrix(0.75726319,0,0,-0.75726319,31.122319,29.153075)"><path id="path1266" fill="#fff" d="m -2.5991,-0.4721 c 0.944,2.593 -0.393,5.459 -2.986,6.403 -0.847,0.308 -1.722,0.369 -2.551,0.226 l -2.607,5.591 1.409,3.872 c 2.247,-0.263 4.463,1.031 5.27,3.249 0.944,2.593 -0.393,5.46 -2.986,6.403 -2.592,0.944 -5.459,-0.393 -6.403,-2.986 -0.807,-2.219 0.059,-4.635 1.95,-5.878 l -1.408,-3.871 -5.604,-2.613 c -0.545,0.65 -1.259,1.172 -2.113,1.482 -2.593,0.944 -5.459,-0.393 -6.403,-2.985 -0.944,-2.593 0.393,-5.46 2.986,-6.404 2.592,-0.943 5.459,0.394 6.403,2.986 0.347,0.953 0.383,1.943 0.165,2.861 l 4.929,2.299 2.288,-4.908 c -0.765,-0.563 -1.378,-1.35 -1.728,-2.31 -0.944,-2.592 0.393,-5.459 2.986,-6.403 2.593,-0.943 5.459,0.393 6.403,2.986"/></g></g></svg>