<svg xmlns="http://www.w3.org/2000/svg" xmlns:svg="http://www.w3.org/2000/svg" id="svg4542" width="32" height="32" version="1.1" viewBox="0 0 32 32"><metadata id="metadata4588"/><path font-stretch="normal" style="text-indent:0;text-align:start;line-height:normal;text-transform:none;block-progression:tb;marker:none;-inkscape-font-specification:Sans" id="path4544" fill="#282828" fill-opacity="1" stroke="none" stroke-width="3" d="M 15.96875,0.46875 A 1.50015,1.50015 0 0 0 14.5,2 l 0,6 a 1.50015,1.50015 0 1 0 3,0 l 0,-6 A 1.50015,1.50015 0 0 0 15.96875,0.46875 z" baseline-shift="baseline" color="#000" direction="ltr" display="inline" enable-background="accumulate" font-family="Sans" font-size="medium" font-style="normal" font-variant="normal" font-weight="normal" letter-spacing="normal" opacity=".1" overflow="visible" text-anchor="start" text-decoration="none" visibility="visible" word-spacing="normal" writing-mode="lr-tb"><animate attributeName="opacity" begin="0" dur="1s" from="1" repeatCount="indefinite" to=".1"/></path><path font-stretch="normal" style="text-indent:0;text-align:start;line-height:normal;text-transform:none;block-progression:tb;marker:none;-inkscape-font-specification:Sans" id="path4548" fill="#282828" fill-opacity="1" stroke="none" stroke-width="3" d="m 25.103758,3.4165865 a 1.50015,1.50015 0 0 0 -2.08829,0.3754977 l -3.526711,4.854102 a 1.50015,1.50015 0 1 0 2.427051,1.7633558 L 25.442519,5.55544 A 1.50015,1.50015 0 0 0 25.103758,3.4165865 z" baseline-shift="baseline" color="#000" direction="ltr" display="inline" enable-background="accumulate" font-family="Sans" font-size="medium" font-style="normal" font-variant="normal" font-weight="normal" letter-spacing="normal" opacity=".1" overflow="visible" text-anchor="start" text-decoration="none" visibility="visible" word-spacing="normal" writing-mode="lr-tb"><animate attributeName="opacity" begin="0.1s" dur="1s" from="1" repeatCount="indefinite" to=".1"/></path><path font-stretch="normal" style="text-indent:0;text-align:start;line-height:normal;text-transform:none;block-progression:tb;marker:none;-inkscape-font-specification:Sans" id="path4552" fill="#282828" fill-opacity="1" stroke="none" stroke-width="3" d="m 30.76144,11.170859 a 1.50015,1.50015 0 0 0 -1.910174,-0.923682 l -5.706339,1.854102 a 1.50015,1.50015 0 1 0 0.927051,2.85317 l 5.706339,-1.854102 a 1.50015,1.50015 0 0 0 0.983123,-1.929488 z" baseline-shift="baseline" color="#000" direction="ltr" display="inline" enable-background="accumulate" font-family="Sans" font-size="medium" font-style="normal" font-variant="normal" font-weight="normal" letter-spacing="normal" opacity=".1" overflow="visible" text-anchor="start" text-decoration="none" visibility="visible" word-spacing="normal" writing-mode="lr-tb"><animate attributeName="opacity" begin="0.2s" dur="1s" from="1" repeatCount="indefinite" to=".1"/></path><path font-stretch="normal" style="text-indent:0;text-align:start;line-height:normal;text-transform:none;block-progression:tb;marker:none;-inkscape-font-specification:Sans" id="path4556" fill="#282828" fill-opacity="1" stroke="none" stroke-width="3" d="m 30.780753,20.7697 a 1.50015,1.50015 0 0 0 -1.002436,-1.870047 l -5.706339,-1.854102 a 1.50015,1.50015 0 1 0 -0.927051,2.85317 l 5.706339,1.854102 A 1.50015,1.50015 0 0 0 30.780753,20.7697 z" baseline-shift="baseline" color="#000" direction="ltr" display="inline" enable-background="accumulate" font-family="Sans" font-size="medium" font-style="normal" font-variant="normal" font-weight="normal" letter-spacing="normal" opacity=".1" overflow="visible" text-anchor="start" text-decoration="none" visibility="visible" word-spacing="normal" writing-mode="lr-tb"><animate attributeName="opacity" begin="0.3s" dur="1s" from="1" repeatCount="indefinite" to=".1"/></path><path font-stretch="normal" style="text-indent:0;text-align:start;line-height:normal;text-transform:none;block-progression:tb;marker:none;-inkscape-font-specification:Sans" id="path4560" fill="#282828" fill-opacity="1" stroke="none" stroke-width="3" d="m 25.154321,28.546677 a 1.50015,1.50015 0 0 0 0.288198,-2.102117 l -3.526711,-4.854102 a 1.50015,1.50015 0 1 0 -2.427051,1.763356 l 3.526711,4.854102 a 1.50015,1.50015 0 0 0 2.138853,0.338761 z" baseline-shift="baseline" color="#000" direction="ltr" display="inline" enable-background="accumulate" font-family="Sans" font-size="medium" font-style="normal" font-variant="normal" font-weight="normal" letter-spacing="normal" opacity=".1" overflow="visible" text-anchor="start" text-decoration="none" visibility="visible" word-spacing="normal" writing-mode="lr-tb"><animate attributeName="opacity" begin="0.4s" dur="1s" from="1" repeatCount="indefinite" to=".1"/></path><path font-stretch="normal" style="text-indent:0;text-align:start;line-height:normal;text-transform:none;block-progression:tb;marker:none;-inkscape-font-specification:Sans" id="path4564" fill="#282828" fill-opacity="1" stroke="none" stroke-width="3" d="M 16.03125,31.53125 A 1.50015,1.50015 0 0 0 17.5,30 l 0,-6 a 1.50015,1.50015 0 1 0 -3,0 l 0,6 a 1.50015,1.50015 0 0 0 1.53125,1.53125 z" baseline-shift="baseline" color="#000" direction="ltr" display="inline" enable-background="accumulate" font-family="Sans" font-size="medium" font-style="normal" font-variant="normal" font-weight="normal" letter-spacing="normal" opacity=".1" overflow="visible" text-anchor="start" text-decoration="none" visibility="visible" word-spacing="normal" writing-mode="lr-tb"><animate attributeName="opacity" begin="0.5s" dur="1s" from="1" repeatCount="indefinite" to=".1"/></path><path font-stretch="normal" style="text-indent:0;text-align:start;line-height:normal;text-transform:none;block-progression:tb;marker:none;-inkscape-font-specification:Sans" id="path4568" fill="#282828" fill-opacity="1" stroke="none" stroke-width="3" d="M 6.8962421,28.583413 A 1.50015,1.50015 0 0 0 8.984532,28.207916 l 3.526711,-4.854102 A 1.50015,1.50015 0 1 0 10.084192,21.590458 L 6.557481,26.44456 a 1.50015,1.50015 0 0 0 0.3387611,2.138853 z" baseline-shift="baseline" color="#000" direction="ltr" display="inline" enable-background="accumulate" font-family="Sans" font-size="medium" font-style="normal" font-variant="normal" font-weight="normal" letter-spacing="normal" opacity=".1" overflow="visible" text-anchor="start" text-decoration="none" visibility="visible" word-spacing="normal" writing-mode="lr-tb"><animate attributeName="opacity" begin="0.6s" dur="1s" from="1" repeatCount="indefinite" to=".1"/></path><path font-stretch="normal" style="text-indent:0;text-align:start;line-height:normal;text-transform:none;block-progression:tb;marker:none;-inkscape-font-specification:Sans" id="path4572" fill="#282828" fill-opacity="1" stroke="none" stroke-width="3" d="m 1.2385603,20.829141 a 1.50015,1.50015 0 0 0 1.910174,0.923682 l 5.7063391,-1.854102 a 1.50015,1.50015 0 1 0 -0.927051,-2.85317 l -5.7063391,1.854102 a 1.50015,1.50015 0 0 0 -0.983123,1.929488 z" baseline-shift="baseline" color="#000" direction="ltr" display="inline" enable-background="accumulate" font-family="Sans" font-size="medium" font-style="normal" font-variant="normal" font-weight="normal" letter-spacing="normal" opacity=".1" overflow="visible" text-anchor="start" text-decoration="none" visibility="visible" word-spacing="normal" writing-mode="lr-tb"><animate attributeName="opacity" begin="0.7s" dur="1s" from="1" repeatCount="indefinite" to=".1"/></path><path font-stretch="normal" style="text-indent:0;text-align:start;line-height:normal;text-transform:none;block-progression:tb;marker:none;-inkscape-font-specification:Sans" id="path4576" fill="#282828" fill-opacity="1" stroke="none" stroke-width="3" d="m 1.2192467,11.2303 a 1.50015,1.50015 0 0 0 1.0024366,1.870047 l 5.7063391,1.854102 a 1.50015,1.50015 0 1 0 0.927051,-2.85317 L 3.1487343,10.247177 A 1.50015,1.50015 0 0 0 1.2192467,11.2303 z" baseline-shift="baseline" color="#000" direction="ltr" display="inline" enable-background="accumulate" font-family="Sans" font-size="medium" font-style="normal" font-variant="normal" font-weight="normal" letter-spacing="normal" opacity=".1" overflow="visible" text-anchor="start" text-decoration="none" visibility="visible" word-spacing="normal" writing-mode="lr-tb"><animate attributeName="opacity" begin="0.8s" dur="1s" from="1" repeatCount="indefinite" to=".1"/></path><path font-stretch="normal" style="text-indent:0;text-align:start;line-height:normal;text-transform:none;block-progression:tb;marker:none;-inkscape-font-specification:Sans" id="path4580" fill="#282828" fill-opacity="1" stroke="none" stroke-width="3" d="M 6.8456785,3.4533231 A 1.50015,1.50015 0 0 0 6.557481,5.55544 l 3.526711,4.854102 A 1.50015,1.50015 0 1 0 12.511243,8.6461862 L 8.984532,3.7920842 A 1.50015,1.50015 0 0 0 6.8456785,3.4533231 z" baseline-shift="baseline" color="#000" direction="ltr" display="inline" enable-background="accumulate" font-family="Sans" font-size="medium" font-style="normal" font-variant="normal" font-weight="normal" letter-spacing="normal" opacity=".1" overflow="visible" text-anchor="start" text-decoration="none" visibility="visible" word-spacing="normal" writing-mode="lr-tb"><animate attributeName="opacity" begin="0.9s" dur="1s" from="1" repeatCount="indefinite" to=".1"/></path></svg>