<svg xmlns="http://www.w3.org/2000/svg" xmlns:svg="http://www.w3.org/2000/svg" id="svg2" width="46" height="150" version="1.1" viewBox="0 0 46 150"><metadata id="metadata10"/><path id="path4" fill="#282828" fill-opacity="1" d="m 31,135 -5,0 0,-5 5,0 0,5 z m 7.5,-5 -5,0 0,5 5,0 0,-5 z m 7.5,0 -5,0 0,5 5,0 0,-5 z m -15,7.5 -5,0 0,5 5,0 0,-5 z m 7.5,0 -5,0 0,5 5,0 0,-5 z m 7.5,0 -5,0 0,5 5,0 0,-5 z m -15,7.5 -5,0 0,5 5,0 0,-5 z m 7.5,0 -5,0 0,5 5,0 0,-5 z m 7.5,0 -5,0 0,5 5,0 0,-5 z" opacity="1"/><path id="path4-3" fill="#282828" fill-opacity="1" d="m 20,145 0,5 -20,0 0,-5 20,0 z m -20,-7.5 0,5 20,0 0,-5 -20,0 z m 0,-7.5 0,5 20,0 0,-5 -20,0 z" opacity=".9"/><path id="path4-3-6" fill="#282828" fill-opacity="1" d="m 20,67.000001 0,5 -20,0 0,-5 20,0 z m -20,-7.5 0,5 20,0 0,-5 -20,0 z M 0,52 l 0,5.000001 20,0 L 20,52 0,52 Z" opacity="1"/><path id="path4-7" fill="#282828" fill-opacity="1" d="m 31,57 -5,0 0,-5 5,0 0,5 z m 7.5,-5 -5,0 0,5 5,0 0,-5 z m 7.5,0 -5,0 0,5 5,0 0,-5 z m -15,7.5 -5,0 0,5 5,0 0,-5 z m 7.5,0 -5,0 0,5 5,0 0,-5 z m 7.5,0 -5,0 0,5 5,0 0,-5 z m -15,7.5 -5,0 0,5 5,0 0,-5 z m 7.5,0 -5,0 0,5 5,0 0,-5 z m 7.5,0 -5,0 0,5 5,0 0,-5 z" opacity=".9"/><path id="path4-3-5" fill="#282828" fill-opacity="1" d="m 20,93 0,5 -20,0 0,-5 20,0 z m -20,-7.5 0,5 20,0 0,-5 -20,0 z M 0,77.999999 0,83 l 20,0 0,-5.000001 -20,0 z" opacity=".3"/><path id="path4-35" fill="#282828" fill-opacity="1" d="m 31,83 -5,0 0,-5 5,0 0,5 z m 7.5,-5 -5,0 0,5 5,0 0,-5 z m 7.5,0 -5,0 0,5 5,0 0,-5 z m -15,7.5 -5,0 0,5 5,0 0,-5 z m 7.5,0 -5,0 0,5 5,0 0,-5 z m 7.5,0 -5,0 0,5 5,0 0,-5 z m -15,7.5 -5,0 0,5 5,0 0,-5 z m 7.5,0 -5,0 0,5 5,0 0,-5 z m 7.5,0 -5,0 0,5 5,0 0,-5 z" opacity="1"/><path id="path4-3-62" fill="#282828" fill-opacity="1" d="m 20,119 0,5 -20,0 0,-5 20,0 z m -20,-7.5 0,5 20,0 0,-5 -20,0 z m 0,-7.5 0,5 20,0 0,-5 -20,0 z" opacity=".7"/><path id="path4-9" fill="#282828" fill-opacity="1" d="m 31,109 -5,0 0,-5 5,0 0,5 z m 7.5,-5 -5,0 0,5 5,0 0,-5 z m 7.5,0 -5,0 0,5 5,0 0,-5 z m -15,7.5 -5,0 0,5 5,0 0,-5 z m 7.5,0 -5,0 0,5 5,0 0,-5 z m 7.5,0 -5,0 0,5 5,0 0,-5 z m -15,7.5 -5,0 0,5 5,0 0,-5 z m 7.5,0 -5,0 0,5 5,0 0,-5 z m 7.5,0 -5,0 0,5 5,0 0,-5 z" opacity="1"/><path id="path4-3-6-1" fill="#282828" fill-opacity="1" d="m 20,15.000001 0,5 -20,0 0,-5 20,0 z m -20,-7.5 0,5 20,0 0,-5 -20,0 z M 0,0 l 0,5.000001 20,0 L 20,0 0,0 Z" opacity="1"/><path id="path4-7-2" fill="#282828" fill-opacity="1" d="m 31,5 -5,0 0,-5 5,0 0,5 z m 7.5,-5 -5,0 0,5 5,0 0,-5 z m 7.5,0 -5,0 0,5 5,0 0,-5 z m -15,7.5 -5,0 0,5 5,0 0,-5 z m 7.5,0 -5,0 0,5 5,0 0,-5 z m 7.5,0 -5,0 0,5 5,0 0,-5 z m -15,7.5 -5,0 0,5 5,0 0,-5 z m 7.5,0 -5,0 0,5 5,0 0,-5 z m 7.5,0 -5,0 0,5 5,0 0,-5 z" opacity=".3"/><path id="path4-3-5-7" fill="#282828" fill-opacity="1" d="m 20,41 0,5 -20,0 0,-5 20,0 z m -20,-7.5 0,5 20,0 0,-5 -20,0 z M 0,25.999999 0,31 l 20,0 0,-5.000001 -20,0 z" opacity="1"/><path id="path4-35-0" fill="#282828" fill-opacity="1" d="m 31,31 -5,0 0,-5 5,0 0,5 z m 7.5,-5 -5,0 0,5 5,0 0,-5 z m 7.5,0 -5,0 0,5 5,0 0,-5 z m -15,7.5 -5,0 0,5 5,0 0,-5 z m 7.5,0 -5,0 0,5 5,0 0,-5 z m 7.5,0 -5,0 0,5 5,0 0,-5 z m -15,7.5 -5,0 0,5 5,0 0,-5 z m 7.5,0 -5,0 0,5 5,0 0,-5 z m 7.5,0 -5,0 0,5 5,0 0,-5 z" opacity=".7"/></svg>