<svg xmlns="http://www.w3.org/2000/svg" xmlns:svg="http://www.w3.org/2000/svg" id="svg4306" width="18.4" height="18.64" version="1.1"><metadata id="metadata4311"/><g id="layer1" transform="matrix(0.79999678,0,0,0.79999678,-343.78403,-197.13856)"><g id="g156" transform="matrix(1.25,0,0,-1.25,448.76551,246.88178)"><path id="path158" fill="#282828" fill-opacity="1" fill-rule="nonzero" stroke="none" d="m 0,0 -9.136,0 c -1.683,0 -3.045,-1.364 -3.045,-3.046 l 2.739,0 0,-8.848 c 0.057,-0.676 1.041,-1.415 3.077,-1.544 1.666,-0.105 3.233,0.52 3.629,1.454 l 0,8.929 c 0.349,-0.032 2.303,-0.538 2.67,-2.432 0.024,-0.104 0.043,-0.214 0.053,-0.333 l 10e-4,0 0,-0.005 C -0.005,-5.91 0,-5.998 0,-6.092 l 0,-9.136 -0.012,0 -2.332,0 -0.396,0 0,1.327 c -0.44,-0.614 -1.224,-1.197 -1.901,-1.327 l -4.496,0 c -1.844,0.095 -2.999,1.328 -3.046,3.046 l 0,9.136 c -1.681,-0.001 -3.044,-1.364 -3.044,-3.046 l 0,-9.136 c 0,-1.682 1.364,-3.046 3.045,-3.046 l 9.137,0 c 1.682,0 3.045,1.364 3.045,3.046 1.682,0 3.046,1.363 3.046,3.046 l 0,9.136 C 3.046,-1.364 1.682,0 0,0"/></g></g></svg>