<svg xmlns="http://www.w3.org/2000/svg" xmlns:svg="http://www.w3.org/2000/svg" xmlns:xlink="http://www.w3.org/1999/xlink" id="svg5457" x="0" y="0" enable-background="new 0 0 50 50" version="1.1" viewBox="0 0 50 50" xml:space="preserve"><style type="text/css">.st0{clip-path:url(#SVGID_2_)}.st1,.st2{clip-path:url(#SVGID_4_);fill:#868681}.st2{fill:#fff}</style><g id="Bildmaterial_3_1_"><g><defs><rect id="SVGID_1_" width="50" height="50"/></defs><clipPath id="SVGID_2_"><use overflow="visible" xlink:href="#SVGID_1_"/></clipPath><g class="st0"><defs><rect id="SVGID_3_" width="50" height="50"/></defs><clipPath id="SVGID_4_"><use overflow="visible" xlink:href="#SVGID_3_"/></clipPath><path d="M41.7,0h-25c-4.6,0-8.3,3.7-8.3,8.3h0v0C3.7,8.3,0,12.1,0,16.7v25C0,46.3,3.7,50,8.3,50h25 c4.6,0,8.3-3.7,8.3-8.3c4.6,0,8.3-3.7,8.3-8.3v-25C50,3.7,46.3,0,41.7,0" class="st1"/><path d="M14.3,29.2c0,1.7-0.3,3-0.9,3.8c-0.5,0.8-1.3,1.1-2.4,1.1c-1.1,0-1.9-0.4-2.5-1.1c-0.6-0.8-0.9-2.1-0.9-3.7 V14.2h-3v14.9c0,2.4,0.5,4.4,1.6,5.7c1.1,1.4,2.7,2.1,4.8,2.1c2.9,0,6.3-1.4,6.3-7.8V14.2h-3V29.2z" class="st2"/><path d="M27.9,16.7c1,0,1.9,0.2,2.6,0.7l0.6,0.4l1.5-2.5L32,14.8c-1.2-0.7-2.5-1-4.1-1c-2.5,0-4.5,1.1-6,3.2 c-1.4,2-2.1,4.8-2.1,8.3c0,2.3,0.3,4.4,0.9,6.1c0.6,1.8,1.6,3.1,2.8,4.1c1.2,1,2.7,1.4,4.3,1.4c1.4,0,2.7-0.2,3.6-0.7l0.4-0.2 v-2.9l-1,0.5c-0.8,0.3-1.7,0.5-2.8,0.5c-1,0-1.8-0.3-2.6-1c-0.8-0.7-1.4-1.7-1.8-3c-0.4-1.3-0.7-3-0.7-4.8c0-2.8,0.5-5,1.4-6.6 C25.3,17.4,26.4,16.7,27.9,16.7" class="st2"/><path d="M44.6,26.6c-0.8-1-2-1.9-3.7-2.6c-1.7-0.8-2.5-1.4-2.8-1.8c-0.4-0.5-0.6-1.3-0.6-2.3c0-1,0.3-1.7,0.8-2.3 c0.6-0.6,1.3-0.8,2.3-0.8c1.1,0,2.2,0.3,3.3,0.7l0.7,0.3l1.2-2.7l-0.6-0.3c-0.5-0.2-1.1-0.4-1.9-0.6c-0.8-0.2-1.7-0.3-2.6-0.3 c-1.1,0-2.1,0.3-3.1,0.8c-1,0.5-1.7,1.2-2.2,2.2c-0.5,0.9-0.8,2-0.8,3.1c0,1,0.2,2,0.5,2.7c0.3,0.8,0.8,1.5,1.5,2.1 c0.6,0.6,1.6,1.1,2.9,1.7c1.7,0.8,2.5,1.4,2.8,1.8c0.4,0.5,0.6,1.3,0.6,2.3c0,1.1-0.3,1.9-0.9,2.6c-0.6,0.7-1.4,1-2.4,1 c-0.7,0-1.5-0.1-2.3-0.2c-0.7-0.1-1.4-0.3-1.8-0.6l-1.1-0.5v3.2l0.4,0.2c1.2,0.5,2.8,0.8,4.7,0.8c1.8,0,3.3-0.6,4.5-1.8 c1.2-1.2,1.8-2.8,1.8-4.7C45.8,28.9,45.4,27.6,44.6,26.6" class="st2"/></g></g></g></svg>