<svg xmlns="http://www.w3.org/2000/svg" xmlns:svg="http://www.w3.org/2000/svg" id="svg4846" width="106.613" height="74.667" version="1.1" viewBox="0 0 99.949 70"><metadata id="metadata4851"/><g id="layer1" transform="translate(-25.050762,-357.3622)"><g id="g5426"><g id="g4806" display="inline" transform="matrix(-0.31782059,-0.31782059,0.31782059,-0.31782059,-153.33238,692.18276)"><path id="path4808" fill="#fff" fill-opacity="1" stroke="none" d="m 916.41016,62.28125 c -0.51704,5.920237 -5.14747,15.991595 -11.88477,19.359375 l 6.80273,6.892578 c 6.29371,-6.422385 9.46256,-13.335284 10.40235,-26.251953 z" transform="matrix(2.7577265,0,0,2.7577265,-2344.4981,632.77712)"/><path id="path4810" fill="#fff" fill-opacity="1" stroke="none" d="m 215.62147,805.93981 -51.45732,0.10675 25.63622,-44.61672 z"/></g></g><g id="g5432" transform="matrix(-1,0,0,1,150.05076,-8.410356e-6)"><g id="g5436" display="inline" transform="matrix(-0.31782059,-0.31782059,0.31782059,-0.31782059,-153.33238,692.18276)"><path id="path5438" fill="#fff" fill-opacity="1" stroke="none" d="m 916.41016,62.28125 c -0.51704,5.920237 -5.14747,15.991595 -11.88477,19.359375 l 6.80273,6.892578 c 6.29371,-6.422385 9.46256,-13.335284 10.40235,-26.251953 z" transform="matrix(2.7577265,0,0,2.7577265,-2344.4981,632.77712)"/><path id="path5440" fill="#fff" fill-opacity="1" stroke="none" d="m 215.62147,805.93981 -51.45732,0.10675 25.63622,-44.61672 z"/></g></g><g id="g5442" transform="matrix(1,0,0,-1,0,784.72443)"><g id="g5446" display="inline" transform="matrix(-0.31782059,-0.31782059,0.31782059,-0.31782059,-153.33238,692.18276)"><path id="path5448" fill="#fff" fill-opacity="1" stroke="none" d="m 916.41016,62.28125 c -0.51704,5.920237 -5.14747,15.991595 -11.88477,19.359375 l 6.80273,6.892578 c 6.29371,-6.422385 9.46256,-13.335284 10.40235,-26.251953 z" transform="matrix(2.7577265,0,0,2.7577265,-2344.4981,632.77712)"/><path id="path5450" fill="#fff" fill-opacity="1" stroke="none" d="m 215.62147,805.93981 -51.45732,0.10675 25.63622,-44.61672 z"/></g></g><g id="g5452" transform="matrix(-1,0,0,-1,150.05076,784.72442)"><g id="g5456" display="inline" transform="matrix(-0.31782059,-0.31782059,0.31782059,-0.31782059,-153.33238,692.18276)"><path id="path5458" fill="#fff" fill-opacity="1" stroke="none" d="m 916.41016,62.28125 c -0.51704,5.920237 -5.14747,15.991595 -11.88477,19.359375 l 6.80273,6.892578 c 6.29371,-6.422385 9.46256,-13.335284 10.40235,-26.251953 z" transform="matrix(2.7577265,0,0,2.7577265,-2344.4981,632.77712)"/><path id="path5460" fill="#fff" fill-opacity="1" stroke="none" d="m 215.62147,805.93981 -51.45732,0.10675 25.63622,-44.61672 z"/></g></g></g></svg>