<svg xmlns="http://www.w3.org/2000/svg" xmlns:svg="http://www.w3.org/2000/svg" xmlns:xlink="http://www.w3.org/1999/xlink" id="svg2" width="128" height="128" version="1.0"><defs id="defs4"><linearGradient id="linearGradient5859"><stop id="stop5861" offset="0" stop-color="#475259" stop-opacity="1"/><stop id="stop5863" offset="1" stop-color="#475259" stop-opacity="0"/></linearGradient><linearGradient id="linearGradient5751"><stop id="stop5753" offset="0" stop-color="#fff" stop-opacity="1"/><stop id="stop5755" offset="1" stop-color="#fff" stop-opacity="0"/></linearGradient><linearGradient id="linearGradient5735"><stop id="stop5737" offset="0" stop-color="#fff" stop-opacity="1"/><stop id="stop5739" offset="1" stop-color="#fff" stop-opacity="0"/></linearGradient><linearGradient id="linearGradient5723"><stop id="stop5725" offset="0" stop-color="#fff" stop-opacity="1"/><stop id="stop5727" offset="1" stop-color="#fff" stop-opacity="0"/></linearGradient><linearGradient id="linearGradient5713"><stop id="stop5715" offset="0" stop-color="#fdffff" stop-opacity="1"/><stop id="stop5717" offset="1" stop-color="#fdffff" stop-opacity="0"/></linearGradient><linearGradient id="linearGradient5534"><stop id="stop5536" offset="0" stop-color="#fff" stop-opacity="1"/><stop id="stop5538" offset="1" stop-color="#fff" stop-opacity="0"/></linearGradient><linearGradient id="linearGradient5493"><stop id="stop5495" offset="0" stop-color="#f0eef2" stop-opacity="1"/><stop id="stop5497" offset="1" stop-color="#ababb8" stop-opacity="1"/></linearGradient><linearGradient id="linearGradient4396"><stop id="stop4398" offset="0" stop-color="#000" stop-opacity="0"/><stop id="stop4404" offset=".321" stop-color="#fff" stop-opacity="1"/><stop id="stop4400" offset="1" stop-color="#fff" stop-opacity="1"/></linearGradient><linearGradient id="linearGradient3267"><stop id="stop3269" offset="0" stop-color="#fa0" stop-opacity="0"/><stop id="stop3271" offset="1" stop-color="#fa0" stop-opacity="1"/></linearGradient><linearGradient id="linearGradient3231"><stop id="stop3233" offset="0" stop-color="#ff0" stop-opacity="1"/><stop id="stop3235" offset="1" stop-color="#ff0" stop-opacity="0"/></linearGradient><linearGradient id="linearGradient4281"><stop id="stop4283" offset="0" stop-color="#ffeb55" stop-opacity="1"/><stop id="stop4285" offset="1" stop-color="#ffd500" stop-opacity=".302"/></linearGradient><linearGradient id="linearGradient4197"><stop id="stop4199" offset="0" stop-color="#ffbf00" stop-opacity="0"/><stop id="stop4201" offset="1" stop-color="#ffbf00" stop-opacity="1"/></linearGradient><linearGradient id="linearGradient4159"><stop id="stop4161" offset="0" stop-color="#fa0" stop-opacity="1"/><stop id="stop4163" offset="1" stop-color="#ff0" stop-opacity="0"/></linearGradient><linearGradient id="linearGradient4035"><stop id="stop4037" offset="0" stop-color="#ff7e00" stop-opacity="1"/><stop id="stop4039" offset="1" stop-color="#a4c0e4" stop-opacity="0"/></linearGradient><linearGradient id="linearGradient3903"><stop id="stop3905" offset="0" stop-color="#fbfbfb" stop-opacity="1"/><stop id="stop3907" offset="1" stop-color="#eee" stop-opacity="0"/></linearGradient><linearGradient id="linearGradient3751"><stop id="stop3753" offset="0" stop-color="#eee" stop-opacity="1"/><stop id="stop3755" offset="1" stop-color="#555" stop-opacity="1"/></linearGradient><radialGradient id="radialGradient3909" cx="10.968" cy="9.986" r="3.309" fx="10.681" fy="9.542" gradientTransform="matrix(2.8808419,4.054722e-8,-4.054722e-8,2.8808419,-20.839087,-19.566841)" gradientUnits="userSpaceOnUse" xlink:href="#linearGradient3903"/><radialGradient id="radialGradient4041" cx="11.182" cy="10.668" r="3.309" fx="11.182" fy="9.758" gradientTransform="matrix(1.4569756,0,0,1.4569756,-4.9180587,-4.376829)" gradientUnits="userSpaceOnUse" xlink:href="#linearGradient4035"/><radialGradient id="radialGradient4157" cx="11.182" cy="10.668" r="3.309" fx="11.182" fy="9.758" gradientTransform="matrix(1.4569756,0,0,1.4569756,-4.9180587,-4.376829)" gradientUnits="userSpaceOnUse" xlink:href="#linearGradient4159"/><radialGradient id="radialGradient4203" cx="38.386" cy="48.834" r="18.41" fx="38.268" fy="50.596" gradientTransform="matrix(1.7055472,0,0,1.7055472,-21.592707,-39.904043)" gradientUnits="userSpaceOnUse" xlink:href="#linearGradient4197"/><radialGradient id="radialGradient4237" cx="38.386" cy="48.834" r="18.41" fx="38.268" fy="50.596" gradientTransform="matrix(1.7055472,0,0,1.7055472,-21.592707,-39.904043)" gradientUnits="userSpaceOnUse" xlink:href="#linearGradient4197"/><radialGradient id="radialGradient4243" cx="38.386" cy="48.834" r="18.41" fx="38.268" fy="50.596" gradientTransform="matrix(1.7055472,0,0,1.7055472,-21.592707,-39.904043)" gradientUnits="userSpaceOnUse" xlink:href="#linearGradient4197"/><radialGradient id="radialGradient4249" cx="38.386" cy="48.834" r="18.41" fx="38.268" fy="50.596" gradientTransform="matrix(1.7055472,0,0,1.7055472,-21.592707,-39.904043)" gradientUnits="userSpaceOnUse" xlink:href="#linearGradient4197"/><radialGradient id="radialGradient4261" cx="38.386" cy="48.834" r="18.41" fx="38.268" fy="50.596" gradientTransform="matrix(1.7055472,0,0,1.7055472,-21.592707,-39.904043)" gradientUnits="userSpaceOnUse" xlink:href="#linearGradient4197"/><radialGradient id="radialGradient4269" cx="38.386" cy="48.834" r="18.41" fx="38.268" fy="50.596" gradientTransform="matrix(1.7055472,0,0,1.7055472,-21.592707,-39.904043)" gradientUnits="userSpaceOnUse" xlink:href="#linearGradient4197"/><radialGradient id="radialGradient4277" cx="38.386" cy="48.834" r="18.41" fx="38.268" fy="50.596" gradientTransform="matrix(1.7055472,0,0,1.7055472,-21.592707,-39.904043)" gradientUnits="userSpaceOnUse" xlink:href="#linearGradient4197"/><radialGradient id="radialGradient4287" cx="11.373" cy="10.025" r="3.309" fx="11.506" fy="8.434" gradientTransform="matrix(1.1609266,0,0,1.1609266,-1.8302481,-1.7969708)" gradientUnits="userSpaceOnUse" xlink:href="#linearGradient4281"/><linearGradient id="linearGradient3237" x1="62.5" x2="62.5" y1="58.463" y2="106.024" gradientUnits="userSpaceOnUse" xlink:href="#linearGradient3231"/><radialGradient id="radialGradient3273" cx="11.373" cy="11.166" r="3.309" fx="11.373" fy="11.166" gradientTransform="matrix(1.1329333,0,0,1.1329333,-1.5118748,-1.4843861)" gradientUnits="userSpaceOnUse" xlink:href="#linearGradient3267"/><radialGradient id="radialGradient3298" cx="38.386" cy="48.834" r="18.41" fx="38.268" fy="50.596" gradientTransform="matrix(1.7055472,0,0,1.7055472,-21.592707,-39.904043)" gradientUnits="userSpaceOnUse" xlink:href="#linearGradient4197"/><radialGradient id="radialGradient3306" cx="38.386" cy="48.834" r="18.41" fx="38.268" fy="50.596" gradientTransform="matrix(1.7055472,0,0,1.7055472,-21.592707,-39.904043)" gradientUnits="userSpaceOnUse" xlink:href="#linearGradient4197"/><radialGradient id="radialGradient3314" cx="38.386" cy="48.834" r="18.41" fx="38.268" fy="50.596" gradientTransform="matrix(1.7055472,0,0,1.7055472,-21.592707,-39.904043)" gradientUnits="userSpaceOnUse" xlink:href="#linearGradient4197"/><radialGradient id="radialGradient3442" cx="11.373" cy="11.166" r="3.309" fx="11.373" fy="11.166" gradientTransform="matrix(4.231445,0,0,4.231445,20.875004,21.750006)" gradientUnits="userSpaceOnUse" xlink:href="#linearGradient3751"/><filter id="filter4438"><feGaussianBlur id="feGaussianBlur4440" stdDeviation="1.822"/></filter><radialGradient id="radialGradient4453" cx="63.009" cy="101.073" r="101.5" fx="63.009" fy="101.073" gradientTransform="matrix(1.4682452,-6.4349589e-3,5.7623319e-3,1.3147739,-29.241731,-37.107767)" gradientUnits="userSpaceOnUse" xlink:href="#linearGradient4396"/><mask id="mask4449" maskUnits="userSpaceOnUse"><path id="path4451" fill="url(#radialGradient4453)" fill-opacity="1" stroke="none" stroke-dasharray="none" stroke-linecap="round" stroke-linejoin="round" stroke-miterlimit="4" stroke-opacity="1" stroke-width="3" d="M -45.59375,-48 C -46.924431,-48 -48,-46.924431 -48,-45.59375 L -11.737645,123.83604 C -11.737645,125.16672 -10.662076,126.24229 -9.3313951,126.24229 L 36.262355,126.24229 L 36.262355,108.86729 L 60,60 L 68,60 L 92.322519,108.86729 L 92.322519,126.24229 L 116.91627,126.24229 C 118.24695,126.24229 119.32252,125.16672 119.32252,123.83604 L 155,-45.59375 C 155,-46.924431 153.92443,-48 152.59375,-48 L -45.59375,-48 z" filter="url(#filter4438)" opacity="1"/></mask><clipPath id="clipPath3950" clipPathUnits="userSpaceOnUse"><path id="path3952" fill="#000" fill-opacity="1" fill-rule="nonzero" stroke="#000" stroke-dasharray="none" stroke-dashoffset="0" stroke-linecap="round" stroke-linejoin="round" stroke-miterlimit="4" stroke-opacity="1" stroke-width="0" d="m 425.62929,87.353271 a 51.098743,51.098743 0 1 1 -102.19749,0 51.098743,51.098743 0 1 1 102.19749,0 z" transform="matrix(1.0909091,0,0,1.0909091,34.470537,62.029231)"/></clipPath><filter id="filter3946"><feGaussianBlur id="feGaussianBlur3948" stdDeviation="3.177"/></filter><linearGradient id="linearGradient4029"><stop id="stop4031" offset="0" stop-color="#a6abbc" stop-opacity="1"/><stop id="stop4041" offset=".119" stop-color="#908e9d" stop-opacity="1"/><stop id="stop4043" offset=".355" stop-color="#fdfafd" stop-opacity="1"/><stop id="stop4039-5" offset=".586" stop-color="#e4e3e7" stop-opacity="1"/><stop id="stop4037-5" offset=".638" stop-color="#1f2e35" stop-opacity="1"/><stop id="stop4045" offset=".902" stop-color="#c8c8c9" stop-opacity="1"/><stop id="stop4033" offset="1" stop-color="#e1e2e2" stop-opacity="1"/></linearGradient><linearGradient id="linearGradient5180"><stop id="stop5182" offset="0" stop-color="#a6abbc" stop-opacity="1"/><stop id="stop5184" offset=".119" stop-color="#908e9d" stop-opacity="1"/><stop id="stop5186" offset=".355" stop-color="#fdfafd" stop-opacity="1"/><stop id="stop5188" offset=".586" stop-color="#e4e3e7" stop-opacity="1"/><stop id="stop5190" offset=".638" stop-color="#1f2e35" stop-opacity="1"/><stop id="stop5192" offset=".902" stop-color="#c8c8c9" stop-opacity="1"/><stop id="stop5194" offset="1" stop-color="#e1e2e2" stop-opacity="1"/></linearGradient><linearGradient id="linearGradient3809"><stop id="stop3811" offset="0" stop-color="#f6f6f6" stop-opacity="1"/><stop id="stop3825" offset=".5" stop-color="silver" stop-opacity="1"/><stop id="stop3813" offset="1" stop-color="#f6f6f6" stop-opacity="1"/></linearGradient><mask id="mask6737" maskUnits="userSpaceOnUse"><path id="path6739" fill="url(#linearGradient6741)" fill-opacity="1" fill-rule="nonzero" stroke="#000" stroke-dasharray="none" stroke-dashoffset="0" stroke-linecap="round" stroke-linejoin="round" stroke-miterlimit="4" stroke-opacity="1" stroke-width="0" d="m 611.87693,1503.6142 c -4.00723,0 -7.8042,0.8817 -11.21363,2.4704 -3.44661,4.1466 -5.82114,9.218 -6.74483,14.7664 9.85751,6.8316 34.65319,8.7123 42.27316,7.9661 0.17134,-0.017 0.31828,-0.036 0.47186,-0.055 0.13889,-0.021 0.27793,-0.034 0.41635,-0.056 0.0973,-0.015 0.16211,-0.039 0.24981,-0.055 0.56704,-0.1073 0.92794,-0.2595 1.05474,-0.4164 -1.01247,-13.765 -12.4843,-24.6201 -26.50746,-24.6201 z m 26.53522,28.5615 c -11.26682,1.9845 -18.19489,6.3426 -44.27163,0.1665 2.45108,11.784 11.56954,21.1137 23.2322,23.8983 11.43775,-2.3997 20.16845,-12.139 21.03943,-24.0648 z" opacity=".725"/></mask><linearGradient id="linearGradient6741" x1="444.235" x2="444.235" y1="-2.772" y2="275.543" gradientTransform="matrix(0.48751477,0,0,0.48751477,409.4679,1475.4598)" gradientUnits="userSpaceOnUse" xlink:href="#linearGradient4016"/><linearGradient id="linearGradient4016"><stop id="stop4018" offset="0" stop-color="#fff" stop-opacity="1"/><stop id="stop4020" offset="1" stop-color="#fff" stop-opacity="0"/></linearGradient><filter id="filter6678"><feGaussianBlur id="feGaussianBlur6680" stdDeviation=".256"/></filter><clipPath id="clipPath3895" clipPathUnits="userSpaceOnUse"><path id="path3897" fill="url(#linearGradient3899)" fill-opacity="1" fill-rule="nonzero" stroke="#000" stroke-dasharray="none" stroke-dashoffset="0" stroke-linecap="round" stroke-linejoin="round" stroke-miterlimit="4" stroke-opacity="1" stroke-width="0" d="m 379.41013,50.642508 c -31.97271,0 -57.90625,25.964786 -57.90625,57.937502 0,31.97271 25.93355,57.90625 57.90625,57.90625 31.97271,0 57.93753,-25.93353 57.9375,-57.90625 0,-31.972717 -25.96477,-57.937501 -57.9375,-57.937502 z m 0,4.96875 c 29.23682,0 52.96875,23.731916 52.96875,52.968752 2e-5,29.23683 -23.73192,52.9375 -52.96875,52.9375 -29.23685,0 -52.96875,-23.70067 -52.96875,-52.9375 1e-5,-29.236839 23.73192,-52.968752 52.96875,-52.968752 z"/></clipPath><filter id="filter3887"><feGaussianBlur id="feGaussianBlur3889" stdDeviation=".497"/></filter><radialGradient id="radialGradient6763" cx="460.563" cy="134.984" r="25.594" fx="460.563" fy="134.984" gradientTransform="matrix(5.7075294,5.5054067e-8,-3.2506898e-8,2.4675426,-2168.1116,-198.09535)" gradientUnits="userSpaceOnUse" xlink:href="#linearGradient4899"/><linearGradient id="linearGradient4899"><stop id="stop4901" offset="0" stop-color="#d1d4db" stop-opacity="1"/><stop id="stop4903" offset=".276" stop-color="#d7dce9" stop-opacity="1"/><stop id="stop4905" offset=".513" stop-color="#b9bcc5" stop-opacity="1"/><stop id="stop4907" offset=".632" stop-color="#a0a5b3" stop-opacity="1"/><stop id="stop4909" offset=".691" stop-color="#989fb3" stop-opacity="1"/><stop id="stop4911" offset=".75" stop-color="#a3acc3" stop-opacity="1"/><stop id="stop4913" offset=".781" stop-color="#fbfbfc" stop-opacity="1"/><stop id="stop4915" offset=".813" stop-color="#babfcb" stop-opacity="1"/><stop id="stop4917" offset=".875" stop-color="#c0c3cc" stop-opacity="1"/><stop id="stop4919" offset="1" stop-color="#bec1c5" stop-opacity="1"/></linearGradient><filter id="filter5431"><feGaussianBlur id="feGaussianBlur5433" stdDeviation=".281"/></filter><filter id="filter5459"><feGaussianBlur id="feGaussianBlur5461" stdDeviation=".22"/></filter><filter id="filter5473" width="1.08" height="1.479" x="-.04" y="-.239"><feGaussianBlur id="feGaussianBlur5475" stdDeviation=".674"/></filter><mask id="mask5477" maskUnits="userSpaceOnUse"><path id="path5479" fill="#fff" fill-opacity="1" stroke="#fff" stroke-opacity="1" d="m 39.3125,100.91875 0,6 c 0,1.57938 9.098961,2.75 20.3125,2.75 11.213538,0 20.3125,-1.17062 20.3125,-2.75 l 0,-6 -40.625,0 z" filter="url(#filter5473)"/></mask><linearGradient id="linearGradient5481" x1="39.313" x2="79.938" y1="104.594" y2="104.594" gradientTransform="translate(0,4)" gradientUnits="userSpaceOnUse" xlink:href="#linearGradient5180"/><linearGradient id="linearGradient5483" x1="39.313" x2="79.938" y1="104.594" y2="104.594" gradientTransform="matrix(1.1801789,0,0,1.1801789,-8.336922,-6.999998)" gradientUnits="userSpaceOnUse" xlink:href="#linearGradient5180"/><linearGradient id="linearGradient5491" x1="47.978" x2="64.09" y1="60.163" y2="60.163" gradientTransform="matrix(0.74475607,0,0,0.74475607,20.268389,37.656302)" gradientUnits="userSpaceOnUse" xlink:href="#linearGradient4029"/><linearGradient id="linearGradient5499" x1="54.278" x2="54.278" y1="105.831" y2="93.73" gradientTransform="translate(8,12)" gradientUnits="userSpaceOnUse" xlink:href="#linearGradient5493"/><filter id="filter5526" width="1.065" height="1.459" x="-.032" y="-.229"><feGaussianBlur id="feGaussianBlur5528" stdDeviation=".162"/></filter><clipPath id="clipPath5542" clipPathUnits="userSpaceOnUse"><path id="path5544" fill="url(#linearGradient5546)" fill-opacity="1" stroke="none" d="m 77.992261,100.45626 c 0,1.86395 -10.728263,3.25694 -23.962245,3.25694 -13.233982,0 -23.962244,-1.39299 -23.962244,-3.25694 0,-1.863935 12.410814,-3.492977 23.962244,-3.492977 11.551432,0 23.962245,1.629042 23.962245,3.492977 z"/></clipPath><linearGradient id="linearGradient5546" x1="51.998" x2="51.998" y1="99.062" y2="105.501" gradientUnits="userSpaceOnUse" xlink:href="#linearGradient5534"/><filter id="filter5548"><feGaussianBlur id="feGaussianBlur5550" stdDeviation=".093"/></filter><linearGradient id="linearGradient5552" x1="48.065" x2="63.995" y1="60.163" y2="60.163" gradientTransform="matrix(0.74475607,0,0,0.74475607,12.268389,25.656302)" gradientUnits="userSpaceOnUse" xlink:href="#linearGradient4029"/><filter id="filter5571" width="1.405" height="1.486" x="-.203" y="-.243"><feGaussianBlur id="feGaussianBlur5573" stdDeviation=".224"/></filter><filter id="filter5661"><feGaussianBlur id="feGaussianBlur5663" stdDeviation="1.819"/></filter><filter id="filter5665"><feGaussianBlur id="feGaussianBlur5667" stdDeviation="1.819"/></filter><filter id="filter5669" width="1.233" height="1.233" x="-.116" y="-.116"><feGaussianBlur id="feGaussianBlur5671" stdDeviation="1.819"/></filter><filter id="filter5673"><feGaussianBlur id="feGaussianBlur5675" stdDeviation="1.819"/></filter><filter id="filter5677" width="1.53" height="1.636" x="-.265" y="-.318"><feGaussianBlur id="feGaussianBlur5679" stdDeviation=".293"/></filter><filter id="filter5705"><feGaussianBlur id="feGaussianBlur5707" stdDeviation=".129"/></filter><filter id="filter5709"><feGaussianBlur id="feGaussianBlur5711" stdDeviation=".165"/></filter><linearGradient id="linearGradient5721" x1="62.531" x2="62.531" y1="7.344" y2="27.969" gradientUnits="userSpaceOnUse" xlink:href="#linearGradient5713"/><linearGradient id="linearGradient5729" x1="63.509" x2="63.509" y1="15.227" y2="32.639" gradientUnits="userSpaceOnUse" xlink:href="#linearGradient5723"/><linearGradient id="linearGradient5741" x1="61.532" x2="61.532" y1="26.722" y2="38.501" gradientUnits="userSpaceOnUse" xlink:href="#linearGradient5735"/><filter id="filter5743"><feGaussianBlur id="feGaussianBlur5745" stdDeviation=".093"/></filter><linearGradient id="linearGradient5757" x1="65.223" x2="65.223" y1="40.36" y2="50.358" gradientUnits="userSpaceOnUse" xlink:href="#linearGradient5751"/><filter id="filter5763"><feGaussianBlur id="feGaussianBlur5765" stdDeviation=".056"/></filter><radialGradient id="radialGradient5815" cx="52.197" cy="61.875" r="3.75" fx="52.197" fy="61.875" gradientTransform="matrix(2,0,0,1.9999994,-52.207183,-63.749964)" gradientUnits="userSpaceOnUse" xlink:href="#linearGradient4029"/><filter id="filter5819"><feGaussianBlur id="feGaussianBlur5821" stdDeviation=".173"/></filter><mask id="mask5823" maskUnits="userSpaceOnUse"><rect id="rect5825" width="20.771" height="8.485" x="52.679" y="51.191" fill="#fff" fill-opacity="1" stroke="none" filter="url(#filter5819)" transform="matrix(0.625,0,0,0.625,17.1875,22.5)"/></mask><radialGradient id="radialGradient5830" cx="52.197" cy="61.875" r="3.75" fx="52.197" fy="61.875" gradientTransform="matrix(2,0,0,1.9999994,-52.207183,-63.749964)" gradientUnits="userSpaceOnUse" xlink:href="#linearGradient4029"/><radialGradient id="radialGradient5836" cx="52.197" cy="61.875" r="3.75" fx="52.197" fy="61.875" gradientTransform="matrix(3.2,0,0,3.199999,-111.03149,-151.40619)" gradientUnits="userSpaceOnUse" xlink:href="#linearGradient4029"/><radialGradient id="radialGradient5840" cx="52.197" cy="61.875" r="3.75" fx="52.197" fy="61.875" gradientTransform="matrix(3.2,0,0,3.199999,-111.03149,-150.90619)" gradientUnits="userSpaceOnUse" xlink:href="#linearGradient4029"/><clipPath id="clipPath5847" clipPathUnits="userSpaceOnUse"><path id="path5849" fill="url(#radialGradient5851)" fill-opacity="1" stroke="none" d="m 56,53.59375 c 0,-3.313709 2.686291,-6 6,-6 3.313709,0 6,2.686291 6,6 l -6,0 z" mask="none"/></clipPath><radialGradient id="radialGradient5851" cx="52.197" cy="61.875" r="3.75" fx="52.197" fy="61.875" gradientTransform="matrix(3.2,0,0,3.199999,-111.03149,-144.40619)" gradientUnits="userSpaceOnUse" xlink:href="#linearGradient4029"/><filter id="filter5853" width="1.128" height="1.256" x="-.064" y="-.128"><feGaussianBlur id="feGaussianBlur5855" stdDeviation=".32"/></filter><linearGradient id="linearGradient5865" x1="56" x2="56.75" y1="83.5" y2="83.5" gradientUnits="userSpaceOnUse" xlink:href="#linearGradient5859"/></defs><metadata id="metadata7"/><g id="layer1"><path id="path5621" fill="#00bfec" fill-opacity="1" stroke="none" stroke-width=".622" d="m 62,17.014361 c -23.732851,0 -42.985639,19.252788 -42.985639,42.985639 0,23.732851 19.252788,42.98564 42.985639,42.98564 23.732851,0 42.98564,-19.252789 42.98564,-42.98564 C 104.98564,36.267149 85.732851,17.014361 62,17.014361 z m 0,2.046689 c 23.181181,0 41.95973,18.778548 41.95973,41.959729 0,23.18118 -18.778549,41.959731 -41.95973,41.959731 -23.181181,0 -41.959729,-18.778551 -41.959729,-41.959731 C 20.040271,37.839598 38.818819,19.06105 62,19.06105 z" color="#000" direction="ltr" display="inline" enable-background="accumulate" filter="url(#filter5661)" font-family="Bitstream Vera Sans" font-size="medium" font-stretch="normal" font-style="normal" font-variant="normal" font-weight="normal" letter-spacing="normal" opacity="1" overflow="visible" text-anchor="start" text-decoration="none" visibility="visible" word-spacing="normal" writing-mode="lr-tb" style="text-indent:0;text-align:start;line-height:normal;text-transform:none;block-progression:tb;marker:none;-inkscape-font-specification:Bitstream Vera Sans"/><path id="path5623" fill="#00bfec" fill-opacity="1" stroke="none" stroke-width=".869" d="m 62.000001,28.982656 c -17.122494,0 -31.017345,13.894851 -31.017345,31.017345 0,17.122493 13.894851,31.017345 31.017345,31.017345 17.122493,0 31.017345,-13.894852 31.017345,-31.017345 0,-17.122494 -13.894852,-31.017345 -31.017345,-31.017345 z m 0,2.056235 c 16.568662,0 29.985889,13.417227 29.985889,29.985889 0,16.568662 -13.417227,29.98589 -29.985889,29.98589 -16.568663,0 -29.985889,-13.417228 -29.985889,-29.98589 0,-16.568662 13.417226,-29.985889 29.985889,-29.985889 z" color="#000" direction="ltr" display="inline" enable-background="accumulate" filter="url(#filter5665)" font-family="Bitstream Vera Sans" font-size="medium" font-stretch="normal" font-style="normal" font-variant="normal" font-weight="normal" letter-spacing="normal" opacity="1" overflow="visible" text-anchor="start" text-decoration="none" visibility="visible" word-spacing="normal" writing-mode="lr-tb" style="text-indent:0;text-align:start;line-height:normal;text-transform:none;block-progression:tb;marker:none;-inkscape-font-specification:Bitstream Vera Sans"/><path id="path5625" fill="#00bfec" fill-opacity="1" stroke="none" stroke-width="1.416" d="m 62.000001,41.218798 c -10.362452,0 -18.781203,8.418751 -18.781203,18.781202 0,10.362452 8.418751,18.781202 18.781203,18.781202 10.362451,0 18.781202,-8.41875 18.781202,-18.781202 0,-10.362451 -8.418751,-18.781202 -18.781202,-18.781202 z m 0,2.0152 c 9.822012,0 17.766002,7.94399 17.766002,17.766002 0,9.822012 -7.94399,17.766002 -17.766002,17.766002 -9.822013,0 -17.766003,-7.94399 -17.766003,-17.766002 0,-9.822012 7.94399,-17.766002 17.766003,-17.766002 z" color="#000" direction="ltr" display="inline" enable-background="accumulate" filter="url(#filter5669)" font-family="Bitstream Vera Sans" font-size="medium" font-stretch="normal" font-style="normal" font-variant="normal" font-weight="normal" letter-spacing="normal" opacity="1" overflow="visible" text-anchor="start" text-decoration="none" visibility="visible" word-spacing="normal" writing-mode="lr-tb" style="text-indent:0;text-align:start;line-height:normal;text-transform:none;block-progression:tb;marker:none;-inkscape-font-specification:Bitstream Vera Sans"/><path id="path5627" fill="#00bfec" fill-opacity="1" stroke="none" stroke-width=".484" d="m 61.999999,5.1563894 c -30.27404,0 -54.8436094,24.5695696 -54.8436094,54.8436096 0,30.27404 24.5695694,54.843611 54.8436094,54.843611 30.27404,0 54.843611,-24.569571 54.843611,-54.843611 0,-30.27404 -24.569571,-54.8436096 -54.843611,-54.8436096 z m 0,2.0658515 c 29.72484,0 53.793971,24.0691311 53.793971,53.7939711 0,29.72484 -24.069131,53.793978 -53.793971,53.793978 -29.72484,0 -53.793971,-24.069138 -53.793971,-53.793978 0,-29.72484 24.069131,-53.7939711 53.793971,-53.7939711 z" color="#000" direction="ltr" display="inline" enable-background="accumulate" filter="url(#filter5673)" font-family="Bitstream Vera Sans" font-size="medium" font-stretch="normal" font-style="normal" font-variant="normal" font-weight="normal" letter-spacing="normal" opacity="1" overflow="visible" text-anchor="start" text-decoration="none" visibility="visible" word-spacing="normal" writing-mode="lr-tb" style="text-indent:0;text-align:start;line-height:normal;text-transform:none;block-progression:tb;marker:none;-inkscape-font-specification:Bitstream Vera Sans"/><path id="path5773" fill="#d9ffff" fill-opacity="1" stroke="none" stroke-width=".622" d="m 62,17.34375 c -23.547281,0 -42.65625,19.108969 -42.65625,42.65625 0,4.768172 0.804679,9.342555 2.25,13.625 -1.23636,-3.972814 -1.90625,-8.212543 -1.90625,-12.59375 0,-23.366438 18.946062,-42.3125 42.3125,-42.3125 23.366438,0 42.3125,18.946062 42.3125,42.3125 0,4.381207 -0.66989,8.620936 -1.90625,12.59375 1.44532,-4.282445 2.25,-8.856828 2.25,-13.625 C 104.65625,36.452719 85.547281,17.34375 62,17.34375 z" color="#000" direction="ltr" display="inline" enable-background="accumulate" filter="url(#filter5705)" font-family="Bitstream Vera Sans" font-size="medium" font-stretch="normal" font-style="normal" font-variant="normal" font-weight="normal" letter-spacing="normal" overflow="visible" text-anchor="start" text-decoration="none" visibility="visible" word-spacing="normal" writing-mode="lr-tb" style="text-indent:0;text-align:start;line-height:normal;text-transform:none;block-progression:tb;marker:none;-inkscape-font-specification:Bitstream Vera Sans"/><path id="path5775" fill="#d9ffff" fill-opacity="1" stroke="none" stroke-width=".869" d="m 62,29.3125 c -16.941507,0 -30.6875,13.745993 -30.6875,30.6875 0,3.902176 0.73123,7.630485 2.0625,11.0625 C 32.269701,67.918119 31.65625,64.552864 31.65625,61.03125 31.65625,44.281971 45.25072,30.6875 62,30.6875 c 16.749279,0 30.34375,13.594471 30.34375,30.34375 0,3.521614 -0.613451,6.886869 -1.71875,10.03125 C 91.95627,67.630485 92.6875,63.902176 92.6875,60 92.6875,43.058493 78.941506,29.3125 62,29.3125 z" color="#000" direction="ltr" display="inline" enable-background="accumulate" filter="url(#filter5743)" font-family="Bitstream Vera Sans" font-size="medium" font-stretch="normal" font-style="normal" font-variant="normal" font-weight="normal" letter-spacing="normal" overflow="visible" text-anchor="start" text-decoration="none" visibility="visible" word-spacing="normal" writing-mode="lr-tb" style="text-indent:0;text-align:start;line-height:normal;text-transform:none;block-progression:tb;marker:none;-inkscape-font-specification:Bitstream Vera Sans"/><path id="path5771" fill="#d9ffff" fill-opacity="1" stroke="none" stroke-width=".484" d="M 62,5.3125 C 31.811879,5.3125 7.3125,29.811879 7.3125,60 c 0,14.412325 5.598118,27.509673 14.71875,37.28125 C 13.345155,87.707965 8.0625,74.9891 8.0625,61.03125 8.0625,31.220732 32.189371,7.0625 62,7.0625 c 29.810629,0 53.9375,24.158232 53.9375,53.96875 0,13.95785 -5.28266,26.676715 -13.96875,36.25 C 111.08938,87.509673 116.6875,74.412325 116.6875,60 116.6875,29.811879 92.188121,5.3125 62,5.3125 z" color="#000" direction="ltr" display="inline" enable-background="accumulate" filter="url(#filter5709)" font-family="Bitstream Vera Sans" font-size="medium" font-stretch="normal" font-style="normal" font-variant="normal" font-weight="normal" letter-spacing="normal" overflow="visible" text-anchor="start" text-decoration="none" visibility="visible" word-spacing="normal" writing-mode="lr-tb" style="text-indent:0;text-align:start;line-height:normal;text-transform:none;block-progression:tb;marker:none;-inkscape-font-specification:Bitstream Vera Sans"/><path id="path5777" fill="#d9ffff" fill-opacity="1" stroke="none" stroke-width="1.416" d="m 62,41.46875 c -10.224258,0 -18.53125,8.306993 -18.53125,18.53125 0,3.406772 0.95507,6.568604 2.5625,9.3125 -1.298614,-2.490763 -2.0625,-5.309605 -2.0625,-8.3125 0,-9.959851 8.071398,-18.03125 18.03125,-18.03125 9.959851,0 18.03125,8.071399 18.03125,18.03125 0,3.002895 -0.763886,5.821737 -2.0625,8.3125 C 79.57618,66.568604 80.53125,63.406772 80.53125,60 80.53125,49.775743 72.224257,41.46875 62,41.46875 z" color="#000" direction="ltr" display="inline" enable-background="accumulate" filter="url(#filter5763)" font-family="Bitstream Vera Sans" font-size="medium" font-stretch="normal" font-style="normal" font-variant="normal" font-weight="normal" letter-spacing="normal" overflow="visible" text-anchor="start" text-decoration="none" visibility="visible" word-spacing="normal" writing-mode="lr-tb" style="text-indent:0;text-align:start;line-height:normal;text-transform:none;block-progression:tb;marker:none;-inkscape-font-specification:Bitstream Vera Sans"/><path id="path3799" fill="#000" fill-opacity="1" stroke="#000" stroke-opacity="1" d="m 79.927862,105.21877 c 0,1.57938 -9.090369,2.7597 -20.303907,2.7597 -11.213539,0 -20.303908,-1.18032 -20.303908,-2.7597 0,-1.57937 10.516044,-2.95971 20.303908,-2.95971 9.787864,0 20.303907,1.38034 20.303907,2.95971 z" filter="url(#filter5459)" transform="matrix(1.1510276,0,0,1.1822358,-6.598798,-7.216213)"/><path id="rect3801" fill="url(#linearGradient5483)" fill-opacity="1" stroke="none" d="m 38.058865,112.45624 0,4.72071 c 0,1.86396 10.738402,3.2455 23.972385,3.2455 13.233982,0 23.972385,-1.38154 23.972385,-3.2455 l 0,-4.72071 -47.94477,0 z"/><path id="path3796" fill="url(#linearGradient5499)" fill-opacity="1" stroke="none" d="m 85.992261,112.45626 c 0,1.86395 -10.728263,3.25694 -23.962245,3.25694 -13.233982,0 -23.962244,-1.39299 -23.962244,-3.25694 0,-1.86393 12.410814,-3.49298 23.962244,-3.49298 11.551432,0 23.962245,1.62905 23.962245,3.49298 z"/><path id="path5420" fill="url(#linearGradient5481)" fill-opacity="1" stroke="none" d="m 39.3125,105.21875 0,4 c 0,1.57938 9.098961,2.75 20.3125,2.75 11.213538,0 20.3125,-1.17062 20.3125,-2.75 l 0,-4 c 0,1.57938 -9.098962,2.75 -20.3125,2.75 -11.213539,0 -20.3125,-1.17062 -20.3125,-2.75 z" filter="url(#filter5431)" mask="url(#mask5477)" opacity=".565" transform="matrix(1.1801789,0,0,1.1801789,-8.336922,-6.999998)"/><path id="rect5779" fill="#d3feff" fill-opacity="1" stroke="none" d="m 38.6875,111.75 c -0.395515,0.2328 -0.625,0.47477 -0.625,0.71875 0,0.0112 -7.73e-4,0.0201 0,0.0313 15.842895,0.54509 31.860234,0.3924 47.9375,0 7.73e-4,-0.0112 0,-0.02 0,-0.0313 0,-0.24398 -0.229485,-0.48595 -0.625,-0.71875 -15.5625,0.48117 -31.125,0.68938 -46.6875,0 z" opacity=".57"/><path id="path5506" fill="#000" fill-opacity="1" stroke="none" d="m 60.060033,100.06794 c 0,0.46906 -2.699731,1.1196 -6.030017,1.1196 C 50.69973,101.18754 48,100.537 48,100.06794 c 0,-0.469052 3.123139,-0.578995 6.030016,-0.578995 2.906879,0 6.030017,0.109943 6.030017,0.578995 z" filter="url(#filter5526)" transform="matrix(0.99004431,0,0,1,8.5379063,12)"/><path id="path5485" fill="url(#linearGradient5491)" fill-opacity="1" stroke="none" d="m 62,54 c -3.313708,0 -6,2.686292 -6,6 0,20 0,51.36879 0,52 0,0.46864 2.723997,1 6,1 3.276004,0 6,-0.51928 6,-1 0,-12 0,-36 0,-52 0,-3.313708 -2.686292,-6 -6,-6 z"/><path id="path5530" fill="url(#linearGradient5552)" fill-opacity="1" stroke="none" d="m 48,119.5 c 0,20 0,-20.131214 0,-19.5 0,0.46864 2.723997,1 6,1 3.276004,0 6,-0.51928 6,-1 0,-12 0,35.5 0,19.5 l -12,0 z" clip-path="url(#clipPath5542)" filter="url(#filter5548)" opacity=".773" transform="translate(8,12)"/><path id="path5683" fill="url(#linearGradient5721)" fill-opacity="1" stroke="none" stroke-width=".484" d="M 62,5.65625 C 31.989352,5.65625 7.65625,29.989352 7.65625,60 c 0,0.347912 0.055985,0.68489 0.0625,1.03125 0,-29.987494 24.293415,-54.3125 54.28125,-54.3125 29.987835,0 54.28125,24.325006 54.28125,54.3125 0.007,-0.34636 0.0625,-0.683338 0.0625,-1.03125 C 116.34375,29.989352 92.010648,5.65625 62,5.65625 z" color="#000" direction="ltr" display="inline" enable-background="accumulate" font-family="Bitstream Vera Sans" font-size="medium" font-stretch="normal" font-style="normal" font-variant="normal" font-weight="normal" letter-spacing="normal" overflow="visible" text-anchor="start" text-decoration="none" visibility="visible" word-spacing="normal" writing-mode="lr-tb" style="text-indent:0;text-align:start;line-height:normal;text-transform:none;block-progression:tb;marker:none;-inkscape-font-specification:Bitstream Vera Sans"/><path id="path5695" fill="url(#linearGradient5729)" fill-opacity="1" stroke="none" stroke-width=".622" d="m 62,17.53125 c -23.446784,0 -42.46875,19.021966 -42.46875,42.46875 0,0.07361 -3.75e-4,0.145226 0,0.21875 C 19.968778,37.130582 38.807412,18.53125 62,18.53125 c 23.192588,0 42.03122,18.599332 42.46875,41.6875 3.7e-4,-0.07352 0,-0.145138 0,-0.21875 C 104.46875,36.553216 85.446784,17.53125 62,17.53125 z" color="#000" direction="ltr" display="inline" enable-background="accumulate" font-family="Bitstream Vera Sans" font-size="medium" font-stretch="normal" font-style="normal" font-variant="normal" font-weight="normal" letter-spacing="normal" overflow="visible" text-anchor="start" text-decoration="none" visibility="visible" word-spacing="normal" writing-mode="lr-tb" style="text-indent:0;text-align:start;line-height:normal;text-transform:none;block-progression:tb;marker:none;-inkscape-font-specification:Bitstream Vera Sans"/><path id="path5733" fill="url(#linearGradient5741)" fill-opacity="1" stroke="none" stroke-width=".869" d="M 62,29.53125 C 46.027069,29.53125 32.927848,41.852765 31.65625,57.5 33.41068,42.287569 46.319243,30.46875 62,30.46875 77.680756,30.46875 90.589319,42.287569 92.34375,57.5 91.072152,41.852765 77.97293,29.53125 62,29.53125 z" color="#000" direction="ltr" display="inline" enable-background="accumulate" font-family="Bitstream Vera Sans" font-size="medium" font-stretch="normal" font-style="normal" font-variant="normal" font-weight="normal" letter-spacing="normal" overflow="visible" text-anchor="start" text-decoration="none" visibility="visible" word-spacing="normal" writing-mode="lr-tb" style="text-indent:0;text-align:start;line-height:normal;text-transform:none;block-progression:tb;marker:none;-inkscape-font-specification:Bitstream Vera Sans"/><path id="path5749" fill="url(#linearGradient5757)" fill-opacity="1" stroke="none" stroke-width="1.416" d="m 62,41.65625 c -10.12898,0 -18.34375,8.214771 -18.34375,18.34375 0,1.311396 0.144337,2.578763 0.40625,3.8125 C 43.917299,62.886564 43.78125,61.966564 43.78125,61 43.78125,50.945115 51.945114,42.78125 62,42.78125 c 10.054885,0 18.21875,8.163865 18.21875,18.21875 0,0.966564 -0.136049,1.886564 -0.28125,2.8125 C 80.199413,62.578763 80.34375,61.311396 80.34375,60 80.34375,49.871021 72.128979,41.65625 62,41.65625 z" color="#000" direction="ltr" display="inline" enable-background="accumulate" font-family="Bitstream Vera Sans" font-size="medium" font-stretch="normal" font-style="normal" font-variant="normal" font-weight="normal" letter-spacing="normal" overflow="visible" text-anchor="start" text-decoration="none" visibility="visible" word-spacing="normal" writing-mode="lr-tb" style="text-indent:0;text-align:start;line-height:normal;text-transform:none;block-progression:tb;marker:none;-inkscape-font-specification:Bitstream Vera Sans"/><path id="path5857" fill="url(#linearGradient5865)" fill-opacity="1" stroke="none" d="m 62,54 c -3.313708,0 -6,2.686292 -6,6 0,20 0,51.36879 0,52 0,0.46864 2.723997,1 6,1 3.276004,0 6,-0.51928 6,-1 0,-12 0,-36 0,-52 0,-3.313708 -2.686292,-6 -6,-6 z"/><path id="path5807" fill="url(#radialGradient5815)" fill-opacity="1" stroke="none" d="m 52.1875,60 a 3.75,3.75 0 0 1 7.5,0 l -3.75,0 z" mask="url(#mask5823)" transform="matrix(1.6,0,0,1.6,-27.5,-36)"/><path id="path5565" fill="#cafdff" fill-opacity="1" stroke="none" d="m 65.76093,44.428818 a 1.3258252,1.1048543 0 1 1 -2.651651,0 1.3258252,1.1048543 0 1 1 2.651651,0 z" filter="url(#filter5571)" opacity=".57" transform="matrix(0.79050415,0,0,0.87271656,12.57081,17.764887)"/><path id="path5805" fill="#e2feff" fill-opacity="1" stroke="none" d="m 65.76093,44.428818 a 1.3258252,1.1048543 0 1 1 -2.651651,0 1.3258252,1.1048543 0 1 1 2.651651,0 z" filter="url(#filter5571)" opacity="1" transform="matrix(0.4457728,0,0,0.39698731,34.78361,38.444725)"/><path id="path5834" fill="#39464d" fill-opacity="1" stroke="none" d="m 62,47.19375 c -3.313709,0 -6,2.686291 -6,6 l 0.03125,0 c 0.250453,-3.083385 2.82083,-5.3 5.96875,-5.3 3.14792,0 5.718297,2.216615 5.96875,5.3 l 0.03125,0 c 0,-3.313709 -2.686291,-6 -6,-6 z" clip-path="url(#clipPath5847)" filter="url(#filter5853)" mask="none" transform="translate(0,6.4)"/></g></svg>