<svg xmlns="http://www.w3.org/2000/svg" xmlns:svg="http://www.w3.org/2000/svg" xmlns:xlink="http://www.w3.org/1999/xlink" id="svg3447" width="110" height="126.122" version="1.1"><defs id="defs3449"><linearGradient id="linearGradient3892"><stop id="stop3894" offset="0" stop-color="#787878" stop-opacity="1"/><stop id="stop3896" offset="1" stop-color="#929292" stop-opacity="1"/></linearGradient><linearGradient id="linearGradient3884"><stop id="stop3886" offset="0" stop-color="#dc0a31" stop-opacity="1"/><stop id="stop3888" offset="1" stop-color="#e23757" stop-opacity="1"/></linearGradient><clipPath id="clipPath328"><path id="path330" d="m 0,0 1600,0 0,1200 L 0,1200 0,0 z"/></clipPath><mask id="mask346"><g id="g348"><g id="g350" clip-path="url(#clipPath336)"><g id="g352"><g id="g354"><path id="path356" fill="url(#linearGradient340)" stroke="none" d="m -32387,32767 65154,0 0,-64705 -65154,0 0,64705 z"/></g></g></g></g></mask><clipPath id="clipPath336"><path id="path338" d="m -32387,32767 65154,0 0,-64705 -65154,0 0,64705 z"/></clipPath><linearGradient id="linearGradient340" x1="0" x2="1" y1="0" y2="0" gradientTransform="matrix(0,126.12222,126.12222,0,551.04176,540.43893)" gradientUnits="userSpaceOnUse" spreadMethod="pad"><stop id="stop342" offset="0" stop-color="#fff" stop-opacity="1"/><stop id="stop344" offset="1" stop-color="#fff" stop-opacity=".8"/></linearGradient><clipPath id="clipPath362"><path id="path364" d="m 550.042,667.561 112,0 0,-128.122 -112,0 0,128.122 z"/></clipPath><mask id="mask388"><g id="g390"><g id="g392" clip-path="url(#clipPath378)"><g id="g394"><g id="g396"><path id="path398" fill="url(#linearGradient382)" stroke="none" d="m -32387,32767 65154,0 0,-64705 -65154,0 0,64705 z"/></g></g></g></g></mask><clipPath id="clipPath378"><path id="path380" d="m -32387,32767 65154,0 0,-64705 -65154,0 0,64705 z"/></clipPath><linearGradient id="linearGradient382" x1="0" x2="1" y1="0" y2="0" gradientTransform="matrix(0,126.12222,126.12222,0,551.04176,540.43893)" gradientUnits="userSpaceOnUse" spreadMethod="pad"><stop id="stop384" offset="0" stop-color="#fff" stop-opacity="1"/><stop id="stop386" offset="1" stop-color="#fff" stop-opacity=".8"/></linearGradient><clipPath id="clipPath404"><path id="path406" d="m 590.475,638.261 33.231,0 0,-66.141 -33.231,0 0,66.141 z"/></clipPath><linearGradient id="linearGradient3890" x1="47.381" x2="47.381" y1="90.229" y2="31.393" gradientUnits="userSpaceOnUse" xlink:href="#linearGradient3884"/><linearGradient id="linearGradient3898" x1="55.49" x2="55.49" y1="124.076" y2="2.672" gradientUnits="userSpaceOnUse" xlink:href="#linearGradient3892"/></defs><metadata id="metadata3452"/><path id="path372" fill="url(#linearGradient3898)" fill-opacity="1" fill-rule="nonzero" stroke="none" d="m 12.245,113.877 0,-101.632 85.51,0 0,66.757 c 0,19.323 -23.855,11.582 -23.855,11.582 0,0 7.303,23.293 -10.714,23.293 l -50.941,0 z M 110,80.059 110,0 0,0 l 0,126.122 63.372,0 C 84.239,126.122 110,98.856 110,80.059"/><path id="path414" fill="url(#linearGradient3890)" fill-opacity="1" fill-rule="nonzero" stroke="none" d="m 53.115,92.4945 c -7.548,2.653 -13.77,-0.389 -12.521,-7.637 1.248,-7.251 8.41,-22.772 9.432,-25.706 1.021,-2.935 -0.937,-3.74 -3.036,-2.546 -1.21,0.699 -3.009,2.098 -4.554,3.458 -0.427,-0.861 -1.03,-1.847 -1.482,-2.791 2.52,-2.525 6.732,-5.911 11.72,-7.138 5.958,-1.471 15.916,0.88 11.636,12.269 -3.056,8.118 -5.218,13.719 -6.58,17.891 -1.361,4.173 0.256,5.048 2.639,3.422 1.862,-1.271 3.846,-3 5.299,-4.341 0.673,1.093 0.888,1.442 1.553,2.698 -2.524,2.587 -9.126,8.64 -14.106,10.421 m 15.638,-50.214 c -3.423,2.914 -8.498,2.851 -11.336,-0.143 -2.838,-2.991 -2.364,-7.778 1.058,-10.693 3.423,-2.914 8.498,-2.851 11.336,0.141 2.838,2.992 2.364,7.78 -1.058,10.695"/></svg>