<svg xmlns="http://www.w3.org/2000/svg" xmlns:svg="http://www.w3.org/2000/svg" xmlns:xlink="http://www.w3.org/1999/xlink" id="svg5239" width="176.991" height="151.932" version="1.1"><defs id="defs5241"><linearGradient id="linearGradient4037"><stop id="stop4039" offset="0" stop-color="#787878" stop-opacity="1"/><stop id="stop4041" offset="1" stop-color="#929292" stop-opacity="1"/></linearGradient><linearGradient id="linearGradient4029"><stop id="stop4031" offset="0" stop-color="#7bb51e" stop-opacity="1"/><stop id="stop4033" offset="1" stop-color="#94c449" stop-opacity="1"/></linearGradient><clipPath id="clipPath658"><path id="path660" d="m 0,0 1600,0 0,1200 L 0,1200 0,0 z"/></clipPath><mask id="mask676"><g id="g678"><g id="g680" clip-path="url(#clipPath666)"><g id="g682"><g id="g684"><path id="path686" fill="url(#linearGradient670)" stroke="none" d="m -32594.5,32767 65361.5,0 0,-64380.4 -65361.5,0 0,64380.4 z"/></g></g></g></g></mask><clipPath id="clipPath666"><path id="path668" d="m -32594.5,32767 65361.5,0 0,-64380.4 -65361.5,0 0,64380.4 z"/></clipPath><linearGradient id="linearGradient670" x1="0" x2="1" y1="0" y2="0" gradientTransform="matrix(0,151.93207,151.93207,0,517.54596,491.00006)" gradientUnits="userSpaceOnUse" spreadMethod="pad"><stop id="stop672" offset="0" stop-color="#fff" stop-opacity="1"/><stop id="stop674" offset="1" stop-color="#fff" stop-opacity=".8"/></linearGradient><clipPath id="clipPath692"><path id="path694" d="m 530.007,582.787 30.865,0 0,-61.713 -30.865,0 0,61.713 z"/></clipPath><mask id="mask716"><g id="g718"><g id="g720" clip-path="url(#clipPath706)"><g id="g722"><g id="g724"><path id="path726" fill="url(#linearGradient710)" stroke="none" d="m -32594.5,32767 65361.5,0 0,-64380.4 -65361.5,0 0,64380.4 z"/></g></g></g></g></mask><clipPath id="clipPath706"><path id="path708" d="m -32594.5,32767 65361.5,0 0,-64380.4 -65361.5,0 0,64380.4 z"/></clipPath><linearGradient id="linearGradient710" x1="0" x2="1" y1="0" y2="0" gradientTransform="matrix(0,151.93207,151.93207,0,517.54596,491.00006)" gradientUnits="userSpaceOnUse" spreadMethod="pad"><stop id="stop712" offset="0" stop-color="#fff" stop-opacity="1"/><stop id="stop714" offset="1" stop-color="#fff" stop-opacity=".8"/></linearGradient><clipPath id="clipPath732"><path id="path734" d="m 570.388,643.932 30.866,0 0,-122.858 -30.866,0 0,122.858 z"/></clipPath><mask id="mask756"><g id="g758"><g id="g760" clip-path="url(#clipPath746)"><g id="g762"><g id="g764"><path id="path766" fill="url(#linearGradient750)" stroke="none" d="m -32594.5,32767 65361.5,0 0,-64380.4 -65361.5,0 0,64380.4 z"/></g></g></g></g></mask><clipPath id="clipPath746"><path id="path748" d="m -32594.5,32767 65361.5,0 0,-64380.4 -65361.5,0 0,64380.4 z"/></clipPath><linearGradient id="linearGradient750" x1="0" x2="1" y1="0" y2="0" gradientTransform="matrix(0,151.93207,151.93207,0,517.54596,491.00006)" gradientUnits="userSpaceOnUse" spreadMethod="pad"><stop id="stop752" offset="0" stop-color="#fff" stop-opacity="1"/><stop id="stop754" offset="1" stop-color="#fff" stop-opacity=".8"/></linearGradient><clipPath id="clipPath772"><path id="path774" d="m 610.77,607.202 30.865,0 0,-86.128 -30.865,0 0,86.128 z"/></clipPath><mask id="mask796"><g id="g798"><g id="g800" clip-path="url(#clipPath786)"><g id="g802"><g id="g804"><path id="path806" fill="url(#linearGradient790)" stroke="none" d="m -32594.5,32767 65361.5,0 0,-64380.4 -65361.5,0 0,64380.4 z"/></g></g></g></g></mask><clipPath id="clipPath786"><path id="path788" d="m -32594.5,32767 65361.5,0 0,-64380.4 -65361.5,0 0,64380.4 z"/></clipPath><linearGradient id="linearGradient790" x1="0" x2="1" y1="0" y2="0" gradientTransform="matrix(0,151.93207,151.93207,0,517.54596,491.00006)" gradientUnits="userSpaceOnUse" spreadMethod="pad"><stop id="stop792" offset="0" stop-color="#fff" stop-opacity="1"/><stop id="stop794" offset="1" stop-color="#fff" stop-opacity=".8"/></linearGradient><clipPath id="clipPath812"><path id="path814" d="m 651.151,553.394 30.866,0 0,-32.32 -30.866,0 0,32.32 z"/></clipPath><mask id="mask836"><g id="g838"><g id="g840" clip-path="url(#clipPath826)"><g id="g842"><g id="g844"><path id="path846" fill="url(#linearGradient830)" stroke="none" d="m -32594.5,32767 65361.5,0 0,-64380.4 -65361.5,0 0,64380.4 z"/></g></g></g></g></mask><clipPath id="clipPath826"><path id="path828" d="m -32594.5,32767 65361.5,0 0,-64380.4 -65361.5,0 0,64380.4 z"/></clipPath><linearGradient id="linearGradient830" x1="0" x2="1" y1="0" y2="0" gradientTransform="matrix(0,19.331589,19.331589,0,517.54596,491.00006)" gradientUnits="userSpaceOnUse" spreadMethod="pad"><stop id="stop832" offset="0" stop-color="#fff" stop-opacity="1"/><stop id="stop834" offset="1" stop-color="#fff" stop-opacity=".8"/></linearGradient><clipPath id="clipPath852"><path id="path854" d="m 516.546,511.332 178.991,0 0,-21.332 -178.991,0 0,21.332 z"/></clipPath><linearGradient id="linearGradient4035" x1="79.136" x2="79.136" y1="117.171" y2="3.776" gradientUnits="userSpaceOnUse" xlink:href="#linearGradient4029"/><linearGradient id="linearGradient4043" x1="97.162" x2="97.162" y1="155.182" y2="133.253" gradientUnits="userSpaceOnUse" xlink:href="#linearGradient4037"/></defs><metadata id="metadata5244"/><path id="path820" fill="url(#linearGradient4035)" fill-opacity="1" fill-rule="nonzero" stroke="none" d="m 163.471,120.858 -28.866,0 0,-30.32 28.866,0 0,30.32 z m -40.382,0 -28.866,0 0,-84.128 28.866,0 0,84.128 z m -40.381,0 -28.865,0 0,-120.858 28.865,0 0,120.858 z m -40.382,0 -28.865,0 0,-59.713 28.865,0 0,59.713 z"/><path id="path860" fill="url(#linearGradient4043)" fill-opacity="1" fill-rule="nonzero" stroke="none" d="M 176.991,132.6 0,132.6 l 0,19.332 176.991,0 0,-19.332 z"/></svg>