<svg xmlns="http://www.w3.org/2000/svg" xmlns:svg="http://www.w3.org/2000/svg" xmlns:xlink="http://www.w3.org/1999/xlink" id="svg3759" width="124.74" height="117.735" version="1.1"><defs id="defs3761"><linearGradient id="linearGradient3892"><stop id="stop3894" offset="0" stop-color="#787878" stop-opacity="1"/><stop id="stop3896" offset="1" stop-color="#929292" stop-opacity="1"/></linearGradient><linearGradient id="linearGradient3884"><stop id="stop3886" offset="0" stop-color="#7bb51e" stop-opacity="1"/><stop id="stop3888" offset="1" stop-color="#94c449" stop-opacity="1"/></linearGradient><clipPath id="clipPath640"><path id="path642" d="m 0,0 1600,0 0,1200 L 0,1200 0,0 z"/></clipPath><mask id="mask658"><g id="g660"><g id="g662" clip-path="url(#clipPath648)"><g id="g664"><g id="g666"><path id="path668" fill="url(#linearGradient652)" stroke="none" d="m -32351,32767 65118,0 0,-64741.1 -65118,0 0,64741.1 z"/></g></g></g></g></mask><clipPath id="clipPath648"><path id="path650" d="m -32351,32767 65118,0 0,-64741.1 -65118,0 0,64741.1 z"/></clipPath><linearGradient id="linearGradient652" x1="0" x2="1" y1="0" y2="0" gradientTransform="matrix(0,117.7357,117.7357,0,543.67163,544.63216)" gradientUnits="userSpaceOnUse" spreadMethod="pad"><stop id="stop654" offset="0" stop-color="#fff" stop-opacity="1"/><stop id="stop656" offset="1" stop-color="#fff" stop-opacity=".8"/></linearGradient><clipPath id="clipPath674"><path id="path676" d="m 599.908,663.368 69.504,0 0,-69.503 -69.504,0 0,69.503 z"/></clipPath><mask id="mask700"><g id="g702"><g id="g704" clip-path="url(#clipPath690)"><g id="g706"><g id="g708"><path id="path710" fill="url(#linearGradient694)" stroke="none" d="m -32351,32767 65118,0 0,-64741.1 -65118,0 0,64741.1 z"/></g></g></g></g></mask><clipPath id="clipPath690"><path id="path692" d="m -32351,32767 65118,0 0,-64741.1 -65118,0 0,64741.1 z"/></clipPath><linearGradient id="linearGradient694" x1="0" x2="1" y1="0" y2="0" gradientTransform="matrix(0,117.7357,117.7357,0,543.67163,544.63216)" gradientUnits="userSpaceOnUse" spreadMethod="pad"><stop id="stop696" offset="0" stop-color="#fff" stop-opacity="1"/><stop id="stop698" offset="1" stop-color="#fff" stop-opacity=".8"/></linearGradient><clipPath id="clipPath716"><path id="path718" d="m 542.672,645.079 66.905,0 0,-101.447 -66.905,0 0,101.447 z"/></clipPath><linearGradient id="linearGradient3890" x1="90.816" x2="90.816" y1="66.766" y2="3.819" gradientUnits="userSpaceOnUse" xlink:href="#linearGradient3884"/><linearGradient id="linearGradient3898" x1="14.518" x2="14.518" y1="115.406" y2="22.115" gradientUnits="userSpaceOnUse" xlink:href="#linearGradient3892"/></defs><metadata id="metadata3764"/><path id="path684" fill="url(#linearGradient3890)" fill-opacity="1" fill-rule="nonzero" stroke="none" d="m 90.988,0 c -18.64,0 -33.751,15.111 -33.751,33.752 0,18.64 15.11,33.751 33.751,33.751 18.641,0 33.752,-15.111 33.752,-33.751 C 124.74,15.111 109.629,0 90.988,0 m 0.369,56.182 c -2.648,0 -4.795,-2.148 -4.795,-4.797 0,-2.648 2.147,-4.794 4.795,-4.794 2.649,0 4.796,2.146 4.796,4.794 0,2.649 -2.147,4.797 -4.796,4.797 m 3.77,-14.175 0,0.863 -7.904,0 0,-0.863 c 0,-2.441 0.356,-5.572 3.19,-8.295 2.833,-2.723 6.375,-4.972 6.375,-8.373 0,-3.761 -2.609,-5.75 -5.899,-5.75 -5.482,0 -5.841,5.686 -5.976,6.939 l -7.689,0 c 0.205,-5.929 2.71,-14.223 13.711,-14.223 9.533,0 13.818,6.384 13.818,12.371 0,9.529 -9.626,11.185 -9.626,17.331"/><path id="path726" fill="url(#linearGradient3898)" fill-opacity="1" fill-rule="nonzero" stroke="none" d="m 0,18.2893 64.905,50.878 -27.729,4.717 17.634,35.949 -16.169,7.902 L 20.904,81.4443 0,100.4253 0,18.2893 z"/></svg>