<svg xmlns="http://www.w3.org/2000/svg" xmlns:svg="http://www.w3.org/2000/svg" xmlns:xlink="http://www.w3.org/1999/xlink" id="svg2" width="124.74" height="117.74" x="0" y="0" enable-background="new 0 0 512 512" version="1.1" viewBox="0 0 124.74 117.74" xml:space="preserve"><metadata id="metadata9"/><defs id="defs7"><linearGradient id="linearGradient4062" x1="249" x2="249" y1="460.77" y2="69.878" gradientTransform="matrix(0.85255883,0,0,0.85255883,37.744939,37.744939)" gradientUnits="userSpaceOnUse" xlink:href="#linearGradient4056"/><linearGradient id="linearGradient4056"><stop id="stop4058" offset="0" stop-color="#787878" stop-opacity="1"/><stop id="stop4060" offset="1" stop-color="#929292" stop-opacity="1"/></linearGradient><linearGradient id="linearGradient3468" x1="118.831" x2="118.831" y1="98.079" y2="28.658" gradientTransform="translate(-89.4958,-19.743511)" gradientUnits="userSpaceOnUse" xlink:href="#linearGradient4056"/><linearGradient id="linearGradient4054" x1="80.25" x2="80.25" y1="106.081" y2="6.573" gradientUnits="userSpaceOnUse" xlink:href="#linearGradient4048"/><linearGradient id="linearGradient4048"><stop id="stop4050" offset="0" stop-color="#7bb51e" stop-opacity="1"/><stop id="stop4052" offset="1" stop-color="#94c449" stop-opacity="1"/></linearGradient><linearGradient id="linearGradient3522" x1="80.25" x2="80.25" y1="106.081" y2="6.573" gradientTransform="matrix(0.64803561,0,0,0.64803561,47.565951,1.07313)" gradientUnits="userSpaceOnUse" xlink:href="#linearGradient4048"/><linearGradient id="linearGradient3617" x1="249" x2="249" y1="460.77" y2="69.878" gradientTransform="matrix(0.230644,0,0,0.230644,-3.3949465,10.557902)" gradientUnits="userSpaceOnUse" xlink:href="#linearGradient4056"/><linearGradient id="linearGradient4048-5"><stop id="stop4050-9" offset="0" stop-color="#7bb51e" stop-opacity="1"/><stop id="stop4052-4" offset="1" stop-color="#94c449" stop-opacity="1"/></linearGradient><linearGradient id="linearGradient3641" x1="80.25" x2="80.25" y1="106.081" y2="6.573" gradientTransform="matrix(0.64803561,0,0,0.64803561,0.001104,-5.87e-5)" gradientUnits="userSpaceOnUse" xlink:href="#linearGradient4048-5"/><linearGradient id="linearGradient3522-6" x1="80.25" x2="80.25" y1="106.081" y2="6.573" gradientTransform="matrix(0.64803561,0,0,0.64803561,47.56595,1.07313)" gradientUnits="userSpaceOnUse" xlink:href="#linearGradient4048-51"/><linearGradient id="linearGradient4048-51"><stop id="stop4050-8" offset="0" stop-color="#7bb51e" stop-opacity="1"/><stop id="stop4052-5" offset="1" stop-color="#94c449" stop-opacity="1"/></linearGradient><linearGradient id="linearGradient3641-3" x1="80.25" x2="80.25" y1="106.081" y2="6.573" gradientTransform="matrix(0.64803561,0,0,0.64803561,0.001104,-5.87e-5)" gradientUnits="userSpaceOnUse" xlink:href="#linearGradient4048-51"/></defs><path id="email-6-icon" fill="url(#linearGradient3617)" fill-opacity="1" fill-rule="nonzero" stroke="none" d="m 55.649923,22.817732 -47.512095,36.200495 0,46.362333 27.21378,-25.506046 -20.53503,-15.72464 40.833345,-31.178756 5.993964,4.573676 c 1.919275,-1.922877 3.840024,-3.842853 5.765698,-5.757251 L 55.649923,22.817732 z M 92.63665,51.037546 c -1.936195,1.902096 -3.858479,3.821567 -5.791065,5.740338 l 9.671505,7.388894 -20.568852,15.843002 27.213772,25.46378 0,-46.404606 -10.52536,-8.031408 z M 51.870933,75.639005 8.256185,116.38781 l 94.736755,0 -43.564028,-40.748805 -7.557979,0 z" color="#000" display="inline" enable-background="accumulate" overflow="visible" visibility="visible" style="marker:none"/><path id="key-icon" fill="url(#linearGradient3522-6)" fill-opacity="1" fill-rule="nonzero" stroke="none" d="m 88.84581,47.951056 -7.89674,7.896561 h -7.64579 l 1.8e-4,7.645621 -7.97185,-3.51e-4 v 7.205071 H 47.62643 V 58.419448 L 73.02358,33.022297 c 2.86443,6.82691 8.53508,12.35292 15.82223,14.92876 z M 113.08915,7.3208665 c 8.44724,8.4474195 8.4469,22.1430705 -1.8e-4,30.5901405 -8.44759,8.44777 -22.14272,8.44777 -30.59031,1.7e-4 -8.44725,-8.44707 -8.4476,-22.142711 0,-30.5903105 8.44707,-8.44725 22.14324,-8.44725 30.59049,0 z m -4.34169,4.3265295 c -2.09539,-2.0948695 -5.49238,-2.0950395 -7.58724,0 -2.09504,2.09521 -2.09504,5.4922 0,7.58724 2.09486,2.095039 5.49168,2.094859 7.58689,-1.8e-4 2.09539,-2.09521 2.09504,-5.492021 3.5e-4,-7.58706 z" color="#000" display="inline" enable-background="accumulate" overflow="visible" visibility="visible" style="marker:none"/></svg>