<svg xmlns="http://www.w3.org/2000/svg" xmlns:svg="http://www.w3.org/2000/svg" id="svg4810" width="60" height="36" version="1.1" viewBox="0 0 60 36"><metadata id="metadata4818"/><path id="path4812" fill="#fff" fill-opacity="1" d="m 30.036428,5.8571429 c 11.538144,0 19.581573,7.3148571 23.081143,11.2588571 -3.402428,4.461286 -11.445857,13.026858 -23.081143,13.026858 -10.734285,0 -19.258571,-8.587429 -23.0179998,-13.131286 C 10.644285,13.011714 18.716857,5.8571429 30.036428,5.8571429 Z M 30.036428,1 C 11.654571,1 0.8571425,16.909572 0.8571425,16.909572 0.8571425,16.909572 12.599285,35 30.036428,35 48.816571,35 59.142858,16.909572 59.142858,16.909572 59.142858,16.909572 48.721857,1 30.036429,1 Z m -0.03642,7.2857143 c -5.367144,0 -9.714286,4.3495717 -9.714286,9.7142857 0,5.364714 4.347142,9.714286 9.714286,9.714286 5.364714,0 9.714284,-4.349572 9.714284,-9.714286 0,-5.364714 -4.34957,-9.7142857 -9.714284,-9.7142857 z m -0.0098,9.7118577 c -1.369714,1.369714 -3.591858,1.369714 -4.964,0 -1.372143,-1.369715 -1.372143,-3.594286 0,-4.964 1.369715,-1.369715 3.591856,-1.369715 4.964,0 1.372143,1.369714 1.372143,3.591857 0,4.964 z"/></svg>