<svg xmlns="http://www.w3.org/2000/svg" xmlns:svg="http://www.w3.org/2000/svg" id="svg4593" width="90" height="36" version="1.1" viewBox="0 0 90 36"><metadata id="metadata4598"/><g id="layer1" transform="translate(0,-1016.3622)"><path id="rect6266-3-37-2" fill="#fff" fill-opacity="1" stroke="none" stroke-opacity="1" d="M 36.412109 5 C 35.539141 5 34.835937 5.7030719 34.835938 6.5761719 L 34.835938 7.0488281 L 34.363281 7.0488281 C 33.490313 7.0488281 32.787109 7.7502469 32.787109 8.6230469 L 32.787109 14.199219 L 36.587891 14.199219 L 36.587891 9.8007812 C 36.587891 9.2467812 37.033891 8.8007812 37.587891 8.8007812 L 52.412109 8.8007812 C 52.96611 8.8007812 53.412109 9.2467812 53.412109 9.8007812 L 53.412109 14.199219 L 57.212891 14.199219 L 57.212891 6.5761719 C 57.212891 5.7030719 56.509688 5 55.636719 5 L 36.412109 5 z M 32.787109 21.800781 L 32.787109 29.423828 C 32.787109 30.296928 33.490313 31 34.363281 31 L 53.587891 31 C 54.460859 31 55.164062 30.296928 55.164062 29.423828 L 55.164062 28.951172 L 55.636719 28.951172 C 56.509688 28.951172 57.212891 28.248 57.212891 27.375 L 57.212891 21.800781 L 53.412109 21.800781 L 53.412109 26.199219 C 53.412109 26.753219 52.96611 27.199219 52.412109 27.199219 L 37.587891 27.199219 C 37.033891 27.199219 36.587891 26.753219 36.587891 26.199219 L 36.587891 21.800781 L 32.787109 21.800781 z" transform="translate(0,1016.3622)"/><rect id="rect6283" width="155" height="165" x="-394.031" y="1046.461" fill="#ff0" fill-opacity="1" stroke="none" stroke-opacity="1"/><path id="path4-1-3-3-2-36-4" fill="#fff" fill-opacity="1" d="m 75.554755,1028.5477 -1.479893,1.5201 3.319516,3.2099 0.03547,2.1102 -3.209842,3.3193 1.530314,1.4695 5.703664,-5.9121 z"/><rect id="rect8181" width="68.116" height="3.8" x="10.546" y="1032.462" fill="#fff" fill-opacity="1" stroke="none" stroke-dasharray="7.6 1.9" stroke-dashoffset="0" stroke-miterlimit="4" stroke-opacity="1" stroke-width="1.9"/><path id="rect6266-3-37" fill="#fff" fill-opacity="1" stroke="none" stroke-opacity="1" d="M 4.625 5 C 3.752032 5 3.0488281 5.7030719 3.0488281 6.5761719 L 3.0488281 7.0488281 L 2.5761719 7.0488281 C 1.7032039 7.0488281 1 7.7502469 1 8.6230469 L 1 29.423828 C 1 30.296928 1.7032039 31 2.5761719 31 L 21.800781 31 C 22.673749 31 23.376953 30.296928 23.376953 29.423828 L 23.376953 28.951172 L 23.849609 28.951172 C 24.722578 28.951172 25.425781 28.248 25.425781 27.375 L 25.425781 21.800781 L 21.625 21.800781 L 21.625 26.199219 C 21.625 26.753219 21.179001 27.199219 20.625 27.199219 L 5.8007812 27.199219 C 5.2467812 27.199219 4.8007813 26.753219 4.8007812 26.199219 L 4.8007812 9.8007812 C 4.8007812 9.2467812 5.2467812 8.8007812 5.8007812 8.8007812 L 20.625 8.8007812 C 21.179001 8.8007812 21.625 9.2467812 21.625 9.8007812 L 21.625 14.199219 L 25.425781 14.199219 L 25.425781 6.5761719 C 25.425781 5.7030719 24.722578 5 23.849609 5 L 4.625 5 z" transform="translate(0,1016.3622)"/><path id="rect6266-3-37-28" fill="#fff" fill-opacity="1" stroke="none" stroke-opacity="1" d="M 68.199219 5 C 67.326243 5 66.623047 5.7030719 66.623047 6.5761719 L 66.623047 7.0488281 L 66.150391 7.0488281 C 65.277415 7.0488281 64.574219 7.7502469 64.574219 8.6230469 L 64.574219 14.199219 L 68.375 14.199219 L 68.375 9.8007812 C 68.375 9.2467812 68.820995 8.8007812 69.375 8.8007812 L 72.986328 8.8007812 L 72.986328 5 L 68.199219 5 z M 80.587891 5 L 80.587891 8.8007812 L 84.199219 8.8007812 C 84.753225 8.8007812 85.199219 9.2467814 85.199219 9.8007812 L 85.199219 14.199219 L 89 14.199219 L 89 6.5761719 C 89 5.7030719 88.296807 5 87.423828 5 L 80.587891 5 z M 64.574219 21.800781 L 64.574219 29.423828 C 64.574219 30.296928 65.277415 31 66.150391 31 L 72.986328 31 L 72.986328 27.199219 L 69.375 27.199219 C 68.820995 27.199219 68.375 26.753219 68.375 26.199219 L 68.375 21.800781 L 64.574219 21.800781 z M 85.199219 21.800781 L 85.199219 26.199219 C 85.199219 26.753219 84.753225 27.199219 84.199219 27.199219 L 80.587891 27.199219 L 80.587891 31 L 85.375 31 C 86.247976 31 86.951172 30.296928 86.951172 29.423828 L 86.951172 28.951172 L 87.423828 28.951172 C 88.296807 28.951172 89 28.248 89 27.375 L 89 21.800781 L 85.199219 21.800781 z" transform="translate(0,1016.3622)"/></g></svg>