<svg xmlns="http://www.w3.org/2000/svg" xmlns:svg="http://www.w3.org/2000/svg" id="svg10394" width="105.678" height="105.684" version="1.1" viewBox="0 0 99.074 99.079"><metadata id="metadata10399"/><g id="layer1" transform="translate(-456.17751,-337.10852)"><g id="g10361" display="inline" opacity="1" transform="matrix(1.25,0,0,-1.25,-331.99492,1216.8701)"><g id="g9515" fill="#787878" fill-opacity="1" stroke="none" display="inline" opacity="1" transform="matrix(2.1094628,0,0,-2.1094628,630.53773,2842.1369)"><g id="g9517" fill="#787878" fill-opacity="1" stroke="none" transform="matrix(1,0,0,-1,-345.0003,1870.3623)"><g id="g9525" fill="#787878" fill-opacity="1" stroke="none" transform="translate(376.3114,856.6788)"><path clip-rule="nonzero" style="isolation:auto;mix-blend-mode:normal;solid-color:#000;solid-opacity:1" id="path9527" fill="#7ab51d" fill-opacity="1" fill-rule="nonzero" stroke="none" stroke-dasharray="none" stroke-dashoffset="0" stroke-linecap="butt" stroke-linejoin="miter" stroke-miterlimit="4" stroke-opacity="1" stroke-width=".626" d="m 0,0 -18.787,0 c -3.457,0 -6.257,-2.801 -6.262,-6.257 l -0.006,0 0,-0.007 c -3.457,-0.004 -6.256,-2.804 -6.256,-6.261 l 0,-18.787 c 0,-3.46 2.804,-6.263 6.262,-6.263 l 18.787,0 c 3.459,0 6.262,2.803 6.262,6.263 3.458,0 6.262,2.803 6.262,6.263 l 0,18.786 C 6.262,-2.804 3.458,0 0,0" color="#000" color-interpolation="sRGB" color-interpolation-filters="linearRGB" color-rendering="auto" display="inline" enable-background="accumulate" image-rendering="auto" opacity="1" overflow="visible" shape-rendering="auto" text-rendering="auto" visibility="visible"/></g></g></g><path id="path4-36" fill="#fff" fill-opacity="1" d="m 670.16736,688.57773 c -13.47491,0 -24.4,-10.92509 -24.4,-24.4 0,-13.47491 10.92509,-24.4 24.4,-24.4 13.47491,0 24.4,10.92509 24.4,24.4 0,13.47491 -10.92509,24.4 -24.4,24.4 z m 11.65101,-41.03876 c -0.21554,1.06952 -0.47988,2.12686 -0.80928,3.16183 1.82391,1.64903 1.74867,4.46722 -0.1464,5.86209 1.1834,4.71328 1.24034,9.85964 -0.004,14.81895 0.37821,0.2262 0.7076,0.51646 0.96584,0.86416 2.98086,-0.83774 5.75637,-2.16754 8.23906,-3.8857 0.28468,-1.35217 0.43716,-2.74907 0.43716,-4.18257 0,-6.87673 -3.4404,-12.9564 -8.68233,-16.63876 z m -31.98434,16.63876 c 0,1.73851 0.244,3.42007 0.65676,5.03251 1.4213,0.089 2.83244,0.0813 4.36556,-0.0661 l 0.0813,-0.45952 c -1.87271,-1.57585 -3.55833,-3.37738 -5.0569,-5.43714 l -0.0467,0.92922 z m 6.47209,2.41967 c 1.72427,-1.30744 4.23543,-0.88654 5.41273,0.99633 5.89261,-2.15533 10.85598,-6.25657 14.11135,-11.52087 -1.55753,-1.57583 -1.5372,-4.0626 0.0387,-5.47983 -1.38472,-2.50303 -3.1476,-4.76817 -5.20535,-6.72423 -9.9674,-0.23892 -18.14545,6.63272 -20.27029,15.65057 1.56972,2.67585 3.56849,5.07112 5.91292,7.07803 z m 5.86821,3.86536 c 4.04836,1.98047 8.4485,2.91173 12.8588,2.7999 0.62016,-1.24236 1.89099,-2.18786 3.38754,-2.37086 l 0.0127,0 c 1.13257,-4.3859 1.18543,-9.09308 0.0589,-13.62334 l -0.45343,-0.0458 c -3.50548,5.74417 -9.01377,10.43304 -15.78477,12.81204 l -0.0793,0.42904 z m 12.32606,-26.14256 c 1.42741,1.66123 2.6657,3.4465 3.68644,5.34157 l 0.549,0.0254 c 0.34974,-1.14274 0.62626,-2.31596 0.8296,-3.51564 -1.5799,-0.82552 -3.27774,-1.45179 -5.06504,-1.84219 z m 14.44278,27.64926 c -2.05164,1.13867 -4.2212,2.0374 -6.48431,2.6657 -0.2196,2.02318 -2.1167,3.7088 -4.30863,3.69253 -1.1224,2.07197 -2.50506,4.01585 -4.11546,5.80314 6.7527,-1.30539 12.32402,-5.95767 14.9084,-12.16137 z m -13.15974,5.50627 c -0.52257,-0.44733 -0.90076,-1.04716 -1.06546,-1.74459 -4.99388,0.061 -9.71528,-1.06954 -13.92428,-3.18217 -1.72833,1.29727 -4.209,0.85603 -5.3802,-0.98211 -1.48026,0.15505 -2.80396,0.18809 -4.11546,0.14742 3.0012,7.48877 10.3212,12.7978 18.86933,12.7978 l 0.002,0 c 2.23055,-2.02113 4.13579,-4.392 5.61402,-7.03534 z"/></g></g></svg>