<svg xmlns="http://www.w3.org/2000/svg" xmlns:svg="http://www.w3.org/2000/svg" id="svg10394" width="105.678" height="105.684" version="1.1" viewBox="0 0 99.074 99.079"><metadata id="metadata10399"/><g id="layer1" transform="translate(-456.17751,-337.10852)"><g id="g10361" display="inline" opacity="1" transform="matrix(1.25,0,0,-1.25,-331.99492,1216.8701)"><g id="g9515" fill="#d3d3d3" fill-opacity="1" stroke="none" display="inline" opacity="1" transform="matrix(2.1094628,0,0,-2.1094628,630.53773,2842.1369)"><path clip-rule="nonzero" style="isolation:auto;mix-blend-mode:normal;solid-color:#000;solid-opacity:1" id="path9527" fill="#d3d3d3" fill-opacity="1" fill-rule="nonzero" stroke="none" stroke-dasharray="none" stroke-dashoffset="0" stroke-linecap="butt" stroke-linejoin="miter" stroke-miterlimit="4" stroke-opacity="1" stroke-width=".626" d="m 31.311102,1013.682 -18.787,0 c -3.4570001,0 -6.2570001,2.801 -6.2620001,6.257 l -0.006,0 0,0.01 c -3.457,0 -6.25599998855,2.804 -6.25599998855,6.261 l 0,18.787 c 0,3.46 2.80399998855,6.263 6.26199998855,6.263 l 18.7870001,0 c 3.459,0 6.262,-2.803 6.262,-6.263 3.458,0 6.262,-2.803 6.262,-6.263 l 0,-18.786 c 0,-3.459 -2.804,-6.263 -6.262,-6.263" color="#000" color-interpolation="sRGB" color-interpolation-filters="linearRGB" color-rendering="auto" display="inline" enable-background="accumulate" image-rendering="auto" opacity="1" overflow="visible" shape-rendering="auto" text-rendering="auto" visibility="visible"/></g><path id="path6219" fill="#fff" fill-opacity="1" d="m 675.77855,643.68488 c 0,-2.97686 -2.40737,-5.39286 -5.3907,-5.39286 -2.97254,0 -5.3907,2.416 -5.3907,5.39286 0,2.97686 2.41816,5.39285 5.3907,5.39285 2.98333,0 5.3907,-2.41383 5.3907,-5.39285 z m -5.2203,46.37857 c -8.69112,0 -15.22942,-5.80919 -15.22942,-17.25714 l 8.5315,0 c 0,4.97005 1.95437,9.03627 6.5232,9.03627 2.68995,0 5.54385,-1.78612 5.78977,-5.20088 0.26533,-3.5938 -1.65453,-5.41658 -4.08131,-7.72688 -6.30748,-5.99686 -6.07452,-8.73428 -6.07452,-15.5228 l 8.50561,0 c 0,3.13217 -0.33867,5.41012 3.96483,10.05012 2.87116,3.09766 6.44124,6.95032 6.51673,12.8199 0.10144,8.54877 -5.9343,13.80141 -14.44639,13.80141 z"/></g></g></svg>