<svg xmlns="http://www.w3.org/2000/svg" xmlns:svg="http://www.w3.org/2000/svg" xmlns:xlink="http://www.w3.org/1999/xlink" id="svg3724" width="129.78" height="129.559" version="1.1"><defs id="defs3726"><linearGradient id="linearGradient3829"><stop id="stop3831" offset="0" stop-color="#f0f" stop-opacity=".667"/><stop id="stop3833" offset="1" stop-color="#f0f" stop-opacity="1"/></linearGradient><linearGradient id="linearGradient3821"><stop id="stop3823" offset="0" stop-color="#929292" stop-opacity="1"/><stop id="stop3825" offset="1" stop-color="#787878" stop-opacity="1"/></linearGradient><clipPath id="clipPath608"><path id="path610" d="m 0,0 1600,0 0,1200 L 0,1200 0,0 z"/></clipPath><mask id="mask626"><g id="g628"><g id="g630" clip-path="url(#clipPath616)"><g id="g632"><g id="g634"><path id="path636" fill="url(#linearGradient620)" stroke="none" d="m -32443.3,32767 65210.3,0 0,-64633.3 -65210.3,0 0,64633.3 z"/></g></g></g></g></mask><clipPath id="clipPath616"><path id="path618" d="m -32443.3,32767 65210.3,0 0,-64633.3 -65210.3,0 0,64633.3 z"/></clipPath><linearGradient id="linearGradient620" x1="0" x2="1" y1="0" y2="0" gradientTransform="matrix(0,7.2453003,7.2453003,0,499.00999,688.33371)" gradientUnits="userSpaceOnUse" spreadMethod="pad"><stop id="stop622" offset="0" stop-color="#fff" stop-opacity="1"/><stop id="stop624" offset="1" stop-color="#fff" stop-opacity=".8"/></linearGradient><clipPath id="clipPath642"><path id="path644" d="m 498.01,696.579 27.2,0 0,-9.245 -27.2,0 0,9.245 z"/></clipPath><mask id="mask666"><g id="g668"><g id="g670" clip-path="url(#clipPath656)"><g id="g672"><g id="g674"><path id="path676" fill="url(#linearGradient660)" stroke="none" d="m -32443.3,32767 65210.3,0 0,-64633.3 -65210.3,0 0,64633.3 z"/></g></g></g></g></mask><clipPath id="clipPath656"><path id="path658" d="m -32443.3,32767 65210.3,0 0,-64633.3 -65210.3,0 0,64633.3 z"/></clipPath><linearGradient id="linearGradient660" x1="0" x2="1" y1="0" y2="0" gradientTransform="matrix(0,129.55928,129.55928,0,417.11014,678.21526)" gradientUnits="userSpaceOnUse" spreadMethod="pad"><stop id="stop662" offset="0" stop-color="#fff" stop-opacity="1"/><stop id="stop664" offset="1" stop-color="#fff" stop-opacity=".8"/></linearGradient><clipPath id="clipPath682"><path id="path684" d="m 416.11,808.775 131.78,0 0,-131.56 -131.78,0 0,131.56 z"/></clipPath><linearGradient id="linearGradient3827" x1="487.051" x2="487.051" y1="806.711" y2="680.137" gradientUnits="userSpaceOnUse" xlink:href="#linearGradient3821"/><linearGradient id="linearGradient3835" x1="513.23" x2="513.23" y1="695.029" y2="688.663" gradientUnits="userSpaceOnUse" xlink:href="#linearGradient3829"/></defs><metadata id="metadata3729"/><g id="layer1" transform="matrix(0.8,0,0,0.8,-235.11009,-361.11028)"><g id="g604" transform="matrix(1.25,0,0,-1.25,-227.49966,1461.1061)"><g id="g606" clip-path="url(#clipPath608)"><path id="path650" fill="url(#linearGradient3835)" fill-opacity="1" fill-rule="nonzero" stroke="none" d="m 524.21,688.334 -25.2,0 0,7.245 25.2,0 0,-7.245 z"/><path id="path692" fill="url(#linearGradient3827)" fill-opacity="1" fill-rule="nonzero" stroke="none" d="m 529.7062,710.0856 c -18.596,4.289 -35.907,8.045 -27.523,23.851 25.518,48.11 6.764,73.838 -20.183,73.838 -27.478,0 -45.77,-26.716 -20.182,-73.838 8.634,-15.902 -9.327,-19.654 -27.524,-23.851 -18.588,-4.287 -17.159,-14.088 -17.159,-31.87 l 129.729,0 c 0,17.783 1.43,27.583 -17.158,31.87 m -5.496,-21.752 -25.2,0 0,7.245 25.2,0 0,-7.245 z"/></g></g></g></svg>