<svg xmlns="http://www.w3.org/2000/svg" xmlns:svg="http://www.w3.org/2000/svg" xmlns:xlink="http://www.w3.org/1999/xlink" id="svg3724" width="129.274" height="145.62" version="1.1"><defs id="defs3726"><linearGradient id="linearGradient3938"><stop id="stop3940" offset="0" stop-color="#929292" stop-opacity="1"/><stop id="stop3942" offset="1" stop-color="#787878" stop-opacity="1"/></linearGradient><linearGradient id="linearGradient3930"><stop id="stop3932" offset="0" stop-color="#f0f" stop-opacity=".667"/><stop id="stop3934" offset="1" stop-color="#f0f" stop-opacity="1"/></linearGradient><clipPath id="clipPath548"><path id="path550" d="m 0,0 1600,0 0,1200 L 0,1200 0,0 z"/></clipPath><mask id="mask566"><g id="g568"><g id="g570" clip-path="url(#clipPath556)"><g id="g572"><g id="g574"><path id="path576" fill="url(#linearGradient560)" stroke="none" d="m -32506.6,32767 65273.6,0 0,-64275.7 -65273.6,0 0,64275.7 z"/></g></g></g></g></mask><clipPath id="clipPath556"><path id="path558" d="m -32506.6,32767 65273.6,0 0,-64275.7 -65273.6,0 0,64275.7 z"/></clipPath><linearGradient id="linearGradient560" x1="0" x2="1" y1="0" y2="0" gradientTransform="matrix(0,145.61986,145.61986,0,417.6618,733.38007)" gradientUnits="userSpaceOnUse" spreadMethod="pad"><stop id="stop562" offset="0" stop-color="#fff" stop-opacity="1"/><stop id="stop564" offset="1" stop-color="#fff" stop-opacity=".8"/></linearGradient><clipPath id="clipPath582"><path id="path584" d="m 416.662,880 131.274,0 0,-147.62 -131.274,0 0,147.62 z"/></clipPath><mask id="mask606"><g id="g608"><g id="g610" clip-path="url(#clipPath596)"><g id="g612"><g id="g614"><path id="path616" fill="url(#linearGradient600)" stroke="none" d="m -32506.6,32767 65273.6,0 0,-64275.7 -65273.6,0 0,64275.7 z"/></g></g></g></g></mask><clipPath id="clipPath596"><path id="path598" d="m -32506.6,32767 65273.6,0 0,-64275.7 -65273.6,0 0,64275.7 z"/></clipPath><linearGradient id="linearGradient600" x1="0" x2="1" y1="0" y2="0" gradientTransform="matrix(0,145.61986,145.61986,0,417.6618,733.38007)" gradientUnits="userSpaceOnUse" spreadMethod="pad"><stop id="stop602" offset="0" stop-color="#fff" stop-opacity="1"/><stop id="stop604" offset="1" stop-color="#fff" stop-opacity=".8"/></linearGradient><clipPath id="clipPath622"><path id="path624" d="m 448.942,845.756 66.715,0 0,-43.429 -66.715,0 0,43.429 z"/></clipPath><mask id="mask648"><g id="g650"><g id="g652" clip-path="url(#clipPath638)"><g id="g654"><g id="g656"><path id="path658" fill="url(#linearGradient642)" stroke="none" d="m -32506.6,32767 65273.6,0 0,-64275.7 -65273.6,0 0,64275.7 z"/></g></g></g></g></mask><clipPath id="clipPath638"><path id="path640" d="m -32506.6,32767 65273.6,0 0,-64275.7 -65273.6,0 0,64275.7 z"/></clipPath><linearGradient id="linearGradient642" x1="0" x2="1" y1="0" y2="0" gradientTransform="matrix(0,145.61986,145.61986,0,417.6618,733.38007)" gradientUnits="userSpaceOnUse" spreadMethod="pad"><stop id="stop644" offset="0" stop-color="#fff" stop-opacity="1"/><stop id="stop646" offset="1" stop-color="#fff" stop-opacity=".8"/></linearGradient><clipPath id="clipPath664"><path id="path666" d="m 455.146,862.759 54.306,0 0,-30.226 -54.306,0 0,30.226 z"/></clipPath><linearGradient id="linearGradient3936" x1="63.058" x2="63.058" y1="18.071" y2="72.372" gradientUnits="userSpaceOnUse" xlink:href="#linearGradient3930"/><linearGradient id="linearGradient3944" x1="69.422" x2="69.422" y1="2.468" y2="142.535" gradientUnits="userSpaceOnUse" xlink:href="#linearGradient3938"/></defs><metadata id="metadata3729"/><path id="path590" fill="url(#linearGradient3944)" fill-opacity="1" fill-rule="nonzero" stroke="none" d="m 129.274,119.585 -129.274,0 0,26.035 129.274,0 0,-26.035 z m -61.569,13.018 c 0,1.695 -1.373,3.068 -3.068,3.068 -1.695,0 -3.069,-1.373 -3.069,-3.068 0,-1.695 1.374,-3.069 3.069,-3.069 1.695,0 3.068,1.374 3.068,3.069 m 50.633,2.789 -39.672,0 0,-5.579 39.672,0 0,5.579 z m -36.434,-35.697 -34.535,0 -12.452,12.452 59.44,0 L 81.904,99.695 z M 0,92.334 l 129.274,0 L 129.274,0 0,0 0,92.334 z m 12.452,-79.881 104.369,-10e-4 0,67.43 -104.368,0 -10e-4,-67.429 z"/><path id="path672" fill="url(#linearGradient3936)" fill-opacity="1" fill-rule="nonzero" stroke="none" d="m 84.507,45.467 6.283,0 0,-28.225 -6.283,0 0,28.225 z m -22.933,-15.935 6.283,0 0,-12.291 -6.283,0 0,12.291 z m -23.09,15.935 6.283,0 0,-28.225 -6.283,0 0,28.225 z m 52.3065,15.5809 6.204,0 0,-10.838 -18.692,0 0,10.838 6.205,0 0,14.625 6.283,0 0,-14.625 z m -22.933,-15.965 6.204,0 0,-10.838 -18.692,0 0,10.838 6.205,0 0,30.59 6.283,0 0,-30.59 z m -23.09,15.934 6.204,0 0,-10.838 -18.692,0 0,10.838 6.205,0 0,14.656 6.283,0 0,-14.656 z"/></svg>