<svg xmlns="http://www.w3.org/2000/svg" xmlns:svg="http://www.w3.org/2000/svg" xmlns:xlink="http://www.w3.org/1999/xlink" id="svg3734" width="153.94" height="131.074" version="1.1"><defs id="defs3736"><linearGradient id="linearGradient3871"><stop id="stop3873" offset="0" stop-color="#f0f" stop-opacity="1"/><stop id="stop3875" offset="1" stop-color="#f0f" stop-opacity=".667"/></linearGradient><linearGradient id="linearGradient3863"><stop id="stop3865" offset="0" stop-color="#787878" stop-opacity="1"/><stop id="stop3867" offset="1" stop-color="#929292" stop-opacity="1"/></linearGradient><mask id="mask386"><g id="g388"><g id="g390" clip-path="url(#clipPath376)"><g id="g392"><g id="g394"><path id="path396" fill="url(#linearGradient380)" stroke="none" d="m -32596,32767 65363,0 0,-64314.8 -65363,0 0,64314.8 z"/></g></g></g></g></mask><clipPath id="clipPath376"><path id="path378" d="m -32596,32767 65363,0 0,-64314.8 -65363,0 0,64314.8 z"/></clipPath><linearGradient id="linearGradient380" x1="0" x2="1" y1="0" y2="0" gradientTransform="matrix(0,63.702591,63.702591,0,403.62599,751.14313)" gradientUnits="userSpaceOnUse" spreadMethod="pad"><stop id="stop382" offset="0" stop-color="#fff" stop-opacity="1"/><stop id="stop384" offset="1" stop-color="#fff" stop-opacity=".8"/></linearGradient><clipPath id="clipPath402"><path id="path404" d="m 404.03,814.978 155.94,0 0,-63.579 -155.94,0 0,63.579 z"/></clipPath><mask id="mask428"><g id="g430"><g id="g432" clip-path="url(#clipPath418)"><g id="g434"><g id="g436"><path id="path438" fill="url(#linearGradient422)" stroke="none" d="m -32603.8,32767 65370.8,0 0,-64308 -65370.8,0 0,64308 z"/></g></g></g></g></mask><clipPath id="clipPath418"><path id="path420" d="m -32603.8,32767 65370.8,0 0,-64308 -65370.8,0 0,64308 z"/></clipPath><linearGradient id="linearGradient422" x1="0" x2="1" y1="0" y2="0" gradientTransform="matrix(0,95.97995,95.97995,0,451.56085,788.17728)" gradientUnits="userSpaceOnUse" spreadMethod="pad"><stop id="stop424" offset="0" stop-color="#fff" stop-opacity="1"/><stop id="stop426" offset="1" stop-color="#fff" stop-opacity=".8"/></linearGradient><clipPath id="clipPath444"><path id="path446" d="m 451.245,884.473 61.51,0 0,-95.94 -61.51,0 0,95.94 z"/></clipPath><linearGradient id="linearGradient3869" x1="76.645" x2="76.645" y1="126.4" y2="72.479" gradientUnits="userSpaceOnUse" xlink:href="#linearGradient3863"/><linearGradient id="linearGradient3877" x1="75.623" x2="75.623" y1="89.763" y2="2.51" gradientUnits="userSpaceOnUse" xlink:href="#linearGradient3871"/></defs><metadata id="metadata3739"/><path id="path412" fill="url(#linearGradient3869)" fill-opacity="1" fill-rule="nonzero" stroke="none" d="m 153.94,131.0744 -43.021,-15.415 -34.997,15.415 -34.748,-15.415 -41.174,15.415 25.244,-49.74 27.368,-11.336 5.683,9.708 -24.864,10.214 -10.508,20.706 17.349,-6.496 10.086,-17.822 -4.078,19.362 26.653,11.839 2.989,-13.344 3.363,13.467 26.777,-11.962 -4.094,-19.917 10.165,18.538 19.151,6.862 -10.755,-21.193 -24.202,-11.366 5.557,-9.099 26.812,11.839 25.244,49.74 z"/><path id="path454" fill="url(#linearGradient3877)" fill-opacity="1" fill-rule="nonzero" stroke="none" d="m 76.9702,0 c -16.433,0 -29.755,13.322 -29.755,29.755 0,16.434 13.022,35.532 29.755,64.185 16.733,-28.653 29.755,-47.751 29.755,-64.185 C 106.7252,13.322 93.4042,0 76.9702,0 m 0,39.704 c -5.894,0 -10.671,-4.777 -10.671,-10.671 0,-5.893 4.777,-10.671 10.671,-10.671 5.894,0 10.671,4.778 10.671,10.671 0,5.894 -4.777,10.671 -10.671,10.671"/></svg>