<svg xmlns="http://www.w3.org/2000/svg" xmlns:svg="http://www.w3.org/2000/svg" xmlns:xlink="http://www.w3.org/1999/xlink" id="svg3747" width="135.776" height="134.662" version="1.1"><defs id="defs3749"><linearGradient id="linearGradient3821"><stop id="stop3823" offset="0" stop-color="#7bb51e" stop-opacity="1"/><stop id="stop3825" offset="1" stop-color="#95c44a" stop-opacity="1"/></linearGradient><clipPath id="clipPath632"><path id="path634" d="m 0,0 1600,0 0,1200 L 0,1200 0,0 z"/></clipPath><mask id="mask650"><g id="g652"><g id="g654" clip-path="url(#clipPath640)"><g id="g656"><g id="g658"><path id="path660" fill="url(#linearGradient644)" stroke="none" d="m -32617.7,32767 65384.7,0 0,-64288.4 -65384.7,0 0,64288.4 z"/></g></g></g></g></mask><clipPath id="clipPath640"><path id="path642" d="m -32617.7,32767 65384.7,0 0,-64288.4 -65384.7,0 0,64288.4 z"/></clipPath><linearGradient id="linearGradient644" x1="0" x2="1" y1="0" y2="0" gradientTransform="matrix(0,134.6615,134.6615,0,414.43085,727.85736)" gradientUnits="userSpaceOnUse" spreadMethod="pad"><stop id="stop646" offset="0" stop-color="#fff" stop-opacity="1"/><stop id="stop648" offset="1" stop-color="#fff" stop-opacity=".8"/></linearGradient><clipPath id="clipPath666"><path id="path668" d="m 413.431,863.519 137.776,0 0,-136.662 -137.776,0 0,136.662 z"/></clipPath><linearGradient id="linearGradient3827" x1="71.583" x2="71.583" y1="129.349" y2="5.421" gradientUnits="userSpaceOnUse" xlink:href="#linearGradient3821"/><linearGradient id="linearGradient4141" x1="57.16" x2="57.16" y1="11.943" y2="127.953" gradientTransform="translate(-1.1527072,2.7399867e-6)" gradientUnits="userSpaceOnUse" xlink:href="#linearGradient4135"/><linearGradient id="linearGradient4135"><stop id="stop4137" offset="0" stop-color="#f0f" stop-opacity=".667"/><stop id="stop4139" offset="1" stop-color="#f0f" stop-opacity="1"/></linearGradient></defs><metadata id="metadata3752"/><path clip-rule="nonzero" style="isolation:auto;mix-blend-mode:normal;solid-color:#000;solid-opacity:1;filter-blend-mode:normal;filter-gaussianBlur-deviation:0" id="path676" fill="url(#linearGradient4141)" fill-opacity="1" fill-rule="nonzero" stroke="none" stroke-dasharray="none" stroke-dashoffset="0" stroke-linecap="butt" stroke-linejoin="miter" stroke-miterlimit="4" stroke-opacity="1" stroke-width="1" d="m 132.00496,67.102 c -4.031,-4.102 -4.929,-10.348 -2.217,-15.42 1.935,-3.619 2.07,-7.934 0.365,-11.666 -1.705,-3.733 -5.054,-6.456 -9.056,-7.364 -5.609,-1.272 -9.742,-6.041 -10.202,-11.774 -0.329,-4.09 -2.548,-7.793 -6,-10.012 -3.452,-2.218 -7.742,-2.698 -11.599,-1.298 -5.406,1.962 -11.461,0.185 -14.948,-4.389 C 75.85996,1.915 71.99196,0 67.88796,0 c -4.103,0 -7.972,1.915 -10.46,5.179 -3.487,4.574 -9.541,6.351 -14.947,4.389 -3.858,-1.401 -8.148,-0.92 -11.599,1.298 -3.453,2.219 -5.672,5.921 -6,10.012 -0.461,5.733 -4.593,10.502 -10.203,11.774 -4.001,0.907 -7.351,3.631 -9.055,7.363 -1.705,3.733 -1.57,8.047 0.365,11.666 2.712,5.072 1.814,11.318 -2.217,15.421 -2.876,2.927 -4.222,7.028 -3.638,11.09 0.584,4.062 3.031,7.618 6.615,9.617 5.023,2.8 7.645,8.54 6.472,14.171 -0.837,4.017 0.249,8.195 2.936,11.296 2.687,3.101 6.667,4.771 10.763,4.514 5.74,-0.36 11.049,3.051 13.106,8.423 1.468,3.832 4.64,6.759 8.578,7.916 3.937,1.156 8.188,0.408 11.495,-2.023 4.634,-3.406 10.945,-3.406 15.579,0 3.306,2.431 7.558,3.179 11.495,2.023 3.937,-1.157 7.109,-4.084 8.577,-7.916 2.057,-5.372 7.366,-8.783 13.107,-8.423 4.095,0.257 8.075,-1.413 10.762,-4.514 2.688,-3.101 3.774,-7.279 2.937,-11.296 -1.174,-5.631 1.448,-11.371 6.471,-14.171 3.585,-1.998 6.031,-5.555 6.615,-9.617 0.584,-4.061 -0.761,-8.163 -3.637,-11.09 m -75.376,33.304 -28.867,-28.875 12.292,-12.293 16.575,16.58 38.266,-38.267 12.296,12.289 -50.562,50.566 z" color="#000" color-interpolation="sRGB" color-interpolation-filters="linearRGB" color-rendering="auto" display="inline" enable-background="accumulate" image-rendering="auto" opacity="1" overflow="visible" shape-rendering="auto" text-rendering="auto" visibility="visible"/></svg>