<svg xmlns="http://www.w3.org/2000/svg" xmlns:xlink="http://www.w3.org/1999/xlink" id="Ebene_1" width="1920" height="1200" x="0" y="0" enable-background="new 0 0 1920 1200" version="1.1" viewBox="0 0 1920 1200" xml:space="preserve"><metadata><sfw xmlns="http://ns.adobe.com/SaveForWeb/1.0/"><slices/><sliceSourceBounds width="1490.207" height="1354.31" x="546.598" y="-340.873" bottomLeftOrigin="true"/></sfw></metadata><switch><g><path fill="#C8C8C8" d="M1898.658,714h-412.879c-51.952,0-97.292,28.837-120.877,71.343c5.494-14.88,8.5-30.955,8.5-47.721 V324.731c0-76.186-61.972-138.168-138.146-138.168H822.377c-76.007,0-137.874,61.712-138.145,137.669 c-75.932,0.264-137.635,62.143-137.635,138.145v412.891c0,76.187,61.962,138.168,138.123,138.168h412.902 c51.956,0,97.298-28.841,120.882-71.353c-5.497,14.884-8.505,30.962-8.505,47.73v412.891c0,76.187,61.962,138.168,138.123,138.168 h412.901c76.006,0,137.873-61.713,138.145-137.669c75.938-0.271,137.636-62.139,137.636-138.146V852.168 C2036.805,775.981,1974.832,714,1898.658,714z M822.377,187.563h412.879c75.622,0,137.146,61.533,137.146,137.168v412.891 c0,75.466-61.269,136.891-136.669,137.146v-412.39c0-3.924-0.177-7.878-0.538-12.047l-0.022-1.453l-0.098,0.1 c-0.432-4.6-1.188-9.202-2.305-14.018c-8.807-45.405-37.966-72.29-60.877-86.848c-26.912-17.101-53.158-22.829-60.231-23.488 l-0.546-0.051v404.016c-7.947,18.66-27.061,35.499-53.834,47.425c-26.645,11.867-59.745,18.403-93.204,18.403 c-5.474,0-11.016-0.174-16.471-0.518c-92.174-5.875-136.01-39.053-138.563-69.286V324.231H685.232 C685.502,248.825,746.921,187.563,822.377,187.563z M1774.429,1342.431c-20.857,29.105-56.865,54.248-85.525,59.774 l-203.145,0.001c-81.187-4.172-135.034-58.02-137.183-137.17V852.668h122.87l0.002,399.424 c2.591,30.702,46.729,64.329,139.498,70.242c5.477,0.345,11.039,0.52,16.534,0.52c33.597,0,66.842-6.566,93.61-18.49 c27.051-12.049,46.366-29.11,54.388-48.041l0.04-0.094V853.11c20.938,2.26,103.845,27.878,119.676,109.494 c1.197,5.164,1.976,10.062,2.382,14.975l0.023,0.23c0.36,4.183,0.536,8.109,0.536,12.005v412.391h-122.801v-61.04 L1774.429,1342.431z M1347.635,851.669c-51.737,0.181-96.86,28.971-120.368,71.338c5.442-14.737,8.44-30.648,8.5-47.239 c51.737-0.185,96.855-28.967,120.364-71.326C1350.691,819.175,1347.694,835.082,1347.635,851.669z M1221.712,874.769h-18.725 l31.746-31.746v18.725L1221.712,874.769z M1234.733,863.161v11.607h-11.607L1234.733,863.161z M1201.573,874.769h-18.726 l51.886-51.886v18.726L1201.573,874.769z M1181.434,874.769h-18.725l72.024-72.024v18.725L1181.434,874.769z M1161.295,874.769 h-18.726l92.164-92.164v18.726L1161.295,874.769z M1141.155,874.769h-18.726l112.304-112.303v18.725L1141.155,874.769z M1121.016,874.769h-9.083v-9.642l122.801-122.801v18.726L1121.016,874.769z M1111.933,863.713v-18.725l122.801-122.801v18.725 L1111.933,863.713z M1111.933,843.574v-18.726l122.801-122.801v18.726L1111.933,843.574z M1111.933,823.435v-9.706l-0.906,1.266 c-15.028,20.971-37.92,39.881-60.261,50.883l183.968-183.968v18.725L1111.933,823.435z M1048.052,867.177 c-7.741,3.596-15.376,6.209-22.55,7.592h-3.769l213-213v18.727L1048.052,867.177z M1020.319,874.769h-18.726l233.14-233.139 v18.725L1020.319,874.769z M1000.18,874.769h-18.725l253.278-253.278v18.726L1000.18,874.769z M980.041,874.769h-18.725 l99.077-99.077c25.632-11.966,43.932-28.513,51.683-46.806l0.04-0.094v-4.823l122.617-122.617v18.725L980.041,874.769z M808.046,645.393v18.726L691.961,780.204c-1.491-4.843-2.747-9.834-3.76-14.967L808.046,645.393z M687.975,764.05 c-1.012-5.348-1.762-10.846-2.239-16.485l122.31-122.311v18.725L687.975,764.05z M808.046,665.532l0,18.726l-110.651,110.65 c-1.917-4.394-3.614-8.942-5.097-13.628L808.046,665.532z M808.046,685.672v18.725L704.163,808.28 c-2.309-3.983-4.42-8.117-6.329-12.396L808.046,685.672z M808.046,705.811v18.725l-95.893,95.893 c-2.676-3.599-5.172-7.349-7.475-11.25L808.046,705.811z M808.17,725.825c0.555,4.688,2.08,9.435,4.594,14.133l-91.439,91.438 c-3.029-3.23-5.885-6.621-8.562-10.163L808.17,725.825z M813.263,740.872c2.051,3.64,4.7,7.245,7.958,10.767l-89.581,89.581 c-3.375-2.868-6.592-5.899-9.634-9.092L813.263,740.872z M821.906,752.367c2.862,3.005,6.171,5.945,9.936,8.789l-88.743,88.743 c-3.722-2.508-7.287-5.188-10.689-8.035L821.906,752.367z M832.652,761.761c3.429,2.534,7.218,4.99,11.383,7.343l-88.317,88.317 c-4.077-2.138-8.007-4.454-11.776-6.95L832.652,761.761z M844.946,769.607c3.874,2.147,8.059,4.207,12.562,6.162l-87.97,87.971 c-4.446-1.753-8.742-3.703-12.888-5.838L844.946,769.607z M858.496,776.196c4.25,1.812,8.776,3.53,13.583,5.142l-87.443,87.443 c-4.839-1.343-9.537-2.891-14.081-4.644L858.496,776.196z M873.143,781.688c4.583,1.509,9.414,2.922,14.501,4.225l-86.532,86.532 c-5.267-0.895-10.393-2.016-15.368-3.357L873.143,781.688z M888.773,786.198c4.887,1.228,9.998,2.358,15.35,3.375l-84.998,84.998 c-5.745-0.392-11.345-1.04-16.799-1.927L888.773,786.198z M905.317,789.793c5.17,0.961,10.556,1.819,16.159,2.566l-82.41,82.41 h-16.708c-0.637-0.033-1.267-0.077-1.9-0.116L905.317,789.793z M922.721,792.527c5.441,0.705,11.089,1.303,16.938,1.789 l-80.453,80.453h-18.726L922.721,792.527z M940.969,794.42c2.167,0.174,4.353,0.336,6.576,0.478 c3.714,0.233,7.468,0.383,11.213,0.459l-79.413,79.413H860.62L940.969,794.42z M960.143,795.386 c1.314,0.02,2.627,0.031,3.936,0.031c5.091,0,10.171-0.169,15.225-0.467l-79.819,79.819h-18.725L960.143,795.386z M980.808,794.859c7.056-0.456,14.052-1.186,20.926-2.201l-82.111,82.111h-18.725L980.808,794.859z M1003.415,792.391 c8.067-1.248,15.959-2.875,23.587-4.861l-87.239,87.239l-18.726,0.001L1003.415,792.391z M1028.928,787.018 c10.152-2.741,19.823-6.109,28.761-10.091c0.034-0.016,0.067-0.031,0.103-0.047l-97.889,97.889h-18.725L1028.928,787.018z M1112.116,722.555v-18.726l122.617-122.617v18.725L1112.116,722.555z M1112.116,702.415V683.69l122.617-122.617v18.725 L1112.116,702.415z M1112.116,682.276v-18.726l122.617-122.618v18.726L1112.116,682.276z M1112.116,662.137v-18.725 l122.617-122.618v18.725L1112.116,662.137z M1112.116,641.998v-18.726l122.617-122.617v18.725L1112.116,641.998z M1112.116,621.858v-18.725l122.617-122.617v18.725L1112.116,621.858z M1112.116,601.72v-18.726l122.595-122.595 c0.01,0.66,0.022,1.321,0.022,1.979v16.725L1112.116,601.72z M1125.106,328.333c4.207,1.142,8.978,2.657,14.126,4.599 l-27.116,27.116v-18.725L1125.106,328.333z M1112.116,339.909v-14.235c2.89,0.312,6.964,1.072,11.876,2.359L1112.116,339.909z M1140.255,333.323c4.162,1.601,8.552,3.476,13.073,5.652l-41.212,41.211v-18.725L1140.255,333.323z M1154.279,339.438 c3.986,1.948,8.063,4.127,12.167,6.56l-54.33,54.33v-18.726L1154.279,339.438z M1167.33,346.526 c3.766,2.263,7.547,4.732,11.293,7.433l-66.507,66.507v-18.725L1167.33,346.526z M1179.438,354.558 c3.519,2.571,7.001,5.339,10.403,8.321l-77.726,77.725V421.88L1179.438,354.558z M1190.593,363.542 c3.247,2.886,6.415,5.97,9.471,9.255l-87.947,87.947v-18.725L1190.593,363.542z M1200.744,373.53 c2.95,3.219,5.791,6.627,8.482,10.242l-97.11,97.11v-18.725L1200.744,373.53z M1209.824,384.589 c2.621,3.578,5.096,7.354,7.395,11.331l-105.103,105.103v-18.726L1209.824,384.589z M1217.733,396.819 c2.253,3.974,4.327,8.148,6.193,12.533l-111.811,111.81v-18.725L1217.733,396.819z M1224.353,410.339 c1.835,4.417,3.455,9.047,4.832,13.894l-117.068,117.068v-18.725L1224.353,410.339z M1229.485,425.346 c0.874,3.183,1.652,6.45,2.307,9.822c0.432,1.86,0.79,3.679,1.114,5.483l-120.79,120.79v-18.726L1229.485,425.346z M1233.12,441.851c0.47,2.791,0.827,5.542,1.055,8.292l0.022,0.231c0.257,2.983,0.416,5.833,0.488,8.637L1112.116,581.58v-18.725 L1233.12,441.851z M685.175,325.231h18.694l-18.694,18.694V325.231z M685.175,345.339l20.108-20.108h18.726l-38.833,38.833 V345.339z M685.175,365.479l40.248-40.248h18.725l-58.972,58.972V365.479z M685.175,385.618l60.386-60.386h18.726l-79.112,79.112 V385.618z M685.175,405.757l80.526-80.526h18.726l-99.251,99.251V405.757z M685.175,425.897L785.84,325.231h18.725 l-119.391,119.39V425.897z M685.175,446.036l120.805-120.804h2.065v16.66l-122.87,122.87V446.036z M685.175,466.175l122.87-122.87 v18.725L685.175,484.9V466.175z M685.175,486.314l122.87-122.87l0,18.726l-122.87,122.871V486.314z M685.175,506.455 l122.87-122.871v18.726l-122.87,122.87V506.455z M685.175,526.594l122.87-122.87v18.725l-122.87,122.87V526.594z M685.175,546.732 l122.87-122.87v18.725l-122.87,122.87V546.732z M685.175,566.872l122.87-122.87v18.725l-122.87,122.871V566.872z M685.175,587.011 l122.87-122.871l0,18.725L685.175,605.736V587.011z M685.175,607.15L808.045,484.28v18.725L685.175,625.875V607.15z M685.175,627.289l122.871-122.871v18.725L685.175,646.015V627.289z M685.175,647.429l122.871-122.871v18.726L685.175,666.154 V647.429z M685.175,667.568l122.871-122.871v18.725L685.175,686.293V667.568z M685.175,687.707l122.871-122.871l0,18.725 L685.175,706.432V687.707z M685.175,707.846l122.871-122.871V603.7L685.175,726.571V707.846z M685.175,727.985l122.871-122.871 v18.726L685.631,746.255c-0.219-2.852-0.377-5.734-0.457-8.655V727.985z M1097.623,1012.437H684.721 c-75.61,0-137.123-61.533-137.123-137.168V462.377c0-75.434,61.221-136.853,136.577-137.145v412.381 c2.164,79.726,56.383,133.954,138.157,138.155l203.265-0.009c28.567-5.499,64.218-30.171,85.336-58.934v58.942h123.834 C1234.497,951.175,1173.079,1012.437,1097.623,1012.437z M1761.024,1539.873h-412.901c-75.61,0-137.123-61.533-137.123-137.168 V989.814c0-75.434,61.22-136.853,136.576-137.146v412.381c2.164,79.726,56.384,133.954,138.157,138.155l203.265-0.009 c28.569-5.5,64.22-30.171,85.337-58.934v58.942h123.834C1897.899,1478.611,1836.48,1539.873,1761.024,1539.873z M2035.805,1265.059c0,75.466-61.269,136.891-136.669,137.146v-412.39c0-3.924-0.177-7.879-0.538-12.048l-0.023-1.436 l-0.096,0.096c-0.431-4.604-1.188-9.21-2.306-14.031c-8.808-45.404-37.967-72.289-60.877-86.848 c-26.913-17.102-53.159-22.83-60.231-23.488l-0.546-0.051v404.017c-7.947,18.66-27.061,35.499-53.834,47.425 c-26.645,11.867-59.745,18.403-93.204,18.403c-5.475,0-11.016-0.174-16.471-0.518c-92.175-5.875-136.011-39.053-138.563-69.286 V851.668h-123.812c0.27-75.406,61.688-136.668,137.145-136.668h412.879c75.623,0,137.146,61.533,137.146,137.168V1265.059z"/></g></switch></svg>